<?xml version="1.0" encoding="UTF-8" standalone="no"?><!-- Generator: Gravit.io --><svg xmlns="http://www.w3.org/2000/svg" xmlns:xlink="http://www.w3.org/1999/xlink" style="isolation:isolate" viewBox="0 0 128 128" width="128pt" height="128pt"><defs><clipPath id="_clipPath_Fq7xOvtxdsAgyLKBr7oXsMh3IGTQFv9o"><rect width="128" height="128"/></clipPath></defs><g clip-path="url(#_clipPath_Fq7xOvtxdsAgyLKBr7oXsMh3IGTQFv9o)"><defs><filter id="Ldv3LiM1MgFBfydAkBZ8LJ197NKrucOv" x="-200%" y="-200%" width="400%" height="400%" filterUnits="objectBoundingBox" color-interpolation-filters="sRGB"><feGaussianBlur xmlns="http://www.w3.org/2000/svg" in="SourceGraphic" stdDeviation="0"/><feOffset xmlns="http://www.w3.org/2000/svg" dx="2" dy="2" result="pf_100_offsetBlur"/><feFlood xmlns="http://www.w3.org/2000/svg" flood-color="#341C53" flood-opacity="0.8"/><feComposite xmlns="http://www.w3.org/2000/svg" in2="pf_100_offsetBlur" operator="in" result="pf_100_dropShadow"/><feBlend xmlns="http://www.w3.org/2000/svg" in="SourceGraphic" in2="pf_100_dropShadow" mode="normal"/></filter></defs><g filter="url(#Ldv3LiM1MgFBfydAkBZ8LJ197NKrucOv)"><path d=" M 25.632 96.483 C 15.63 96.483 7.51 88.363 7.51 78.361 C 7.51 68.359 15.63 60.239 25.632 60.239 C 25.718 60.239 25.803 60.24 25.888 60.243 C 25.707 58.853 25.632 57.431 25.632 55.992 C 25.632 33.644 43.776 15.5 66.124 15.5 C 83.641 15.5 98.575 26.648 104.221 42.226 C 113.356 43.142 120.49 50.864 120.49 60.239 C 120.49 70.241 112.37 78.361 102.368 78.361 L 102.368 78.361 L 102.368 78.361 C 101.547 78.361 101.379 78.361 102.368 78.361 L 102.368 78.361 C 107.369 78.361 111.429 82.421 111.429 87.422 C 111.429 92.423 107.369 96.483 102.368 96.483 L 102.368 96.483 Q 26.151 96.483 25.632 96.483 Z " fill="rgb(242,182,193)" vector-effect="non-scaling-stroke" stroke-width="1" stroke="rgb(193,74,94)" stroke-linejoin="miter" stroke-linecap="square" stroke-miterlimit="3"/></g></g></svg>