<?xml version="1.0" encoding="UTF-8" standalone="no"?><!-- Generator: Gravit.io --><svg xmlns="http://www.w3.org/2000/svg" xmlns:xlink="http://www.w3.org/1999/xlink" style="isolation:isolate" viewBox="0 0 128 128" width="128pt" height="128pt"><defs><clipPath id="_clipPath_cW13CgL6EWteETzE59BLIj4w6CNORKCd"><rect width="128" height="128"/></clipPath></defs><g clip-path="url(#_clipPath_cW13CgL6EWteETzE59BLIj4w6CNORKCd)"><defs><filter id="uA3I4Cgo13HdfpoOfqJqfHSO6EsBL7Pa" x="-200%" y="-200%" width="400%" height="400%" filterUnits="objectBoundingBox" color-interpolation-filters="sRGB"><feGaussianBlur xmlns="http://www.w3.org/2000/svg" in="SourceGraphic" stdDeviation="0"/><feOffset xmlns="http://www.w3.org/2000/svg" dx="2" dy="2" result="pf_100_offsetBlur"/><feFlood xmlns="http://www.w3.org/2000/svg" flood-color="#341C53" flood-opacity="0.8"/><feComposite xmlns="http://www.w3.org/2000/svg" in2="pf_100_offsetBlur" operator="in" result="pf_100_dropShadow"/><feBlend xmlns="http://www.w3.org/2000/svg" in="SourceGraphic" in2="pf_100_dropShadow" mode="normal"/></filter></defs><g filter="url(#uA3I4Cgo13HdfpoOfqJqfHSO6EsBL7Pa)"><path d=" M 25.632 109.167 C 15.63 109.167 7.51 101.046 7.51 91.045 C 7.51 81.043 15.63 72.922 25.632 72.922 C 25.718 72.922 25.803 72.923 25.888 72.927 C 25.707 71.536 25.632 70.114 25.632 68.675 C 25.632 46.327 43.776 28.183 66.124 28.183 C 83.641 28.183 98.575 39.331 104.221 54.909 C 113.356 55.826 120.49 63.547 120.49 72.922 C 120.49 82.924 112.37 91.045 102.368 91.045 L 102.368 91.045 L 102.368 91.045 C 101.547 91.045 101.379 91.045 102.368 91.045 L 102.368 91.045 C 107.369 91.045 111.429 95.105 111.429 100.106 C 111.429 105.107 107.369 109.167 102.368 109.167 L 102.368 109.167 Q 26.151 109.167 25.632 109.167 Z " fill="rgb(193,74,94)" vector-effect="non-scaling-stroke" stroke-width="1" stroke="rgb(136,45,60)" stroke-linejoin="miter" stroke-linecap="square" stroke-miterlimit="3"/></g><g filter="url(#T31FfSBZMm9nvHBoGqNtKyR4WP5gD6LY)"><circle vector-effect="non-scaling-stroke" cx="44.33333333333333" cy="48.74999999999998" r="33.25" fill="rgb(193,74,94)" stroke-width="1" stroke="rgb(136,45,60)" stroke-linejoin="miter" stroke-linecap="square" stroke-miterlimit="3"/><circle vector-effect="non-scaling-stroke" cx="32.31073446327673" cy="30.716101694915174" r="6.011299435028249" fill="rgb(136,45,60)"/><path d=" M 15.89 65.242 C 21.571 75.014 32.282 81.529 44.39 81.529 L 44.39 81.529 L 44.39 81.529 C 62.489 81.529 77.183 66.835 77.183 48.736 C 77.183 36.628 70.608 26.045 60.836 20.364 C 63.648 25.2 65.258 30.819 65.258 36.811 C 65.258 54.91 50.564 69.604 32.465 69.604 C 26.473 69.604 20.726 68.054 15.89 65.242 Z " fill="rgb(242,182,193)"/><circle vector-effect="non-scaling-stroke" cx="38.04025423728801" cy="60.49081920903943" r="11.740819209039541" fill="rgb(136,45,60)"/><circle vector-effect="non-scaling-stroke" cx="56.35593220338979" cy="36.72740112994344" r="4.50847457627119" fill="rgb(136,45,60)"/><circle vector-effect="non-scaling-stroke" cx="69.8813559322032" cy="52.507062146892565" r="2.817796610169495" fill="rgb(193,74,94)"/><circle vector-effect="non-scaling-stroke" cx="55.04096045197735" cy="73.35875706214685" r="2.817796610169495" fill="rgb(193,74,94)"/></g><defs><filter id="T31FfSBZMm9nvHBoGqNtKyR4WP5gD6LY" x="-200%" y="-200%" width="400%" height="400%" filterUnits="objectBoundingBox" color-interpolation-filters="sRGB"><feGaussianBlur xmlns="http://www.w3.org/2000/svg" in="SourceGraphic" stdDeviation="0"/><feOffset xmlns="http://www.w3.org/2000/svg" dx="1" dy="1" result="pf_100_offsetBlur"/><feFlood xmlns="http://www.w3.org/2000/svg" flood-color="#341C53" flood-opacity="0.8"/><feComposite xmlns="http://www.w3.org/2000/svg" in2="pf_100_offsetBlur" operator="in" result="pf_100_dropShadow"/><feBlend xmlns="http://www.w3.org/2000/svg" in="SourceGraphic" in2="pf_100_dropShadow" mode="normal"/></filter></defs></g></svg>