<?xml version="1.0" encoding="UTF-8" standalone="no"?><!-- Generator: Gravit.io --><svg xmlns="http://www.w3.org/2000/svg" xmlns:xlink="http://www.w3.org/1999/xlink" style="isolation:isolate" viewBox="0 0 64 64" width="64pt" height="64pt"><defs><clipPath id="_clipPath_DT646S4Hh4VEGI5IOqed9AnMbd55MgBD"><rect width="64" height="64"/></clipPath></defs><g clip-path="url(#_clipPath_DT646S4Hh4VEGI5IOqed9AnMbd55MgBD)"><g><defs><filter id="T0XbFLlcsmovvC4BqQRRcNfCh9FnrsT9" x="-200%" y="-200%" width="400%" height="400%" filterUnits="objectBoundingBox" color-interpolation-filters="sRGB"><feGaussianBlur xmlns="http://www.w3.org/2000/svg" in="SourceGraphic" stdDeviation="0"/><feOffset xmlns="http://www.w3.org/2000/svg" dx="2" dy="2" result="pf_100_offsetBlur"/><feFlood xmlns="http://www.w3.org/2000/svg" flood-color="#1B282A" flood-opacity="0.65"/><feComposite xmlns="http://www.w3.org/2000/svg" in2="pf_100_offsetBlur" operator="in" result="pf_100_dropShadow"/><feBlend xmlns="http://www.w3.org/2000/svg" in="SourceGraphic" in2="pf_100_dropShadow" mode="normal"/></filter></defs><g filter="url(#T0XbFLlcsmovvC4BqQRRcNfCh9FnrsT9)"><radialGradient id="_rgradient_0" fx="0.5" fy="0.5" cx="0.5" cy="0.5" r="0.5" gradientTransform="matrix(61.928,0,0,61.703,0.35,0.377)" gradientUnits="userSpaceOnUse"><stop offset="51.30434782608696%" stop-opacity="1" style="stop-color:rgb(223,183,198)"/><stop offset="70.43478260869566%" stop-opacity="1" style="stop-color:rgb(221,184,199)"/><stop offset="100%" stop-opacity="1" style="stop-color:rgb(156,206,217)"/></radialGradient><path d=" M 48.155 55.814 L 46.245 55.986 C 44.576 56.137 42.29 57.25 41.142 58.471 L 39.829 59.868 C 38.681 61.088 36.493 61.558 34.945 60.916 L 33.174 60.181 C 31.627 59.538 29.085 59.462 27.501 60.009 L 25.689 60.636 C 24.106 61.183 21.95 60.582 20.878 59.294 L 19.652 57.821 C 18.58 56.533 16.365 55.283 14.708 55.032 L 12.812 54.745 C 11.156 54.494 9.526 52.96 9.176 51.321 L 8.774 49.446 C 8.424 47.808 7.043 45.672 5.693 44.68 L 4.148 43.544 C 2.798 42.552 2.068 40.437 2.519 38.823 L 3.035 36.976 C 3.486 35.363 3.256 32.83 2.522 31.324 L 1.681 29.601 C 0.947 28.095 1.284 25.882 2.433 24.663 L 3.748 23.268 C 4.897 22.048 5.871 19.699 5.92 18.024 L 5.977 16.107 C 6.026 14.433 7.353 12.63 8.937 12.085 L 10.75 11.46 C 12.334 10.915 14.288 9.287 15.11 7.827 L 16.051 6.156 C 16.873 4.696 18.886 3.717 20.542 3.97 L 22.437 4.26 C 24.094 4.513 26.58 3.979 27.987 3.069 L 29.596 2.027 C 31.003 1.116 33.24 1.184 34.589 2.178 L 36.132 3.315 C 37.481 4.309 39.931 4.992 41.599 4.839 L 43.509 4.665 C 45.177 4.512 47.127 5.612 47.859 7.119 L 48.697 8.843 C 49.43 10.35 51.281 12.093 52.83 12.733 L 54.602 13.466 C 56.15 14.106 57.365 15.986 57.313 17.661 L 57.254 19.577 C 57.202 21.252 58.032 23.656 59.105 24.942 L 60.334 26.415 C 61.407 27.701 61.61 29.93 60.786 31.389 L 59.843 33.058 C 59.018 34.517 58.636 37.031 58.988 38.669 L 59.392 40.544 C 59.745 42.182 58.888 44.249 57.48 45.158 L 55.869 46.198 C 54.462 47.107 52.954 49.155 52.506 50.769 L 51.992 52.617 C 51.543 54.231 49.824 55.664 48.155 55.814 Z " fill="url(#_rgradient_0)"/></g></g><g filter="url(#D6Bn6FXnaorHt5ZiwDFLXqDkNFLEYJWB)"><linearGradient id="_lgradient_0" x1="0.1576673450972966" y1="0.13770959949527706" x2="0.94261191744996" y2="0.8931966905951731" gradientTransform="matrix(36.149,0,0,36.4,7.05,20.112)" gradientUnits="userSpaceOnUse"><stop offset="0%" stop-opacity="1" style="stop-color:rgb(163,166,83)"/><stop offset="100%" stop-opacity="1" style="stop-color:rgb(125,128,55)"/></linearGradient><path d=" M 8.14 34.582 C 5.418 26.52 7.95 20.426 14.012 20.114 C 17.606 20.051 19.232 22.221 19.628 24.966 C 20.443 30.717 24.577 32.489 31.2 32.489 C 37.823 32.489 43.2 37.866 43.2 44.489 C 43.2 51.112 39.121 55.911 31.2 56.489 C 23.278 57.067 11.418 47.145 8.14 34.582 Z " fill="url(#_lgradient_0)" vector-effect="non-scaling-stroke" stroke-width="1" stroke="rgb(32,38,23)" stroke-linejoin="miter" stroke-linecap="square" stroke-miterlimit="3"/><linearGradient id="_lgradient_1" x1="0.689161704273007" y1="0.7600976963043206" x2="0.07363257218402963" y2="-0.018932627380406686" gradientTransform="matrix(-8.687,9.051,-10.344,-9.928,38.048,43.98)" gradientUnits="userSpaceOnUse"><stop offset="0%" stop-opacity="1" style="stop-color:rgb(147,91,58)"/><stop offset="98.26086956521739%" stop-opacity="1" style="stop-color:rgb(79,37,25)"/></linearGradient><path d=" M 34.249 40.334 C 36.68 42.668 36.652 45.434 34.169 48.021 C 31.686 50.608 28.154 51.874 25.724 49.541 C 23.293 47.208 20.877 41.164 23.36 38.577 C 25.843 35.99 31.818 38.001 34.249 40.334 Z " fill="url(#_lgradient_1)"/><path d=" M 9.899 27.299 L 17.792 26.429 C 18.153 26.389 18.478 26.65 18.518 27.011 L 18.518 27.011 C 18.558 27.372 18.382 27.875 18.126 28.133 C 15.628 30.648 12.575 30.998 9.921 29.067 C 9.627 28.853 9.356 28.386 9.316 28.025 L 9.316 28.025 C 9.276 27.664 9.537 27.339 9.899 27.299 Z " fill="rgb(32,38,23)"/><path d=" M 9.724 24.637 C 9.68 24.24 9.967 23.882 10.364 23.838 C 10.762 23.795 11.12 24.082 11.164 24.479 C 11.207 24.876 10.92 25.234 10.523 25.278 C 10.126 25.322 9.768 25.035 9.724 24.637 Z " fill="rgb(32,38,23)"/><path d=" M 15.483 23.9 C 15.439 23.503 15.726 23.145 16.123 23.101 C 16.521 23.057 16.879 23.344 16.923 23.742 C 16.966 24.139 16.679 24.497 16.282 24.541 C 15.885 24.585 15.527 24.298 15.483 23.9 Z " fill="rgb(32,38,23)"/></g><defs><filter id="D6Bn6FXnaorHt5ZiwDFLXqDkNFLEYJWB" x="-200%" y="-200%" width="400%" height="400%" filterUnits="objectBoundingBox" color-interpolation-filters="sRGB"><feGaussianBlur xmlns="http://www.w3.org/2000/svg" in="SourceGraphic" stdDeviation="0.42936090628390283"/><feOffset xmlns="http://www.w3.org/2000/svg" dx="1" dy="1" result="pf_100_offsetBlur"/><feFlood xmlns="http://www.w3.org/2000/svg" flood-color="#36345B" flood-opacity="0.8"/><feComposite xmlns="http://www.w3.org/2000/svg" in2="pf_100_offsetBlur" operator="in" result="pf_100_dropShadow"/><feBlend xmlns="http://www.w3.org/2000/svg" in="SourceGraphic" in2="pf_100_dropShadow" mode="normal"/></filter></defs><g filter="url(#rKB7WcirRH4LZcOjOgBwj2hIecdmA5SV)"><linearGradient id="_lgradient_2" x1="0.11375016800570203" y1="0.24635420991324464" x2="0.8547492149169541" y2="0.8332070471113069" gradientTransform="matrix(-36.148,-0.272,0.274,-36.399,56.544,43.311)" gradientUnits="userSpaceOnUse"><stop offset="0%" stop-opacity="1" style="stop-color:rgb(163,166,83)"/><stop offset="100%" stop-opacity="1" style="stop-color:rgb(125,128,55)"/></linearGradient><path d=" M 55.563 28.833 C 58.225 36.915 55.648 42.99 49.583 43.257 C 45.989 43.292 44.379 41.111 44.004 38.362 C 43.232 32.606 39.112 30.803 32.489 30.753 C 25.866 30.703 20.53 25.286 20.58 18.663 C 20.63 12.04 24.744 7.272 32.67 6.754 C 40.596 6.235 52.38 16.246 55.563 28.833 Z " fill="url(#_lgradient_2)" vector-effect="non-scaling-stroke" stroke-width="1" stroke="rgb(32,38,23)" stroke-linejoin="miter" stroke-linecap="square" stroke-miterlimit="3"/><linearGradient id="_lgradient_3" x1="0.4887220500647603" y1="0.7114366045699871" x2="0.5001996097333663" y2="-0.01259179831097379" gradientTransform="matrix(8.755,-8.986,10.269,10.006,25.728,19.21)" gradientUnits="userSpaceOnUse"><stop offset="0%" stop-opacity="1" style="stop-color:rgb(147,91,58)"/><stop offset="96.72631694228451%" stop-opacity="1" style="stop-color:rgb(82,40,27)"/><stop offset="98.26086956521739%" stop-opacity="1" style="stop-color:rgb(79,37,25)"/></linearGradient><path d=" M 29.498 22.884 C 27.085 20.533 27.134 17.767 29.636 15.199 C 32.139 12.631 35.68 11.391 38.093 13.742 C 40.506 16.094 42.877 22.155 40.375 24.724 C 37.872 27.292 31.912 25.236 29.498 22.884 Z " fill="url(#_lgradient_3)"/><path d=" M 52.574 35.61 C 50.883 34.219 48.492 34.195 47.005 35.809 C 46.734 36.102 46.464 36.16 46.401 35.936 L 46.401 35.936 C 46.339 35.713 46.528 35.312 46.823 35.042 C 48.258 33.727 50.789 33.492 52.402 34.682 C 52.723 34.919 53.018 35.326 53.059 35.591 L 53.059 35.591 C 53.1 35.856 52.882 35.864 52.574 35.61 Z " fill="rgb(32,38,23)"/><path d=" M 53.905 38.765 C 53.946 39.163 53.656 39.519 53.259 39.56 C 52.861 39.601 52.505 39.311 52.464 38.913 C 52.424 38.516 52.713 38.16 53.111 38.119 C 53.508 38.078 53.864 38.368 53.905 38.765 Z " fill="rgb(32,38,23)"/><path d=" M 48.141 39.459 C 48.182 39.857 47.892 40.213 47.494 40.254 C 47.097 40.294 46.741 40.005 46.7 39.607 C 46.659 39.209 46.949 38.853 47.346 38.813 C 47.744 38.772 48.1 39.062 48.141 39.459 Z " fill="rgb(32,38,23)"/></g><defs><filter id="rKB7WcirRH4LZcOjOgBwj2hIecdmA5SV" x="-200%" y="-200%" width="400%" height="400%" filterUnits="objectBoundingBox" color-interpolation-filters="sRGB"><feGaussianBlur xmlns="http://www.w3.org/2000/svg" in="SourceGraphic" stdDeviation="0.42936090628390283"/><feOffset xmlns="http://www.w3.org/2000/svg" dx="1" dy="1" result="pf_100_offsetBlur"/><feFlood xmlns="http://www.w3.org/2000/svg" flood-color="#36345B" flood-opacity="0.8"/><feComposite xmlns="http://www.w3.org/2000/svg" in2="pf_100_offsetBlur" operator="in" result="pf_100_dropShadow"/><feBlend xmlns="http://www.w3.org/2000/svg" in="SourceGraphic" in2="pf_100_dropShadow" mode="normal"/></filter></defs></g></svg>