<?xml version="1.0" encoding="UTF-8" standalone="no"?><!-- Generator: Gravit.io --><svg xmlns="http://www.w3.org/2000/svg" xmlns:xlink="http://www.w3.org/1999/xlink" style="isolation:isolate" viewBox="0 0 128 128" width="128pt" height="128pt"><defs><clipPath id="_clipPath_dCc6F5WXs7ayIl8SmufPDyUyurwlpm85"><rect width="128" height="128"/></clipPath></defs><g clip-path="url(#_clipPath_dCc6F5WXs7ayIl8SmufPDyUyurwlpm85)"><defs><filter id="qpyNF9tFDB0dAsBdSIKisgk13qsjJ9MN" x="-200%" y="-200%" width="400%" height="400%" filterUnits="objectBoundingBox" color-interpolation-filters="sRGB"><feGaussianBlur xmlns="http://www.w3.org/2000/svg" in="SourceGraphic" stdDeviation="0"/><feOffset xmlns="http://www.w3.org/2000/svg" dx="2" dy="2" result="pf_100_offsetBlur"/><feFlood xmlns="http://www.w3.org/2000/svg" flood-color="#341C53" flood-opacity="0.8"/><feComposite xmlns="http://www.w3.org/2000/svg" in2="pf_100_offsetBlur" operator="in" result="pf_100_dropShadow"/><feBlend xmlns="http://www.w3.org/2000/svg" in="SourceGraphic" in2="pf_100_dropShadow" mode="normal"/></filter></defs><g filter="url(#qpyNF9tFDB0dAsBdSIKisgk13qsjJ9MN)"><path d=" M 25.257 101.167 C 15.255 101.167 7.135 93.046 7.135 83.045 C 7.135 73.043 15.255 64.922 25.257 64.922 C 25.343 64.922 25.428 64.923 25.513 64.927 C 25.332 63.536 25.257 62.114 25.257 60.675 C 25.257 38.327 43.401 20.183 65.749 20.183 C 83.266 20.183 98.2 31.331 103.846 46.909 C 112.981 47.826 120.115 55.547 120.115 64.922 C 120.115 74.924 111.995 83.045 101.993 83.045 L 101.993 83.045 L 101.993 83.045 C 101.172 83.045 101.004 83.045 101.993 83.045 L 101.993 83.045 C 106.994 83.045 111.054 87.105 111.054 92.106 C 111.054 97.107 106.994 101.167 101.993 101.167 L 101.993 101.167 Q 25.776 101.167 25.257 101.167 Z " fill="rgb(193,74,94)" vector-effect="non-scaling-stroke" stroke-width="1" stroke="rgb(136,45,60)" stroke-linejoin="miter" stroke-linecap="square" stroke-miterlimit="3"/></g><g filter="url(#7kZDtVXXiT8E7rmyIXmvymKbXUzyUUHC)"><circle vector-effect="non-scaling-stroke" cx="43.95833333333334" cy="40.74999999999998" r="33.25" fill="rgb(193,74,94)" stroke-width="1" stroke="rgb(136,45,60)" stroke-linejoin="miter" stroke-linecap="square" stroke-miterlimit="3"/><circle vector-effect="non-scaling-stroke" cx="31.935734463276724" cy="22.716101694915167" r="6.011299435028247" fill="rgb(136,45,60)"/><path d=" M 15.515 57.242 C 21.196 67.014 31.907 73.529 44.015 73.529 L 44.015 73.529 L 44.015 73.529 C 62.114 73.529 76.808 58.835 76.808 40.736 C 76.808 28.628 70.233 18.045 60.461 12.364 C 63.273 17.2 64.883 22.819 64.883 28.811 C 64.883 46.91 50.189 61.604 32.09 61.604 C 26.098 61.604 20.351 60.054 15.515 57.242 Z " fill="rgb(242,182,193)"/><circle vector-effect="non-scaling-stroke" cx="37.665254237288" cy="52.490819209039415" r="11.740819209039538" fill="rgb(136,45,60)"/><circle vector-effect="non-scaling-stroke" cx="55.98093220338979" cy="28.72740112994345" r="4.50847457627119" fill="rgb(136,45,60)"/><circle vector-effect="non-scaling-stroke" cx="69.5063559322032" cy="44.507062146892565" r="2.817796610169495" fill="rgb(193,74,94)"/><circle vector-effect="non-scaling-stroke" cx="54.66596045197735" cy="65.35875706214685" r="2.817796610169495" fill="rgb(193,74,94)"/></g><defs><filter id="7kZDtVXXiT8E7rmyIXmvymKbXUzyUUHC" x="-200%" y="-200%" width="400%" height="400%" filterUnits="objectBoundingBox" color-interpolation-filters="sRGB"><feGaussianBlur xmlns="http://www.w3.org/2000/svg" in="SourceGraphic" stdDeviation="0"/><feOffset xmlns="http://www.w3.org/2000/svg" dx="1" dy="1" result="pf_100_offsetBlur"/><feFlood xmlns="http://www.w3.org/2000/svg" flood-color="#341C53" flood-opacity="0.8"/><feComposite xmlns="http://www.w3.org/2000/svg" in2="pf_100_offsetBlur" operator="in" result="pf_100_dropShadow"/><feBlend xmlns="http://www.w3.org/2000/svg" in="SourceGraphic" in2="pf_100_dropShadow" mode="normal"/></filter></defs><defs><filter id="oKRHqowKtWb5ILcMIKNoHZVWsO5vVVlR" x="-200%" y="-200%" width="400%" height="400%" filterUnits="objectBoundingBox" color-interpolation-filters="sRGB"><feGaussianBlur xmlns="http://www.w3.org/2000/svg" in="SourceGraphic" stdDeviation="0"/><feOffset xmlns="http://www.w3.org/2000/svg" dx="1" dy="1" result="pf_100_offsetBlur"/><feFlood xmlns="http://www.w3.org/2000/svg" flood-color="#341C53" flood-opacity="0.65"/><feComposite xmlns="http://www.w3.org/2000/svg" in2="pf_100_offsetBlur" operator="in" result="pf_100_dropShadow"/><feBlend xmlns="http://www.w3.org/2000/svg" in="SourceGraphic" in2="pf_100_dropShadow" mode="normal"/></filter></defs><g filter="url(#oKRHqowKtWb5ILcMIKNoHZVWsO5vVVlR)"><path d="M 37.125 105.4 L 37.125 105.4 C 37.677 105.4 38.125 105.848 38.125 106.4 L 38.125 114.6 C 38.125 115.152 37.677 115.6 37.125 115.6 L 37.125 115.6 C 36.573 115.6 36.125 115.152 36.125 114.6 L 36.125 106.4 C 36.125 105.848 36.573 105.4 37.125 105.4 Z" style="stroke:none;fill:#C14A5E;stroke-miterlimit:10;"/></g><defs><filter id="pytwCgZxp6C0CH9e3nLoOWC0IU2H4G31" x="-200%" y="-200%" width="400%" height="400%" filterUnits="objectBoundingBox" color-interpolation-filters="sRGB"><feGaussianBlur xmlns="http://www.w3.org/2000/svg" in="SourceGraphic" stdDeviation="0"/><feOffset xmlns="http://www.w3.org/2000/svg" dx="1" dy="1" result="pf_100_offsetBlur"/><feFlood xmlns="http://www.w3.org/2000/svg" flood-color="#341C53" flood-opacity="0.65"/><feComposite xmlns="http://www.w3.org/2000/svg" in2="pf_100_offsetBlur" operator="in" result="pf_100_dropShadow"/><feBlend xmlns="http://www.w3.org/2000/svg" in="SourceGraphic" in2="pf_100_dropShadow" mode="normal"/></filter></defs><g filter="url(#pytwCgZxp6C0CH9e3nLoOWC0IU2H4G31)"><path d="M 28.125 110.6 L 28.125 110.6 C 28.677 110.6 29.125 111.048 29.125 111.6 L 29.125 119.8 C 29.125 120.352 28.677 120.8 28.125 120.8 L 28.125 120.8 C 27.573 120.8 27.125 120.352 27.125 119.8 L 27.125 111.6 C 27.125 111.048 27.573 110.6 28.125 110.6 Z" style="stroke:none;fill:#C14A5E;stroke-miterlimit:10;"/></g><defs><filter id="GolQOfqzQnXZwzkZuMZu5XebvHJQAV5s" x="-200%" y="-200%" width="400%" height="400%" filterUnits="objectBoundingBox" color-interpolation-filters="sRGB"><feGaussianBlur xmlns="http://www.w3.org/2000/svg" in="SourceGraphic" stdDeviation="0"/><feOffset xmlns="http://www.w3.org/2000/svg" dx="1" dy="1" result="pf_100_offsetBlur"/><feFlood xmlns="http://www.w3.org/2000/svg" flood-color="#341C53" flood-opacity="0.65"/><feComposite xmlns="http://www.w3.org/2000/svg" in2="pf_100_offsetBlur" operator="in" result="pf_100_dropShadow"/><feBlend xmlns="http://www.w3.org/2000/svg" in="SourceGraphic" in2="pf_100_dropShadow" mode="normal"/></filter></defs><g filter="url(#GolQOfqzQnXZwzkZuMZu5XebvHJQAV5s)"><path d="M 58.125 110.6 L 58.125 110.6 C 58.677 110.6 59.125 111.048 59.125 111.6 L 59.125 119.8 C 59.125 120.352 58.677 120.8 58.125 120.8 L 58.125 120.8 C 57.573 120.8 57.125 120.352 57.125 119.8 L 57.125 111.6 C 57.125 111.048 57.573 110.6 58.125 110.6 Z" style="stroke:none;fill:#C14A5E;stroke-miterlimit:10;"/></g><defs><filter id="iFrOZ4pZAJ6j3mTIqSV1EznyteRf8fFE" x="-200%" y="-200%" width="400%" height="400%" filterUnits="objectBoundingBox" color-interpolation-filters="sRGB"><feGaussianBlur xmlns="http://www.w3.org/2000/svg" in="SourceGraphic" stdDeviation="0"/><feOffset xmlns="http://www.w3.org/2000/svg" dx="1" dy="1" result="pf_100_offsetBlur"/><feFlood xmlns="http://www.w3.org/2000/svg" flood-color="#341C53" flood-opacity="0.65"/><feComposite xmlns="http://www.w3.org/2000/svg" in2="pf_100_offsetBlur" operator="in" result="pf_100_dropShadow"/><feBlend xmlns="http://www.w3.org/2000/svg" in="SourceGraphic" in2="pf_100_dropShadow" mode="normal"/></filter></defs><g filter="url(#iFrOZ4pZAJ6j3mTIqSV1EznyteRf8fFE)"><path d="M 78.125 110.6 L 78.125 110.6 C 78.677 110.6 79.125 111.048 79.125 111.6 L 79.125 119.8 C 79.125 120.352 78.677 120.8 78.125 120.8 L 78.125 120.8 C 77.573 120.8 77.125 120.352 77.125 119.8 L 77.125 111.6 C 77.125 111.048 77.573 110.6 78.125 110.6 Z" style="stroke:none;fill:#C14A5E;stroke-miterlimit:10;"/></g><defs><filter id="iJcn2xSSxW2WGPCWbGHt30HjlRDGYGjw" x="-200%" y="-200%" width="400%" height="400%" filterUnits="objectBoundingBox" color-interpolation-filters="sRGB"><feGaussianBlur xmlns="http://www.w3.org/2000/svg" in="SourceGraphic" stdDeviation="0"/><feOffset xmlns="http://www.w3.org/2000/svg" dx="1" dy="1" result="pf_100_offsetBlur"/><feFlood xmlns="http://www.w3.org/2000/svg" flood-color="#341C53" flood-opacity="0.65"/><feComposite xmlns="http://www.w3.org/2000/svg" in2="pf_100_offsetBlur" operator="in" result="pf_100_dropShadow"/><feBlend xmlns="http://www.w3.org/2000/svg" in="SourceGraphic" in2="pf_100_dropShadow" mode="normal"/></filter></defs><g filter="url(#iJcn2xSSxW2WGPCWbGHt30HjlRDGYGjw)"><path d="M 98.125 110.4 L 98.125 110.4 C 98.677 110.4 99.125 110.848 99.125 111.4 L 99.125 119.6 C 99.125 120.152 98.677 120.6 98.125 120.6 L 98.125 120.6 C 97.573 120.6 97.125 120.152 97.125 119.6 L 97.125 111.4 C 97.125 110.848 97.573 110.4 98.125 110.4 Z" style="stroke:none;fill:#C14A5E;stroke-miterlimit:10;"/></g><defs><filter id="EAxhPB11sjkcRESgB4xbZRZSgYhU6uZr" x="-200%" y="-200%" width="400%" height="400%" filterUnits="objectBoundingBox" color-interpolation-filters="sRGB"><feGaussianBlur xmlns="http://www.w3.org/2000/svg" in="SourceGraphic" stdDeviation="0"/><feOffset xmlns="http://www.w3.org/2000/svg" dx="1" dy="1" result="pf_100_offsetBlur"/><feFlood xmlns="http://www.w3.org/2000/svg" flood-color="#341C53" flood-opacity="0.65"/><feComposite xmlns="http://www.w3.org/2000/svg" in2="pf_100_offsetBlur" operator="in" result="pf_100_dropShadow"/><feBlend xmlns="http://www.w3.org/2000/svg" in="SourceGraphic" in2="pf_100_dropShadow" mode="normal"/></filter></defs><g filter="url(#EAxhPB11sjkcRESgB4xbZRZSgYhU6uZr)"><path d="M 47.125 105.4 L 47.125 105.4 C 47.677 105.4 48.125 105.848 48.125 106.4 L 48.125 114.6 C 48.125 115.152 47.677 115.6 47.125 115.6 L 47.125 115.6 C 46.573 115.6 46.125 115.152 46.125 114.6 L 46.125 106.4 C 46.125 105.848 46.573 105.4 47.125 105.4 Z" style="stroke:none;fill:#C14A5E;stroke-miterlimit:10;"/></g><defs><filter id="2gIg7ZuMFd3uE5UGLaRxqDWmTdBBgouL" x="-200%" y="-200%" width="400%" height="400%" filterUnits="objectBoundingBox" color-interpolation-filters="sRGB"><feGaussianBlur xmlns="http://www.w3.org/2000/svg" in="SourceGraphic" stdDeviation="0"/><feOffset xmlns="http://www.w3.org/2000/svg" dx="1" dy="1" result="pf_100_offsetBlur"/><feFlood xmlns="http://www.w3.org/2000/svg" flood-color="#341C53" flood-opacity="0.65"/><feComposite xmlns="http://www.w3.org/2000/svg" in2="pf_100_offsetBlur" operator="in" result="pf_100_dropShadow"/><feBlend xmlns="http://www.w3.org/2000/svg" in="SourceGraphic" in2="pf_100_dropShadow" mode="normal"/></filter></defs><g filter="url(#2gIg7ZuMFd3uE5UGLaRxqDWmTdBBgouL)"><path d="M 88.125 105.4 L 88.125 105.4 C 88.677 105.4 89.125 105.848 89.125 106.4 L 89.125 114.6 C 89.125 115.152 88.677 115.6 88.125 115.6 L 88.125 115.6 C 87.573 115.6 87.125 115.152 87.125 114.6 L 87.125 106.4 C 87.125 105.848 87.573 105.4 88.125 105.4 Z" style="stroke:none;fill:#C14A5E;stroke-miterlimit:10;"/></g><defs><filter id="TfDxZVVy0nHD2Y52iBb1i2ENrdXWClv3" x="-200%" y="-200%" width="400%" height="400%" filterUnits="objectBoundingBox" color-interpolation-filters="sRGB"><feGaussianBlur xmlns="http://www.w3.org/2000/svg" in="SourceGraphic" stdDeviation="0"/><feOffset xmlns="http://www.w3.org/2000/svg" dx="1" dy="1" result="pf_100_offsetBlur"/><feFlood xmlns="http://www.w3.org/2000/svg" flood-color="#341C53" flood-opacity="0.65"/><feComposite xmlns="http://www.w3.org/2000/svg" in2="pf_100_offsetBlur" operator="in" result="pf_100_dropShadow"/><feBlend xmlns="http://www.w3.org/2000/svg" in="SourceGraphic" in2="pf_100_dropShadow" mode="normal"/></filter></defs><g filter="url(#TfDxZVVy0nHD2Y52iBb1i2ENrdXWClv3)"><path d="M 68.125 105.4 L 68.125 105.4 C 68.677 105.4 69.125 105.848 69.125 106.4 L 69.125 114.6 C 69.125 115.152 68.677 115.6 68.125 115.6 L 68.125 115.6 C 67.573 115.6 67.125 115.152 67.125 114.6 L 67.125 106.4 C 67.125 105.848 67.573 105.4 68.125 105.4 Z" style="stroke:none;fill:#C14A5E;stroke-miterlimit:10;"/></g></g></svg>