<?xml version="1.0" encoding="UTF-8" standalone="no"?><!-- Generator: Gravit.io --><svg xmlns="http://www.w3.org/2000/svg" xmlns:xlink="http://www.w3.org/1999/xlink" style="isolation:isolate" viewBox="0 0 128 128" width="128pt" height="128pt"><defs><clipPath id="_clipPath_ysicISShbws5D084FYbOKdARVTFljiEy"><rect width="128" height="128"/></clipPath></defs><g clip-path="url(#_clipPath_ysicISShbws5D084FYbOKdARVTFljiEy)"><g filter="url(#uQxXLYooWxA6Da1wN527vkforaAq2SXS)"><circle vector-effect="non-scaling-stroke" cx="63.24999999999999" cy="64.75" r="48.75" fill="rgb(193,74,94)" stroke-width="1" stroke="rgb(136,45,60)" stroke-linejoin="miter" stroke-linecap="square" stroke-miterlimit="3"/><circle vector-effect="non-scaling-stroke" cx="45.62288135593217" cy="38.30932203389825" r="8.813559322033903" fill="rgb(136,45,60)"/><path d=" M 21.548 88.93 C 29.877 103.257 45.581 112.81 63.332 112.81 L 63.332 112.81 L 63.332 112.81 C 89.869 112.81 111.413 91.266 111.413 64.729 C 111.413 46.978 101.772 31.461 87.446 23.132 C 91.568 30.222 93.929 38.46 93.929 47.245 C 93.929 73.782 72.385 95.326 45.848 95.326 C 37.063 95.326 28.638 93.052 21.548 88.93 Z " fill="rgb(242,182,193)"/><circle vector-effect="non-scaling-stroke" cx="54.023305084745715" cy="81.9639830508474" r="17.213983050847446" fill="rgb(136,45,60)"/><circle vector-effect="non-scaling-stroke" cx="80.87711864406776" cy="47.12288135593218" r="6.610169491525426" fill="rgb(136,45,60)"/><circle vector-effect="non-scaling-stroke" cx="100.70762711864398" cy="70.25847457627115" r="4.131355932203391" fill="rgb(193,74,94)"/><circle vector-effect="non-scaling-stroke" cx="78.94915254237287" cy="100.83050847457628" r="4.131355932203391" fill="rgb(193,74,94)"/></g><defs><filter id="uQxXLYooWxA6Da1wN527vkforaAq2SXS" x="-200%" y="-200%" width="400%" height="400%" filterUnits="objectBoundingBox" color-interpolation-filters="sRGB"><feGaussianBlur xmlns="http://www.w3.org/2000/svg" in="SourceGraphic" stdDeviation="0"/><feOffset xmlns="http://www.w3.org/2000/svg" dx="1" dy="1" result="pf_100_offsetBlur"/><feFlood xmlns="http://www.w3.org/2000/svg" flood-color="#341C53" flood-opacity="0.8"/><feComposite xmlns="http://www.w3.org/2000/svg" in2="pf_100_offsetBlur" operator="in" result="pf_100_dropShadow"/><feBlend xmlns="http://www.w3.org/2000/svg" in="SourceGraphic" in2="pf_100_dropShadow" mode="normal"/></filter></defs></g></svg>