<?xml version="1.0" encoding="UTF-8" standalone="no"?><!-- Generator: Gravit.io --><svg xmlns="http://www.w3.org/2000/svg" xmlns:xlink="http://www.w3.org/1999/xlink" style="isolation:isolate" viewBox="0 0 128 128" width="128pt" height="128pt"><defs><clipPath id="_clipPath_NXTFN5Hx7MSlu814C429ATRWaQB52j6A"><rect width="128" height="128"/></clipPath></defs><g clip-path="url(#_clipPath_NXTFN5Hx7MSlu814C429ATRWaQB52j6A)"><defs><filter id="opS0XLn9zsNnasJ6PQRv6IZWY6OagErT" x="-200%" y="-200%" width="400%" height="400%" filterUnits="objectBoundingBox" color-interpolation-filters="sRGB"><feGaussianBlur xmlns="http://www.w3.org/2000/svg" in="SourceGraphic" stdDeviation="0"/><feOffset xmlns="http://www.w3.org/2000/svg" dx="1" dy="1" result="pf_100_offsetBlur"/><feFlood xmlns="http://www.w3.org/2000/svg" flood-color="#341C53" flood-opacity="0.8"/><feComposite xmlns="http://www.w3.org/2000/svg" in2="pf_100_offsetBlur" operator="in" result="pf_100_dropShadow"/><feBlend xmlns="http://www.w3.org/2000/svg" in="SourceGraphic" in2="pf_100_dropShadow" mode="normal"/></filter></defs><g filter="url(#opS0XLn9zsNnasJ6PQRv6IZWY6OagErT)"><path d=" M 50.201 104.471 L 50.473 103.865 C 50.97 102.759 50.476 101.457 49.37 100.96 L 49.37 100.96 L 49.37 100.96 C 48.263 100.463 46.961 100.957 46.464 102.064 L 43.877 107.821 C 43.329 108.471 43.187 109.41 43.59 110.219 L 43.59 110.219 C 44.13 111.304 45.451 111.747 46.536 111.206 L 49.152 109.903 L 45.705 117.573 C 45.208 118.68 45.703 119.981 46.809 120.478 L 46.809 120.478 C 47.916 120.976 49.217 120.481 49.714 119.375 L 55.628 106.215 C 56.125 105.109 55.63 103.807 54.524 103.31 L 54.524 103.31 L 54.524 103.31 C 54.322 103.219 54.113 103.161 53.904 103.15 C 53.446 103.048 52.95 103.102 52.495 103.328 L 50.201 104.471 Z " fill-rule="evenodd" fill="rgb(253,226,173)" vector-effect="non-scaling-stroke" stroke-width="1" stroke="rgb(232,177,88)" stroke-linejoin="miter" stroke-linecap="square" stroke-miterlimit="3"/></g><defs><filter id="FBVJHZgRY5iyKkYiGRKmgbwpQxHhG67E" x="-200%" y="-200%" width="400%" height="400%" filterUnits="objectBoundingBox" color-interpolation-filters="sRGB"><feGaussianBlur xmlns="http://www.w3.org/2000/svg" in="SourceGraphic" stdDeviation="0"/><feOffset xmlns="http://www.w3.org/2000/svg" dx="1" dy="1" result="pf_100_offsetBlur"/><feFlood xmlns="http://www.w3.org/2000/svg" flood-color="#341C53" flood-opacity="0.8"/><feComposite xmlns="http://www.w3.org/2000/svg" in2="pf_100_offsetBlur" operator="in" result="pf_100_dropShadow"/><feBlend xmlns="http://www.w3.org/2000/svg" in="SourceGraphic" in2="pf_100_dropShadow" mode="normal"/></filter></defs><g filter="url(#FBVJHZgRY5iyKkYiGRKmgbwpQxHhG67E)"><path d=" M 78.047 104.471 L 78.319 103.865 C 78.816 102.759 78.321 101.457 77.215 100.96 L 77.215 100.96 L 77.215 100.96 C 76.109 100.463 74.807 100.957 74.31 102.064 L 71.723 107.821 C 71.175 108.471 71.032 109.41 71.435 110.219 L 71.435 110.219 C 71.976 111.304 73.296 111.747 74.382 111.206 L 76.998 109.903 L 73.551 117.573 C 73.054 118.68 73.548 119.981 74.655 120.478 L 74.655 120.478 C 75.761 120.976 77.063 120.481 77.56 119.375 L 83.473 106.215 C 83.97 105.109 83.476 103.807 82.37 103.31 L 82.37 103.31 L 82.37 103.31 C 82.167 103.219 81.958 103.161 81.75 103.15 C 81.291 103.048 80.795 103.102 80.341 103.328 L 78.047 104.471 Z " fill-rule="evenodd" fill="rgb(253,226,173)" vector-effect="non-scaling-stroke" stroke-width="1" stroke="rgb(232,177,88)" stroke-linejoin="miter" stroke-linecap="square" stroke-miterlimit="3"/></g><defs><filter id="wo5dYzSFnVdjebIvOnfGsaB1GyveJZNy" x="-200%" y="-200%" width="400%" height="400%" filterUnits="objectBoundingBox" color-interpolation-filters="sRGB"><feGaussianBlur xmlns="http://www.w3.org/2000/svg" in="SourceGraphic" stdDeviation="0"/><feOffset xmlns="http://www.w3.org/2000/svg" dx="1" dy="1" result="pf_100_offsetBlur"/><feFlood xmlns="http://www.w3.org/2000/svg" flood-color="#341C53" flood-opacity="0.8"/><feComposite xmlns="http://www.w3.org/2000/svg" in2="pf_100_offsetBlur" operator="in" result="pf_100_dropShadow"/><feBlend xmlns="http://www.w3.org/2000/svg" in="SourceGraphic" in2="pf_100_dropShadow" mode="normal"/></filter></defs><g filter="url(#wo5dYzSFnVdjebIvOnfGsaB1GyveJZNy)"><path d="M 32.667 105.619 L 32.667 105.619 C 33.219 105.619 33.667 106.067 33.667 106.619 L 33.667 114.819 C 33.667 115.371 33.219 115.819 32.667 115.819 L 32.667 115.819 C 32.115 115.819 31.667 115.371 31.667 114.819 L 31.667 106.619 C 31.667 106.067 32.115 105.619 32.667 105.619 Z" style="stroke:none;fill:#C14A5E;stroke-miterlimit:10;"/></g><defs><filter id="pD8JOi2fXHXno4hwp6qTiHdeIy6fWeam" x="-200%" y="-200%" width="400%" height="400%" filterUnits="objectBoundingBox" color-interpolation-filters="sRGB"><feGaussianBlur xmlns="http://www.w3.org/2000/svg" in="SourceGraphic" stdDeviation="0"/><feOffset xmlns="http://www.w3.org/2000/svg" dx="1" dy="1" result="pf_100_offsetBlur"/><feFlood xmlns="http://www.w3.org/2000/svg" flood-color="#341C53" flood-opacity="0.8"/><feComposite xmlns="http://www.w3.org/2000/svg" in2="pf_100_offsetBlur" operator="in" result="pf_100_dropShadow"/><feBlend xmlns="http://www.w3.org/2000/svg" in="SourceGraphic" in2="pf_100_dropShadow" mode="normal"/></filter></defs><g filter="url(#pD8JOi2fXHXno4hwp6qTiHdeIy6fWeam)"><path d="M 62.667 105.467 L 62.667 105.467 C 63.219 105.467 63.667 105.915 63.667 106.467 L 63.667 114.667 C 63.667 115.219 63.219 115.667 62.667 115.667 L 62.667 115.667 C 62.115 115.667 61.667 115.219 61.667 114.667 L 61.667 106.467 C 61.667 105.915 62.115 105.467 62.667 105.467 Z" style="stroke:none;fill:#C14A5E;stroke-miterlimit:10;"/></g><defs><filter id="1BRmq6EfBL8lJFblA1USeSCvRGjXnkHB" x="-200%" y="-200%" width="400%" height="400%" filterUnits="objectBoundingBox" color-interpolation-filters="sRGB"><feGaussianBlur xmlns="http://www.w3.org/2000/svg" in="SourceGraphic" stdDeviation="0"/><feOffset xmlns="http://www.w3.org/2000/svg" dx="1" dy="1" result="pf_100_offsetBlur"/><feFlood xmlns="http://www.w3.org/2000/svg" flood-color="#341C53" flood-opacity="0.8"/><feComposite xmlns="http://www.w3.org/2000/svg" in2="pf_100_offsetBlur" operator="in" result="pf_100_dropShadow"/><feBlend xmlns="http://www.w3.org/2000/svg" in="SourceGraphic" in2="pf_100_dropShadow" mode="normal"/></filter></defs><g filter="url(#1BRmq6EfBL8lJFblA1USeSCvRGjXnkHB)"><path d="M 102.667 105.467 L 102.667 105.467 C 103.219 105.467 103.667 105.915 103.667 106.467 L 103.667 114.667 C 103.667 115.219 103.219 115.667 102.667 115.667 L 102.667 115.667 C 102.115 115.667 101.667 115.219 101.667 114.667 L 101.667 106.467 C 101.667 105.915 102.115 105.467 102.667 105.467 Z" style="stroke:none;fill:#C14A5E;stroke-miterlimit:10;"/></g><defs><filter id="tD0gFDzygbHOiV7CIE0EvfGeMaD2dlqC" x="-200%" y="-200%" width="400%" height="400%" filterUnits="objectBoundingBox" color-interpolation-filters="sRGB"><feGaussianBlur xmlns="http://www.w3.org/2000/svg" in="SourceGraphic" stdDeviation="0"/><feOffset xmlns="http://www.w3.org/2000/svg" dx="1" dy="1" result="pf_100_offsetBlur"/><feFlood xmlns="http://www.w3.org/2000/svg" flood-color="#341C53" flood-opacity="0.8"/><feComposite xmlns="http://www.w3.org/2000/svg" in2="pf_100_offsetBlur" operator="in" result="pf_100_dropShadow"/><feBlend xmlns="http://www.w3.org/2000/svg" in="SourceGraphic" in2="pf_100_dropShadow" mode="normal"/></filter></defs><g filter="url(#tD0gFDzygbHOiV7CIE0EvfGeMaD2dlqC)"><path d="M 22.667 110.567 L 22.667 110.567 C 23.219 110.567 23.667 111.015 23.667 111.567 L 23.667 119.767 C 23.667 120.319 23.219 120.767 22.667 120.767 L 22.667 120.767 C 22.115 120.767 21.667 120.319 21.667 119.767 L 21.667 111.567 C 21.667 111.015 22.115 110.567 22.667 110.567 Z" style="stroke:none;fill:#C14A5E;stroke-miterlimit:10;"/></g><defs><filter id="mq1YEwyayKHaaaH5jLJVoPvFiHn4OwWx" x="-200%" y="-200%" width="400%" height="400%" filterUnits="objectBoundingBox" color-interpolation-filters="sRGB"><feGaussianBlur xmlns="http://www.w3.org/2000/svg" in="SourceGraphic" stdDeviation="0"/><feOffset xmlns="http://www.w3.org/2000/svg" dx="1" dy="1" result="pf_100_offsetBlur"/><feFlood xmlns="http://www.w3.org/2000/svg" flood-color="#341C53" flood-opacity="0.8"/><feComposite xmlns="http://www.w3.org/2000/svg" in2="pf_100_offsetBlur" operator="in" result="pf_100_dropShadow"/><feBlend xmlns="http://www.w3.org/2000/svg" in="SourceGraphic" in2="pf_100_dropShadow" mode="normal"/></filter></defs><g filter="url(#mq1YEwyayKHaaaH5jLJVoPvFiHn4OwWx)"><path d="M 92.667 110.567 L 92.667 110.567 C 93.219 110.567 93.667 111.015 93.667 111.567 L 93.667 119.767 C 93.667 120.319 93.219 120.767 92.667 120.767 L 92.667 120.767 C 92.115 120.767 91.667 120.319 91.667 119.767 L 91.667 111.567 C 91.667 111.015 92.115 110.567 92.667 110.567 Z" style="stroke:none;fill:#C14A5E;stroke-miterlimit:10;"/></g><defs><filter id="SFYPDHMbYPkIkZ1FKXDjVTb4uCuMCKNq" x="-200%" y="-200%" width="400%" height="400%" filterUnits="objectBoundingBox" color-interpolation-filters="sRGB"><feGaussianBlur xmlns="http://www.w3.org/2000/svg" in="SourceGraphic" stdDeviation="0"/><feOffset xmlns="http://www.w3.org/2000/svg" dx="2" dy="2" result="pf_100_offsetBlur"/><feFlood xmlns="http://www.w3.org/2000/svg" flood-color="#341C53" flood-opacity="0.8"/><feComposite xmlns="http://www.w3.org/2000/svg" in2="pf_100_offsetBlur" operator="in" result="pf_100_dropShadow"/><feBlend xmlns="http://www.w3.org/2000/svg" in="SourceGraphic" in2="pf_100_dropShadow" mode="normal"/></filter></defs><g filter="url(#SFYPDHMbYPkIkZ1FKXDjVTb4uCuMCKNq)"><path d=" M 27.299 103.167 C 17.297 103.167 9.176 95.046 9.176 85.045 C 9.176 75.043 17.297 66.922 27.299 66.922 C 27.384 66.922 27.47 66.923 27.554 66.927 C 27.374 65.536 27.299 64.114 27.299 62.675 C 27.299 40.327 45.442 22.183 67.79 22.183 C 85.308 22.183 100.242 33.331 105.887 48.909 C 115.023 49.826 122.157 57.547 122.157 66.922 C 122.157 76.924 114.037 85.045 104.035 85.045 L 104.035 85.045 L 104.035 85.045 C 103.214 85.045 103.046 85.045 104.035 85.045 L 104.035 85.045 C 109.036 85.045 113.096 89.105 113.096 94.106 C 113.096 99.107 109.036 103.167 104.035 103.167 L 104.035 103.167 Q 27.817 103.167 27.299 103.167 Z " fill="rgb(193,74,94)" vector-effect="non-scaling-stroke" stroke-width="1" stroke="rgb(136,45,60)" stroke-linejoin="miter" stroke-linecap="square" stroke-miterlimit="3"/></g><g filter="url(#io7Ipv2YxGuTiKVjXdSqxvDIgxDPu0ll)"><circle vector-effect="non-scaling-stroke" cx="46" cy="42.74999999999998" r="33.25" fill="rgb(193,74,94)" stroke-width="1" stroke="rgb(136,45,60)" stroke-linejoin="miter" stroke-linecap="square" stroke-miterlimit="3"/><circle vector-effect="non-scaling-stroke" cx="33.97740112994339" cy="24.716101694915167" r="6.011299435028249" fill="rgb(136,45,60)"/><path d=" M 17.557 59.242 C 23.238 69.014 33.949 75.529 46.056 75.529 L 46.056 75.529 L 46.056 75.529 C 64.155 75.529 78.85 60.835 78.85 42.736 C 78.85 30.628 72.274 20.045 62.503 14.364 C 65.314 19.2 66.925 24.819 66.925 30.811 C 66.925 48.91 52.23 63.604 34.131 63.604 C 28.139 63.604 22.393 62.054 17.557 59.242 Z " fill="rgb(242,182,193)"/><circle vector-effect="non-scaling-stroke" cx="39.70692090395466" cy="54.49081920903942" r="11.740819209039538" fill="rgb(136,45,60)"/><circle vector-effect="non-scaling-stroke" cx="58.02259887005645" cy="30.727401129943445" r="4.50847457627119" fill="rgb(136,45,60)"/><circle vector-effect="non-scaling-stroke" cx="71.54802259886986" cy="46.507062146892565" r="2.817796610169495" fill="rgb(193,74,94)"/><circle vector-effect="non-scaling-stroke" cx="56.707627118644005" cy="67.35875706214685" r="2.817796610169495" fill="rgb(193,74,94)"/></g><defs><filter id="io7Ipv2YxGuTiKVjXdSqxvDIgxDPu0ll" x="-200%" y="-200%" width="400%" height="400%" filterUnits="objectBoundingBox" color-interpolation-filters="sRGB"><feGaussianBlur xmlns="http://www.w3.org/2000/svg" in="SourceGraphic" stdDeviation="0"/><feOffset xmlns="http://www.w3.org/2000/svg" dx="1" dy="1" result="pf_100_offsetBlur"/><feFlood xmlns="http://www.w3.org/2000/svg" flood-color="#341C53" flood-opacity="0.8"/><feComposite xmlns="http://www.w3.org/2000/svg" in2="pf_100_offsetBlur" operator="in" result="pf_100_dropShadow"/><feBlend xmlns="http://www.w3.org/2000/svg" in="SourceGraphic" in2="pf_100_dropShadow" mode="normal"/></filter></defs></g></svg>