<?xml version="1.0" encoding="UTF-8" standalone="no"?><!-- Generator: Gravit.io --><svg xmlns="http://www.w3.org/2000/svg" xmlns:xlink="http://www.w3.org/1999/xlink" style="isolation:isolate" viewBox="0 0 128 128" width="128pt" height="128pt"><defs><clipPath id="_clipPath_QtIwmNTvsvq6J2HyGEEbteL1If3AzN71"><rect width="128" height="128"/></clipPath></defs><g clip-path="url(#_clipPath_QtIwmNTvsvq6J2HyGEEbteL1If3AzN71)"><defs><filter id="tDzjhXGQ59EcFGJIc62vwy5mMn73uV3c" x="-200%" y="-200%" width="400%" height="400%" filterUnits="objectBoundingBox" color-interpolation-filters="sRGB"><feGaussianBlur xmlns="http://www.w3.org/2000/svg" in="SourceGraphic" stdDeviation="0"/><feOffset xmlns="http://www.w3.org/2000/svg" dx="2" dy="2" result="pf_100_offsetBlur"/><feFlood xmlns="http://www.w3.org/2000/svg" flood-color="#341C53" flood-opacity="0.8"/><feComposite xmlns="http://www.w3.org/2000/svg" in2="pf_100_offsetBlur" operator="in" result="pf_100_dropShadow"/><feBlend xmlns="http://www.w3.org/2000/svg" in="SourceGraphic" in2="pf_100_dropShadow" mode="normal"/></filter></defs><g filter="url(#tDzjhXGQ59EcFGJIc62vwy5mMn73uV3c)"><path d=" M 25.632 96.483 C 15.63 96.483 7.51 88.363 7.51 78.361 C 7.51 68.359 15.63 60.239 25.632 60.239 C 25.718 60.239 25.803 60.24 25.888 60.243 C 25.707 58.853 25.632 57.431 25.632 55.992 C 25.632 33.644 43.776 15.5 66.124 15.5 C 83.641 15.5 98.575 26.648 104.221 42.226 C 113.356 43.142 120.49 50.864 120.49 60.239 C 120.49 70.241 112.37 78.361 102.368 78.361 L 102.368 78.361 L 102.368 78.361 C 101.547 78.361 101.379 78.361 102.368 78.361 L 102.368 78.361 C 107.369 78.361 111.429 82.421 111.429 87.422 C 111.429 92.423 107.369 96.483 102.368 96.483 L 102.368 96.483 Q 26.151 96.483 25.632 96.483 Z " fill="rgb(242,182,193)" vector-effect="non-scaling-stroke" stroke-width="1" stroke="rgb(193,74,94)" stroke-linejoin="miter" stroke-linecap="square" stroke-miterlimit="3"/></g><defs><filter id="KgaT78zqLisbAKyur6f2xWtUcB21CUvL" x="-200%" y="-200%" width="400%" height="400%" filterUnits="objectBoundingBox" color-interpolation-filters="sRGB"><feGaussianBlur xmlns="http://www.w3.org/2000/svg" in="SourceGraphic" stdDeviation="0"/><feOffset xmlns="http://www.w3.org/2000/svg" dx="1" dy="1" result="pf_100_offsetBlur"/><feFlood xmlns="http://www.w3.org/2000/svg" flood-color="#341C53" flood-opacity="0.8"/><feComposite xmlns="http://www.w3.org/2000/svg" in2="pf_100_offsetBlur" operator="in" result="pf_100_dropShadow"/><feBlend xmlns="http://www.w3.org/2000/svg" in="SourceGraphic" in2="pf_100_dropShadow" mode="normal"/></filter></defs><g filter="url(#KgaT78zqLisbAKyur6f2xWtUcB21CUvL)"><path d="M 40 104.9 L 40 104.9 C 40.552 104.9 41 105.348 41 105.9 L 41 114.1 C 41 114.652 40.552 115.1 40 115.1 L 40 115.1 C 39.448 115.1 39 114.652 39 114.1 L 39 105.9 C 39 105.348 39.448 104.9 40 104.9 Z" style="stroke:none;fill:#C14A5E;stroke-miterlimit:10;"/></g><defs><filter id="c2A45W6pCiB3Nhxn21IQFhukoZot28eI" x="-200%" y="-200%" width="400%" height="400%" filterUnits="objectBoundingBox" color-interpolation-filters="sRGB"><feGaussianBlur xmlns="http://www.w3.org/2000/svg" in="SourceGraphic" stdDeviation="0"/><feOffset xmlns="http://www.w3.org/2000/svg" dx="1" dy="1" result="pf_100_offsetBlur"/><feFlood xmlns="http://www.w3.org/2000/svg" flood-color="#341C53" flood-opacity="0.8"/><feComposite xmlns="http://www.w3.org/2000/svg" in2="pf_100_offsetBlur" operator="in" result="pf_100_dropShadow"/><feBlend xmlns="http://www.w3.org/2000/svg" in="SourceGraphic" in2="pf_100_dropShadow" mode="normal"/></filter></defs><g filter="url(#c2A45W6pCiB3Nhxn21IQFhukoZot28eI)"><path d="M 70 104.9 L 70 104.9 C 70.552 104.9 71 105.348 71 105.9 L 71 114.1 C 71 114.652 70.552 115.1 70 115.1 L 70 115.1 C 69.448 115.1 69 114.652 69 114.1 L 69 105.9 C 69 105.348 69.448 104.9 70 104.9 Z" style="stroke:none;fill:#C14A5E;stroke-miterlimit:10;"/></g><defs><filter id="V2ZsTBMgJLMSriYaEZ8MjKmOJLqbi8z2" x="-200%" y="-200%" width="400%" height="400%" filterUnits="objectBoundingBox" color-interpolation-filters="sRGB"><feGaussianBlur xmlns="http://www.w3.org/2000/svg" in="SourceGraphic" stdDeviation="0"/><feOffset xmlns="http://www.w3.org/2000/svg" dx="1" dy="1" result="pf_100_offsetBlur"/><feFlood xmlns="http://www.w3.org/2000/svg" flood-color="#341C53" flood-opacity="0.8"/><feComposite xmlns="http://www.w3.org/2000/svg" in2="pf_100_offsetBlur" operator="in" result="pf_100_dropShadow"/><feBlend xmlns="http://www.w3.org/2000/svg" in="SourceGraphic" in2="pf_100_dropShadow" mode="normal"/></filter></defs><g filter="url(#V2ZsTBMgJLMSriYaEZ8MjKmOJLqbi8z2)"><path d="M 100 104.9 L 100 104.9 C 100.552 104.9 101 105.348 101 105.9 L 101 114.1 C 101 114.652 100.552 115.1 100 115.1 L 100 115.1 C 99.448 115.1 99 114.652 99 114.1 L 99 105.9 C 99 105.348 99.448 104.9 100 104.9 Z" style="stroke:none;fill:#C14A5E;stroke-miterlimit:10;"/></g><defs><filter id="2zsyOWwmZXBWKBQphw0Vufxh1kxHvfel" x="-200%" y="-200%" width="400%" height="400%" filterUnits="objectBoundingBox" color-interpolation-filters="sRGB"><feGaussianBlur xmlns="http://www.w3.org/2000/svg" in="SourceGraphic" stdDeviation="0"/><feOffset xmlns="http://www.w3.org/2000/svg" dx="1" dy="1" result="pf_100_offsetBlur"/><feFlood xmlns="http://www.w3.org/2000/svg" flood-color="#341C53" flood-opacity="0.8"/><feComposite xmlns="http://www.w3.org/2000/svg" in2="pf_100_offsetBlur" operator="in" result="pf_100_dropShadow"/><feBlend xmlns="http://www.w3.org/2000/svg" in="SourceGraphic" in2="pf_100_dropShadow" mode="normal"/></filter></defs><g filter="url(#2zsyOWwmZXBWKBQphw0Vufxh1kxHvfel)"><circle vector-effect="non-scaling-stroke" cx="30" cy="110.00000000000001" r="1.5" fill="rgb(193,74,94)"/></g><defs><filter id="FMQ0idvjAYhIPnIxb5tK5EPTUqBbd5RM" x="-200%" y="-200%" width="400%" height="400%" filterUnits="objectBoundingBox" color-interpolation-filters="sRGB"><feGaussianBlur xmlns="http://www.w3.org/2000/svg" in="SourceGraphic" stdDeviation="0"/><feOffset xmlns="http://www.w3.org/2000/svg" dx="1" dy="1" result="pf_100_offsetBlur"/><feFlood xmlns="http://www.w3.org/2000/svg" flood-color="#341C53" flood-opacity="0.8"/><feComposite xmlns="http://www.w3.org/2000/svg" in2="pf_100_offsetBlur" operator="in" result="pf_100_dropShadow"/><feBlend xmlns="http://www.w3.org/2000/svg" in="SourceGraphic" in2="pf_100_dropShadow" mode="normal"/></filter></defs><g filter="url(#FMQ0idvjAYhIPnIxb5tK5EPTUqBbd5RM)"><circle vector-effect="non-scaling-stroke" cx="20" cy="104.90000090291414" r="1.5" fill="rgb(193,74,94)"/></g><defs><filter id="g8F4q3UKEODVG72yfUgLtBIDp3KC8CWY" x="-200%" y="-200%" width="400%" height="400%" filterUnits="objectBoundingBox" color-interpolation-filters="sRGB"><feGaussianBlur xmlns="http://www.w3.org/2000/svg" in="SourceGraphic" stdDeviation="0"/><feOffset xmlns="http://www.w3.org/2000/svg" dx="1" dy="1" result="pf_100_offsetBlur"/><feFlood xmlns="http://www.w3.org/2000/svg" flood-color="#341C53" flood-opacity="0.8"/><feComposite xmlns="http://www.w3.org/2000/svg" in2="pf_100_offsetBlur" operator="in" result="pf_100_dropShadow"/><feBlend xmlns="http://www.w3.org/2000/svg" in="SourceGraphic" in2="pf_100_dropShadow" mode="normal"/></filter></defs><g filter="url(#g8F4q3UKEODVG72yfUgLtBIDp3KC8CWY)"><circle vector-effect="non-scaling-stroke" cx="60.00000000000001" cy="110" r="1.5" fill="rgb(193,74,94)"/></g><defs><filter id="3yGFtCPLkWA41kSbAHjEnjNRAReArFzM" x="-200%" y="-200%" width="400%" height="400%" filterUnits="objectBoundingBox" color-interpolation-filters="sRGB"><feGaussianBlur xmlns="http://www.w3.org/2000/svg" in="SourceGraphic" stdDeviation="0"/><feOffset xmlns="http://www.w3.org/2000/svg" dx="1" dy="1" result="pf_100_offsetBlur"/><feFlood xmlns="http://www.w3.org/2000/svg" flood-color="#341C53" flood-opacity="0.8"/><feComposite xmlns="http://www.w3.org/2000/svg" in2="pf_100_offsetBlur" operator="in" result="pf_100_dropShadow"/><feBlend xmlns="http://www.w3.org/2000/svg" in="SourceGraphic" in2="pf_100_dropShadow" mode="normal"/></filter></defs><g filter="url(#3yGFtCPLkWA41kSbAHjEnjNRAReArFzM)"><path d=" M 88.5 110.012 C 88.493 109.184 89.16 108.507 89.988 108.5 C 90.816 108.493 91.493 109.16 91.5 109.988 C 91.507 110.816 90.84 111.493 90.012 111.5 C 89.184 111.507 88.507 110.84 88.5 110.012 Z " fill="rgb(193,74,94)"/></g><defs><filter id="eOiXWQoVQm8jnqJsfMjPyn3GzgDb106u" x="-200%" y="-200%" width="400%" height="400%" filterUnits="objectBoundingBox" color-interpolation-filters="sRGB"><feGaussianBlur xmlns="http://www.w3.org/2000/svg" in="SourceGraphic" stdDeviation="0"/><feOffset xmlns="http://www.w3.org/2000/svg" dx="1" dy="1" result="pf_100_offsetBlur"/><feFlood xmlns="http://www.w3.org/2000/svg" flood-color="#341C53" flood-opacity="0.8"/><feComposite xmlns="http://www.w3.org/2000/svg" in2="pf_100_offsetBlur" operator="in" result="pf_100_dropShadow"/><feBlend xmlns="http://www.w3.org/2000/svg" in="SourceGraphic" in2="pf_100_dropShadow" mode="normal"/></filter></defs><g filter="url(#eOiXWQoVQm8jnqJsfMjPyn3GzgDb106u)"><path d=" M 48.5 104.912 C 48.493 104.084 49.16 103.407 49.988 103.4 C 50.816 103.393 51.493 104.06 51.5 104.888 C 51.507 105.716 50.84 106.393 50.012 106.4 C 49.184 106.407 48.507 105.74 48.5 104.912 Z " fill="rgb(193,74,94)"/></g><defs><filter id="lmSdqpwKqO8ibQ6PQQvDsHUztz0IuTK0" x="-200%" y="-200%" width="400%" height="400%" filterUnits="objectBoundingBox" color-interpolation-filters="sRGB"><feGaussianBlur xmlns="http://www.w3.org/2000/svg" in="SourceGraphic" stdDeviation="0"/><feOffset xmlns="http://www.w3.org/2000/svg" dx="1" dy="1" result="pf_100_offsetBlur"/><feFlood xmlns="http://www.w3.org/2000/svg" flood-color="#341C53" flood-opacity="0.8"/><feComposite xmlns="http://www.w3.org/2000/svg" in2="pf_100_offsetBlur" operator="in" result="pf_100_dropShadow"/><feBlend xmlns="http://www.w3.org/2000/svg" in="SourceGraphic" in2="pf_100_dropShadow" mode="normal"/></filter></defs><g filter="url(#lmSdqpwKqO8ibQ6PQQvDsHUztz0IuTK0)"><path d=" M 78.5 104.912 C 78.493 104.084 79.16 103.407 79.988 103.4 C 80.816 103.393 81.493 104.06 81.5 104.888 C 81.507 105.716 80.84 106.393 80.012 106.4 C 79.184 106.407 78.507 105.74 78.5 104.912 Z " fill="rgb(193,74,94)"/></g></g></svg>