<?xml version="1.0" encoding="UTF-8" standalone="no"?><!-- Generator: Gravit.io --><svg xmlns="http://www.w3.org/2000/svg" xmlns:xlink="http://www.w3.org/1999/xlink" style="isolation:isolate" viewBox="0 0 128 128" width="128pt" height="128pt"><defs><clipPath id="_clipPath_lC3sO8lJuRcofUykJszxvKeLnGX1LSUq"><rect width="128" height="128"/></clipPath></defs><g clip-path="url(#_clipPath_lC3sO8lJuRcofUykJszxvKeLnGX1LSUq)"><defs><filter id="Osbb9Al2luWOn1aEPO2z12z92in2Tb50" x="-200%" y="-200%" width="400%" height="400%" filterUnits="objectBoundingBox" color-interpolation-filters="sRGB"><feGaussianBlur xmlns="http://www.w3.org/2000/svg" in="SourceGraphic" stdDeviation="0"/><feOffset xmlns="http://www.w3.org/2000/svg" dx="2" dy="2" result="pf_100_offsetBlur"/><feFlood xmlns="http://www.w3.org/2000/svg" flood-color="#341C53" flood-opacity="0.8"/><feComposite xmlns="http://www.w3.org/2000/svg" in2="pf_100_offsetBlur" operator="in" result="pf_100_dropShadow"/><feBlend xmlns="http://www.w3.org/2000/svg" in="SourceGraphic" in2="pf_100_dropShadow" mode="normal"/></filter></defs><g filter="url(#Osbb9Al2luWOn1aEPO2z12z92in2Tb50)"><path d=" M 25.632 96.483 C 15.63 96.483 7.51 88.363 7.51 78.361 C 7.51 68.359 15.63 60.239 25.632 60.239 C 25.718 60.239 25.803 60.24 25.888 60.243 C 25.707 58.853 25.632 57.431 25.632 55.992 C 25.632 33.644 43.776 15.5 66.124 15.5 C 83.641 15.5 98.575 26.648 104.221 42.226 C 113.356 43.142 120.49 50.864 120.49 60.239 C 120.49 70.241 112.37 78.361 102.368 78.361 L 102.368 78.361 L 102.368 78.361 C 101.547 78.361 101.379 78.361 102.368 78.361 L 102.368 78.361 C 107.369 78.361 111.429 82.421 111.429 87.422 C 111.429 92.423 107.369 96.483 102.368 96.483 L 102.368 96.483 Q 26.151 96.483 25.632 96.483 Z " fill="rgb(242,182,193)" vector-effect="non-scaling-stroke" stroke-width="1" stroke="rgb(193,74,94)" stroke-linejoin="miter" stroke-linecap="square" stroke-miterlimit="3"/></g><defs><filter id="qHGccGJaNt4gWeCNKZYLlhA97TavvCGK" x="-200%" y="-200%" width="400%" height="400%" filterUnits="objectBoundingBox" color-interpolation-filters="sRGB"><feGaussianBlur xmlns="http://www.w3.org/2000/svg" in="SourceGraphic" stdDeviation="0"/><feOffset xmlns="http://www.w3.org/2000/svg" dx="1" dy="1" result="pf_100_offsetBlur"/><feFlood xmlns="http://www.w3.org/2000/svg" flood-color="#341C53" flood-opacity="0.8"/><feComposite xmlns="http://www.w3.org/2000/svg" in2="pf_100_offsetBlur" operator="in" result="pf_100_dropShadow"/><feBlend xmlns="http://www.w3.org/2000/svg" in="SourceGraphic" in2="pf_100_dropShadow" mode="normal"/></filter></defs><g filter="url(#qHGccGJaNt4gWeCNKZYLlhA97TavvCGK)"><path d="M 39 99.9 L 39 99.9 C 39.552 99.9 40 100.348 40 100.9 L 40 109.1 C 40 109.652 39.552 110.1 39 110.1 L 39 110.1 C 38.448 110.1 38 109.652 38 109.1 L 38 100.9 C 38 100.348 38.448 99.9 39 99.9 Z" style="stroke:none;fill:#C14A5E;stroke-miterlimit:10;"/></g><defs><filter id="KHZVjueX0kE5doPKUEHyJeGiXF4gA6WW" x="-200%" y="-200%" width="400%" height="400%" filterUnits="objectBoundingBox" color-interpolation-filters="sRGB"><feGaussianBlur xmlns="http://www.w3.org/2000/svg" in="SourceGraphic" stdDeviation="0"/><feOffset xmlns="http://www.w3.org/2000/svg" dx="1" dy="1" result="pf_100_offsetBlur"/><feFlood xmlns="http://www.w3.org/2000/svg" flood-color="#341C53" flood-opacity="0.8"/><feComposite xmlns="http://www.w3.org/2000/svg" in2="pf_100_offsetBlur" operator="in" result="pf_100_dropShadow"/><feBlend xmlns="http://www.w3.org/2000/svg" in="SourceGraphic" in2="pf_100_dropShadow" mode="normal"/></filter></defs><g filter="url(#KHZVjueX0kE5doPKUEHyJeGiXF4gA6WW)"><path d="M 30 105.1 L 30 105.1 C 30.552 105.1 31 105.548 31 106.1 L 31 114.3 C 31 114.852 30.552 115.3 30 115.3 L 30 115.3 C 29.448 115.3 29 114.852 29 114.3 L 29 106.1 C 29 105.548 29.448 105.1 30 105.1 Z" style="stroke:none;fill:#C14A5E;stroke-miterlimit:10;"/></g><defs><filter id="QRmW7zdXmDpjNIFAOJYAqejOFvpHIe02" x="-200%" y="-200%" width="400%" height="400%" filterUnits="objectBoundingBox" color-interpolation-filters="sRGB"><feGaussianBlur xmlns="http://www.w3.org/2000/svg" in="SourceGraphic" stdDeviation="0"/><feOffset xmlns="http://www.w3.org/2000/svg" dx="1" dy="1" result="pf_100_offsetBlur"/><feFlood xmlns="http://www.w3.org/2000/svg" flood-color="#341C53" flood-opacity="0.8"/><feComposite xmlns="http://www.w3.org/2000/svg" in2="pf_100_offsetBlur" operator="in" result="pf_100_dropShadow"/><feBlend xmlns="http://www.w3.org/2000/svg" in="SourceGraphic" in2="pf_100_dropShadow" mode="normal"/></filter></defs><g filter="url(#QRmW7zdXmDpjNIFAOJYAqejOFvpHIe02)"><path d="M 60 105.1 L 60 105.1 C 60.552 105.1 61 105.548 61 106.1 L 61 114.3 C 61 114.852 60.552 115.3 60 115.3 L 60 115.3 C 59.448 115.3 59 114.852 59 114.3 L 59 106.1 C 59 105.548 59.448 105.1 60 105.1 Z" style="stroke:none;fill:#C14A5E;stroke-miterlimit:10;"/></g><defs><filter id="C5B4zNY1ak8mXEKft8X73VPoTsZOPyXu" x="-200%" y="-200%" width="400%" height="400%" filterUnits="objectBoundingBox" color-interpolation-filters="sRGB"><feGaussianBlur xmlns="http://www.w3.org/2000/svg" in="SourceGraphic" stdDeviation="0"/><feOffset xmlns="http://www.w3.org/2000/svg" dx="1" dy="1" result="pf_100_offsetBlur"/><feFlood xmlns="http://www.w3.org/2000/svg" flood-color="#341C53" flood-opacity="0.8"/><feComposite xmlns="http://www.w3.org/2000/svg" in2="pf_100_offsetBlur" operator="in" result="pf_100_dropShadow"/><feBlend xmlns="http://www.w3.org/2000/svg" in="SourceGraphic" in2="pf_100_dropShadow" mode="normal"/></filter></defs><g filter="url(#C5B4zNY1ak8mXEKft8X73VPoTsZOPyXu)"><path d="M 80 105.1 L 80 105.1 C 80.552 105.1 81 105.548 81 106.1 L 81 114.3 C 81 114.852 80.552 115.3 80 115.3 L 80 115.3 C 79.448 115.3 79 114.852 79 114.3 L 79 106.1 C 79 105.548 79.448 105.1 80 105.1 Z" style="stroke:none;fill:#C14A5E;stroke-miterlimit:10;"/></g><defs><filter id="bfPxbjdjUc1F7HVvntUBUXRnlJVpHfeD" x="-200%" y="-200%" width="400%" height="400%" filterUnits="objectBoundingBox" color-interpolation-filters="sRGB"><feGaussianBlur xmlns="http://www.w3.org/2000/svg" in="SourceGraphic" stdDeviation="0"/><feOffset xmlns="http://www.w3.org/2000/svg" dx="1" dy="1" result="pf_100_offsetBlur"/><feFlood xmlns="http://www.w3.org/2000/svg" flood-color="#341C53" flood-opacity="0.8"/><feComposite xmlns="http://www.w3.org/2000/svg" in2="pf_100_offsetBlur" operator="in" result="pf_100_dropShadow"/><feBlend xmlns="http://www.w3.org/2000/svg" in="SourceGraphic" in2="pf_100_dropShadow" mode="normal"/></filter></defs><g filter="url(#bfPxbjdjUc1F7HVvntUBUXRnlJVpHfeD)"><path d="M 100 104.9 L 100 104.9 C 100.552 104.9 101 105.348 101 105.9 L 101 114.1 C 101 114.652 100.552 115.1 100 115.1 L 100 115.1 C 99.448 115.1 99 114.652 99 114.1 L 99 105.9 C 99 105.348 99.448 104.9 100 104.9 Z" style="stroke:none;fill:#C14A5E;stroke-miterlimit:10;"/></g><defs><filter id="j7ObmMuQkMVCh0IPjAojRtas9IKcmJgL" x="-200%" y="-200%" width="400%" height="400%" filterUnits="objectBoundingBox" color-interpolation-filters="sRGB"><feGaussianBlur xmlns="http://www.w3.org/2000/svg" in="SourceGraphic" stdDeviation="0"/><feOffset xmlns="http://www.w3.org/2000/svg" dx="1" dy="1" result="pf_100_offsetBlur"/><feFlood xmlns="http://www.w3.org/2000/svg" flood-color="#341C53" flood-opacity="0.8"/><feComposite xmlns="http://www.w3.org/2000/svg" in2="pf_100_offsetBlur" operator="in" result="pf_100_dropShadow"/><feBlend xmlns="http://www.w3.org/2000/svg" in="SourceGraphic" in2="pf_100_dropShadow" mode="normal"/></filter></defs><g filter="url(#j7ObmMuQkMVCh0IPjAojRtas9IKcmJgL)"><path d="M 49 99.9 L 49 99.9 C 49.552 99.9 50 100.348 50 100.9 L 50 109.1 C 50 109.652 49.552 110.1 49 110.1 L 49 110.1 C 48.448 110.1 48 109.652 48 109.1 L 48 100.9 C 48 100.348 48.448 99.9 49 99.9 Z" style="stroke:none;fill:#C14A5E;stroke-miterlimit:10;"/></g><defs><filter id="v1fsFuhK8HnTkalMEkdY1tEofDFAFC1t" x="-200%" y="-200%" width="400%" height="400%" filterUnits="objectBoundingBox" color-interpolation-filters="sRGB"><feGaussianBlur xmlns="http://www.w3.org/2000/svg" in="SourceGraphic" stdDeviation="0"/><feOffset xmlns="http://www.w3.org/2000/svg" dx="1" dy="1" result="pf_100_offsetBlur"/><feFlood xmlns="http://www.w3.org/2000/svg" flood-color="#341C53" flood-opacity="0.8"/><feComposite xmlns="http://www.w3.org/2000/svg" in2="pf_100_offsetBlur" operator="in" result="pf_100_dropShadow"/><feBlend xmlns="http://www.w3.org/2000/svg" in="SourceGraphic" in2="pf_100_dropShadow" mode="normal"/></filter></defs><g filter="url(#v1fsFuhK8HnTkalMEkdY1tEofDFAFC1t)"><path d="M 90 99.9 L 90 99.9 C 90.552 99.9 91 100.348 91 100.9 L 91 109.1 C 91 109.652 90.552 110.1 90 110.1 L 90 110.1 C 89.448 110.1 89 109.652 89 109.1 L 89 100.9 C 89 100.348 89.448 99.9 90 99.9 Z" style="stroke:none;fill:#C14A5E;stroke-miterlimit:10;"/></g><defs><filter id="ohLep4496I73WYizfQA0HqYQbgiqpRr0" x="-200%" y="-200%" width="400%" height="400%" filterUnits="objectBoundingBox" color-interpolation-filters="sRGB"><feGaussianBlur xmlns="http://www.w3.org/2000/svg" in="SourceGraphic" stdDeviation="0"/><feOffset xmlns="http://www.w3.org/2000/svg" dx="1" dy="1" result="pf_100_offsetBlur"/><feFlood xmlns="http://www.w3.org/2000/svg" flood-color="#341C53" flood-opacity="0.8"/><feComposite xmlns="http://www.w3.org/2000/svg" in2="pf_100_offsetBlur" operator="in" result="pf_100_dropShadow"/><feBlend xmlns="http://www.w3.org/2000/svg" in="SourceGraphic" in2="pf_100_dropShadow" mode="normal"/></filter></defs><g filter="url(#ohLep4496I73WYizfQA0HqYQbgiqpRr0)"><path d="M 70 99.9 L 70 99.9 C 70.552 99.9 71 100.348 71 100.9 L 71 109.1 C 71 109.652 70.552 110.1 70 110.1 L 70 110.1 C 69.448 110.1 69 109.652 69 109.1 L 69 100.9 C 69 100.348 69.448 99.9 70 99.9 Z" style="stroke:none;fill:#C14A5E;stroke-miterlimit:10;"/></g></g></svg>