<?xml version="1.0" encoding="UTF-8" standalone="no"?><!-- Generator: Gravit.io --><svg xmlns="http://www.w3.org/2000/svg" xmlns:xlink="http://www.w3.org/1999/xlink" style="isolation:isolate" viewBox="0 0 553.316 786.561" width="553.316pt" height="786.561pt"><defs><clipPath id="_clipPath_w9eEbsMTANQYb8eZBkdjytRIgfuf9jFq"><rect width="553.316" height="786.561"/></clipPath></defs><g clip-path="url(#_clipPath_w9eEbsMTANQYb8eZBkdjytRIgfuf9jFq)"><g><g><path d=" M 46.56 764.06 C 44.718 746.71 70.653 724.06 101.56 724.06 C 132.467 724.06 162.56 737.298 162.56 748.06 C 162.56 758.823 132.467 778.06 101.56 778.06 C 70.653 778.06 48.075 778.342 46.56 764.06 Z " fill="rgb(103,140,46)" vector-effect="non-scaling-stroke" stroke-width="5" stroke="rgb(32,38,23)" stroke-linejoin="miter" stroke-linecap="square" stroke-miterlimit="3"/><path d=" M 51.514 765.324 C 54.514 756.217 82.707 760.52 106.514 756.061 C 133.817 750.946 164.635 739.19 159.514 750.061 C 153.983 761.798 128.201 772.248 116.514 774.061 C 86.718 778.681 47.975 776.065 51.514 765.324 Z " fill="rgb(84,113,41)"/></g><g><path d=" M 511.312 537.177 C 512.764 545.99 513.514 554.982 513.514 564.113 C 513.514 676.186 400.596 767.175 261.514 767.175 C 122.431 767.175 9.514 676.186 9.514 564.113 L 9.514 564.113 C 9.514 539.199 15.093 515.328 25.308 493.269 C 31.632 475.003 66.447 388.902 88.514 273.666 C 97.44 227.051 93.011 213.196 112.045 157.052 C 125.228 101.277 188.521 58.946 264.514 58.946 C 327.328 58.946 381.465 87.869 405.815 129.392 C 450.793 189.875 463.359 221.892 474.514 277.666 C 485.512 332.657 495.704 405.95 504.514 474.666 Q 509.385 512.663 511.312 537.177 Z  M 403.514 128.666 M 407.514 136.666" fill-rule="evenodd" fill="rgb(163,166,83)" vector-effect="non-scaling-stroke" stroke-width="5" stroke="rgb(32,38,23)" stroke-linejoin="miter" stroke-linecap="square" stroke-miterlimit="3"/></g><g><path d=" M 492.534 525.092 C 493.877 533.259 494.57 541.591 494.57 550.052 C 494.57 653.906 390.141 738.222 261.514 738.222 C 132.886 738.222 28.457 653.906 28.457 550.052 L 28.457 550.052 L 28.457 550.052 C 28.457 526.966 33.618 504.845 43.065 484.404 L 43.065 484.404 C 48.913 467.478 81.111 387.691 101.519 280.908 C 109.767 237.747 105.685 224.894 123.237 172.976 C 135.372 121.23 193.947 81.935 264.288 81.935 C 322.38 81.935 372.448 108.737 394.967 147.215 C 436.564 203.262 448.185 232.931 458.502 284.614 C 468.673 335.572 478.099 403.49 486.246 467.166 Q 490.752 502.376 492.534 525.092 Z  M 509.329 536.436 C 510.77 545.197 511.514 554.134 511.514 563.211 C 511.514 674.615 399.492 765.061 261.514 765.061 C 123.535 765.061 11.514 674.615 11.514 563.211 L 11.514 563.211 C 11.514 538.446 17.049 514.717 27.183 492.79 C 33.456 474.633 67.995 389.046 89.887 274.499 C 98.742 228.162 94.349 214.389 113.231 158.581 C 126.31 103.139 189.1 61.061 264.49 61.061 C 326.806 61.061 380.513 89.81 404.67 131.086 C 449.291 191.208 461.757 223.034 472.823 278.475 C 483.734 333.137 493.845 405.993 502.585 474.298 Q 507.418 512.068 509.329 536.436 L 509.329 536.436 L 509.329 536.436 L 509.329 536.436 Z  M 402.387 130.364 M 406.355 138.317 M 392.839 146.542 M 396.538 153.955" fill-rule="evenodd" fill="rgb(134,136,81)"/></g><g><g><path d=" M 511.812 537.177 C 513.264 545.99 514.014 554.982 514.014 564.113 C 514.014 672.128 409.126 760.558 277.014 766.816 C 281.976 767.056 286.977 767.175 292.014 767.175 C 431.096 767.175 544.014 676.186 544.014 564.113 C 544.014 554.982 543.264 545.99 541.812 537.177 Q 539.885 512.663 535.014 474.666 C 526.204 405.95 516.012 332.657 505.014 277.666 C 493.859 221.892 481.293 189.875 436.315 129.392 C 411.965 87.869 357.828 58.946 295.014 58.946 C 289.938 58.946 284.92 59.135 279.975 59.521 C 336.194 63.674 383.679 91.069 406.108 129.117 C 451.255 189.78 463.842 221.809 475.014 277.666 C 486.012 332.657 496.204 405.95 505.014 474.666 Q 509.885 512.663 511.812 537.177 Z  M 434.014 128.666 M 438.014 136.666 M 404.014 128.666 M 408.014 136.666" fill-rule="evenodd" fill="rgb(103,140,46)" vector-effect="non-scaling-stroke" stroke-width="5" stroke="rgb(32,38,23)" stroke-linejoin="miter" stroke-linecap="square" stroke-miterlimit="3"/></g><g><path d=" M 525.249 537.177 C 526.707 545.99 527.46 554.982 527.46 564.113 C 527.46 674.299 417.891 764.105 281.514 767.088 C 283.846 767.149 286.19 767.175 288.541 767.175 C 428.16 767.175 541.514 676.186 541.514 564.113 C 541.514 554.982 540.761 545.99 539.303 537.177 Q 537.369 512.663 532.479 474.666 C 523.635 405.95 513.404 332.657 502.363 277.666 C 491.165 221.892 478.551 189.875 433.399 129.392 C 408.956 87.869 354.609 58.946 291.552 58.946 C 289.181 58.946 286.822 58.987 284.483 59.088 C 344.42 61.115 395.586 89.291 419.159 129.146 C 464.463 189.79 477.096 221.818 488.309 277.666 C 499.35 332.657 509.581 405.95 518.425 474.666 Q 523.315 512.663 525.249 537.177 Z  M 431.089 128.666 M 435.104 136.666 M 417.035 128.666 M 421.05 136.666" fill-rule="evenodd" fill="rgb(84,113,41)"/></g></g><g><path d=" M 127.068 568.209 C 141.925 491.274 226.765 405.358 291.096 418.378 C 403.107 441.048 395.115 541.566 380.258 618.502 C 365.401 695.437 287.906 707.433 223.462 694.988 C 159.018 682.544 112.211 645.144 127.068 568.209 Z " fill="rgb(147,91,58)" vector-effect="non-scaling-stroke" stroke-width="5" stroke="rgb(32,38,23)" stroke-linejoin="miter" stroke-linecap="square" stroke-miterlimit="3"/><path d=" M 163.514 502.061 C 200.752 441.703 277.642 428.438 283.514 432.061 C 289.385 435.683 230.752 460.703 193.514 521.061 C 156.275 581.419 151.385 622.683 145.514 619.061 C 139.642 615.438 126.275 562.419 163.514 502.061 Z " fill="rgb(185,134,104)"/><path d=" M 358.44 649.181 C 313.189 718.37 188.554 681.911 180.44 673.061 C 174.94 667.061 280.045 683.164 315.44 632.181 C 369.94 553.681 353.936 468.859 362.44 468.181 C 377.9 466.948 395.65 592.288 358.44 649.181 Z " fill="rgb(102,64,42)"/><path d=" M 200.514 504.384 C 210.092 487.609 251.536 455.256 253.514 456.384 C 255.491 457.513 215.092 489.981 205.514 506.756 C 195.937 523.531 176.044 561.73 174.514 561.061 C 170.514 559.311 190.937 521.16 200.514 504.384 Z " fill="rgb(255,255,255)"/></g><g><path d=" M 388.014 762.061 C 388.014 746.055 420.003 723.061 452.014 723.061 C 484.025 723.061 515.014 746.055 515.014 762.061 C 515.014 778.066 489.025 779.061 457.014 779.061 C 425.003 779.061 388.014 778.066 388.014 762.061 Z " fill="rgb(103,140,46)" vector-effect="non-scaling-stroke" stroke-width="5" stroke="rgb(32,38,23)" stroke-linejoin="miter" stroke-linecap="square" stroke-miterlimit="3"/><path d=" M 390.528 764.967 C 389.242 757.623 422.806 761.21 448.528 756.967 C 479.597 751.842 511.241 755.506 511.528 763.967 C 511.645 767.413 510.476 773.363 487.528 775.967 C 478.329 777.01 466.525 777.212 448.528 776.967 C 402.591 776.342 391.551 770.81 390.528 764.967 Z " fill="rgb(84,113,41)"/></g><path d=" M 258.514 556.061 L 260.514 752.675 C 279.119 750.881 296.756 755.126 313.424 752.675 C 440.182 734.038 510.873 697.447 525.014 658.561 C 539.154 619.674 559.639 567.936 532.514 454.061 C 526.877 420.525 519.768 374.953 507.339 319.311 C 483.468 337.121 380.299 407.381 258.514 556.061 Z " fill="rgb(214,185,170)" vector-effect="non-scaling-stroke" stroke-width="5" stroke="rgb(70,61,50)" stroke-linejoin="miter" stroke-linecap="square" stroke-miterlimit="3"/><g><path d=" M 26.449 397.411 C 38.692 366.922 65.027 340.4 73.478 343.793 C 81.928 347.186 75.692 374.694 63.449 405.183 C 51.206 435.672 37.564 457.67 29.114 454.276 C 20.663 450.883 14.206 427.9 26.449 397.411 Z " fill="rgb(103,140,46)" vector-effect="non-scaling-stroke" stroke-width="5" stroke="rgb(32,38,23)" stroke-linejoin="miter" stroke-linecap="square" stroke-miterlimit="3"/><path d=" M 47.514 410.942 C 56.561 391.716 69.769 347.828 74.514 350.061 C 76.99 351.226 71.822 380.545 60.514 407.061 C 54.813 420.428 48.232 433.604 42.514 442.061 C 37.842 448.97 32.533 452.541 31.514 452.061 C 26.769 449.828 38.466 430.169 47.514 410.942 Z " fill="rgb(84,113,41)"/></g><path d=" M 18.701 425.623 C 19.545 424.981 31.076 419.248 37.639 420.373 Q 44.201 421.498 50.014 432.748 L 73.264 338.811 Q 77.519 333.215 61.264 342.561 C 34.921 357.706 9.524 432.6 18.701 425.623 Z " fill="rgb(214,185,170)" vector-effect="non-scaling-stroke" stroke-width="5" stroke="rgb(78,69,57)" stroke-linejoin="miter" stroke-linecap="square" stroke-miterlimit="3"/><path d=" M 38.576 418.092 C 40.732 414.623 45.107 403.92 50.732 385.498 C 56.357 367.076 64.232 346.217 67.42 342.174 C 61.309 368.963 53.998 395.508 45.349 421.779 C 43.17 419.717 42.201 419.373 38.576 418.092 Z " fill="rgb(153,132,122)"/><path d=" M 451.514 714.727 C 480.129 705.054 502.483 691.033 518.18 667.061 C 538.18 625.061 548.514 575.727 540.847 513.061 C 533.764 470.811 513.514 344.061 505.823 343.499 C 501.186 343.393 487.154 341.463 483.912 350.6 C 472.128 383.806 495.926 480.683 497.014 552.561 C 493.023 572.758 501.139 622.686 486.514 650.061 C 471.889 677.436 394.18 740.061 451.514 714.727 Z " fill="rgb(153,132,122)"/><g><path d=" M 502.084 401.003 C 501.555 368.152 502.696 335.725 511.801 335.579 C 520.907 335.432 538.592 385.94 539.12 418.791 C 539.649 451.642 522.822 454.475 513.716 454.621 C 504.611 454.767 502.612 433.854 502.084 401.003 Z " fill="rgb(103,140,46)" vector-effect="non-scaling-stroke" stroke-width="5" stroke="rgb(32,38,23)" stroke-linejoin="miter" stroke-linecap="square" stroke-miterlimit="3"/><path d=" M 522.89 406.912 C 522.626 402.694 507.112 338.892 512.35 338.653 C 513.584 338.597 517.913 343.934 523.598 358.417 C 529.283 372.9 534.444 393.063 535.743 408.821 C 537.361 423.25 535.05 434.307 534.223 437.341 C 533.396 440.376 531.747 443.186 530.177 445.203 C 528.95 446.78 527.77 447.872 527.069 448.205 C 526.368 448.537 523.347 450.811 521.409 450.889 C 519.471 450.966 523.154 411.129 522.89 406.912 Z " fill="rgb(84,113,41)"/></g><path d="M 509.714 423.231 L 510.634 423.47 C 511.031 423.573 511.27 423.979 511.167 424.376 L 509.688 430.076 C 509.585 430.473 509.179 430.712 508.782 430.609 L 507.862 430.37 C 507.465 430.267 507.226 429.861 507.329 429.464 L 508.808 423.764 C 508.911 423.367 509.317 423.128 509.714 423.231 Z" style="stroke:none;fill:#EBEBEB;stroke-miterlimit:10;"/><path d="M 507.417 423.466 L 508.337 423.704 C 508.735 423.808 508.973 424.214 508.87 424.611 L 507.391 430.31 C 507.288 430.707 506.882 430.946 506.485 430.843 L 505.565 430.604 C 505.168 430.501 504.929 430.095 505.032 429.698 L 506.511 423.999 C 506.614 423.601 507.02 423.363 507.417 423.466 Z" style="stroke:none;fill:#EBEBEB;stroke-miterlimit:10;"/><path d=" M 509.278 327.918 C 495.696 331.314 498.944 442.337 504.626 435.519 Q 501.979 417.165 522.439 419.394 C 541.376 421.456 538.96 429.831 537.626 433.831 C 534.033 444.612 549.296 418.547 544.514 394.918 C 533.18 338.918 514.611 326.585 509.278 327.918 Z " fill="rgb(214,185,170)" vector-effect="non-scaling-stroke" stroke-width="5" stroke="rgb(70,61,50)" stroke-linejoin="miter" stroke-linecap="square" stroke-miterlimit="3"/><path d=" M 510.295 330.342 C 513.639 330.811 518.795 335.373 523.826 343.311 C 528.857 351.248 534.467 363.795 540.326 386.623 Q 546.185 409.451 539.764 424.498 C 537.998 422.387 537.783 422.225 536.148 420.854 C 534.514 419.482 525.67 416.654 519.748 416.686 C 519.748 409.594 522.135 399.643 522.639 389.561 C 523.056 381.209 522.889 375.936 521.014 366.186 C 519.139 356.436 506.951 329.873 510.295 330.342 Z " fill="rgb(153,132,122)"/><path d=" M 374.18 332.061 C 390.146 324.344 420.514 317.311 434.514 306.311 Q 448.514 295.311 499.014 269.811 L 403.514 390.061 Q 334.18 351.394 374.18 332.061 Z " fill="rgb(193,74,94)" vector-effect="non-scaling-stroke" stroke-width="5" stroke="rgb(136,45,60)" stroke-linejoin="miter" stroke-linecap="square" stroke-miterlimit="3"/><path d=" M 213.167 333.576 C 197.202 325.859 166.834 318.826 152.834 307.826 Q 138.834 296.826 88.334 271.326 L 183.834 391.576 Q 253.167 352.909 213.167 333.576 Z " fill="rgb(193,74,94)" vector-effect="non-scaling-stroke" stroke-width="5" stroke="rgb(136,45,60)" stroke-linejoin="miter" stroke-linecap="square" stroke-miterlimit="3"/><path d=" M 385.847 354.394 C 382.242 344.851 399.362 332.478 425.847 320.061 C 452.332 307.643 477.528 287.848 481.847 297.061 C 486.166 306.273 471.862 343.339 445.376 355.756 C 418.891 368.173 391.514 369.394 385.847 354.394 Z " fill="rgb(162,56,74)"/><path d=" M 187.13 350.394 C 190.735 340.851 173.616 328.478 147.13 316.061 C 120.645 303.643 95.449 283.848 91.13 293.061 C 86.811 302.273 101.116 339.339 127.601 351.756 C 154.086 364.173 181.464 365.394 187.13 350.394 Z " fill="rgb(162,56,74)"/><path d=" M 169.639 356.436 C 195.614 298.449 234.249 290.334 285.514 332.061 C 340.905 294.873 378.248 307.55 397.514 370.061 L 333.514 438.061 Q 306.18 500.894 277.514 503.561 Q 248.847 506.227 217.514 422.061 L 169.639 356.436 Z " fill="rgb(193,74,94)" vector-effect="non-scaling-stroke" stroke-width="5" stroke="rgb(136,45,60)" stroke-linejoin="miter" stroke-linecap="square" stroke-miterlimit="3"/><path d=" M 172.514 359.686 C 172.514 324.363 227.61 405.394 281.514 405.394 C 335.417 405.394 394.17 335.738 394.17 371.061 C 394.17 406.383 332.751 506.061 278.847 506.061 C 224.943 506.061 172.514 395.008 172.514 359.686 Z " fill="rgb(162,56,74)"/><path d=" M 478.595 352.632 C 499.082 368.168 514.076 375.998 517.699 378.847 C 455.726 424.243 344.926 497.085 241.514 566.061 C 265.346 498.84 372.72 387.83 501.514 263.061 C 521.182 276.186 520.133 339.202 520.264 335.811 L 478.595 352.632 Z " fill="rgb(214,185,170)" vector-effect="non-scaling-stroke" stroke-width="5" stroke="rgb(70,61,50)" stroke-linejoin="miter" stroke-linecap="square" stroke-miterlimit="3"/><path d=" M 296.014 554.061 L 302.014 758.061 Q 180.15 760.849 128.18 740.061 C 81.514 721.394 47.514 710.727 28.514 679.061 C 9.514 647.394 -1.486 547.561 17.014 506.061 C 35.514 464.561 43.69 438.071 62.764 373.061 L 75.014 318.311 C 98.885 336.121 174.228 405.381 296.014 554.061 Z " fill="rgb(214,185,170)" vector-effect="non-scaling-stroke" stroke-width="5" stroke="rgb(70,61,50)" stroke-linejoin="miter" stroke-linecap="square" stroke-miterlimit="3"/><path d=" M 103.138 347.156 C 80.453 359.259 65.389 363.686 60.383 366.863 C 135.056 446.035 219.14 502.444 297.514 557.061 Q 268.779 469.806 88.264 254.061 C 66.768 263.913 63.106 324.93 63.514 321.561 L 103.138 347.156 Z " fill="rgb(214,185,170)" vector-effect="non-scaling-stroke" stroke-width="5" stroke="rgb(78,69,57)" stroke-linejoin="miter" stroke-linecap="square" stroke-miterlimit="3"/><g><circle vector-effect="non-scaling-stroke" cx="277.0135782319501" cy="574.0606079101564" r="12" fill="rgb(153,132,122)" stroke-width="5" stroke="rgb(78,69,57)" stroke-linejoin="miter" stroke-linecap="butt" stroke-miterlimit="3"/><circle vector-effect="non-scaling-stroke" cx="273.0135782319499" cy="571.0606079101564" r="1.5390625000000568" fill="rgb(70,61,50)"/><circle vector-effect="non-scaling-stroke" cx="273.0135782319499" cy="577.5996704101562" r="1.5390625000000568" fill="rgb(78,69,57)"/><circle vector-effect="non-scaling-stroke" cx="281.01357823195" cy="571.0606079101562" r="1.5390625000000568" fill="rgb(78,69,57)"/><circle vector-effect="non-scaling-stroke" cx="281.0135782319499" cy="577.599670410156" r="1.5390625000000568" fill="rgb(78,69,57)"/></g><g><circle vector-effect="non-scaling-stroke" cx="277.0135782319501" cy="641.0606079101565" r="12" fill="rgb(153,132,122)" stroke-width="5" stroke="rgb(70,61,50)" stroke-linejoin="miter" stroke-linecap="butt" stroke-miterlimit="3"/><circle vector-effect="non-scaling-stroke" cx="273.0135782319499" cy="638.0606079101562" r="1.5390625000000568" fill="rgb(78,69,57)"/><circle vector-effect="non-scaling-stroke" cx="273.0135782319499" cy="644.5996704101564" r="1.5390625000000568" fill="rgb(78,69,57)"/><circle vector-effect="non-scaling-stroke" cx="281.01357823195" cy="638.0606079101561" r="1.5390625000000568" fill="rgb(78,69,57)"/><circle vector-effect="non-scaling-stroke" cx="281.01357823194985" cy="644.5996704101559" r="1.5390625000000568" fill="rgb(107,93,81)"/></g><g><g><path d="M 168.873 560.466 L 104.083 552.541 C 97.801 551.773 92.077 556.249 91.309 562.531 L 82.544 634.188 C 81.776 640.469 86.252 646.193 92.534 646.962 L 157.324 654.886 C 163.606 655.655 169.33 651.178 170.098 644.896 L 178.862 573.24 C 179.631 566.958 175.154 561.234 168.873 560.466 Z" style="stroke:none;fill:#D6B9AA;stroke-miterlimit:10;"/><path d="M 168.873 560.466 L 104.083 552.541 C 97.801 551.773 92.077 556.249 91.309 562.531 L 82.544 634.188 C 81.776 640.469 86.252 646.193 92.534 646.962 L 157.324 654.886 C 163.606 655.655 169.33 651.178 170.098 644.896 L 178.862 573.24 C 179.631 566.958 175.154 561.234 168.873 560.466 Z" style="fill:none;stroke:#463D32;stroke-width:5;stroke-linecap:square;stroke-miterlimit:2;"/><path d="M 168.403 560.408 L 104.552 552.599 C 98.011 551.799 92.052 556.459 91.252 563 L 89.064 580.881 C 88.264 587.422 92.925 593.382 99.466 594.182 L 163.317 601.992 C 169.858 602.792 175.818 598.131 176.618 591.59 L 178.805 573.709 C 179.605 567.168 174.944 561.208 168.403 560.408 Z" style="stroke:none;fill:#D6B9AA;stroke-linecap:square;stroke-miterlimit:2;"/><path d="M 168.403 560.408 L 104.552 552.599 C 98.011 551.799 92.052 556.459 91.252 563 L 89.064 580.881 C 88.264 587.422 92.925 593.382 99.466 594.182 L 163.317 601.992 C 169.858 602.792 175.818 598.131 176.618 591.59 L 178.805 573.709 C 179.605 567.168 174.944 561.208 168.403 560.408 Z" style="fill:none;stroke:#4E4539;stroke-width:5;stroke-linecap:square;stroke-miterlimit:2;"/><path d=" M 139.872 588.108 C 140.355 584.161 137.542 580.563 133.594 580.08 C 129.646 579.598 126.049 582.411 125.566 586.359 C 125.083 590.306 127.896 593.904 131.844 594.387 C 135.792 594.869 139.389 592.056 139.872 588.108 Z " fill="rgb(153,132,122)"/></g><path d=" M 163.377 610.344 Q 166.584 610.686 171.629 608.794 L 172.313 602.93 C 169.368 604.795 165.103 605.074 163.508 604.898 C 144.997 602.736 102.875 597.6 98.558 596.965 Q 94.241 596.329 90.499 592.895 L 89.752 598.724 C 91.35 600.039 93.62 601.768 96.358 602.128 C 125.858 606.01 138.835 607.724 163.377 610.344 Z " fill="rgb(153,132,122)"/></g><g><g><path d="M 397.344 560.466 L 462.134 552.541 C 468.416 551.773 474.14 556.249 474.908 562.531 L 483.673 634.188 C 484.441 640.469 479.965 646.193 473.683 646.962 L 408.893 654.886 C 402.611 655.655 396.887 651.178 396.119 644.896 L 387.355 573.24 C 386.586 566.958 391.062 561.234 397.344 560.466 Z" style="stroke:none;fill:#D6B9AA;stroke-linecap:square;stroke-miterlimit:2;"/><path d="M 397.344 560.466 L 462.134 552.541 C 468.416 551.773 474.14 556.249 474.908 562.531 L 483.673 634.188 C 484.441 640.469 479.965 646.193 473.683 646.962 L 408.893 654.886 C 402.611 655.655 396.887 651.178 396.119 644.896 L 387.355 573.24 C 386.586 566.958 391.062 561.234 397.344 560.466 Z" style="fill:none;stroke:#4E4539;stroke-width:5;stroke-linecap:square;stroke-miterlimit:2;"/><path d="M 397.814 560.408 L 461.665 552.599 C 468.206 551.799 474.165 556.459 474.965 563 L 477.153 580.881 C 477.953 587.422 473.292 593.382 466.751 594.182 L 402.9 601.992 C 396.359 602.792 390.399 598.131 389.599 591.59 L 387.412 573.709 C 386.612 567.168 391.273 561.208 397.814 560.408 Z" style="stroke:none;fill:#D6B9AA;stroke-linecap:square;stroke-miterlimit:2;"/><path d="M 397.814 560.408 L 461.665 552.599 C 468.206 551.799 474.165 556.459 474.965 563 L 477.153 580.881 C 477.953 587.422 473.292 593.382 466.751 594.182 L 402.9 601.992 C 396.359 602.792 390.399 598.131 389.599 591.59 L 387.412 573.709 C 386.612 567.168 391.273 561.208 397.814 560.408 Z" style="fill:none;stroke:#4E4539;stroke-width:5;stroke-linecap:square;stroke-miterlimit:2;"/><path d=" M 426.345 588.108 C 425.862 584.161 428.675 580.563 432.623 580.08 C 436.571 579.598 440.168 582.411 440.651 586.359 C 441.134 590.306 438.321 593.904 434.373 594.387 C 430.425 594.869 426.828 592.056 426.345 588.108 Z " fill="rgb(153,132,122)"/></g><path d=" M 402.84 610.344 Q 399.633 610.686 394.588 608.794 L 393.904 602.93 C 396.849 604.795 401.114 605.074 402.709 604.898 C 421.22 602.736 463.341 597.6 467.659 596.965 Q 471.976 596.329 475.718 592.895 L 476.465 598.724 C 474.867 600.039 472.597 601.768 469.859 602.128 C 440.359 606.01 427.382 607.724 402.84 610.344 Z " fill="rgb(153,132,122)"/></g><g><path d=" M 255.514 359.561 Q 250.514 379.561 246.514 420.061" fill="none" vector-effect="non-scaling-stroke" stroke-width="5" stroke="rgb(136,45,60)" stroke-linejoin="miter" stroke-linecap="square" stroke-miterlimit="3"/><circle vector-effect="non-scaling-stroke" cx="256.0838907319601" cy="357.2559204101562" r="2.4921875" fill="rgb(136,45,60)"/><circle vector-effect="non-scaling-stroke" cx="246.27529698195997" cy="422.55279541015597" r="2.4921875" fill="rgb(136,45,60)"/></g><g><path d=" M 290.846 359.894 Q 295.846 379.894 299.846 420.394" fill="none" vector-effect="non-scaling-stroke" stroke-width="5" stroke="rgb(136,45,60)" stroke-linejoin="miter" stroke-linecap="square" stroke-miterlimit="3"/><circle vector-effect="non-scaling-stroke" cx="290.27529698195997" cy="357.58925374348945" r="2.4921875" fill="rgb(136,45,60)"/><circle vector-effect="non-scaling-stroke" cx="300.08389073195997" cy="422.8861287434892" r="2.4921875" fill="rgb(136,45,60)"/></g><circle vector-effect="non-scaling-stroke" cx="530.2010782319601" cy="429.3731079101561" r="4.875" fill="rgb(235,235,235)" stroke-width="3" stroke="rgb(217,191,25)" stroke-linejoin="miter" stroke-linecap="square" stroke-miterlimit="3"/><path d="M 523.448 423.372 L 524.369 423.611 C 524.766 423.714 525.005 424.12 524.901 424.517 L 523.423 430.216 C 523.319 430.614 522.913 430.852 522.516 430.749 L 521.596 430.511 C 521.199 430.407 520.96 430.001 521.063 429.604 L 522.542 423.905 C 522.645 423.508 523.051 423.269 523.448 423.372 Z" style="stroke:none;fill:#EBEBEB;stroke-linecap:square;stroke-miterlimit:2;"/><path d="M 521.261 422.934 L 522.181 423.173 C 522.578 423.276 522.817 423.682 522.714 424.08 L 521.235 429.779 C 521.132 430.176 520.726 430.415 520.329 430.312 L 519.409 430.073 C 519.011 429.97 518.773 429.564 518.876 429.167 L 520.355 423.467 C 520.458 423.07 520.864 422.831 521.261 422.934 Z" style="stroke:none;fill:#EBEBEB;stroke-linecap:square;stroke-miterlimit:2;"/><path d="M 519.011 422.872 L 519.931 423.111 C 520.328 423.214 520.567 423.62 520.464 424.017 L 518.985 429.716 C 518.882 430.114 518.476 430.352 518.079 430.249 L 517.159 430.011 C 516.761 429.907 516.523 429.501 516.626 429.104 L 518.105 423.405 C 518.208 423.008 518.614 422.769 519.011 422.872 Z" style="stroke:none;fill:#EBEBEB;stroke-linecap:square;stroke-miterlimit:2;"/><path d="M 516.761 422.684 L 517.681 422.923 C 518.078 423.026 518.317 423.432 518.214 423.83 L 516.735 429.529 C 516.632 429.926 516.226 430.165 515.829 430.062 L 514.909 429.823 C 514.511 429.72 514.273 429.314 514.376 428.917 L 515.855 423.217 C 515.958 422.82 516.364 422.581 516.761 422.684 Z" style="stroke:none;fill:#EBEBEB;stroke-linecap:square;stroke-miterlimit:2;"/><path d="M 514.448 422.684 L 515.369 422.923 C 515.766 423.026 516.005 423.432 515.901 423.83 L 514.423 429.529 C 514.319 429.926 513.913 430.165 513.516 430.062 L 512.596 429.823 C 512.199 429.72 511.96 429.314 512.063 428.917 L 513.542 423.217 C 513.645 422.82 514.051 422.581 514.448 422.684 Z" style="stroke:none;fill:#EBEBEB;stroke-linecap:square;stroke-miterlimit:2;"/><path d="M 512.011 422.997 L 512.931 423.236 C 513.328 423.339 513.567 423.745 513.464 424.142 L 511.985 429.841 C 511.882 430.239 511.476 430.477 511.079 430.374 L 510.159 430.136 C 509.761 430.032 509.523 429.626 509.626 429.229 L 511.105 423.53 C 511.208 423.133 511.614 422.894 512.011 422.997 Z" style="stroke:none;fill:#EBEBEB;stroke-linecap:square;stroke-miterlimit:2;"/><path d=" M 530.951 426.045 Q 530.201 429.045 530.06 429.561" fill="rgb(235,235,235)" vector-effect="non-scaling-stroke" stroke-width="1" stroke="rgb(45,43,35)" stroke-linejoin="miter" stroke-linecap="square" stroke-miterlimit="3"/><path d=" M 531.769 429.41 Q 529.92 429.054 529.601 428.985" fill="rgb(235,235,235)" vector-effect="non-scaling-stroke" stroke-width="1" stroke="rgb(45,43,35)" stroke-linejoin="miter" stroke-linecap="square" stroke-miterlimit="3"/><g><path d=" M 242.346 182.826 C 242.346 198.638 229.508 211.476 213.696 211.476 C 197.883 211.476 185.046 198.638 185.046 182.826 C 185.046 179.769 200.321 172.694 213.511 172.736 C 226.701 172.777 242.346 179.769 242.346 182.826 Z " fill="rgb(232,232,232)"/><path d=" M 203.574 173.82 C 206.825 173.119 210.216 172.694 213.479 172.704 C 222.635 172.733 232.974 176.111 238.423 179.196 C 239.007 181.025 239.313 182.975 239.313 184.996 C 239.313 195.827 230.519 204.621 219.688 204.621 C 208.856 204.621 200.063 195.827 200.063 184.996 C 200.063 180.841 201.357 176.986 203.574 173.82 Z " fill="rgb(0,0,0)"/><circle vector-effect="non-scaling-stroke" cx="222.3544191463261" cy="189.43887330887082" r="3.9218749999999716" fill="rgb(232,232,232)"/><path d=" M 205.131 173.483 C 207.924 172.96 210.789 172.655 213.561 172.663 C 216.863 172.674 220.319 173.12 223.636 173.845 C 223.842 174.63 223.952 175.454 223.952 176.304 C 223.952 181.616 219.639 185.929 214.327 185.929 C 209.015 185.929 204.702 181.616 204.702 176.304 C 204.702 175.321 204.85 174.373 205.131 173.483 Z " fill="rgb(232,232,232)"/><path d=" M 225.843 174.404 C 228.699 175.129 231.411 176.025 233.753 176.986 C 232.927 177.951 231.7 178.564 230.331 178.564 C 227.962 178.564 226.017 176.729 225.843 174.404 Z " fill="rgb(232,232,232)"/><path d=" M 239.566 175.065 C 240.41 177.677 240.841 180.428 240.841 183.222 L 240.841 183.222 C 240.841 190.422 237.981 197.332 232.891 202.422 C 227.801 207.512 220.891 210.372 213.701 210.372 L 213.691 210.372 C 206.501 210.372 199.591 207.512 194.501 202.422 C 189.411 197.332 186.551 190.422 186.551 183.222 C 186.551 176.022 189.411 169.112 194.501 164.022 C 199.544 158.979 206.373 156.125 213.492 156.075 L 213.549 153.074 C 205.61 153.11 197.997 156.285 192.381 161.902 C 186.721 167.552 183.551 175.232 183.551 183.222 C 183.551 191.212 186.721 198.892 192.381 204.542 C 198.031 210.192 205.701 213.372 213.691 213.372 L 213.701 213.372 C 221.691 213.372 229.361 210.192 235.011 204.542 C 240.671 198.892 243.841 191.212 243.841 183.222 L 243.841 183.222 C 243.841 180.24 243.399 177.3 242.528 174.501 L 239.566 175.065 L 239.566 175.065 Z " fill="rgb(0,0,0)"/><circle vector-effect="non-scaling-stroke" cx="213.65657368734162" cy="154.5758666992188" r="1.50634765625" fill="rgb(0,0,0)"/><circle vector-effect="non-scaling-stroke" cx="241.01399556234162" cy="174.57977294921875" r="1.5180664062500284" fill="rgb(0,0,0)"/><circle vector-effect="non-scaling-stroke" cx="197.92805806234162" cy="151.00946044921878" r="1.5180664062500284" fill="rgb(0,0,0)"/><circle vector-effect="non-scaling-stroke" cx="240.90462056234162" cy="150.26727294921872" r="1.5180664062500284" fill="rgb(0,0,0)"/><path d=" M 187.345 179.655 C 196.595 174.28 205.849 171.82 216.677 172.07 C 227.505 172.32 230.599 174.663 239.677 178.07" fill="none" vector-effect="non-scaling-stroke" stroke-width="5" stroke="rgb(0,0,0)" stroke-linejoin="miter" stroke-linecap="square" stroke-miterlimit="3"/><path d=" M 199.427 151.32 C 233.295 154.393 241.998 157.998 244.451 158.998 Q 254.689 161.552 241.953 151.171" fill="none" vector-effect="non-scaling-stroke" stroke-width="3" stroke="rgb(0,0,0)" stroke-linejoin="miter" stroke-linecap="square" stroke-miterlimit="3"/></g><g><g><g><path d=" M 342.074 180.041 C 342.074 195.854 329.236 208.691 313.424 208.691 C 297.611 208.691 284.774 195.854 284.774 180.041 C 284.774 176.985 300.049 169.91 313.239 169.951 C 326.429 169.993 342.074 176.985 342.074 180.041 Z " fill="rgb(232,232,232)"/><path d=" M 303.302 171.036 C 306.554 170.335 309.944 169.91 313.208 169.92 C 322.363 169.949 332.702 173.327 338.152 176.412 C 338.735 178.24 339.041 180.191 339.041 182.212 C 339.041 193.043 330.247 201.837 319.416 201.837 C 308.585 201.837 299.791 193.043 299.791 182.212 C 299.791 178.057 301.085 174.202 303.302 171.036 Z " fill="rgb(0,0,0)"/><circle vector-effect="non-scaling-stroke" cx="322.0825753658375" cy="186.65457159555118" r="3.921874999999943" fill="rgb(232,232,232)"/><path d=" M 304.859 170.699 C 307.652 170.176 310.517 169.87 313.29 169.879 C 316.591 169.89 320.047 170.336 323.364 171.06 C 323.57 171.846 323.68 172.67 323.68 173.52 C 323.68 178.832 319.367 183.145 314.055 183.145 C 308.743 183.145 304.43 178.832 304.43 173.52 C 304.43 172.537 304.578 171.589 304.859 170.699 Z " fill="rgb(232,232,232)"/><path d=" M 325.571 171.62 C 328.428 172.345 331.139 173.241 333.481 174.201 C 332.655 175.167 331.428 175.78 330.059 175.78 C 327.69 175.78 325.746 173.944 325.571 171.62 Z " fill="rgb(232,232,232)"/></g><path d=" M 287.146 177.905 C 296.396 172.53 305.762 169.646 316.59 169.896 C 327.418 170.146 330.201 172.57 339.279 175.976" fill="none" vector-effect="non-scaling-stroke" stroke-width="5" stroke="rgb(0,0,0)" stroke-linejoin="miter" stroke-linecap="square" stroke-miterlimit="3"/><g><path d=" M 289.299 169.157 C 287.327 172.955 286.279 177.207 286.279 181.566 C 286.279 188.766 289.139 195.676 294.229 200.766 C 299.319 205.856 306.229 208.716 313.419 208.716 L 313.429 208.716 C 320.619 208.716 327.529 205.856 332.619 200.766 C 337.709 195.676 340.569 188.766 340.569 181.566 L 340.569 181.566 C 340.569 178.771 340.138 176.02 339.294 173.409 L 339.294 173.409 L 342.256 172.845 C 343.127 175.644 343.569 178.583 343.569 181.566 L 343.569 181.566 C 343.569 189.556 340.399 197.236 334.739 202.886 C 329.089 208.536 321.419 211.716 313.429 211.716 L 313.419 211.716 C 305.429 211.716 297.759 208.536 292.109 202.886 C 286.449 197.236 283.279 189.556 283.279 181.566 C 283.279 176.717 284.446 171.982 286.648 167.756 L 289.299 169.157 L 289.299 169.157 Z " fill="rgb(0,0,0)"/><circle vector-effect="non-scaling-stroke" cx="288.0302987545094" cy="168.37274169921872" r="1.51806640625" fill="rgb(0,0,0)"/><circle vector-effect="non-scaling-stroke" cx="340.7802987545093" cy="173.0563354492188" r="1.51806640625" fill="rgb(0,0,0)"/></g></g><path d=" M 330.725 159.834 C 325.855 155.694 319.647 153.405 313.207 153.405 C 307.496 153.405 301.962 155.21 297.379 158.507 Q 295.841 159.109 295.232 158.312 Q 294.623 157.515 295.326 156.343 C 300.508 152.492 306.68 150.405 313.207 150.405 C 320.36 150.405 327.25 152.948 332.655 157.543 Q 333.654 158.749 332.888 159.655 Q 332.123 160.562 330.725 159.834 L 330.725 159.834 Z " fill="rgb(0,0,0)"/></g><g><path d=" M 234.496 246.078 C 234.674 239.55 244.295 233.088 256.308 233.416 C 268.32 233.744 276.243 243.21 276.065 249.739 C 275.887 256.267 267.359 257.393 255.346 257.065 C 243.333 256.737 234.318 252.607 234.496 246.078 Z " fill="rgb(0,0,0)" vector-effect="non-scaling-stroke" stroke-width="3" stroke="rgb(0,0,0)" stroke-linejoin="miter" stroke-linecap="square" stroke-miterlimit="3"/><path d=" M 238.126 241.464 C 238.999 240.003 242.043 237.889 245.337 236.69 C 249.327 235.238 253.885 234.782 255.985 234.824 C 258.086 234.866 263.586 236.111 266.369 237.804 C 269.662 239.807 271.675 242.385 272.193 243.133 C 270.852 243.296 260.469 243.7 254.934 243.549 C 249.4 243.397 240.646 241.877 238.126 241.464 Z " fill="rgb(232,232,232)"/><path d=" M 238.302 248.174 Q 238.76 246.234 239.758 242.946 Q 241.355 243.116 242.517 243.225 C 243.679 243.334 249.421 244.375 256.126 244.558 C 262.54 244.733 269.566 244.345 272.588 243.874 C 274.203 245.419 274.757 249.397 274.48 250.528 C 274.389 253.838 268.559 255.894 255.732 255.544 C 242.905 255.193 237.525 251.461 238.302 248.174 Z " fill="rgb(232,232,232)"/></g><path d=" M 227.889 256.623 C 228.098 270.869 255.389 271.061 266.826 267.936 C 278.264 264.811 283.014 260.936 284.514 256.811" fill="none" vector-effect="non-scaling-stroke" stroke-width="1" stroke="rgb(0,0,0)" stroke-linejoin="miter" stroke-linecap="square" stroke-miterlimit="3"/><path d=" M 233.993 231.465 C 234.12 221.809 246.066 218.391 250.321 222.587 C 254.975 227.177 254.241 227.3 254.601 227.343 C 254.961 227.386 255.835 224.057 261.18 222.032 C 267.632 219.588 274.14 227.999 273.465 231.623" fill="none" vector-effect="non-scaling-stroke" stroke-width="1" stroke="rgb(0,0,0)" stroke-linejoin="miter" stroke-linecap="square" stroke-miterlimit="3"/><path d=" M 339.514 78.727 Q 338.523 93.756 357.18 128.622 Q 318.305 114.321 320.93 120.757 C 323.555 127.192 323.555 127.192 325.805 129.644 Q 288.018 127.113 271.805 115.24 Q 255.592 103.367 239.764 78.811 Q 215.598 88.503 205.264 94.061 C 194.93 99.618 189.622 105.983 182.514 111.311 Q 175.405 116.638 155.112 125.97 Q 153.039 114.952 151.925 105.345 C 150.81 95.738 152.407 92.344 153.862 82.783 C 155.318 73.221 150.925 63.645 154.847 52.727 Q 158.768 41.809 175.301 32.297 Q 202.001 14.896 214.18 13.394 Q 226.36 11.892 246.807 20.137 L 225.438 7.833 L 263.841 14.61 Q 266.145 12.396 267.498 11.318 Q 268.851 10.24 306.135 4.5 Q 276.014 19.061 276.474 21.577 C 276.935 24.094 296.325 30.56 308.389 27.561 C 320.452 24.561 354.128 22.969 361.862 33.564 C 369.597 44.16 366.842 49.689 368.68 58.638 Q 370.519 67.587 378.139 72.748 Q 379.639 74.248 374.014 74.248 C 368.389 74.248 363.628 72.042 361.826 66.936 C 361.509 84.681 365.091 98.701 372.514 108.936 Q 364.639 107.061 358.826 103.123 Q 353.014 99.186 339.514 78.727 Z " fill="rgb(242,211,59)" vector-effect="non-scaling-stroke" stroke-width="3" stroke="rgb(238,172,30)" stroke-linejoin="miter" stroke-linecap="square" stroke-miterlimit="3"/><path d=" M 338.506 75.326 L 341.178 78.209 L 337.873 79.1 L 338.506 75.326 Z " fill="rgb(0,0,0)"/><path d=" M 162.373 47.061 C 156.246 55.571 159.766 79.768 159.701 83.904 C 159.636 88.041 157.407 91.181 156.748 98.67 C 156.196 104.947 157.302 115.075 156.326 123.701 Q 163.826 112.264 168.139 106.264 C 172.451 100.264 177.764 91.772 177.764 77.561 C 177.764 70.251 171.06 64.273 174.748 57.467 C 178.436 50.661 181.942 50.764 194.014 43.264 C 206.085 35.764 224.922 19.979 222.701 16.404 C 220.48 12.83 198.07 22.545 185.998 30.045 C 178.21 34.884 168.5 38.55 162.373 47.061 Z " fill="rgb(157,144,16)"/><path d=" M 359.607 67.592 L 363.764 66.998 L 360.545 62.436 L 359.607 67.592 Z " fill="rgb(0,0,0)"/><path d=" M 366.58 50.367 C 366.724 52.814 366.841 55.332 367.43 58.201 Q 368.11 64.028 371.232 68.248 C 372.476 69.929 373.952 71.415 375.631 72.748 C 373.251 73.122 368.678 72.123 367.732 71.455 C 366.623 70.908 366.824 71.016 366.326 70.639 C 363.932 68.825 360.858 65.672 360.935 64.779 C 359.496 74.019 361.344 86.971 365.764 99.92 Q 367.609 104.346 369.127 106.44 Q 364.237 104.669 361.357 103.006 C 358.477 101.343 356.863 99.428 356.162 98.709 C 352.931 87.299 349.843 72.632 348.514 60.561 Q 347.155 48.223 321.514 42.727 Q 331.131 36.061 340.514 36.061 C 351.58 37.142 359.556 42.439 366.58 50.367 Z " fill="rgb(146,144,18)"/><path d=" M 329.506 118.217 Q 339.183 120.403 354.139 125.904 C 352.568 123.42 350.248 117.865 345.396 107.881 C 343.322 103.772 340.545 94.732 338.717 86.998 C 337.667 81.283 338.641 78.456 338.646 76.17 Q 343.045 81.474 347.008 86.804 Q 344.009 70.396 317.514 59.061 C 327.031 92.113 331.038 111.842 329.506 118.217 Z " fill="rgb(175,159,23)"/></g></g></svg>