<?xml version="1.0" encoding="UTF-8" standalone="no"?><!-- Generator: Gravit.io --><svg xmlns="http://www.w3.org/2000/svg" xmlns:xlink="http://www.w3.org/1999/xlink" style="isolation:isolate" viewBox="0 0 583.879 759.372" width="583.879pt" height="759.372pt"><defs><clipPath id="_clipPath_ykcXemW8dFv6sZGZ9FPVS2DUaSbgPfPW"><rect width="583.879" height="759.372"/></clipPath></defs><g clip-path="url(#_clipPath_ykcXemW8dFv6sZGZ9FPVS2DUaSbgPfPW)"><g><path d=" M 48.425 736.872 C 46.584 719.522 72.518 696.872 103.425 696.872 C 134.332 696.872 164.425 710.11 164.425 720.872 C 164.425 731.635 134.332 750.872 103.425 750.872 C 72.518 750.872 49.941 751.154 48.425 736.872 Z " fill="rgb(103,140,46)" vector-effect="non-scaling-stroke" stroke-width="5" stroke="rgb(32,38,23)" stroke-linejoin="miter" stroke-linecap="square" stroke-miterlimit="3"/><path d=" M 53.379 738.135 C 56.379 729.029 84.573 733.332 108.379 728.872 C 135.683 723.758 166.501 712.002 161.379 722.872 C 155.849 734.61 130.066 745.06 118.379 746.872 C 88.584 751.493 49.84 748.877 53.379 738.135 Z " fill="rgb(84,113,41)"/></g><g><path d=" M 28.314 370.223 C 40.557 339.734 66.892 313.212 75.343 316.605 C 83.794 319.998 77.557 347.506 65.314 377.995 C 53.072 408.484 39.43 430.482 30.979 427.088 C 22.528 423.695 16.072 400.712 28.314 370.223 Z " fill="rgb(103,140,46)" vector-effect="non-scaling-stroke" stroke-width="5" stroke="rgb(32,38,23)" stroke-linejoin="miter" stroke-linecap="square" stroke-miterlimit="3"/><path d=" M 49.379 383.754 C 58.427 364.528 71.635 320.64 76.379 322.872 C 78.855 324.038 73.687 353.357 62.379 379.872 C 56.678 393.24 50.097 406.416 44.379 414.872 C 39.707 421.782 34.399 425.352 33.379 424.872 C 28.635 422.64 40.331 402.981 49.379 383.754 Z " fill="rgb(84,113,41)"/></g><g><path d=" M 513.177 509.989 C 514.629 518.802 515.379 527.793 515.379 536.925 C 515.379 648.998 402.461 739.987 263.379 739.987 C 124.296 739.987 11.379 648.998 11.379 536.925 L 11.379 536.925 C 11.379 512.011 16.959 488.139 27.174 466.081 C 33.497 447.815 68.313 361.714 90.379 246.478 C 99.305 199.863 94.877 186.008 113.91 129.864 C 127.093 74.089 190.386 31.758 266.379 31.758 C 329.193 31.758 383.331 60.681 407.68 102.204 C 452.658 162.687 465.224 194.704 476.379 250.478 C 487.377 305.469 497.569 378.762 506.379 447.478 Q 511.25 485.475 513.177 509.989 Z  M 405.379 101.478 M 409.379 109.478" fill-rule="evenodd" fill="rgb(163,166,83)" vector-effect="non-scaling-stroke" stroke-width="5" stroke="rgb(32,38,23)" stroke-linejoin="miter" stroke-linecap="square" stroke-miterlimit="3"/></g><g><path d=" M 494.399 497.904 C 495.742 506.071 496.435 514.403 496.435 522.864 C 496.435 626.718 392.006 711.034 263.379 711.034 C 134.752 711.034 30.323 626.718 30.323 522.864 L 30.323 522.864 L 30.323 522.864 C 30.323 499.778 35.483 477.657 44.93 457.216 L 44.93 457.216 C 50.778 440.29 82.976 360.503 103.384 253.719 C 111.632 210.559 107.55 197.706 125.102 145.788 C 137.237 94.042 195.813 54.747 266.153 54.747 C 324.246 54.747 374.313 81.548 396.833 120.027 C 438.429 176.074 450.051 205.743 460.367 257.426 C 470.538 308.384 479.964 376.301 488.112 439.978 Q 492.617 475.188 494.399 497.904 Z  M 511.195 509.248 C 512.635 518.009 513.379 526.946 513.379 536.023 C 513.379 647.427 401.358 737.872 263.379 737.872 C 125.4 737.872 13.379 647.427 13.379 536.023 L 13.379 536.023 C 13.379 511.258 18.914 487.529 29.048 465.602 C 35.322 447.445 69.861 361.858 91.752 247.31 C 100.607 200.974 96.214 187.201 115.096 131.393 C 128.175 75.951 190.966 33.872 266.355 33.872 C 328.671 33.872 382.379 62.622 406.535 103.898 C 451.156 164.02 463.622 195.846 474.688 251.287 C 485.599 305.949 495.71 378.805 504.45 447.11 Q 509.283 484.88 511.195 509.248 L 511.195 509.248 L 511.195 509.248 L 511.195 509.248 Z  M 404.252 103.176 M 408.22 111.129 M 394.704 119.354 M 398.404 126.767" fill-rule="evenodd" fill="rgb(134,136,81)"/></g><g><g><path d=" M 509.177 509.103 C 510.629 517.917 511.379 526.908 511.379 536.039 C 511.379 644.054 406.491 732.485 274.379 738.743 C 279.341 738.982 284.343 739.102 289.379 739.102 C 428.461 739.102 541.379 648.112 541.379 536.039 C 541.379 526.908 540.629 517.917 539.177 509.103 Q 537.25 484.589 532.379 446.593 C 523.569 377.877 513.377 304.583 502.379 249.593 C 491.224 193.819 478.658 161.802 433.68 101.319 C 409.331 59.795 355.193 30.872 292.379 30.872 C 287.304 30.872 282.285 31.061 277.341 31.448 C 333.559 35.6 381.045 62.996 403.473 101.043 C 448.621 161.706 461.208 193.736 472.379 249.593 C 483.377 304.583 493.569 377.877 502.379 446.593 Q 507.25 484.589 509.177 509.103 Z  M 431.379 100.593 M 435.379 108.593 M 401.379 100.593 M 405.379 108.593" fill-rule="evenodd" fill="rgb(103,140,46)" vector-effect="non-scaling-stroke" stroke-width="4" stroke="rgb(32,38,23)" stroke-linejoin="miter" stroke-linecap="square" stroke-miterlimit="3"/></g><g><path d=" M 522.615 509.103 C 524.072 517.917 524.825 526.908 524.825 536.039 C 524.825 646.225 415.257 736.031 278.879 739.014 C 281.211 739.076 283.555 739.102 285.906 739.102 C 425.526 739.102 538.879 648.112 538.879 536.039 C 538.879 526.908 538.126 517.917 536.669 509.103 Q 534.734 484.589 529.844 446.593 C 521 377.877 510.769 304.583 499.728 249.593 C 488.53 193.819 475.916 161.802 430.764 101.319 C 406.321 59.795 351.974 30.872 288.918 30.872 C 286.546 30.872 284.187 30.913 281.848 31.015 C 341.786 33.041 392.952 61.217 416.525 101.073 C 461.828 161.717 474.462 193.745 485.674 249.593 C 496.715 304.583 506.946 377.877 515.79 446.593 Q 520.68 484.589 522.615 509.103 Z  M 428.454 100.593 M 432.47 108.593 M 414.4 100.593 M 418.416 108.593" fill-rule="evenodd" fill="rgb(84,113,41)"/></g></g><g><g><path d=" M 245.899 179.711 C 245.839 179.66 245.78 179.603 245.724 179.537 C 245.7 179.52 245.678 179.497 245.66 179.463 C 245.159 178.931 244.736 178.159 244.383 177.174 C 241.571 169.307 242.148 166.984 243.508 165.174 C 244.935 163.274 248.055 161.481 249.508 161.174 C 251.023 160.854 255.914 160.627 258.508 163.174 C 261.102 165.721 263.051 168.801 263.383 169.262 C 264.227 170.434 263.717 171.34 263.383 171.262 C 262.243 170.996 261.18 168.418 256.508 166.174 C 252.021 164.019 250.797 164.504 249.508 165.174 C 248.352 165.774 247.534 167.092 248.508 169.174 C 249.582 171.472 250.748 173.87 251.19 175.184 C 251.628 175.761 251.883 176.482 251.883 177.262 C 251.883 179.194 250.315 180.762 248.383 180.762 C 247.409 180.762 246.526 180.363 245.899 179.711 Z " fill-rule="evenodd" fill="rgb(0,0,0)" vector-effect="non-scaling-stroke" stroke-width="1" stroke="rgb(0,0,0)" stroke-linejoin="miter" stroke-linecap="square" stroke-miterlimit="3"/></g><circle vector-effect="non-scaling-stroke" cx="204.37889297782286" cy="137.87247309794878" r="5.5" fill="rgb(0,0,0)"/><circle vector-effect="non-scaling-stroke" cx="309.87889297782283" cy="132.37247309794878" r="5.5" fill="rgb(0,0,0)"/><path d=" M 161.178 132.315 L 195.699 128.872 L 230.93 127.28 C 232.327 127.217 233.381 126.048 233.282 124.672 L 233.282 124.672 C 233.182 123.296 231.967 122.23 230.57 122.293 L 195.699 123.872 L 160.818 127.329 C 159.426 127.467 158.377 128.696 158.476 130.073 L 158.476 130.073 C 158.576 131.449 159.786 132.454 161.178 132.315 Z " fill="rgb(0,0,0)"/><path d=" M 269.678 123.878 L 304.199 120.436 L 339.43 118.844 C 340.827 118.78 341.881 117.612 341.782 116.236 L 341.782 116.236 C 341.682 114.859 340.467 113.793 339.07 113.857 L 304.199 115.436 L 269.318 118.893 C 267.926 119.031 266.877 120.26 266.976 121.636 L 266.976 121.636 C 267.076 123.012 268.286 124.017 269.678 123.878 Z " fill="rgb(0,0,0)"/></g><g><path d=" M 128.933 541.021 C 143.79 464.085 228.63 378.17 292.961 391.19 C 404.972 413.86 396.98 514.378 382.123 591.313 C 367.266 668.249 289.772 680.245 225.328 667.8 C 160.884 655.355 114.076 617.956 128.933 541.021 Z " fill="rgb(147,91,58)" vector-effect="non-scaling-stroke" stroke-width="5" stroke="rgb(32,38,23)" stroke-linejoin="miter" stroke-linecap="square" stroke-miterlimit="3"/><path d=" M 165.379 474.872 C 202.618 414.514 279.507 401.25 285.379 404.872 C 291.25 408.495 232.618 433.515 195.379 493.872 C 158.14 554.23 153.25 595.495 147.379 591.872 C 141.507 588.25 128.14 535.23 165.379 474.872 Z " fill="rgb(185,134,104)"/><path d=" M 360.306 621.993 C 315.054 691.182 190.419 654.723 182.306 645.872 C 176.806 639.872 281.91 655.976 317.306 604.993 C 371.806 526.493 355.801 441.671 364.306 440.993 C 379.765 439.759 397.515 565.099 360.306 621.993 Z " fill="rgb(102,64,42)"/><path d=" M 202.38 477.196 C 211.958 460.421 253.402 428.067 255.379 429.196 C 257.356 430.325 216.958 462.793 207.38 479.568 C 197.802 496.343 177.909 534.541 176.38 533.872 C 172.38 532.122 192.802 493.972 202.38 477.196 Z " fill="rgb(255,255,255)"/></g><g><path d=" M 389.879 734.872 C 389.879 718.867 421.868 695.872 453.879 695.872 C 485.89 695.872 516.879 718.867 516.879 734.872 C 516.879 750.878 490.89 751.872 458.879 751.872 C 426.868 751.872 389.879 750.878 389.879 734.872 Z " fill="rgb(103,140,46)" vector-effect="non-scaling-stroke" stroke-width="5" stroke="rgb(32,38,23)" stroke-linejoin="miter" stroke-linecap="square" stroke-miterlimit="3"/><path d=" M 392.393 737.779 C 391.108 730.435 424.671 734.022 450.393 729.779 C 481.463 724.654 513.106 728.317 513.393 736.779 C 513.511 740.225 512.341 746.175 489.393 748.779 C 480.195 749.822 468.39 750.023 450.393 749.779 C 404.456 749.154 393.417 743.622 392.393 737.779 Z " fill="rgb(84,113,41)"/></g><path d=" M 20.566 398.435 C 21.411 397.793 32.941 392.06 39.504 393.185 Q 46.066 394.31 51.879 405.56 L 75.129 311.622 Q 79.384 306.027 63.129 315.372 C 36.786 330.517 11.389 405.412 20.566 398.435 Z " fill="rgb(255,237,41)" vector-effect="non-scaling-stroke" stroke-width="5" stroke="rgb(227,149,23)" stroke-linejoin="miter" stroke-linecap="square" stroke-miterlimit="3"/><path d=" M 112.254 194.622 C 126.254 232.622 121.379 251.872 146.379 267.872 C 171.379 283.872 205.879 289.872 221.879 289.872 C 237.879 289.872 289.379 293.872 314.379 288.872 C 339.379 283.872 382.379 252.372 401.379 237.372 C 409.265 231.146 462.567 188.511 470.379 162.872 C 484.77 126.67 517.771 320.81 517.379 332.872 C 516.977 345.235 537.379 446.872 539.379 472.872 C 541.379 498.872 545.784 565.673 545.379 597.872 C 544.987 629.042 532.497 635.052 507.379 640.372 C 429.594 656.85 432.879 661.872 351.129 671.872 C 269.379 681.872 230.379 688.872 174.379 681.872 C 118.379 674.872 73.379 657.751 33.379 637.451 C 25.708 633.558 10.254 607.872 8.379 571.872 C 6.558 536.906 6.842 525.408 16.379 488.872 C 25.254 454.872 42.379 430.872 44.379 415.872 C 46.379 400.872 64.379 349.872 66.379 335.872 C 68.379 321.872 76.379 306.872 78.379 278.872 C 80.379 250.872 98.254 156.622 112.254 194.622 Z " fill="rgb(255,237,41)" vector-effect="non-scaling-stroke" stroke-width="5" stroke="rgb(227,149,23)" stroke-linejoin="miter" stroke-linecap="square" stroke-miterlimit="3"/><g><path d=" M 223.879 401.009 L 223.879 292.372 C 223.879 290.717 222.535 289.372 220.879 289.372 L 220.879 289.372 C 219.223 289.372 217.879 290.717 217.879 292.372 L 217.879 401.284 C 216.08 402.382 214.879 404.363 214.879 406.622 C 214.879 410.072 217.679 412.872 221.129 412.872 C 224.578 412.872 227.379 410.072 227.379 406.622 C 227.379 404.16 225.951 402.027 223.879 401.009 Z " fill-rule="evenodd" fill="rgb(227,149,23)"/><path d=" M 288.379 365.918 L 288.379 293.372 C 288.379 291.717 287.035 290.372 285.379 290.372 L 285.379 290.372 C 283.723 290.372 282.379 291.717 282.379 293.372 L 282.379 366.396 C 280.576 367.506 279.379 369.454 279.379 371.671 C 279.379 375.121 282.278 377.921 285.848 377.921 C 289.419 377.921 292.317 375.121 292.317 371.671 C 292.317 369.089 290.693 366.871 288.379 365.918 Z " fill-rule="evenodd" fill="rgb(227,149,23)"/></g><g><path d=" M 503.949 373.815 C 503.421 340.964 504.561 308.537 513.667 308.391 C 522.772 308.244 540.457 358.752 540.986 391.603 C 541.514 424.454 524.687 427.286 515.582 427.433 C 506.476 427.579 504.477 406.666 503.949 373.815 Z " fill="rgb(103,140,46)" vector-effect="non-scaling-stroke" stroke-width="5" stroke="rgb(32,38,23)" stroke-linejoin="miter" stroke-linecap="square" stroke-miterlimit="3"/><path d=" M 524.755 379.723 C 524.491 375.506 508.978 311.704 514.215 311.465 C 515.45 311.409 519.779 316.746 525.464 331.229 C 531.149 345.712 536.309 365.875 537.608 381.633 C 539.226 396.062 536.915 407.119 536.088 410.153 C 535.261 413.188 533.613 415.998 532.043 418.015 C 530.815 419.592 529.635 420.683 528.934 421.016 C 528.233 421.349 525.212 423.623 523.274 423.701 C 521.336 423.778 525.019 383.941 524.755 379.723 Z " fill="rgb(84,113,41)"/></g><path d=" M 511.143 300.73 C 497.561 304.126 500.81 415.149 506.492 408.331 Q 503.845 389.977 524.304 392.206 C 543.242 394.268 540.825 402.643 539.492 406.643 C 535.898 417.423 551.161 391.359 546.379 367.73 C 535.046 311.73 516.476 299.397 511.143 300.73 Z " fill="rgb(255,237,41)" vector-effect="non-scaling-stroke" stroke-width="5" stroke="rgb(227,149,23)" stroke-linejoin="miter" stroke-linecap="square" stroke-miterlimit="3"/><path d=" M 139.227 122.11 C 150.962 89.221 164.752 75.286 187.962 60.11 C 213.962 43.11 234.768 29.985 253.893 31.11 C 273.018 32.235 307.31 36.277 342.56 55.777 C 377.964 75.362 401.962 95.471 417.711 120.822 C 433.461 146.173 438.174 162.848 440.378 172.155 C 442.582 181.463 444.107 204.261 361.727 250.86 C 279.346 297.459 244.93 291.326 245.654 294.292 C 246.378 297.258 311.616 293.041 346.227 279.443 C 380.837 265.846 426.837 228.096 437.962 216.971 C 449.087 205.846 475.387 183.478 475.711 155.489 C 475.928 136.81 430.298 86.702 417.003 74.968 C 395.298 55.811 360.212 36.54 336.56 26.971 C 311.462 16.817 274.227 0.11 237.227 11.11 C 200.227 22.11 157.307 54.942 141.227 71.11 C 123.587 88.846 109.337 121.471 102.962 145.777 C 96.587 170.083 94.158 187.166 96.56 206.443 C 98.962 225.721 109.866 255.916 133.227 270.443 C 156.587 284.971 249.227 303.777 241.893 293.11 C 238.892 288.745 189.227 284.443 153.227 255.777 C 131.267 238.29 127.424 155.188 139.227 122.11 Z " fill="rgb(255,237,41)" vector-effect="non-scaling-stroke" stroke-width="5" stroke="rgb(227,149,23)" stroke-linejoin="miter" stroke-linecap="square" stroke-miterlimit="3"/><g><circle vector-effect="non-scaling-stroke" cx="263.37889297782294" cy="332.8724730979488" r="6.25" fill="rgb(164,107,17)"/><circle vector-effect="non-scaling-stroke" cx="256.12889297782283" cy="421.16574851663967" r="6.25" fill="rgb(164,107,17)"/><circle vector-effect="non-scaling-stroke" cx="233.47889297782288" cy="509.8724730979486" r="6.25" fill="rgb(164,107,17)"/><circle vector-effect="non-scaling-stroke" cx="241.75389297782297" cy="600.8724730979486" r="6.25" fill="rgb(164,107,17)"/><path d=" M 236.261 665.766 L 236.209 663.867 C 236.209 663.517 236.179 663.167 236.129 662.817 C 236.039 662.075 235.939 661.334 235.829 660.592 C 235.489 658.358 235.149 656.112 234.789 653.878 C 233.899 648.409 233.079 642.941 232.309 637.451 C 231.909 634.557 231.549 631.653 231.229 628.739 C 230.939 626.071 230.709 623.394 230.549 620.706 C 230.419 618.533 230.189 616.37 229.849 614.218 C 229.459 611.798 229.039 609.388 228.569 606.988 C 227.889 603.384 227.249 599.769 226.649 596.154 C 225.819 590.974 225.099 585.773 224.499 580.552 C 223.649 573.095 222.939 565.619 222.389 558.121 C 221.619 547.678 221.009 537.225 220.579 526.762 C 220.399 522.756 220.309 518.739 220.309 514.723 C 220.289 506.432 220.739 498.132 221.669 489.893 C 222.449 483.127 223.639 476.412 225.229 469.8 C 226.599 464.177 228.239 458.626 230.159 453.168 C 231.879 448.297 233.689 443.477 235.599 438.688 C 236.759 435.743 237.899 432.787 239.009 429.821 C 240.109 426.886 241.129 423.92 242.069 420.933 C 243.039 417.864 243.869 414.764 244.589 411.623 C 245.339 408.276 245.929 404.898 246.349 401.49 C 247.619 391.17 248.549 380.82 249.149 370.439 C 249.769 360.367 250.079 350.275 250.099 340.182 C 250.099 335.877 250.029 331.572 249.869 327.278 C 249.739 323.642 249.509 320.017 249.189 316.402 C 248.949 313.663 248.579 310.944 248.059 308.246 C 247.879 307.298 247.649 306.361 247.369 305.445 C 247.189 304.847 246.959 304.26 246.679 303.714 L 246.203 302.801 C 245.857 302.436 245.609 301.972 245.502 301.454 L 245.499 301.449 L 245.5 301.448 C 245.463 301.265 245.443 301.075 245.443 300.88 C 245.443 299.361 246.641 298.128 248.115 298.128 C 249.536 298.128 250.699 299.273 250.782 300.715 L 251.079 301.284 C 251.519 302.128 251.879 303.014 252.149 303.931 C 252.479 305.022 252.749 306.124 252.969 307.247 C 253.519 310.12 253.919 313.014 254.169 315.939 C 254.499 319.646 254.739 323.364 254.869 327.082 C 255.019 331.449 255.099 335.826 255.099 340.192 C 255.079 350.388 254.759 360.573 254.139 370.748 C 253.539 381.242 252.589 391.716 251.309 402.138 C 250.869 405.722 250.249 409.275 249.459 412.787 C 248.709 416.072 247.839 419.316 246.829 422.519 C 245.859 425.599 244.809 428.657 243.679 431.675 C 242.549 434.672 241.399 437.658 240.229 440.635 C 238.349 445.362 236.549 450.12 234.859 454.919 C 232.999 460.212 231.409 465.588 230.079 471.046 C 228.539 477.452 227.389 483.94 226.639 490.49 C 225.729 498.533 225.289 506.618 225.309 514.712 C 225.309 518.657 225.399 522.601 225.569 526.535 C 226.009 536.947 226.609 547.349 227.379 557.74 C 227.919 565.155 228.619 572.56 229.469 579.944 C 230.059 585.083 230.759 590.201 231.579 595.299 C 232.169 598.873 232.799 602.436 233.479 605.989 C 233.949 608.451 234.389 610.912 234.789 613.384 C 235.149 615.711 235.399 618.049 235.539 620.397 C 235.689 622.992 235.909 625.577 236.199 628.162 C 236.519 631.015 236.869 633.878 237.259 636.72 C 238.029 642.168 238.839 647.606 239.719 653.033 C 240.079 655.289 240.429 657.554 240.769 659.81 C 240.879 660.582 240.989 661.354 241.079 662.127 C 241.159 662.662 241.199 663.208 241.209 663.744 L 241.259 665.884 C 241.276 666.007 241.285 666.133 241.285 666.262 C 241.285 667.703 240.149 668.872 238.75 668.872 C 237.351 668.872 236.215 667.703 236.215 666.262 C 236.215 666.092 236.231 665.927 236.261 665.766 Z " fill-rule="evenodd" fill="rgb(227,149,23)"/></g><path d=" M 144.607 575.454 L 92.081 569.005 L 92.081 569.005 C 90.711 568.837 89.463 569.812 89.295 571.181 L 89.295 571.181 C 89.126 572.551 90.102 573.799 91.471 573.967 L 151.357 581.32 C 151.479 581.336 151.601 581.341 151.72 581.334 C 151.911 581.387 152.101 581.44 152.294 581.488 C 158.699 583.085 165.195 579.181 166.792 572.777 C 166.983 572.011 167.095 571.243 167.124 570.484 C 167.149 570.386 167.167 570.286 167.18 570.183 L 174.361 511.875 L 174.361 511.875 C 174.529 510.506 173.554 509.257 172.185 509.088 L 172.185 509.088 C 170.815 508.92 169.567 509.895 169.398 511.264 L 163.265 561.064 C 161.843 559.758 160.084 558.779 158.081 558.279 C 151.676 556.682 145.18 560.586 143.583 566.99 C 142.843 569.957 143.284 572.944 144.607 575.454 Z " fill-rule="evenodd" fill="rgb(227,192,36)"/><g><path d="M 159.27 491.614 L 103.079 484.741 C 97.63 484.075 92.666 487.957 92 493.405 L 84.398 555.552 C 83.732 561 87.614 565.964 93.062 566.631 L 149.254 573.504 C 154.702 574.17 159.666 570.288 160.332 564.84 L 167.934 502.693 C 168.6 497.245 164.718 492.28 159.27 491.614 Z" style="stroke:none;fill:#FFED29;stroke-miterlimit:10;"/><path d="M 159.27 491.614 L 103.079 484.741 C 97.63 484.075 92.666 487.957 92 493.405 L 84.398 555.552 C 83.732 561 87.614 565.964 93.062 566.631 L 149.254 573.504 C 154.702 574.17 159.666 570.288 160.332 564.84 L 167.934 502.693 C 168.6 497.245 164.718 492.28 159.27 491.614 Z" style="fill:none;stroke:#E39517;stroke-width:5;stroke-linecap:square;stroke-miterlimit:2;"/><path d="M 158.863 491.564 L 103.485 484.791 C 97.813 484.097 92.644 488.139 91.95 493.812 L 90.053 509.32 C 89.359 514.993 93.402 520.162 99.074 520.855 L 154.452 527.629 C 160.124 528.323 165.293 524.28 165.987 518.608 L 167.884 503.1 C 168.578 497.427 164.536 492.258 158.863 491.564 Z" style="stroke:none;fill:#FFED29;stroke-linecap:square;stroke-miterlimit:2;"/><path d="M 158.863 491.564 L 103.485 484.791 C 97.813 484.097 92.644 488.139 91.95 493.812 L 90.053 509.32 C 89.359 514.993 93.402 520.162 99.074 520.855 L 154.452 527.629 C 160.124 528.323 165.293 524.28 165.987 518.608 L 167.884 503.1 C 168.578 497.427 164.536 492.258 158.863 491.564 Z" style="fill:none;stroke:#E39517;stroke-width:5;stroke-linecap:square;stroke-miterlimit:2;"/><path d=" M 134.118 515.588 C 134.537 512.164 132.097 509.044 128.673 508.626 C 125.249 508.207 122.129 510.647 121.711 514.071 C 121.292 517.494 123.732 520.614 127.155 521.033 C 130.579 521.452 133.699 519.012 134.118 515.588 Z " fill="rgb(164,107,17)"/></g><path d=" M 512.16 303.154 C 515.504 303.622 520.66 308.185 525.691 316.122 C 530.723 324.06 536.332 336.607 542.191 359.435 Q 548.051 382.263 541.629 397.31 C 539.864 395.199 539.648 395.037 538.014 393.665 C 536.379 392.294 527.535 389.466 521.613 389.497 C 521.613 382.405 524.001 372.455 524.504 362.372 C 524.921 354.021 524.754 348.747 522.879 338.997 C 521.004 329.247 508.816 302.685 512.16 303.154 Z " fill="rgb(227,192,36)"/><path d=" M 419.72 569.602 L 367.194 576.051 L 367.194 576.051 C 365.825 576.219 364.849 577.467 365.017 578.837 L 365.017 578.837 C 365.185 580.206 366.434 581.182 367.803 581.014 L 427.689 573.661 C 427.812 573.646 427.931 573.622 428.045 573.586 C 428.243 573.591 428.44 573.596 428.639 573.596 C 435.239 573.596 440.598 568.237 440.598 561.637 C 440.598 560.847 440.522 560.075 440.366 559.331 C 440.366 559.231 440.36 559.129 440.348 559.026 L 433.209 500.713 L 433.209 500.713 C 433.041 499.343 431.793 498.368 430.424 498.535 L 430.424 498.535 C 429.054 498.703 428.078 499.951 428.246 501.321 L 434.343 551.125 C 432.647 550.202 430.704 549.677 428.639 549.677 C 422.038 549.677 416.679 555.036 416.679 561.637 C 416.679 564.695 417.829 567.486 419.72 569.602 Z " fill-rule="evenodd" fill="rgb(227,192,36)"/><g><path d="M 357.488 491.614 L 413.679 484.741 C 419.127 484.075 424.092 487.957 424.758 493.405 L 432.359 555.552 C 433.026 561 429.144 565.964 423.695 566.631 L 367.504 573.504 C 362.056 574.17 357.092 570.288 356.425 564.84 L 348.824 502.693 C 348.158 497.245 352.04 492.28 357.488 491.614 Z" style="stroke:none;fill:#FFED29;stroke-linecap:square;stroke-miterlimit:2;"/><path d="M 357.488 491.614 L 413.679 484.741 C 419.127 484.075 424.092 487.957 424.758 493.405 L 432.359 555.552 C 433.026 561 429.144 565.964 423.695 566.631 L 367.504 573.504 C 362.056 574.17 357.092 570.288 356.425 564.84 L 348.824 502.693 C 348.158 497.245 352.04 492.28 357.488 491.614 Z" style="fill:none;stroke:#E39517;stroke-width:5;stroke-linecap:square;stroke-miterlimit:2;"/><path d="M 357.895 491.564 L 413.272 484.791 C 418.945 484.097 424.114 488.139 424.808 493.812 L 426.705 509.32 C 427.399 514.993 423.356 520.162 417.683 520.855 L 362.306 527.629 C 356.633 528.323 351.464 524.28 350.771 518.608 L 348.874 503.1 C 348.18 497.427 352.222 492.258 357.895 491.564 Z" style="stroke:none;fill:#FFED29;stroke-linecap:square;stroke-miterlimit:2;"/><path d="M 357.895 491.564 L 413.272 484.791 C 418.945 484.097 424.114 488.139 424.808 493.812 L 426.705 509.32 C 427.399 514.993 423.356 520.162 417.683 520.855 L 362.306 527.629 C 356.633 528.323 351.464 524.28 350.771 518.608 L 348.874 503.1 C 348.18 497.427 352.222 492.258 357.895 491.564 Z" style="fill:none;stroke:#E39517;stroke-width:5;stroke-linecap:square;stroke-miterlimit:2;"/><path d=" M 382.64 515.588 C 382.221 512.164 384.661 509.044 388.085 508.626 C 391.509 508.207 394.628 510.647 395.047 514.071 C 395.466 517.494 393.026 520.614 389.602 521.033 C 386.178 521.452 383.059 519.012 382.64 515.588 Z " fill="rgb(164,107,17)"/></g><path d=" M 362.254 534.872 Q 359.473 535.169 355.098 533.529 L 354.504 528.443 C 357.059 530.06 360.758 530.302 362.141 530.15 C 378.195 528.275 414.727 523.82 418.471 523.269 Q 422.215 522.718 425.461 519.74 L 426.108 524.795 C 424.723 525.935 422.754 527.435 420.379 527.747 C 394.794 531.114 383.539 532.6 362.254 534.872 Z " fill="rgb(227,192,36)"/><path d=" M 154.522 534.826 Q 157.304 535.122 161.679 533.482 L 162.272 528.396 C 159.718 530.013 156.019 530.255 154.636 530.103 C 138.581 528.228 102.05 523.773 98.306 523.222 Q 94.562 522.671 91.315 519.693 L 90.668 524.748 C 92.054 525.888 94.022 527.388 96.397 527.701 C 121.982 531.067 133.237 532.554 154.522 534.826 Z " fill="rgb(227,192,36)"/><path d=" M 518.801 634.888 C 506.051 638.544 471.974 645.61 469.201 646.249 C 476.826 643.499 512.379 633.872 524.879 611.872 Q 537.379 589.872 515.012 429.619 C 520.932 429.694 525.61 428.925 529.816 426.372 C 533.958 433.864 534.742 438.999 538.922 501.935 C 543.102 564.871 543.105 589.04 542.76 602.142 C 542.414 615.244 537.673 622.622 536.285 624.763 C 534.897 626.905 531.782 630.915 518.801 634.888 Z " fill="rgb(227,192,36)"/><path d=" M 40.441 390.904 C 42.598 387.435 46.973 376.732 52.598 358.31 C 58.223 339.888 66.098 319.029 69.285 314.986 C 63.174 341.775 55.863 368.32 47.214 394.591 C 45.035 392.529 44.066 392.185 40.441 390.904 Z " fill="rgb(227,192,36)"/><path d=" M 502.392 314.121 C 501.941 316.912 501.426 320.123 500.993 323.79 Q 500.716 326.139 500.443 328.729 Q 498.39 325.787 497.443 318.229 Q 492.539 279.068 477.285 164.279 C 480.024 167.766 483.912 176.752 490.816 203.927 C 493.711 215.32 497.044 229.995 501.193 248.666 Q 505.319 267.233 510.1 298.448 C 508.77 298.732 506.543 300.677 504.762 305.037 C 504.199 306.513 503.297 308.517 502.392 314.121 Z " fill="rgb(227,192,36)"/><path d=" M 146.789 274.099 C 142.236 272.392 138.107 270.308 137.316 269.935 C 136.526 269.562 133.232 267.594 130.26 265.386 C 128.025 263.726 126.128 261.88 124.754 260.747 C 123.38 259.615 116.962 252.157 113.285 246.261 C 108.776 239.031 105.501 231.926 106.129 231.622 C 106.718 231.338 111.894 241.851 122.379 251.247 C 132.863 260.644 137.191 263.622 148.441 268.31 C 159.691 272.997 173.473 277.872 197.285 284.81 Q 221.098 291.747 237.723 293.685 C 226.275 294.016 214.162 292.21 201.41 289.685 C 190.437 287.512 176.286 283.569 167.06 280.785 C 162.28 279.342 153.561 276.638 146.789 274.099 Z " fill="rgb(227,192,36)"/><path d=" M 326.871 282.849 Q 304.052 288.963 271.684 291.662 Q 329.256 278.234 351.809 268.13 C 374.361 258.026 406.119 234.943 409.465 231.849 C 412.811 228.755 432.479 212.456 437.128 207.458 C 441.777 202.46 452.782 191.436 460.496 179.453 C 468.21 167.471 472.632 154.531 473.199 154.318 C 473.324 154.271 473.458 155.542 473.168 158.671 C 472.793 163.652 471.326 171.379 466.066 180.38 C 459.267 191.688 449.121 203.219 443.215 208.435 C 432.297 219.37 419.685 230.168 407.191 239.622 C 394.793 249.281 383.753 256.644 372.504 263.247 C 354.452 273.845 344.283 278.405 326.871 282.849 Z " fill="rgb(227,192,36)"/><path d=" M 469.598 144.029 C 472.881 149.871 473.173 154.141 473.238 154.931 C 473.304 155.721 469.269 164.629 460.379 180.997 Q 463.379 170.872 464.046 163.206 C 464.712 155.539 462.948 148.403 461.879 145.122 C 460.81 141.842 458.941 137.06 443.941 114.935 Q 428.941 92.81 412.816 74.652 Q 419.754 80.56 426.207 87.529 C 432.213 94.015 440.337 102.958 443.379 106.591 C 446.421 110.224 450.687 115.841 456.018 122.491 C 461.157 128.903 466.365 137.282 469.598 144.029 Z " fill="rgb(227,192,36)"/></g></svg>