<?xml version="1.0" encoding="UTF-8" standalone="no"?><!-- Generator: Gravit.io --><svg xmlns="http://www.w3.org/2000/svg" xmlns:xlink="http://www.w3.org/1999/xlink" style="isolation:isolate" viewBox="0 0 60 60" width="60pt" height="60pt"><defs><clipPath id="_clipPath_n8nIE252HYh42Ctkuinu72UCMvO0jWPI"><rect width="60" height="60"/></clipPath></defs><g clip-path="url(#_clipPath_n8nIE252HYh42Ctkuinu72UCMvO0jWPI)"><defs><filter id="iwYJamEuwmHriWEGeKphUzy0oyk6mf4r" x="-200%" y="-200%" width="400%" height="400%" filterUnits="objectBoundingBox" color-interpolation-filters="sRGB"><feGaussianBlur xmlns="http://www.w3.org/2000/svg" in="SourceGraphic" stdDeviation="0.42936090628390283"/><feOffset xmlns="http://www.w3.org/2000/svg" dx="0.5" dy="0.5" result="pf_100_offsetBlur"/><feFlood xmlns="http://www.w3.org/2000/svg" flood-color="#43457F" flood-opacity="1"/><feComposite xmlns="http://www.w3.org/2000/svg" in2="pf_100_offsetBlur" operator="in" result="pf_100_dropShadow"/><feBlend xmlns="http://www.w3.org/2000/svg" in="SourceGraphic" in2="pf_100_dropShadow" mode="normal"/></filter></defs><g filter="url(#iwYJamEuwmHriWEGeKphUzy0oyk6mf4r)"><path d=" M 52 6 L 54.3 6 C 56.894 6 59 8.106 59 10.7 L 59 11.3 C 59 13.894 56.894 16 54.3 16 L 5.7 16 C 3.106 16 1 13.894 1 11.3 L 1 10.7 C 1 8.106 3.106 6 5.7 6 L 8 6 L 8 9.16 C 8 10.727 9.273 12 10.84 12 L 13.16 12 C 14.727 12 16 10.727 16 9.16 L 16 6 L 44 6 L 44 9.16 C 44 10.727 45.273 12 46.84 12 L 49.16 12 C 50.727 12 52 10.727 52 9.16 L 52 6 Z " fill-rule="evenodd" fill="rgb(221,163,221)"/></g><defs><filter id="FL9H479aEiMA3HPUy8fJWf2mss7N9mnb" x="-200%" y="-200%" width="400%" height="400%" filterUnits="objectBoundingBox" color-interpolation-filters="sRGB"><feGaussianBlur xmlns="http://www.w3.org/2000/svg" in="SourceGraphic" stdDeviation="0.42936090628390283"/><feOffset xmlns="http://www.w3.org/2000/svg" dx="0.5" dy="0.5" result="pf_100_offsetBlur"/><feFlood xmlns="http://www.w3.org/2000/svg" flood-color="#43457F" flood-opacity="1"/><feComposite xmlns="http://www.w3.org/2000/svg" in2="pf_100_offsetBlur" operator="in" result="pf_100_dropShadow"/><feBlend xmlns="http://www.w3.org/2000/svg" in="SourceGraphic" in2="pf_100_dropShadow" mode="normal"/></filter></defs><g filter="url(#FL9H479aEiMA3HPUy8fJWf2mss7N9mnb)"><path d="M 14.667 3.893 L 14.667 8.107 C 14.667 9.152 13.818 10 12.773 10 L 11.227 10 C 10.182 10 9.333 9.152 9.333 8.107 L 9.333 3.893 C 9.333 2.848 10.182 2 11.227 2 L 12.773 2 C 13.818 2 14.667 2.848 14.667 3.893 Z" style="stroke:none;fill:#DDA3DD;stroke-miterlimit:10;"/></g><defs><filter id="xNexjqJuSgXQeU90mFRyFdmPTdarDqbN" x="-200%" y="-200%" width="400%" height="400%" filterUnits="objectBoundingBox" color-interpolation-filters="sRGB"><feGaussianBlur xmlns="http://www.w3.org/2000/svg" in="SourceGraphic" stdDeviation="0.42936090628390283"/><feOffset xmlns="http://www.w3.org/2000/svg" dx="0.5" dy="0.5" result="pf_100_offsetBlur"/><feFlood xmlns="http://www.w3.org/2000/svg" flood-color="#43457F" flood-opacity="1"/><feComposite xmlns="http://www.w3.org/2000/svg" in2="pf_100_offsetBlur" operator="in" result="pf_100_dropShadow"/><feBlend xmlns="http://www.w3.org/2000/svg" in="SourceGraphic" in2="pf_100_dropShadow" mode="normal"/></filter></defs><g filter="url(#xNexjqJuSgXQeU90mFRyFdmPTdarDqbN)"><path d="M 50.667 3.893 L 50.667 8.107 C 50.667 9.152 49.818 10 48.773 10 L 47.227 10 C 46.182 10 45.333 9.152 45.333 8.107 L 45.333 3.893 C 45.333 2.848 46.182 2 47.227 2 L 48.773 2 C 49.818 2 50.667 2.848 50.667 3.893 Z" style="stroke:none;fill:#DDA3DD;stroke-miterlimit:10;"/></g><defs><filter id="ocS7NquOszdgp5x6LEPi5tbgnnRDLwgg" x="-200%" y="-200%" width="400%" height="400%" filterUnits="objectBoundingBox" color-interpolation-filters="sRGB"><feGaussianBlur xmlns="http://www.w3.org/2000/svg" in="SourceGraphic" stdDeviation="0.42936090628390283"/><feOffset xmlns="http://www.w3.org/2000/svg" dx="0.5" dy="0.5" result="pf_100_offsetBlur"/><feFlood xmlns="http://www.w3.org/2000/svg" flood-color="#43457F" flood-opacity="1"/><feComposite xmlns="http://www.w3.org/2000/svg" in2="pf_100_offsetBlur" operator="in" result="pf_100_dropShadow"/><feBlend xmlns="http://www.w3.org/2000/svg" in="SourceGraphic" in2="pf_100_dropShadow" mode="normal"/></filter></defs><g filter="url(#ocS7NquOszdgp5x6LEPi5tbgnnRDLwgg)"><path d="M 9.893 30.667 L 14.107 30.667 C 15.152 30.667 16 31.515 16 32.56 L 16 34.107 C 16 35.152 15.152 36 14.107 36 L 9.893 36 C 8.848 36 8 35.152 8 34.107 L 8 32.56 C 8 31.515 8.848 30.667 9.893 30.667 Z" style="stroke:none;fill:#DDA3DD;stroke-miterlimit:10;"/></g><defs><filter id="QW2hKgj7Gl8zS25Jr6gfk5GHcpSd28Am" x="-200%" y="-200%" width="400%" height="400%" filterUnits="objectBoundingBox" color-interpolation-filters="sRGB"><feGaussianBlur xmlns="http://www.w3.org/2000/svg" in="SourceGraphic" stdDeviation="0.42936090628390283"/><feOffset xmlns="http://www.w3.org/2000/svg" dx="0.5" dy="0.5" result="pf_100_offsetBlur"/><feFlood xmlns="http://www.w3.org/2000/svg" flood-color="#43457F" flood-opacity="1"/><feComposite xmlns="http://www.w3.org/2000/svg" in2="pf_100_offsetBlur" operator="in" result="pf_100_dropShadow"/><feBlend xmlns="http://www.w3.org/2000/svg" in="SourceGraphic" in2="pf_100_dropShadow" mode="normal"/></filter></defs><g filter="url(#QW2hKgj7Gl8zS25Jr6gfk5GHcpSd28Am)"><path d="M 9.893 40 L 14.107 40 C 15.152 40 16 40.848 16 41.893 L 16 43.44 C 16 44.485 15.152 45.333 14.107 45.333 L 9.893 45.333 C 8.848 45.333 8 44.485 8 43.44 L 8 41.893 C 8 40.848 8.848 40 9.893 40 Z" style="stroke:none;fill:#DDA3DD;stroke-miterlimit:10;"/></g><defs><filter id="8x9HIOgzW3eX5vIE0DuonBLRzN50TWJZ" x="-200%" y="-200%" width="400%" height="400%" filterUnits="objectBoundingBox" color-interpolation-filters="sRGB"><feGaussianBlur xmlns="http://www.w3.org/2000/svg" in="SourceGraphic" stdDeviation="0.21468045314195142"/><feOffset xmlns="http://www.w3.org/2000/svg" dx="0.5" dy="0.5" result="pf_100_offsetBlur"/><feFlood xmlns="http://www.w3.org/2000/svg" flood-color="#43457F" flood-opacity="1"/><feComposite xmlns="http://www.w3.org/2000/svg" in2="pf_100_offsetBlur" operator="in" result="pf_100_dropShadow"/><feBlend xmlns="http://www.w3.org/2000/svg" in="SourceGraphic" in2="pf_100_dropShadow" mode="normal"/></filter></defs><g filter="url(#8x9HIOgzW3eX5vIE0DuonBLRzN50TWJZ)"><path d="M 9.893 49.333 L 14.107 49.333 C 15.152 49.333 16 50.182 16 51.227 L 16 52.773 C 16 53.818 15.152 54.667 14.107 54.667 L 9.893 54.667 C 8.848 54.667 8 53.818 8 52.773 L 8 51.227 C 8 50.182 8.848 49.333 9.893 49.333 Z" style="stroke:none;fill:#DDA3DD;stroke-miterlimit:10;"/></g><defs><filter id="PBayUjN4wf8K1aZ9GZ5KE1HIsEN1idKZ" x="-200%" y="-200%" width="400%" height="400%" filterUnits="objectBoundingBox" color-interpolation-filters="sRGB"><feGaussianBlur xmlns="http://www.w3.org/2000/svg" in="SourceGraphic" stdDeviation="0.42936090628390283"/><feOffset xmlns="http://www.w3.org/2000/svg" dx="0.5" dy="0.5" result="pf_100_offsetBlur"/><feFlood xmlns="http://www.w3.org/2000/svg" flood-color="#43457F" flood-opacity="1"/><feComposite xmlns="http://www.w3.org/2000/svg" in2="pf_100_offsetBlur" operator="in" result="pf_100_dropShadow"/><feBlend xmlns="http://www.w3.org/2000/svg" in="SourceGraphic" in2="pf_100_dropShadow" mode="normal"/></filter></defs><g filter="url(#PBayUjN4wf8K1aZ9GZ5KE1HIsEN1idKZ)"><path d="M 21.893 21.333 L 26.107 21.333 C 27.152 21.333 28 22.182 28 23.227 L 28 24.773 C 28 25.818 27.152 26.667 26.107 26.667 L 21.893 26.667 C 20.848 26.667 20 25.818 20 24.773 L 20 23.227 C 20 22.182 20.848 21.333 21.893 21.333 Z" style="stroke:none;fill:#DDA3DD;stroke-miterlimit:10;"/></g><defs><filter id="a37g2wJAabXJdgkki6lObrIN7gUelNaR" x="-200%" y="-200%" width="400%" height="400%" filterUnits="objectBoundingBox" color-interpolation-filters="sRGB"><feGaussianBlur xmlns="http://www.w3.org/2000/svg" in="SourceGraphic" stdDeviation="0.42936090628390283"/><feOffset xmlns="http://www.w3.org/2000/svg" dx="0.5" dy="0.5" result="pf_100_offsetBlur"/><feFlood xmlns="http://www.w3.org/2000/svg" flood-color="#43457F" flood-opacity="1"/><feComposite xmlns="http://www.w3.org/2000/svg" in2="pf_100_offsetBlur" operator="in" result="pf_100_dropShadow"/><feBlend xmlns="http://www.w3.org/2000/svg" in="SourceGraphic" in2="pf_100_dropShadow" mode="normal"/></filter></defs><g filter="url(#a37g2wJAabXJdgkki6lObrIN7gUelNaR)"><path d="M 21.893 30.667 L 26.107 30.667 C 27.152 30.667 28 31.515 28 32.56 L 28 34.107 C 28 35.152 27.152 36 26.107 36 L 21.893 36 C 20.848 36 20 35.152 20 34.107 L 20 32.56 C 20 31.515 20.848 30.667 21.893 30.667 Z" style="stroke:none;fill:#DDA3DD;stroke-miterlimit:10;"/></g><defs><filter id="kcgrhE0Esli6bO1SmX9m7UQdMErAnZMN" x="-200%" y="-200%" width="400%" height="400%" filterUnits="objectBoundingBox" color-interpolation-filters="sRGB"><feGaussianBlur xmlns="http://www.w3.org/2000/svg" in="SourceGraphic" stdDeviation="0.42936090628390283"/><feOffset xmlns="http://www.w3.org/2000/svg" dx="0.5" dy="0.5" result="pf_100_offsetBlur"/><feFlood xmlns="http://www.w3.org/2000/svg" flood-color="#43457F" flood-opacity="1"/><feComposite xmlns="http://www.w3.org/2000/svg" in2="pf_100_offsetBlur" operator="in" result="pf_100_dropShadow"/><feBlend xmlns="http://www.w3.org/2000/svg" in="SourceGraphic" in2="pf_100_dropShadow" mode="normal"/></filter></defs><g filter="url(#kcgrhE0Esli6bO1SmX9m7UQdMErAnZMN)"><path d="M 21.893 40 L 26.107 40 C 27.152 40 28 40.848 28 41.893 L 28 43.44 C 28 44.485 27.152 45.333 26.107 45.333 L 21.893 45.333 C 20.848 45.333 20 44.485 20 43.44 L 20 41.893 C 20 40.848 20.848 40 21.893 40 Z" style="stroke:none;fill:#DDA3DD;stroke-miterlimit:10;"/></g><defs><filter id="3Lp2RzUMG0j8CZ4o18nN0wfJDxTQ7LJJ" x="-200%" y="-200%" width="400%" height="400%" filterUnits="objectBoundingBox" color-interpolation-filters="sRGB"><feGaussianBlur xmlns="http://www.w3.org/2000/svg" in="SourceGraphic" stdDeviation="0.42936090628390283"/><feOffset xmlns="http://www.w3.org/2000/svg" dx="0.5" dy="0.5" result="pf_100_offsetBlur"/><feFlood xmlns="http://www.w3.org/2000/svg" flood-color="#43457F" flood-opacity="1"/><feComposite xmlns="http://www.w3.org/2000/svg" in2="pf_100_offsetBlur" operator="in" result="pf_100_dropShadow"/><feBlend xmlns="http://www.w3.org/2000/svg" in="SourceGraphic" in2="pf_100_dropShadow" mode="normal"/></filter></defs><g filter="url(#3Lp2RzUMG0j8CZ4o18nN0wfJDxTQ7LJJ)"><path d="M 21.893 49.333 L 26.107 49.333 C 27.152 49.333 28 50.182 28 51.227 L 28 52.773 C 28 53.818 27.152 54.667 26.107 54.667 L 21.893 54.667 C 20.848 54.667 20 53.818 20 52.773 L 20 51.227 C 20 50.182 20.848 49.333 21.893 49.333 Z" style="stroke:none;fill:#DDA3DD;stroke-miterlimit:10;"/></g><defs><filter id="NPQON1CxijeXvbAK6xfmzwdE2AYBkPlY" x="-200%" y="-200%" width="400%" height="400%" filterUnits="objectBoundingBox" color-interpolation-filters="sRGB"><feGaussianBlur xmlns="http://www.w3.org/2000/svg" in="SourceGraphic" stdDeviation="0.42936090628390283"/><feOffset xmlns="http://www.w3.org/2000/svg" dx="0.5" dy="0.5" result="pf_100_offsetBlur"/><feFlood xmlns="http://www.w3.org/2000/svg" flood-color="#43457F" flood-opacity="1"/><feComposite xmlns="http://www.w3.org/2000/svg" in2="pf_100_offsetBlur" operator="in" result="pf_100_dropShadow"/><feBlend xmlns="http://www.w3.org/2000/svg" in="SourceGraphic" in2="pf_100_dropShadow" mode="normal"/></filter></defs><g filter="url(#NPQON1CxijeXvbAK6xfmzwdE2AYBkPlY)"><path d="M 33.893 21.333 L 38.107 21.333 C 39.152 21.333 40 22.182 40 23.227 L 40 24.773 C 40 25.818 39.152 26.667 38.107 26.667 L 33.893 26.667 C 32.848 26.667 32 25.818 32 24.773 L 32 23.227 C 32 22.182 32.848 21.333 33.893 21.333 Z" style="stroke:none;fill:#DDA3DD;stroke-miterlimit:10;"/></g><defs><filter id="15PJDzzIXrpyropKDooHeBzTt2VG3nR5" x="-200%" y="-200%" width="400%" height="400%" filterUnits="objectBoundingBox" color-interpolation-filters="sRGB"><feGaussianBlur xmlns="http://www.w3.org/2000/svg" in="SourceGraphic" stdDeviation="0.42936090628390283"/><feOffset xmlns="http://www.w3.org/2000/svg" dx="0.5" dy="0.5" result="pf_100_offsetBlur"/><feFlood xmlns="http://www.w3.org/2000/svg" flood-color="#43457F" flood-opacity="1"/><feComposite xmlns="http://www.w3.org/2000/svg" in2="pf_100_offsetBlur" operator="in" result="pf_100_dropShadow"/><feBlend xmlns="http://www.w3.org/2000/svg" in="SourceGraphic" in2="pf_100_dropShadow" mode="normal"/></filter></defs><g filter="url(#15PJDzzIXrpyropKDooHeBzTt2VG3nR5)"><path d="M 33.893 30.667 L 38.107 30.667 C 39.152 30.667 40 31.515 40 32.56 L 40 34.107 C 40 35.152 39.152 36 38.107 36 L 33.893 36 C 32.848 36 32 35.152 32 34.107 L 32 32.56 C 32 31.515 32.848 30.667 33.893 30.667 Z" style="stroke:none;fill:#DDA3DD;stroke-miterlimit:10;"/></g><defs><filter id="bG4DaQeSLmyXoq0hhcwR9YA8gey5UJTY" x="-200%" y="-200%" width="400%" height="400%" filterUnits="objectBoundingBox" color-interpolation-filters="sRGB"><feGaussianBlur xmlns="http://www.w3.org/2000/svg" in="SourceGraphic" stdDeviation="0.42936090628390283"/><feOffset xmlns="http://www.w3.org/2000/svg" dx="0.5" dy="0.5" result="pf_100_offsetBlur"/><feFlood xmlns="http://www.w3.org/2000/svg" flood-color="#43457F" flood-opacity="1"/><feComposite xmlns="http://www.w3.org/2000/svg" in2="pf_100_offsetBlur" operator="in" result="pf_100_dropShadow"/><feBlend xmlns="http://www.w3.org/2000/svg" in="SourceGraphic" in2="pf_100_dropShadow" mode="normal"/></filter></defs><g filter="url(#bG4DaQeSLmyXoq0hhcwR9YA8gey5UJTY)"><path d="M 33.893 40 L 38.107 40 C 39.152 40 40 40.848 40 41.893 L 40 43.44 C 40 44.485 39.152 45.333 38.107 45.333 L 33.893 45.333 C 32.848 45.333 32 44.485 32 43.44 L 32 41.893 C 32 40.848 32.848 40 33.893 40 Z" style="stroke:none;fill:#DDA3DD;stroke-miterlimit:10;"/></g><defs><filter id="5n7ofpiCE0vRkzZ4aDrc0zHDXTfs0u2a" x="-200%" y="-200%" width="400%" height="400%" filterUnits="objectBoundingBox" color-interpolation-filters="sRGB"><feGaussianBlur xmlns="http://www.w3.org/2000/svg" in="SourceGraphic" stdDeviation="0.21468045314195142"/><feOffset xmlns="http://www.w3.org/2000/svg" dx="0.5" dy="0.5" result="pf_100_offsetBlur"/><feFlood xmlns="http://www.w3.org/2000/svg" flood-color="#43457F" flood-opacity="1"/><feComposite xmlns="http://www.w3.org/2000/svg" in2="pf_100_offsetBlur" operator="in" result="pf_100_dropShadow"/><feBlend xmlns="http://www.w3.org/2000/svg" in="SourceGraphic" in2="pf_100_dropShadow" mode="normal"/></filter></defs><g filter="url(#5n7ofpiCE0vRkzZ4aDrc0zHDXTfs0u2a)"><path d="M 33.893 49.333 L 38.107 49.333 C 39.152 49.333 40 50.182 40 51.227 L 40 52.773 C 40 53.818 39.152 54.667 38.107 54.667 L 33.893 54.667 C 32.848 54.667 32 53.818 32 52.773 L 32 51.227 C 32 50.182 32.848 49.333 33.893 49.333 Z" style="stroke:none;fill:#DDA3DD;stroke-miterlimit:10;"/></g><defs><filter id="Y0CDJLYxQx7C44Y9678pzXoaUsAqQ5hf" x="-200%" y="-200%" width="400%" height="400%" filterUnits="objectBoundingBox" color-interpolation-filters="sRGB"><feGaussianBlur xmlns="http://www.w3.org/2000/svg" in="SourceGraphic" stdDeviation="0.42936090628390283"/><feOffset xmlns="http://www.w3.org/2000/svg" dx="0.5" dy="0.5" result="pf_100_offsetBlur"/><feFlood xmlns="http://www.w3.org/2000/svg" flood-color="#43457F" flood-opacity="1"/><feComposite xmlns="http://www.w3.org/2000/svg" in2="pf_100_offsetBlur" operator="in" result="pf_100_dropShadow"/><feBlend xmlns="http://www.w3.org/2000/svg" in="SourceGraphic" in2="pf_100_dropShadow" mode="normal"/></filter></defs><g filter="url(#Y0CDJLYxQx7C44Y9678pzXoaUsAqQ5hf)"><path d="M 45.893 21.333 L 50.107 21.333 C 51.152 21.333 52 22.182 52 23.227 L 52 24.773 C 52 25.818 51.152 26.667 50.107 26.667 L 45.893 26.667 C 44.848 26.667 44 25.818 44 24.773 L 44 23.227 C 44 22.182 44.848 21.333 45.893 21.333 Z" style="stroke:none;fill:#DDA3DD;stroke-miterlimit:10;"/></g><defs><filter id="MgNCstRomGv0qogmlBIWj9dwgpX3h0Iq" x="-200%" y="-200%" width="400%" height="400%" filterUnits="objectBoundingBox" color-interpolation-filters="sRGB"><feGaussianBlur xmlns="http://www.w3.org/2000/svg" in="SourceGraphic" stdDeviation="0.42936090628390283"/><feOffset xmlns="http://www.w3.org/2000/svg" dx="0.5" dy="0.5" result="pf_100_offsetBlur"/><feFlood xmlns="http://www.w3.org/2000/svg" flood-color="#43457F" flood-opacity="1"/><feComposite xmlns="http://www.w3.org/2000/svg" in2="pf_100_offsetBlur" operator="in" result="pf_100_dropShadow"/><feBlend xmlns="http://www.w3.org/2000/svg" in="SourceGraphic" in2="pf_100_dropShadow" mode="normal"/></filter></defs><g filter="url(#MgNCstRomGv0qogmlBIWj9dwgpX3h0Iq)"><path d="M 45.893 30.667 L 50.107 30.667 C 51.152 30.667 52 31.515 52 32.56 L 52 34.107 C 52 35.152 51.152 36 50.107 36 L 45.893 36 C 44.848 36 44 35.152 44 34.107 L 44 32.56 C 44 31.515 44.848 30.667 45.893 30.667 Z" style="stroke:none;fill:#DDA3DD;stroke-miterlimit:10;"/></g><defs><filter id="u4osBY6YrbOng1wguX7GBf4h1da5H9pC" x="-200%" y="-200%" width="400%" height="400%" filterUnits="objectBoundingBox" color-interpolation-filters="sRGB"><feGaussianBlur xmlns="http://www.w3.org/2000/svg" in="SourceGraphic" stdDeviation="0.42936090628390283"/><feOffset xmlns="http://www.w3.org/2000/svg" dx="0.5" dy="0.5" result="pf_100_offsetBlur"/><feFlood xmlns="http://www.w3.org/2000/svg" flood-color="#43457F" flood-opacity="1"/><feComposite xmlns="http://www.w3.org/2000/svg" in2="pf_100_offsetBlur" operator="in" result="pf_100_dropShadow"/><feBlend xmlns="http://www.w3.org/2000/svg" in="SourceGraphic" in2="pf_100_dropShadow" mode="normal"/></filter></defs><g filter="url(#u4osBY6YrbOng1wguX7GBf4h1da5H9pC)"><path d="M 45.893 40 L 50.107 40 C 51.152 40 52 40.848 52 41.893 L 52 43.44 C 52 44.485 51.152 45.333 50.107 45.333 L 45.893 45.333 C 44.848 45.333 44 44.485 44 43.44 L 44 41.893 C 44 40.848 44.848 40 45.893 40 Z" style="stroke:none;fill:#DDA3DD;stroke-miterlimit:10;"/></g><defs><filter id="suP8FaXsiuPALuziVZSq17tRg65pBigO" x="-200%" y="-200%" width="400%" height="400%" filterUnits="objectBoundingBox" color-interpolation-filters="sRGB"><feGaussianBlur xmlns="http://www.w3.org/2000/svg" in="SourceGraphic" stdDeviation="0.42936090628390283"/><feOffset xmlns="http://www.w3.org/2000/svg" dx="0.5" dy="0.5" result="pf_100_offsetBlur"/><feFlood xmlns="http://www.w3.org/2000/svg" flood-color="#43457F" flood-opacity="1"/><feComposite xmlns="http://www.w3.org/2000/svg" in2="pf_100_offsetBlur" operator="in" result="pf_100_dropShadow"/><feBlend xmlns="http://www.w3.org/2000/svg" in="SourceGraphic" in2="pf_100_dropShadow" mode="normal"/></filter></defs><g filter="url(#suP8FaXsiuPALuziVZSq17tRg65pBigO)"><path d="M 45.893 49.333 L 50.107 49.333 C 51.152 49.333 52 50.182 52 51.227 L 52 52.773 C 52 53.818 51.152 54.667 50.107 54.667 L 45.893 54.667 C 44.848 54.667 44 53.818 44 52.773 L 44 51.227 C 44 50.182 44.848 49.333 45.893 49.333 Z" style="stroke:none;fill:#DDA3DD;stroke-miterlimit:10;"/></g></g></svg>