<?xml version="1.0" encoding="UTF-8" standalone="no"?><!-- Generator: Gravit.io --><svg xmlns="http://www.w3.org/2000/svg" xmlns:xlink="http://www.w3.org/1999/xlink" style="isolation:isolate" viewBox="0 0 64 64" width="64pt" height="64pt"><defs><clipPath id="_clipPath_K3qofla9BGZaTe6lnGef2cehhHoumJmm"><rect width="64" height="64"/></clipPath></defs><g clip-path="url(#_clipPath_K3qofla9BGZaTe6lnGef2cehhHoumJmm)"><g><defs><filter id="aARxlTExfjp6iIf9gKOn7yDkqYcaWMcn" x="-200%" y="-200%" width="400%" height="400%" filterUnits="objectBoundingBox" color-interpolation-filters="sRGB"><feGaussianBlur xmlns="http://www.w3.org/2000/svg" in="SourceGraphic" stdDeviation="0"/><feOffset xmlns="http://www.w3.org/2000/svg" dx="2" dy="2" result="pf_100_offsetBlur"/><feFlood xmlns="http://www.w3.org/2000/svg" flood-color="#1B282A" flood-opacity="0.65"/><feComposite xmlns="http://www.w3.org/2000/svg" in2="pf_100_offsetBlur" operator="in" result="pf_100_dropShadow"/><feBlend xmlns="http://www.w3.org/2000/svg" in="SourceGraphic" in2="pf_100_dropShadow" mode="normal"/></filter></defs><g filter="url(#aARxlTExfjp6iIf9gKOn7yDkqYcaWMcn)"><radialGradient id="_rgradient_3" fx="0.5" fy="0.5" cx="0.5" cy="0.5" r="0.5" gradientTransform="matrix(61.928,0,0,61.703,0.35,0.377)" gradientUnits="userSpaceOnUse"><stop offset="51.30434782608696%" stop-opacity="1" style="stop-color:rgb(223,183,198)"/><stop offset="70.43478260869566%" stop-opacity="1" style="stop-color:rgb(221,184,199)"/><stop offset="100%" stop-opacity="1" style="stop-color:rgb(156,206,217)"/></radialGradient><path d=" M 48.155 55.814 L 46.245 55.986 C 44.576 56.137 42.29 57.25 41.142 58.471 L 39.829 59.868 C 38.681 61.088 36.493 61.558 34.945 60.916 L 33.174 60.181 C 31.627 59.538 29.085 59.462 27.501 60.009 L 25.689 60.636 C 24.106 61.183 21.95 60.582 20.878 59.294 L 19.652 57.821 C 18.58 56.533 16.365 55.283 14.708 55.032 L 12.812 54.745 C 11.156 54.494 9.526 52.96 9.176 51.321 L 8.774 49.446 C 8.424 47.808 7.043 45.672 5.693 44.68 L 4.148 43.544 C 2.798 42.552 2.068 40.437 2.519 38.823 L 3.035 36.976 C 3.486 35.363 3.256 32.83 2.522 31.324 L 1.681 29.601 C 0.947 28.095 1.284 25.882 2.433 24.663 L 3.748 23.268 C 4.897 22.048 5.871 19.699 5.92 18.024 L 5.977 16.107 C 6.026 14.433 7.353 12.63 8.937 12.085 L 10.75 11.46 C 12.334 10.915 14.288 9.287 15.11 7.827 L 16.051 6.156 C 16.873 4.696 18.886 3.717 20.542 3.97 L 22.437 4.26 C 24.094 4.513 26.58 3.979 27.987 3.069 L 29.596 2.027 C 31.003 1.116 33.24 1.184 34.589 2.178 L 36.132 3.315 C 37.481 4.309 39.931 4.992 41.599 4.839 L 43.509 4.665 C 45.177 4.512 47.127 5.612 47.859 7.119 L 48.697 8.843 C 49.43 10.35 51.281 12.093 52.83 12.733 L 54.602 13.466 C 56.15 14.106 57.365 15.986 57.313 17.661 L 57.254 19.577 C 57.202 21.252 58.032 23.656 59.105 24.942 L 60.334 26.415 C 61.407 27.701 61.61 29.93 60.786 31.389 L 59.843 33.058 C 59.018 34.517 58.636 37.031 58.988 38.669 L 59.392 40.544 C 59.745 42.182 58.888 44.249 57.48 45.158 L 55.869 46.198 C 54.462 47.107 52.954 49.155 52.506 50.769 L 51.992 52.617 C 51.543 54.231 49.824 55.664 48.155 55.814 Z " fill="url(#_rgradient_3)"/></g><radialGradient id="_rgradient_4" fx="0.5" fy="0.5" cx="0.5" cy="0.5" r="0.5" gradientTransform="matrix(33.441,-33.441,33.319,33.319,-2.101,31.312)" gradientUnits="userSpaceOnUse"><stop offset="62.17391304347826%" stop-opacity="1" style="stop-color:rgb(223,183,198)"/><stop offset="100%" stop-opacity="1" style="stop-color:rgb(156,206,217)"/></radialGradient><path d=" M 53.65 35.433 L 52.711 36.558 C 51.891 37.54 51.258 39.376 51.297 40.655 L 51.342 42.118 C 51.382 43.397 50.454 44.833 49.271 45.321 L 47.918 45.881 C 46.736 46.37 45.321 47.701 44.762 48.852 L 44.122 50.168 C 43.562 51.319 42.074 52.159 40.799 52.042 L 39.341 51.909 C 38.067 51.792 36.196 52.313 35.166 53.072 L 33.987 53.941 C 32.957 54.7 31.249 54.751 30.175 54.056 L 28.946 53.26 C 27.872 52.565 25.973 52.157 24.708 52.35 L 23.26 52.571 C 21.996 52.765 20.459 52.017 19.831 50.902 L 19.113 49.626 C 18.485 48.511 16.993 47.267 15.783 46.851 L 14.399 46.374 C 13.189 45.957 12.176 44.581 12.138 43.302 L 12.095 41.838 C 12.057 40.559 11.314 38.765 10.436 37.833 L 9.432 36.768 C 8.554 35.837 8.297 34.147 8.858 32.997 L 9.5 31.681 C 10.061 30.531 10.237 28.597 9.893 27.364 L 9.499 25.954 C 9.154 24.722 9.712 23.106 10.743 22.349 L 11.923 21.482 C 12.954 20.724 14.009 19.093 14.276 17.842 L 14.583 16.41 C 14.851 15.159 16.095 13.987 17.36 13.796 L 18.808 13.576 C 20.073 13.385 21.765 12.431 22.583 11.447 L 23.52 10.322 C 24.339 9.338 25.985 8.879 27.194 9.298 L 28.578 9.776 C 29.787 10.195 31.729 10.136 32.911 9.646 L 34.263 9.084 C 35.445 8.594 37.116 8.953 37.992 9.885 L 38.995 10.952 C 39.872 11.884 41.618 12.734 42.892 12.849 L 44.35 12.981 C 45.625 13.096 46.938 14.19 47.28 15.423 L 47.673 16.834 C 48.015 18.067 49.166 19.631 50.241 20.325 L 51.472 21.119 C 52.546 21.813 53.2 23.392 52.931 24.643 L 52.623 26.075 C 52.353 27.326 52.645 29.246 53.275 30.36 L 53.995 31.635 C 54.624 32.749 54.469 34.451 53.65 35.433 Z " fill="url(#_rgradient_4)"/><radialGradient id="_rgradient_5" fx="0.5" fy="0.5" cx="0.5" cy="0.5" r="0.5" gradientTransform="matrix(33.869,0,0,33.746,14.37,14.385)" gradientUnits="userSpaceOnUse"><stop offset="51.30434782608696%" stop-opacity="1" style="stop-color:rgb(223,183,198)"/><stop offset="100%" stop-opacity="1" style="stop-color:rgb(156,206,217)"/></radialGradient><path d=" M 40.515 44.704 L 39.47 44.799 C 38.557 44.881 37.307 45.49 36.679 46.157 L 35.961 46.921 C 35.333 47.589 34.137 47.846 33.29 47.495 L 32.322 47.093 C 31.475 46.741 30.085 46.699 29.219 46.999 L 28.228 47.341 C 27.362 47.641 26.183 47.312 25.597 46.608 L 24.926 45.802 C 24.34 45.097 23.128 44.414 22.222 44.277 L 21.185 44.12 C 20.279 43.982 19.388 43.143 19.197 42.247 L 18.977 41.222 C 18.785 40.326 18.03 39.158 17.292 38.615 L 16.447 37.994 C 15.708 37.451 15.309 36.294 15.556 35.412 L 15.838 34.402 C 16.085 33.519 15.959 32.134 15.557 31.311 L 15.098 30.368 C 14.696 29.544 14.88 28.334 15.509 27.668 L 16.228 26.905 C 16.857 26.238 17.389 24.953 17.416 24.037 L 17.447 22.989 C 17.474 22.073 18.2 21.087 19.066 20.788 L 20.058 20.447 C 20.924 20.149 21.993 19.258 22.442 18.46 L 22.957 17.546 C 23.407 16.748 24.507 16.212 25.413 16.351 L 26.449 16.509 C 27.355 16.648 28.715 16.356 29.484 15.858 L 30.365 15.288 C 31.134 14.79 32.357 14.827 33.095 15.37 L 33.939 15.992 C 34.677 16.536 36.017 16.91 36.929 16.826 L 37.974 16.731 C 38.886 16.647 39.952 17.248 40.353 18.073 L 40.811 19.016 C 41.212 19.84 42.224 20.793 43.071 21.143 L 44.04 21.544 C 44.887 21.894 45.552 22.922 45.523 23.838 L 45.491 24.886 C 45.463 25.802 45.916 27.117 46.503 27.82 L 47.175 28.626 C 47.762 29.329 47.873 30.548 47.422 31.346 L 46.907 32.259 C 46.456 33.057 46.247 34.432 46.439 35.328 L 46.66 36.353 C 46.853 37.249 46.385 38.38 45.615 38.877 L 44.734 39.445 C 43.964 39.942 43.139 41.063 42.894 41.945 L 42.613 42.956 C 42.367 43.839 41.427 44.622 40.515 44.704 Z " fill="url(#_rgradient_5)"/><g><defs><filter id="OYrgMQYszaefqi84Q2DDjUAZIAPLEuxf" x="-200%" y="-200%" width="400%" height="400%" filterUnits="objectBoundingBox" color-interpolation-filters="sRGB"><feGaussianBlur xmlns="http://www.w3.org/2000/svg" in="SourceGraphic" stdDeviation="0"/><feOffset xmlns="http://www.w3.org/2000/svg" dx="2" dy="2" result="pf_100_offsetBlur"/><feFlood xmlns="http://www.w3.org/2000/svg" flood-color="#1B282A" flood-opacity="0.65"/><feComposite xmlns="http://www.w3.org/2000/svg" in2="pf_100_offsetBlur" operator="in" result="pf_100_dropShadow"/><feBlend xmlns="http://www.w3.org/2000/svg" in="SourceGraphic" in2="pf_100_dropShadow" mode="normal"/></filter></defs><g filter="url(#OYrgMQYszaefqi84Q2DDjUAZIAPLEuxf)"><path d=" M 21.438 32.355 C 25.531 31.044 28.242 26.963 27.689 22.545 C 27.063 17.549 22.499 14.001 17.503 14.626 C 12.507 15.252 5.469 21.579 6.095 26.575 L 6.095 26.575 C 6.411 29.103 8.629 30.808 11.395 31.791 C 15.421 35.019 18.282 39.706 19.121 45.171 C 19.045 45.409 19.021 45.666 19.054 45.929 C 19.182 46.951 20.115 47.676 21.136 47.548 C 22.158 47.42 22.883 46.487 22.755 45.466 C 22.75 45.426 22.744 45.387 22.736 45.348 C 23.237 43.075 23.357 40.678 23.051 38.237 C 22.791 36.156 22.239 34.183 21.438 32.355 Z  M 8.596 26.781 C 8.209 23.687 12.568 19.768 15.662 19.38 C 18.756 18.993 21.583 21.191 21.971 24.285 C 22.358 27.379 20.16 30.206 17.066 30.593 C 13.972 30.981 8.984 29.875 8.596 26.781 L 8.596 26.781 Z " fill-rule="evenodd" fill="rgb(255,255,255)"/></g><defs><filter id="kY6pU4odLYcUFIAjHXCCPB58w3UNOAbm" x="-200%" y="-200%" width="400%" height="400%" filterUnits="objectBoundingBox" color-interpolation-filters="sRGB"><feGaussianBlur xmlns="http://www.w3.org/2000/svg" in="SourceGraphic" stdDeviation="0"/><feOffset xmlns="http://www.w3.org/2000/svg" dx="2" dy="2" result="pf_100_offsetBlur"/><feFlood xmlns="http://www.w3.org/2000/svg" flood-color="#1B282A" flood-opacity="0.65"/><feComposite xmlns="http://www.w3.org/2000/svg" in2="pf_100_offsetBlur" operator="in" result="pf_100_dropShadow"/><feBlend xmlns="http://www.w3.org/2000/svg" in="SourceGraphic" in2="pf_100_dropShadow" mode="normal"/></filter></defs><g filter="url(#kY6pU4odLYcUFIAjHXCCPB58w3UNOAbm)"><path d=" M 46.268 34.663 C 50.184 35.543 54.297 33.539 55.942 29.719 C 57.8 25.4 55.803 20.385 51.484 18.526 C 47.165 16.667 38.505 18.434 36.647 22.753 L 36.647 22.753 C 35.706 24.938 36.685 27.36 38.448 29.459 C 40.163 33.963 40.251 39.09 38.342 43.888 C 38.168 44.043 38.027 44.239 37.929 44.467 C 37.549 45.35 37.958 46.375 38.841 46.755 C 39.724 47.135 40.749 46.727 41.129 45.844 C 41.144 45.81 41.158 45.775 41.17 45.74 C 42.648 44.146 43.878 42.273 44.786 40.163 C 45.56 38.364 46.049 36.514 46.268 34.663 Z  M 38.564 24.101 C 39.715 21.427 45.078 20.332 47.753 21.484 C 50.428 22.635 51.665 25.741 50.514 28.416 C 49.363 31.091 46.256 32.328 43.581 31.177 C 40.906 30.025 37.412 26.776 38.564 24.101 L 38.564 24.101 Z " fill-rule="evenodd" fill="rgb(255,255,255)"/></g><defs><filter id="mwnMamdWPGXKxlzkEMvcznJ0AIzJ0b3R" x="-200%" y="-200%" width="400%" height="400%" filterUnits="objectBoundingBox" color-interpolation-filters="sRGB"><feGaussianBlur xmlns="http://www.w3.org/2000/svg" in="SourceGraphic" stdDeviation="0"/><feOffset xmlns="http://www.w3.org/2000/svg" dx="2" dy="2" result="pf_100_offsetBlur"/><feFlood xmlns="http://www.w3.org/2000/svg" flood-color="#1B282A" flood-opacity="0.65"/><feComposite xmlns="http://www.w3.org/2000/svg" in2="pf_100_offsetBlur" operator="in" result="pf_100_dropShadow"/><feBlend xmlns="http://www.w3.org/2000/svg" in="SourceGraphic" in2="pf_100_dropShadow" mode="normal"/></filter></defs><g filter="url(#mwnMamdWPGXKxlzkEMvcznJ0AIzJ0b3R)"><path d=" M 26.871 31.808 L 33.476 32.333 C 34.736 32.433 36.38 33.331 37.146 34.337 L 37.181 34.383 C 37.947 35.389 37.543 36.177 36.279 36.142 L 29.913 35.967 C 28.65 35.932 27.031 35.067 26.299 34.037 L 25.914 33.493 C 25.183 32.463 25.612 31.707 26.871 31.808 Z " fill="rgb(255,255,255)"/></g></g></g></g></svg>