<?xml version="1.0" encoding="UTF-8" standalone="no"?><!-- Generator: Gravit.io --><svg xmlns="http://www.w3.org/2000/svg" xmlns:xlink="http://www.w3.org/1999/xlink" style="isolation:isolate" viewBox="0 0 128 128" width="128pt" height="128pt"><defs><clipPath id="_clipPath_ZYBK2cH8rQWrwv831BxoTF0Syu3yxi2a"><rect width="128" height="128"/></clipPath></defs><g clip-path="url(#_clipPath_ZYBK2cH8rQWrwv831BxoTF0Syu3yxi2a)"><g><defs><filter id="KoLi9SWqQ9RnjuqYah8bjDZb1l21G6Js" x="-200%" y="-200%" width="400%" height="400%" filterUnits="objectBoundingBox" color-interpolation-filters="sRGB"><feGaussianBlur xmlns="http://www.w3.org/2000/svg" in="SourceGraphic" stdDeviation="0"/><feOffset xmlns="http://www.w3.org/2000/svg" dx="2" dy="2" result="pf_100_offsetBlur"/><feFlood xmlns="http://www.w3.org/2000/svg" flood-color="#1B282A" flood-opacity="0.65"/><feComposite xmlns="http://www.w3.org/2000/svg" in2="pf_100_offsetBlur" operator="in" result="pf_100_dropShadow"/><feBlend xmlns="http://www.w3.org/2000/svg" in="SourceGraphic" in2="pf_100_dropShadow" mode="normal"/></filter></defs><g filter="url(#KoLi9SWqQ9RnjuqYah8bjDZb1l21G6Js)"><radialGradient id="_rgradient_0" fx="0.5" fy="0.5" cx="0.5" cy="0.5" r="0.5" gradientTransform="matrix(125.169,0,0,124.713,1.461,1.51)" gradientUnits="userSpaceOnUse"><stop offset="51.30434782608696%" stop-opacity="1" style="stop-color:rgb(223,183,198)"/><stop offset="70.43478260869566%" stop-opacity="1" style="stop-color:rgb(221,184,199)"/><stop offset="100%" stop-opacity="1" style="stop-color:rgb(156,206,217)"/></radialGradient><path d=" M 98.082 113.559 L 94.222 113.907 C 90.85 114.211 86.228 116.461 83.908 118.928 L 81.254 121.752 C 78.934 124.219 74.511 125.168 71.383 123.87 L 67.804 122.385 C 64.676 121.086 59.538 120.931 56.338 122.038 L 52.675 123.304 C 49.474 124.411 45.117 123.196 42.951 120.593 L 40.472 117.614 C 38.305 115.011 33.828 112.486 30.48 111.978 L 26.648 111.397 C 23.3 110.89 20.006 107.789 19.298 104.478 L 18.487 100.688 C 17.779 97.376 14.988 93.06 12.259 91.054 L 9.136 88.759 C 6.407 86.754 4.932 82.478 5.843 79.216 L 6.887 75.484 C 7.798 72.223 7.333 67.103 5.849 64.059 L 4.15 60.576 C 2.666 57.532 3.347 53.06 5.67 50.596 L 8.328 47.776 C 10.651 45.312 12.618 40.563 12.718 37.178 L 12.833 33.304 C 12.933 29.919 15.614 26.276 18.816 25.173 L 22.48 23.912 C 25.683 22.809 29.631 19.518 31.293 16.568 L 33.195 13.191 C 34.857 10.24 38.924 8.26 42.271 8.772 L 46.102 9.358 C 49.45 9.87 54.476 8.791 57.319 6.95 L 60.572 4.844 C 63.414 3.004 67.936 3.141 70.662 5.15 L 73.782 7.449 C 76.508 9.458 81.46 10.838 84.832 10.529 L 88.691 10.176 C 92.064 9.868 96.004 12.09 97.484 15.136 L 99.178 18.621 C 100.659 21.667 104.402 25.191 107.531 26.485 L 111.112 27.966 C 114.242 29.26 116.698 33.058 116.593 36.443 L 116.473 40.317 C 116.369 43.702 118.045 48.561 120.215 51.161 L 122.698 54.137 C 124.868 56.737 125.277 61.242 123.611 64.19 L 121.705 67.565 C 120.039 70.513 119.266 75.595 119.979 78.906 L 120.794 82.694 C 121.507 86.005 119.776 90.184 116.931 92.021 L 113.675 94.123 C 110.83 95.959 107.783 100.099 106.876 103.362 L 105.837 107.096 C 104.93 110.359 101.455 113.254 98.082 113.559 Z " fill="url(#_rgradient_0)"/></g><radialGradient id="_rgradient_1" fx="0.5" fy="0.5" cx="0.5" cy="0.5" r="0.5" gradientTransform="matrix(67.591,-67.591,67.345,67.345,-3.494,64.035)" gradientUnits="userSpaceOnUse"><stop offset="62.17391304347826%" stop-opacity="1" style="stop-color:rgb(223,183,198)"/><stop offset="100%" stop-opacity="1" style="stop-color:rgb(156,206,217)"/></radialGradient><path d=" M 109.188 72.365 L 107.292 74.638 C 105.635 76.623 104.354 80.334 104.434 82.919 L 104.525 85.877 C 104.605 88.462 102.729 91.363 100.339 92.351 L 97.604 93.482 C 95.214 94.47 92.355 97.16 91.225 99.486 L 89.931 102.148 C 88.8 104.474 85.791 106.171 83.216 105.935 L 80.268 105.665 C 77.693 105.429 73.912 106.483 71.83 108.017 L 69.447 109.773 C 67.365 111.307 63.912 111.411 61.741 110.005 L 59.257 108.397 C 57.086 106.991 53.248 106.167 50.691 106.558 L 47.766 107.005 C 45.209 107.395 42.104 105.883 40.835 103.629 L 39.383 101.051 C 38.114 98.797 35.098 96.284 32.653 95.442 L 29.855 94.478 C 27.409 93.636 25.362 90.854 25.286 88.268 L 25.199 85.31 C 25.122 82.725 23.62 79.098 21.846 77.216 L 19.816 75.063 C 18.043 73.181 17.523 69.765 18.657 67.441 L 19.954 64.781 C 21.088 62.457 21.443 58.547 20.747 56.056 L 19.951 53.206 C 19.255 50.715 20.382 47.45 22.466 45.919 L 24.851 44.166 C 26.935 42.635 29.066 39.339 29.608 36.81 L 30.227 33.916 C 30.768 31.387 33.284 29.019 35.841 28.632 L 38.767 28.188 C 41.324 27.801 44.743 25.873 46.398 23.885 L 48.291 21.61 C 49.945 19.622 53.273 18.695 55.717 19.54 L 58.514 20.508 C 60.958 21.353 64.882 21.235 67.271 20.243 L 70.004 19.109 C 72.393 18.118 75.771 18.843 77.542 20.727 L 79.569 22.884 C 81.34 24.768 84.87 26.487 87.445 26.719 L 90.393 26.985 C 92.969 27.218 95.622 29.429 96.315 31.921 L 97.108 34.772 C 97.8 37.264 100.127 40.426 102.3 41.829 L 104.786 43.434 C 106.959 44.837 108.28 48.029 107.736 50.557 L 107.113 53.45 C 106.568 55.978 107.159 59.859 108.431 62.111 L 109.886 64.688 C 111.158 66.94 110.845 70.38 109.188 72.365 Z " fill="url(#_rgradient_1)"/><radialGradient id="_rgradient_2" fx="0.5" fy="0.5" cx="0.5" cy="0.5" r="0.5" gradientTransform="matrix(68.456,0,0,68.206,29.797,29.824)" gradientUnits="userSpaceOnUse"><stop offset="51.30434782608696%" stop-opacity="1" style="stop-color:rgb(223,183,198)"/><stop offset="100%" stop-opacity="1" style="stop-color:rgb(156,206,217)"/></radialGradient><path d=" M 82.64 91.104 L 80.529 91.294 C 78.684 91.461 76.157 92.691 74.888 94.041 L 73.436 95.585 C 72.167 96.934 69.749 97.453 68.038 96.743 L 66.08 95.931 C 64.37 95.221 61.56 95.136 59.809 95.741 L 57.806 96.434 C 56.056 97.039 53.673 96.375 52.488 94.951 L 51.132 93.322 C 49.947 91.898 47.499 90.517 45.668 90.24 L 43.572 89.922 C 41.741 89.644 39.94 87.949 39.552 86.138 L 39.109 84.065 C 38.721 82.254 37.195 79.893 35.702 78.796 L 33.995 77.541 C 32.502 76.444 31.695 74.106 32.194 72.322 L 32.764 70.281 C 33.263 68.497 33.009 65.697 32.197 64.033 L 31.268 62.128 C 30.456 60.463 30.828 58.017 32.099 56.669 L 33.553 55.127 C 34.823 53.779 35.899 51.182 35.954 49.331 L 36.016 47.212 C 36.071 45.361 37.537 43.368 39.289 42.765 L 41.293 42.075 C 43.044 41.472 45.204 39.673 46.112 38.059 L 47.152 36.212 C 48.061 34.598 50.286 33.515 52.117 33.795 L 54.212 34.116 C 56.042 34.396 58.791 33.806 60.346 32.799 L 62.125 31.647 C 63.68 30.641 66.153 30.716 67.644 31.814 L 69.35 33.072 C 70.841 34.17 73.549 34.925 75.393 34.757 L 77.504 34.563 C 79.348 34.395 81.503 35.61 82.313 37.276 L 83.239 39.182 C 84.049 40.848 86.096 42.775 87.807 43.483 L 89.766 44.293 C 91.478 45 92.821 47.078 92.764 48.929 L 92.698 51.048 C 92.641 52.899 93.558 55.556 94.744 56.978 L 96.102 58.606 C 97.289 60.028 97.513 62.492 96.602 64.104 L 95.559 65.949 C 94.648 67.562 94.225 70.341 94.615 72.152 L 95.061 74.224 C 95.451 76.035 94.504 78.32 92.948 79.325 L 91.168 80.474 C 89.611 81.479 87.945 83.743 87.449 85.527 L 86.881 87.569 C 86.385 89.354 84.484 90.938 82.64 91.104 Z " fill="url(#_rgradient_2)"/><g><defs><filter id="xPuwaZSbgoJER7PT7rJDQbpQR86A64L4" x="-200%" y="-200%" width="400%" height="400%" filterUnits="objectBoundingBox" color-interpolation-filters="sRGB"><feGaussianBlur xmlns="http://www.w3.org/2000/svg" in="SourceGraphic" stdDeviation="0"/><feOffset xmlns="http://www.w3.org/2000/svg" dx="2" dy="2" result="pf_100_offsetBlur"/><feFlood xmlns="http://www.w3.org/2000/svg" flood-color="#1B282A" flood-opacity="0.65"/><feComposite xmlns="http://www.w3.org/2000/svg" in2="pf_100_offsetBlur" operator="in" result="pf_100_dropShadow"/><feBlend xmlns="http://www.w3.org/2000/svg" in="SourceGraphic" in2="pf_100_dropShadow" mode="normal"/></filter></defs><g filter="url(#xPuwaZSbgoJER7PT7rJDQbpQR86A64L4)"><path d=" M 44.082 66.143 C 52.355 63.493 57.835 55.246 56.716 46.316 C 55.452 36.218 46.228 29.046 36.13 30.31 C 26.032 31.575 11.807 44.364 13.071 54.461 L 13.071 54.461 C 13.711 59.57 18.194 63.018 23.783 65.003 C 31.921 71.529 37.704 81.001 39.399 92.048 C 39.245 92.527 39.197 93.047 39.264 93.58 C 39.522 95.644 41.408 97.11 43.473 96.852 C 45.537 96.593 47.004 94.707 46.745 92.643 C 46.735 92.563 46.723 92.483 46.707 92.405 C 47.719 87.81 47.961 82.965 47.344 78.032 C 46.817 73.827 45.701 69.838 44.082 66.143 Z  M 18.127 54.877 C 17.344 48.623 26.155 40.702 32.409 39.919 C 38.663 39.136 44.376 43.578 45.159 49.832 C 45.942 56.086 41.5 61.799 35.246 62.582 C 28.992 63.365 18.91 61.131 18.127 54.877 L 18.127 54.877 Z " fill-rule="evenodd" fill="rgb(255,255,255)"/></g><defs><filter id="lgZJdo181z8FtHt2EuMEabGJRvsWTess" x="-200%" y="-200%" width="400%" height="400%" filterUnits="objectBoundingBox" color-interpolation-filters="sRGB"><feGaussianBlur xmlns="http://www.w3.org/2000/svg" in="SourceGraphic" stdDeviation="0"/><feOffset xmlns="http://www.w3.org/2000/svg" dx="2" dy="2" result="pf_100_offsetBlur"/><feFlood xmlns="http://www.w3.org/2000/svg" flood-color="#1B282A" flood-opacity="0.65"/><feComposite xmlns="http://www.w3.org/2000/svg" in2="pf_100_offsetBlur" operator="in" result="pf_100_dropShadow"/><feBlend xmlns="http://www.w3.org/2000/svg" in="SourceGraphic" in2="pf_100_dropShadow" mode="normal"/></filter></defs><g filter="url(#lgZJdo181z8FtHt2EuMEabGJRvsWTess)"><path d=" M 94.269 70.808 C 102.184 72.586 110.498 68.536 113.821 60.816 C 117.578 52.087 113.541 41.949 104.812 38.192 C 96.082 34.435 78.579 38.006 74.822 46.736 L 74.822 46.736 C 72.921 51.152 74.9 56.048 78.462 60.29 C 81.929 69.394 82.107 79.757 78.248 89.454 C 77.897 89.767 77.613 90.163 77.414 90.623 C 76.646 92.408 77.472 94.481 79.256 95.249 C 81.041 96.017 83.114 95.192 83.882 93.407 C 83.912 93.338 83.939 93.268 83.964 93.197 C 86.952 89.975 89.438 86.189 91.274 81.924 C 92.838 78.289 93.826 74.549 94.269 70.808 Z  M 78.697 49.462 C 81.024 44.055 91.864 41.843 97.271 44.17 C 102.677 46.497 105.177 52.776 102.85 58.182 C 100.523 63.589 94.245 66.089 88.838 63.762 C 83.432 61.435 76.37 54.868 78.697 49.462 L 78.697 49.462 Z " fill-rule="evenodd" fill="rgb(255,255,255)"/></g><defs><filter id="rkFXgoC3L2mnDv3OvstB2snZIcETLMmi" x="-200%" y="-200%" width="400%" height="400%" filterUnits="objectBoundingBox" color-interpolation-filters="sRGB"><feGaussianBlur xmlns="http://www.w3.org/2000/svg" in="SourceGraphic" stdDeviation="0"/><feOffset xmlns="http://www.w3.org/2000/svg" dx="2" dy="2" result="pf_100_offsetBlur"/><feFlood xmlns="http://www.w3.org/2000/svg" flood-color="#1B282A" flood-opacity="0.65"/><feComposite xmlns="http://www.w3.org/2000/svg" in2="pf_100_offsetBlur" operator="in" result="pf_100_dropShadow"/><feBlend xmlns="http://www.w3.org/2000/svg" in="SourceGraphic" in2="pf_100_dropShadow" mode="normal"/></filter></defs><g filter="url(#rkFXgoC3L2mnDv3OvstB2snZIcETLMmi)"><path d=" M 55.064 65.037 L 68.414 66.099 C 70.96 66.302 74.284 68.116 75.831 70.149 L 75.903 70.243 C 77.45 72.276 76.633 73.869 74.08 73.799 L 61.212 73.444 C 58.659 73.374 55.386 71.626 53.908 69.542 L 53.129 68.444 C 51.651 66.361 52.518 64.834 55.064 65.037 Z " fill="rgb(255,255,255)"/></g></g></g></g></svg>