<?xml version="1.0" encoding="UTF-8" standalone="no"?><!-- Generator: Gravit.io --><svg xmlns="http://www.w3.org/2000/svg" xmlns:xlink="http://www.w3.org/1999/xlink" style="isolation:isolate" viewBox="0 0 733.836 493.169" width="733.836pt" height="493.169pt"><defs><clipPath id="_clipPath_ibsaKL7PG3yDSmKRKBtqZD8jnovGPJLC"><rect width="733.836" height="493.169"/></clipPath></defs><g clip-path="url(#_clipPath_ibsaKL7PG3yDSmKRKBtqZD8jnovGPJLC)"><g><path d=" M 342.794 75.798 L 377.901 66.894 L 377.901 66.894 L 592.39 69.225 L 592.39 69.225 C 609.564 80.641 623.746 95.465 636.057 114.823 Q 655.932 146.073 664.057 185.823 Q 6.258 216.674 34.78 185.478 C 63.452 154.119 80.868 135.892 108.968 125.062 C 140.968 112.728 173.176 113.687 204.301 118.062 Q 235.426 122.437 279.057 121.9 Q 291.39 106.595 303.258 95.82 L 342.794 75.798 L 342.794 75.798 Z " fill="rgb(103,140,46)" vector-effect="non-scaling-stroke" stroke-width="5" stroke="rgb(32,38,23)" stroke-linejoin="miter" stroke-linecap="square" stroke-miterlimit="3"/><path d=" M 376.686 75.294 C 350.251 85.476 325.452 98.302 316.218 105.603 Q 300.925 117.695 279.635 145.062 Q 238.968 135.728 212.711 133.411 C 181.661 129.047 137.514 125.858 106.968 135.062 Q 84.843 141.728 65.332 157.516 C 62.725 159.625 62.559 159.439 64.962 157.1 Q 77.093 145.291 92.888 135.621 C 100.135 131.324 108.69 128.222 115.241 125.502 C 120.495 123.32 136.851 118.984 156.343 117.853 C 172.24 116.931 190.473 118.737 204.421 120.697 Q 235.472 125.062 279.551 124.549 Q 295.388 104.894 310.477 92.549 C 315.24 88.652 324.849 82.746 337.075 76.372 L 376.686 75.294 L 376.686 75.294 Z " fill="rgb(84,113,41)"/></g><g><path d=" M 670.662 229.093 C 664.512 193.546 649.721 157.159 658.825 155.584 C 667.928 154.009 697.501 187.839 703.651 223.385 C 709.8 258.932 703.461 280.814 694.358 282.389 C 685.254 283.964 676.812 264.639 670.662 229.093 Z " fill="rgb(103,140,46)" vector-effect="non-scaling-stroke" stroke-width="5" stroke="rgb(32,38,23)" stroke-linejoin="miter" stroke-linecap="square" stroke-miterlimit="3"/><path d=" M 681.33 179.131 C 687.792 184.666 697.791 204.349 701.343 225.478 C 706.259 254.722 701.929 279.11 694.445 280.405 C 689.061 281.337 683.958 273.377 679.635 257.97 C 681.442 259.75 683.305 260.489 685.201 260.161 C 692.936 258.823 698.322 240.231 693.097 210.03 C 691.202 199.077 686.69 188.317 681.33 179.131 Z " fill-rule="evenodd" fill="rgb(84,113,41)"/></g><g><path d=" M 584.718 460.978 C 584.718 449.871 607.48 428.758 647.968 432.228 C 674.218 434.478 729.218 438.228 726.218 454.478 C 724.172 465.563 693.85 469.978 661.718 469.978 C 629.586 469.978 584.718 472.086 584.718 460.978 Z " fill="rgb(103,140,46)" vector-effect="non-scaling-stroke" stroke-width="5" stroke="rgb(32,38,23)" stroke-linejoin="miter" stroke-linecap="square" stroke-miterlimit="3"/><path d=" M 587.639 459.618 C 587.397 459.958 587.279 460.211 587.265 460.385 C 586.515 469.525 638.17 467.31 666.665 467.31 C 695.159 467.31 722.049 463.395 723.863 453.565 C 725.199 446.33 712.687 442.619 696.924 440.476 C 699.252 442.384 700.39 444.586 699.92 447.135 C 698.105 456.965 671.215 460.881 642.721 460.881 C 624.522 460.881 601.715 461.643 587.639 459.618 Z " fill-rule="evenodd" fill="rgb(84,113,41)"/></g><g><g><path d=" M 76.88 403.207 C 75.9 396.978 74.961 391.231 73.701 388.084 C 70.125 379.155 50.337 376.146 48.123 383.978 C 46.476 389.808 46.307 398.02 47.821 413.284 C 59.623 412.848 69.32 409.499 76.88 403.207 L 76.88 403.207 Z " fill="rgb(103,140,46)" vector-effect="non-scaling-stroke" stroke-width="5" stroke="rgb(32,38,23)" stroke-linejoin="miter" stroke-linecap="square" stroke-miterlimit="3"/><path d=" M 55.88 408.009 C 54.492 396.224 53.948 388.29 54.141 382.439 C 52.326 382.845 50.975 383.816 50.51 385.463 C 49.208 390.07 49.049 397.571 50.052 409.386 L 55.88 408.009 L 55.88 408.009 Z " fill="rgb(84,113,41)"/></g></g><g><g><path d=" M 76.875 403 C 78.658 414.182 80.847 429.204 85.109 430.947 C 91.768 433.671 98.824 421.545 109.116 414.583 C 119.407 407.621 126.275 404.31 132.026 407.942 C 137.777 411.575 154.257 425.675 151.701 432.158 C 149.298 438.249 115.926 456.638 102.967 462.73 C 90.301 468.684 82.384 473.664 70.636 471.11 C 59.604 468.712 54.631 467.365 50.602 437.001 C 49.493 428.649 48.199 417.081 47.637 411.258 C 59.338 409.718 68.688 408 76.875 403 Z " fill="rgb(79,56,47)" vector-effect="non-scaling-stroke" stroke-width="5" stroke="rgb(74,45,33)" stroke-linejoin="miter" stroke-linecap="square" stroke-miterlimit="3"/><path d=" M 56.25 412.688 C 56.716 417.032 56.872 416.743 57.636 422.503 C 61.334 450.367 65.897 451.604 76.021 453.805 C 86.802 456.148 94.067 451.578 105.691 446.114 C 114.942 441.765 135.527 430.588 145.261 423.204 C 148.314 426.123 149.503 429.959 149.015 431.197 C 146.81 436.787 113.109 455.665 101.217 461.256 C 89.594 466.72 82.329 471.29 71.548 468.946 C 61.423 466.745 56.86 465.509 53.162 437.645 C 51.548 425.479 50.942 421.094 50.461 413.486 L 56.25 412.688 Z " fill="rgb(55,31,21)"/></g><path d=" M 90.339 443.849 L 90.008 441.698 L 89.908 440.978 C 89.898 440.978 89.898 440.968 89.898 440.958 C 89.798 440.218 89.668 439.478 89.528 438.748 C 89.418 438.168 89.268 437.608 89.078 437.058 C 88.889 436.537 88.668 436.04 88.396 435.569 C 88.286 435.983 88.132 436.386 87.948 436.778 C 87.538 437.668 87.058 438.528 86.528 439.358 C 86.278 439.758 86.038 440.168 85.808 440.578 L 84.616 442.69 C 84.237 443.589 83.348 444.221 82.312 444.221 C 80.932 444.221 79.812 443.1 79.812 441.721 C 79.812 441.202 79.97 440.721 80.24 440.321 L 80.218 440.308 L 81.448 438.128 C 81.718 437.638 82.008 437.158 82.298 436.678 C 82.718 436.038 83.088 435.368 83.418 434.668 C 83.648 434.168 83.778 433.628 83.798 433.068 L 83.888 430.578 L 86.194 430.661 L 89.228 428.248 L 90.788 430.208 C 91.458 431.048 92.068 431.948 92.618 432.878 C 93.088 433.678 93.478 434.518 93.788 435.388 C 94.068 436.178 94.288 436.988 94.448 437.808 C 94.598 438.618 94.728 439.428 94.848 440.238 L 94.958 440.948 L 95.275 443.066 C 95.288 443.131 95.297 443.196 95.305 443.263 L 95.328 443.418 L 95.317 443.42 C 95.319 443.459 95.32 443.498 95.32 443.537 C 95.32 444.917 94.199 446.037 92.82 446.037 C 91.657 446.037 90.679 445.242 90.4 444.167 L 90.388 444.168 L 90.36 443.99 C 90.352 443.943 90.345 443.896 90.339 443.849 Z " fill-rule="evenodd" fill="rgb(32,38,23)"/></g><path d=" M 282.832 169.138 C 219.613 151.278 146.649 131.22 82.077 154.146 C -5.866 185.371 -22.663 299.573 40.416 362.899 C 139.752 462.622 291.932 475.457 424.513 476.824 C 500.876 477.611 596.069 491.249 645.061 418.829 C 695.12 344.831 699.852 186.343 627.156 124.215 C 540.361 50.037 339.281 55.834 282.832 169.138 L 282.832 169.138 L 282.832 169.138 Z  M 282.832 169.138 C 296.034 172.011 309.314 174.72 322.08 179.23 L 322.08 179.23 L 322.08 179.23" fill-rule="evenodd" fill="rgb(163,166,83)" vector-effect="non-scaling-stroke" stroke-width="5" stroke="rgb(32,38,23)" stroke-linejoin="miter" stroke-linecap="square" stroke-miterlimit="3"/><g><path d=" M 284.956 171.432 C 284.835 171.406 284.714 171.38 284.593 171.353 L 284.593 171.353 L 284.593 171.353 L 284.951 171.447 L 284.956 171.432 Z  M 285.798 187.672 C 285.766 187.733 285.735 187.795 285.704 187.856 L 285.704 187.856 L 285.704 187.856 L 285.704 187.856 C 228.079 171.622 161.57 153.39 102.71 174.23 C 22.547 202.613 7.236 306.418 64.735 363.979 C 155.282 454.625 294 466.291 414.852 467.533 C 484.459 468.249 571.231 480.646 615.888 414.818 C 661.519 347.556 665.833 203.495 599.568 147.023 C 526.835 85.038 366.06 84.49 300.622 164.832 L 300.622 164.832 L 325.422 172.11 C 328.896 173.13 330.885 176.777 329.86 180.25 L 326.155 192.805 C 325.13 196.278 321.477 198.27 318.002 197.25 L 286.873 188.115 C 286.492 188.003 286.129 187.86 285.798 187.672 Z  M 283.191 171.172 C 220.295 153.454 147.704 133.554 83.461 156.3 C -4.033 187.278 -20.86 299.432 44.46 363.064 C 143.288 462 292.501 473.06 424.405 474.416 C 500.379 475.197 593.164 490.388 641.905 418.541 C 691.709 345.127 698.084 188.241 625.759 126.604 C 539.406 53.013 339.353 58.764 283.191 171.172 L 283.191 171.172 L 283.191 171.172 L 283.191 171.172 L 283.191 171.172 L 283.191 171.172 Z " fill-rule="evenodd" fill="rgb(134,136,81)"/><g><path d=" M 322.918 178.852 L 320.665 177.916 C 320.485 177.846 320.305 177.776 320.125 177.716 C 319.555 177.516 318.985 177.316 318.425 177.126 C 316.165 176.376 313.905 175.646 311.635 174.926 C 302.555 172.036 293.475 169.166 284.385 166.316 L 282.005 165.566 L 280.505 170.336 L 282.895 171.086 C 291.975 173.936 301.055 176.806 310.125 179.686 C 312.365 180.396 314.605 181.126 316.835 181.876 C 317.385 182.056 317.935 182.246 318.475 182.436 C 318.565 182.466 318.665 182.496 318.755 182.536 L 321.065 183.496 L 321.07 183.483 C 321.403 183.646 321.776 183.738 322.171 183.738 C 323.551 183.738 324.671 182.618 324.671 181.238 C 324.671 180.119 323.933 179.17 322.918 178.852 Z " fill-rule="evenodd" fill="rgb(32,38,23)"/></g></g><g><path d=" M 95.609 185.358 L 95.608 185.358 L 95.468 182.858 C 95.448 182.448 95.438 182.028 95.438 181.618 C 95.428 180.248 95.568 178.888 95.858 177.558 C 96.128 176.338 96.558 175.168 97.138 174.068 C 98.238 172.048 99.838 170.338 101.798 169.128 C 102.738 168.528 103.738 168.018 104.778 167.608 C 105.838 167.188 106.918 166.838 108.018 166.558 C 110.348 165.988 112.708 165.588 115.088 165.358 C 117.278 165.338 119.468 165.268 121.658 165.148 C 123.408 165.048 125.168 164.988 126.918 164.968 C 129.588 164.948 132.258 165.228 134.868 165.788 L 137.308 166.308 L 137.301 166.34 C 138.445 166.569 139.308 167.58 139.308 168.791 C 139.308 170.171 138.188 171.291 136.808 171.291 C 136.484 171.291 136.174 171.229 135.89 171.117 L 133.818 170.668 C 131.568 170.188 129.268 169.958 126.958 169.968 C 125.288 169.988 123.608 170.048 121.938 170.138 C 119.748 170.268 117.548 170.338 115.348 170.348 C 113.288 170.558 111.248 170.918 109.238 171.408 C 108.348 171.638 107.478 171.918 106.618 172.258 C 105.868 172.558 105.138 172.928 104.448 173.358 C 103.228 174.118 102.228 175.168 101.548 176.428 C 101.178 177.118 100.908 177.858 100.748 178.628 C 100.528 179.598 100.428 180.598 100.438 181.598 C 100.438 181.928 100.448 182.258 100.468 182.598 L 100.595 185.039 C 100.604 185.122 100.608 185.206 100.608 185.291 C 100.608 186.671 99.488 187.791 98.108 187.791 C 96.751 187.791 95.645 186.707 95.609 185.358 Z " fill="rgb(32,38,23)"/><path d=" M 100.063 316.536 L 102.079 315.5 C 134.087 299.497 182.479 255.462 192.559 219.06 L 192.559 219.06 L 193.229 216.65 L 193.236 216.652 C 193.513 215.573 194.493 214.775 195.657 214.775 C 197.037 214.775 198.157 215.896 198.157 217.275 C 198.157 217.559 198.11 217.832 198.023 218.086 L 197.379 220.4 C 186.692 258.315 137.638 302.859 104.359 319.96 L 104.359 319.96 L 102.387 320.96 C 102.314 321.002 102.239 321.04 102.162 321.074 L 102.129 321.09 L 102.128 321.089 C 101.827 321.217 101.496 321.288 101.148 321.288 C 99.768 321.288 98.648 320.168 98.648 318.788 C 98.648 317.879 99.135 317.082 99.862 316.645 L 99.859 316.64 L 99.954 316.592 C 99.99 316.572 100.026 316.554 100.063 316.536 Z " fill="rgb(32,38,23)"/><path d=" M 48.771 239.995 L 48.768 240.018 L 46.288 239.708 C 45.928 239.668 45.558 239.608 45.198 239.538 C 44.518 239.408 43.828 239.338 43.138 239.318 C 42.538 239.318 41.938 239.418 41.368 239.608 C 39.978 240.058 38.698 240.788 37.608 241.768 C 36.628 242.678 35.838 243.778 35.268 244.998 C 34.638 246.358 34.198 247.798 33.958 249.278 C 33.688 250.938 33.558 252.608 33.568 254.278 C 33.588 256.708 33.768 259.138 34.118 261.548 C 34.428 263.708 34.778 265.858 35.188 267.998 C 35.268 268.428 35.348 268.858 35.428 269.278 L 35.834 271.497 C 35.882 271.691 35.908 271.894 35.908 272.103 C 35.908 273.483 34.788 274.603 33.408 274.603 C 32.211 274.603 31.21 273.761 30.965 272.637 L 30.958 272.638 L 30.508 270.178 C 30.428 269.758 30.358 269.348 30.278 268.928 C 29.858 266.708 29.488 264.488 29.168 262.258 C 28.788 259.628 28.588 256.968 28.568 254.318 C 28.558 252.358 28.708 250.408 29.028 248.478 C 29.338 246.548 29.918 244.668 30.728 242.898 C 31.578 241.078 32.758 239.438 34.228 238.078 C 35.848 236.618 37.748 235.518 39.818 234.848 C 40.908 234.488 42.048 234.318 43.198 234.318 C 44.178 234.338 45.158 234.448 46.128 234.628 C 46.378 234.678 46.638 234.718 46.898 234.748 L 49.13 235.018 C 50.504 235.025 51.618 236.143 51.618 237.518 C 51.618 238.898 50.497 240.018 49.118 240.018 C 49 240.018 48.884 240.01 48.771 239.995 Z " fill="rgb(32,38,23)"/><g><path d=" M 76.687 246.494 L 53.484 275.603 L 58.265 281.088 L 65.999 281.51 L 78.515 274.76 L 85.827 259.15 L 85.405 251.135 L 79.78 244.807 L 76.687 246.494 Z " fill="rgb(255,255,255)" vector-effect="non-scaling-stroke" stroke-width="1" stroke="rgb(0,0,0)" stroke-linejoin="miter" stroke-linecap="square" stroke-miterlimit="3"/><g><path d=" M 55.792 279.881 C 63.78 283.978 74.348 277.826 80.917 271.256 C 87.822 264.352 88.042 254.881 85.417 249.131 C 83.605 245.194 83.046 244.2 81.968 244.728 M 43.968 287.728 C 51.03 279.541 55.589 273.122 61.968 264.728 C 66.718 258.478 73.827 248.103 79.968 245.728" fill-rule="evenodd" fill="none" vector-effect="non-scaling-stroke" stroke-width="5" stroke="rgb(32,38,23)" stroke-linejoin="miter" stroke-linecap="square" stroke-miterlimit="3"/><circle vector-effect="non-scaling-stroke" cx="42.36185720240986" cy="289.59955045741606" r="2.499999999999986" fill="rgb(32,38,23)"/></g><path d=" M 67.315 259.704 C 67.315 257.309 68.267 255.008 69.962 253.314 C 71.656 251.619 73.957 250.667 76.353 250.667 C 78.748 250.667 81.049 251.619 82.744 253.314 C 84.438 255.008 85.39 257.309 85.39 259.704 C 85.39 262.1 84.438 264.401 82.744 266.095 C 81.049 267.79 78.748 268.742 76.353 268.742 C 73.957 268.742 71.656 267.79 69.962 266.095 C 68.267 264.401 67.315 262.1 67.315 259.704 Z  M 72.545 259.704 C 72.545 258.69 72.943 257.728 73.654 257.016 C 74.376 256.295 75.338 255.897 76.353 255.897 C 77.357 255.897 78.33 256.295 79.041 257.016 C 79.752 257.728 80.16 258.69 80.16 259.704 C 80.16 260.709 79.752 261.681 79.041 262.393 C 78.33 263.114 77.357 263.512 76.353 263.512 C 75.338 263.512 74.376 263.114 73.654 262.393 C 72.943 261.681 72.545 260.709 72.545 259.704 Z " fill-rule="evenodd" fill="rgb(32,38,23)"/></g><g><path d=" M 142.687 177.994 L 119.484 207.103 L 124.265 212.588 L 131.999 213.01 L 144.515 206.26 L 151.827 190.65 L 151.405 182.635 L 145.78 176.307 L 142.687 177.994 Z " fill="rgb(255,255,255)" vector-effect="non-scaling-stroke" stroke-width="1" stroke="rgb(0,0,0)" stroke-linejoin="miter" stroke-linecap="square" stroke-miterlimit="3"/><g><path d=" M 100.136 217.472 C 113.331 223.828 137.574 183.037 142.968 177.314 M 120.968 210.728 C 128.037 217.179 137.484 212.736 142.968 207.478 C 148.663 201.662 151.562 194.447 151.718 187.228 C 151.968 182.916 144.843 173.541 142.968 176.728" fill-rule="evenodd" fill="none" vector-effect="non-scaling-stroke" stroke-width="5" stroke="rgb(32,38,23)" stroke-linejoin="miter" stroke-linecap="square" stroke-miterlimit="3"/><circle vector-effect="non-scaling-stroke" cx="97.91003428574308" cy="216.3990296240828" r="2.499999999999986" fill="rgb(32,38,23)"/></g><path d=" M 135.164 190.25 C 135.164 187.96 136.074 185.76 137.694 184.14 C 139.314 182.52 141.514 181.61 143.804 181.61 C 146.094 181.61 148.294 182.52 149.914 184.14 C 151.534 185.76 152.444 187.96 152.444 190.25 C 152.444 192.54 151.534 194.74 149.914 196.36 C 148.294 197.98 146.094 198.89 143.804 198.89 C 141.514 198.89 139.314 197.98 137.694 196.36 C 136.074 194.74 135.164 192.54 135.164 190.25 Z  M 140.164 190.25 C 140.164 189.28 140.544 188.36 141.224 187.68 C 141.914 186.99 142.834 186.61 143.804 186.61 C 144.764 186.61 145.694 186.99 146.374 187.68 C 147.054 188.36 147.444 189.28 147.444 190.25 C 147.444 191.21 147.054 192.14 146.374 192.82 C 145.694 193.51 144.764 193.89 143.804 193.89 C 142.834 193.89 141.914 193.51 141.224 192.82 C 140.544 192.14 140.164 191.21 140.164 190.25 Z " fill-rule="evenodd" fill="rgb(32,38,23)"/></g></g><g><path d=" M 575.409 385.525 C 505.732 421.369 385.761 407.729 356.258 349.098 C 304.889 247.011 397.736 199.451 472.438 177.925 C 549 155.862 576.104 177.487 615.557 231.404 C 654.456 284.566 645.087 349.681 575.409 385.525 Z " fill="rgb(147,91,58)" vector-effect="non-scaling-stroke" stroke-width="5" stroke="rgb(32,38,23)" stroke-linejoin="miter" stroke-linecap="square" stroke-miterlimit="3"/><path d=" M 492.491 397.897 C 422.023 405.901 364.093 353.631 363.315 346.776 C 362.536 339.921 418.432 370.572 488.9 362.569 C 559.368 354.566 604.689 339.921 605.468 346.776 C 606.246 353.631 562.959 389.894 492.491 397.897 Z " fill="rgb(102,64,42)"/><path d=" M 534.83 176.761 C 613.665 188.918 627.008 305.07 622.468 315.728 C 619.391 322.954 595.955 232.08 537.046 221.319 C 446.342 204.75 378.206 252.644 374.218 245.443 C 366.968 232.353 470.005 166.764 534.83 176.761 Z " fill="rgb(185,134,104)"/><path d=" M 522.241 210.367 C 503.491 206.668 440.007 220.14 439.673 222.392 C 439.339 224.644 500.741 214.793 518.241 218.293 C 550.555 224.756 582.822 252.909 583.241 251.293 C 584.336 247.067 546.477 215.149 522.241 210.367 Z " fill="rgb(255,255,255)"/></g><g><g><path d=" M 257.968 93.228 C 267.846 49.345 263.273 5.509 272.426 7.57 C 281.58 9.63 295.346 55.845 285.468 99.728 C 275.59 143.612 291.96 155.521 246.28 150.228 C 235.803 139.49 248.09 137.112 257.968 93.228 Z " fill="rgb(103,140,46)" vector-effect="non-scaling-stroke" stroke-width="5" stroke="rgb(32,38,23)" stroke-linejoin="miter" stroke-linecap="square" stroke-miterlimit="3"/><path d=" M 246.144 137.783 C 244.883 140.781 244.692 143.276 245.065 144.91 C 245.462 146.65 246.348 148.089 250.155 148.541 C 286.94 152.91 274.605 143.173 282.389 104.449 C 289.907 67.051 283.252 17.313 273.655 11.103 C 271.873 9.95 270.595 13.38 269.493 19.714 C 276.019 32.512 281.707 62.901 275.139 92.081 C 267.114 127.731 279.791 146.153 246.144 137.783 Z " fill-rule="evenodd" fill="rgb(84,113,41)"/></g></g><g><g><path d=" M 257.968 98.534 C 267.846 58.654 260.314 46.95 269.578 48.375 C 278.719 49.781 282.774 44.753 285.75 50.625 C 290.298 59.598 291.438 80.336 285.468 104.441 C 275.59 144.322 291.96 155.146 246.28 150.335 C 235.803 140.576 248.09 138.415 257.968 98.534 Z " fill="rgb(89,68,59)" vector-effect="non-scaling-stroke" stroke-width="5" stroke="rgb(74,45,33)" stroke-linejoin="miter" stroke-linecap="square" stroke-miterlimit="3"/><path d=" M 246.144 139.025 C 244.883 141.75 244.692 144.017 245.065 145.502 C 245.462 147.083 246.348 148.391 250.155 148.802 C 286.94 152.773 274.605 143.924 282.389 108.732 C 288.966 82.335 288.875 59.061 282.375 50.766 C 280.794 48.748 279 51.188 275.766 51.188 C 272.531 51.188 270.115 51.114 268.172 51.047 C 266.389 49.999 267.305 54.291 266.203 60.047 C 272.73 71.678 281.707 70.973 275.139 97.492 C 267.114 129.89 279.791 146.632 246.144 139.025 Z " fill="rgb(55,31,21)"/></g></g><path d=" M 294.675 168.052 C 308.262 197.543 326.278 232.283 309.425 313.177 C 292.572 394.071 184.037 435.407 181.758 443.177 C 179.479 450.947 292.731 480.778 362.123 483.63 C 448.425 487.177 523.632 486.649 555.33 477.592 C 587.028 468.536 627.425 381.427 630.675 283.177 C 633.925 184.927 645.175 115.177 598.675 64.177 C 529.112 24.365 302.475 52.112 288.758 121.511 C 294.413 159.89 288.584 132.266 294.675 168.052 Z " fill="rgb(252,240,248)" vector-effect="non-scaling-stroke" stroke-width="5" stroke="rgb(155,119,142)" stroke-linejoin="miter" stroke-linecap="square" stroke-miterlimit="3"/><path d=" M 353.815 240.035 Q 357.315 280.035 327.815 384.535" fill="rgb(252,240,248)" vector-effect="non-scaling-stroke" stroke-width="5" stroke="rgb(155,119,142)" stroke-linejoin="miter" stroke-linecap="square" stroke-miterlimit="3"/><path d=" M 315.315 277.535 Q 339.815 278.035 349.315 285.035" fill="rgb(252,240,248)" vector-effect="non-scaling-stroke" stroke-width="5" stroke="rgb(155,119,142)" stroke-linejoin="miter" stroke-linecap="square" stroke-miterlimit="3"/><path d=" M 312.815 294.535 Q 337.315 295.035 346.815 302.035" fill="rgb(252,240,248)" vector-effect="non-scaling-stroke" stroke-width="5" stroke="rgb(155,119,142)" stroke-linejoin="miter" stroke-linecap="square" stroke-miterlimit="3"/><path d=" M 310.127 315.223 Q 334.627 315.723 342.44 321.598" fill="rgb(252,240,248)" vector-effect="non-scaling-stroke" stroke-width="5" stroke="rgb(155,119,142)" stroke-linejoin="miter" stroke-linecap="square" stroke-miterlimit="3"/><circle vector-effect="non-scaling-stroke" cx="339.34621062992113" cy="255.12918307086625" r="4.593749999999943" fill="rgb(235,235,235)"/><circle vector-effect="non-scaling-stroke" cx="335.78371062992113" cy="396.191683070866" r="3.031250000000057" fill="rgb(116,116,116)"/><circle vector-effect="non-scaling-stroke" cx="390.1587106299211" cy="375.1916830708658" r="3.031250000000057" fill="rgb(116,116,116)"/><circle vector-effect="non-scaling-stroke" cx="477.49204396325445" cy="364.85834973753254" r="3.031250000000057" fill="rgb(116,116,116)"/><circle vector-effect="non-scaling-stroke" cx="549.3253772965878" cy="370.7750164041993" r="3.03125" fill="rgb(116,116,116)"/><circle vector-effect="non-scaling-stroke" cx="614.6587106299212" cy="374.4416830708659" r="3.03125" fill="rgb(116,116,116)"/><path d=" M 176.711 445.404 L 176.818 445.472 C 176.844 445.487 176.866 445.508 176.884 445.531 C 176.9 445.555 176.91 445.581 176.91 445.61 C 176.91 445.641 176.898 445.672 176.876 445.695 C 176.854 445.72 176.827 445.738 176.795 445.75 L 176.68 445.8 C 176.616 445.827 176.576 445.889 176.576 445.958 C 176.576 445.98 176.58 446.001 176.588 446.02 L 176.635 446.138 C 176.646 446.164 176.651 446.193 176.652 446.22 C 176.653 446.258 176.638 446.295 176.612 446.321 C 176.583 446.346 176.546 446.359 176.508 446.357 C 176.49 446.357 176.472 446.354 176.453 446.35 L 176.33 446.322 C 176.33 446.322 176.33 446.322 176.33 446.322 C 176.318 446.319 176.305 446.317 176.292 446.317 C 176.254 446.317 176.217 446.33 176.187 446.353 C 176.157 446.377 176.135 446.409 176.126 446.446 L 176.094 446.568 C 176.087 446.604 176.069 446.637 176.046 446.664 C 176.022 446.689 175.988 446.703 175.954 446.704 C 175.929 446.703 175.904 446.697 175.883 446.684 C 175.86 446.671 175.84 446.654 175.823 446.633 L 175.739 446.538 C 175.707 446.502 175.66 446.48 175.61 446.48 C 175.571 446.48 175.532 446.494 175.501 446.519 L 175.405 446.599 C 175.372 446.63 175.33 446.647 175.285 446.65 C 175.246 446.65 175.21 446.632 175.186 446.602 C 175.162 446.571 175.148 446.532 175.146 446.491 L 175.135 446.367 C 175.132 446.324 175.111 446.285 175.08 446.255 C 175.049 446.227 175.008 446.211 174.966 446.211 L 174.953 446.211 L 174.826 446.219 L 174.811 446.219 C 174.77 446.222 174.731 446.21 174.697 446.186 C 174.666 446.162 174.649 446.124 174.649 446.085 C 174.65 446.048 174.662 446.012 174.683 445.981 L 174.747 445.873 C 174.763 445.846 174.771 445.816 174.771 445.785 C 174.771 445.727 174.742 445.672 174.692 445.64 L 174.585 445.572 C 174.559 445.557 174.537 445.537 174.519 445.513 C 174.503 445.49 174.494 445.463 174.494 445.435 C 174.494 445.403 174.506 445.373 174.527 445.35 C 174.549 445.325 174.577 445.306 174.608 445.295 L 174.723 445.245 C 174.787 445.217 174.827 445.155 174.827 445.086 C 174.827 445.065 174.823 445.044 174.815 445.024 L 174.768 444.906 C 174.757 444.88 174.752 444.852 174.751 444.824 C 174.75 444.786 174.765 444.75 174.791 444.724 C 174.82 444.699 174.857 444.686 174.895 444.688 C 174.913 444.688 174.932 444.691 174.95 444.694 L 175.074 444.723 C 175.074 444.723 175.074 444.723 175.074 444.723 C 175.086 444.726 175.099 444.727 175.111 444.727 C 175.149 444.727 175.186 444.714 175.217 444.691 C 175.246 444.667 175.268 444.635 175.277 444.598 L 175.309 444.477 C 175.316 444.441 175.334 444.407 175.358 444.381 C 175.382 444.356 175.415 444.341 175.449 444.34 C 175.474 444.341 175.499 444.347 175.52 444.36 C 175.543 444.373 175.563 444.391 175.58 444.411 L 175.664 444.506 C 175.696 444.543 175.743 444.564 175.793 444.564 C 175.832 444.564 175.871 444.55 175.902 444.525 L 175.998 444.445 C 176.031 444.415 176.073 444.397 176.118 444.395 C 176.157 444.395 176.193 444.412 176.217 444.442 C 176.241 444.474 176.255 444.513 176.257 444.553 L 176.268 444.678 C 176.271 444.72 176.292 444.76 176.323 444.789 C 176.354 444.818 176.395 444.833 176.437 444.833 L 176.45 444.833 L 176.577 444.825 L 176.592 444.825 C 176.633 444.822 176.673 444.834 176.706 444.858 C 176.737 444.882 176.755 444.92 176.754 444.96 C 176.753 444.997 176.741 445.033 176.72 445.064 L 176.656 445.172 C 176.64 445.199 176.632 445.228 176.632 445.259 C 176.632 445.318 176.661 445.373 176.711 445.404 Z  M 174.963 446.119 L 174.949 446.119 L 174.822 446.127 L 174.807 446.127 C 174.807 446.127 174.806 446.127 174.806 446.128 C 174.788 446.129 174.768 446.123 174.753 446.113 C 174.745 446.107 174.742 446.098 174.742 446.088 C 174.743 446.067 174.749 446.047 174.76 446.03 C 174.76 446.029 174.761 446.029 174.761 446.028 L 174.826 445.92 C 174.826 445.92 174.826 445.92 174.826 445.92 C 174.85 445.879 174.863 445.833 174.863 445.786 C 174.863 445.696 174.817 445.611 174.742 445.562 C 174.742 445.562 174.741 445.562 174.741 445.562 L 174.634 445.495 C 174.634 445.494 174.633 445.494 174.633 445.494 C 174.618 445.484 174.604 445.472 174.594 445.459 C 174.59 445.451 174.586 445.443 174.586 445.435 C 174.586 445.426 174.59 445.418 174.595 445.412 C 174.608 445.398 174.624 445.387 174.642 445.379 C 174.642 445.379 174.643 445.379 174.643 445.379 L 174.76 445.33 C 174.76 445.33 174.76 445.33 174.76 445.33 C 174.857 445.287 174.92 445.191 174.92 445.086 C 174.92 445.053 174.913 445.021 174.901 444.99 C 174.901 444.99 174.901 444.99 174.901 444.99 L 174.854 444.872 C 174.854 444.871 174.854 444.871 174.854 444.871 C 174.847 444.856 174.843 444.838 174.843 444.821 C 174.843 444.81 174.847 444.799 174.854 444.792 C 174.865 444.784 174.878 444.779 174.892 444.78 C 174.905 444.78 174.917 444.782 174.929 444.785 C 174.929 444.785 174.929 444.785 174.93 444.785 L 175.053 444.812 C 175.072 444.817 175.091 444.819 175.111 444.82 C 175.17 444.82 175.227 444.8 175.273 444.764 C 175.319 444.728 175.352 444.678 175.367 444.621 C 175.367 444.621 175.367 444.621 175.367 444.621 L 175.398 444.498 C 175.398 444.498 175.398 444.497 175.399 444.496 C 175.403 444.477 175.412 444.458 175.426 444.443 C 175.431 444.437 175.44 444.433 175.449 444.432 C 175.457 444.433 175.465 444.435 175.473 444.44 C 175.487 444.448 175.5 444.458 175.51 444.471 C 175.51 444.471 175.511 444.471 175.511 444.471 L 175.594 444.567 C 175.594 444.567 175.595 444.567 175.595 444.567 C 175.644 444.624 175.717 444.656 175.793 444.656 C 175.854 444.656 175.913 444.635 175.961 444.596 C 175.961 444.596 175.961 444.596 175.961 444.596 L 176.058 444.515 C 176.059 444.515 176.059 444.514 176.06 444.513 C 176.077 444.498 176.098 444.489 176.12 444.487 C 176.129 444.487 176.139 444.491 176.144 444.499 C 176.157 444.515 176.164 444.537 176.164 444.558 C 176.164 444.559 176.164 444.559 176.164 444.56 L 176.176 444.686 C 176.176 444.686 176.176 444.686 176.176 444.686 C 176.182 444.751 176.212 444.813 176.26 444.857 C 176.309 444.902 176.373 444.926 176.438 444.926 C 176.439 444.926 176.439 444.926 176.44 444.926 L 176.454 444.926 L 176.581 444.917 L 176.596 444.917 C 176.596 444.917 176.597 444.917 176.597 444.916 C 176.615 444.916 176.635 444.921 176.65 444.931 C 176.658 444.938 176.661 444.947 176.661 444.957 C 176.661 444.977 176.654 444.998 176.643 445.014 C 176.643 445.015 176.642 445.015 176.642 445.016 L 176.577 445.125 C 176.577 445.125 176.577 445.125 176.577 445.125 C 176.553 445.165 176.54 445.212 176.54 445.259 C 176.54 445.349 176.586 445.434 176.661 445.483 C 176.661 445.483 176.662 445.483 176.662 445.483 L 176.769 445.55 C 176.769 445.551 176.77 445.551 176.77 445.551 C 176.785 445.56 176.799 445.572 176.809 445.586 C 176.814 445.593 176.817 445.602 176.817 445.61 C 176.817 445.618 176.814 445.626 176.808 445.633 C 176.795 445.647 176.779 445.658 176.761 445.665 C 176.761 445.665 176.76 445.665 176.76 445.665 L 176.643 445.715 C 176.643 445.715 176.643 445.715 176.643 445.715 C 176.546 445.757 176.484 445.853 176.484 445.958 C 176.484 445.992 176.49 446.024 176.502 446.054 C 176.502 446.054 176.502 446.054 176.502 446.054 L 176.549 446.172 C 176.549 446.173 176.549 446.173 176.549 446.173 C 176.556 446.189 176.56 446.206 176.56 446.223 C 176.56 446.234 176.556 446.245 176.549 446.253 C 176.538 446.261 176.525 446.265 176.511 446.265 C 176.498 446.265 176.486 446.263 176.474 446.26 C 176.474 446.26 176.474 446.26 176.473 446.26 L 176.35 446.232 C 176.331 446.228 176.312 446.226 176.292 446.225 C 176.234 446.225 176.176 446.244 176.13 446.28 C 176.084 446.316 176.051 446.367 176.036 446.423 C 176.036 446.423 176.036 446.423 176.036 446.423 L 176.005 446.547 C 176.005 446.547 176.005 446.548 176.004 446.549 C 176 446.568 175.991 446.586 175.977 446.601 C 175.972 446.608 175.963 446.611 175.954 446.612 C 175.946 446.611 175.938 446.609 175.93 446.605 C 175.916 446.597 175.903 446.586 175.893 446.573 C 175.893 446.573 175.892 446.573 175.892 446.573 L 175.809 446.478 C 175.809 446.478 175.809 446.478 175.809 446.478 C 175.759 446.42 175.686 446.388 175.61 446.388 C 175.549 446.388 175.49 446.409 175.442 446.448 C 175.442 446.448 175.442 446.448 175.442 446.448 L 175.345 446.529 C 175.344 446.529 175.344 446.53 175.343 446.531 C 175.326 446.547 175.305 446.556 175.283 446.558 C 175.274 446.558 175.264 446.553 175.259 446.546 C 175.246 446.529 175.24 446.508 175.239 446.487 C 175.239 446.486 175.239 446.486 175.239 446.485 L 175.227 446.359 C 175.227 446.359 175.227 446.359 175.227 446.359 C 175.221 446.293 175.191 446.231 175.143 446.187 C 175.094 446.143 175.03 446.119 174.965 446.119 C 174.964 446.119 174.964 446.119 174.963 446.119 Z " fill-rule="evenodd" fill="rgb(136,177,191)"/><g><path d=" M 556.33 476.592 C 524.632 485.649 449.425 486.177 363.123 482.63 C 293.731 479.778 180.479 449.947 182.758 442.177 C 185.037 434.407 308.882 333.732 309.315 331.535 L 629.315 325.535 Q 585.49 468.261 556.33 476.592 Z " fill="rgb(79,56,47)" vector-effect="non-scaling-stroke" stroke-width="5" stroke="rgb(74,45,33)" stroke-linejoin="miter" stroke-linecap="square" stroke-miterlimit="3"/><path d=" M 606.557 381.762 C 607.945 382.586 606.249 387.085 606.315 387.869 C 607.083 396.943 492.315 383.202 433.648 393.202 Q 364.446 404.998 336.315 416.785 Q 286.106 403.468 270.534 393.129 C 264.75 389.29 267.353 381.358 265.648 376.535 C 262.514 367.667 379.962 377.19 445.441 371.651 C 505.262 366.59 591.877 373.051 606.557 381.762 Z " fill="rgb(55,31,21)"/><path d=" M 602.409 397.864 C 584.409 437.114 575.162 468.607 551.412 475.221 C 520.016 481.342 448.222 482.593 363.912 479.636 C 296.122 477.259 182.497 447.109 184.42 441.513 C 202.069 430.931 222.787 421.857 264.752 387.092 Q 324.973 426.494 423.943 434.675 Q 522.912 442.857 602.409 397.864 Z " fill="rgb(55,31,21)"/><path d=" M 598.675 64.177 C 529.112 24.365 302.475 52.112 288.758 121.511 C 286.883 161.011 328.833 185.696 314.315 261.869 C 374.569 282.06 590.1 281.121 638.315 261.202 Q 645.175 115.177 598.675 64.177 Z " fill="rgb(89,68,59)" vector-effect="non-scaling-stroke" stroke-width="5" stroke="rgb(74,45,33)" stroke-linejoin="miter" stroke-linecap="square" stroke-miterlimit="3"/><path d=" M 168.118 446.061 C 201.496 422.585 232.76 397.466 261.879 370.674 C 264.277 393.8 272.563 409.624 286.706 418.119 Q 237.781 457.133 201.907 453.317 Q 166.033 449.5 168.118 446.061 Z " fill="rgb(194,213,220)" vector-effect="non-scaling-stroke" stroke-width="5" stroke="rgb(74,45,33)" stroke-linejoin="miter" stroke-linecap="square" stroke-miterlimit="3"/><path d=" M 534.627 479.707 C 561.627 454.207 572.315 439.869 582.315 415.202 Q 592.315 390.535 608.982 327.202" fill="none" vector-effect="non-scaling-stroke" stroke-width="5" stroke="rgb(74,45,33)" stroke-linejoin="miter" stroke-linecap="square" stroke-miterlimit="3"/><path d=" M 289.659 122.66 C 290.063 146.872 288.709 153.407 294.024 172.743 C 299.339 192.08 307.105 208.976 317.314 223.43 C 332.797 206.086 348.779 198.109 365.218 199.503 Q 353.982 155.702 327.982 135.702 Q 301.982 115.702 289.659 122.66 Z " fill="rgb(194,213,220)" vector-effect="non-scaling-stroke" stroke-width="5" stroke="rgb(74,45,33)" stroke-linejoin="miter" stroke-linecap="square" stroke-miterlimit="3"/><path d=" M 258.8 374.111 Q 284.082 373.509 298.315 382.535 Q 312.548 391.562 323.951 408.96 Q 369.288 389.604 395.163 383.202 C 421.039 376.8 453.853 372.858 486.073 372.596 C 518.293 372.334 544.922 379.877 576.982 381.687 Q 609.042 383.497 630.391 380.452 C 619.545 362.899 619.863 344.937 631.315 326.535 Q 574.94 325.91 548.315 327.035 C 521.69 328.16 476.841 326.629 439.565 328.16 C 402.289 329.692 394.432 328.88 369.406 328.657 C 344.379 328.433 335.732 324.912 317.891 328.657 C 300.049 332.401 294.915 333.601 284.557 340.778 Q 274.2 347.955 258.8 374.111 Z " fill="rgb(194,213,220)" vector-effect="non-scaling-stroke" stroke-width="5" stroke="rgb(74,45,33)" stroke-linejoin="miter" stroke-linecap="square" stroke-miterlimit="3"/><path d=" M 262.19 371.66 Q 276.27 356.889 289.94 355.535 C 296.832 354.853 343.565 384.285 344.815 397.535 L 324.991 405.914 C 311.608 385.23 290.827 373.246 262.19 371.66 Z " fill="rgb(123,145,153)"/><path d=" M 315.648 395.869 C 366.648 373.869 369.313 372.606 388.315 366.785 C 407.317 360.965 419.602 361.304 449.648 358.535 Q 479.694 355.766 622.815 367.535" fill="none" vector-effect="non-scaling-stroke" stroke-width="5" stroke="rgb(74,45,33)" stroke-linejoin="miter" stroke-linecap="square" stroke-miterlimit="3"/><path d=" M 296.315 110.66 C 296.315 97.621 371.69 54.785 451.565 50.285 C 530.315 45.785 598.19 56.746 598.19 69.785 C 598.19 82.824 532.315 73.202 454.315 79.869 C 387.816 85.552 296.315 123.699 296.315 110.66 Z " fill="rgb(130,98,85)"/><path d=" M 320.982 233.996 C 371.982 255.996 426.269 249.227 456.315 251.996 Q 486.361 254.765 638.315 239.535" fill="none" vector-effect="non-scaling-stroke" stroke-width="5" stroke="rgb(74,45,33)" stroke-linejoin="miter" stroke-linecap="square" stroke-miterlimit="3"/><path d=" M 568.19 53.66 Q 595.19 79.16 603.44 95.66 Q 618.815 120.035 621.815 171.035 Q 624.815 222.035 624.877 240.285" fill="none" vector-effect="non-scaling-stroke" stroke-width="5" stroke="rgb(74,45,33)" stroke-linejoin="miter" stroke-linecap="square" stroke-miterlimit="3"/><path d=" M 507.575 108.958 L 557.612 93.468 C 562.653 91.907 568.242 94.655 570.085 99.6 L 570.085 99.6 C 571.928 104.546 570.413 111.61 566.704 115.365 C 556.584 125.612 534.455 133.87 516.569 133.503 C 511.292 133.394 505.424 129.325 503.471 124.422 L 501.977 120.67 C 500.025 115.766 502.533 110.518 507.575 108.958 Z " fill="none" vector-effect="non-scaling-stroke" stroke-width="5" stroke="rgb(74,45,33)" stroke-linejoin="miter" stroke-linecap="square" stroke-miterlimit="3"/><path d=" M 469.908 454.587 L 519.945 470.077 C 524.987 471.638 530.576 468.89 532.418 463.944 L 532.418 463.944 C 534.261 458.999 532.746 451.935 529.037 448.18 C 518.917 437.933 496.789 429.674 478.902 430.042 C 473.626 430.15 467.757 434.219 465.805 439.123 L 464.311 442.875 C 462.358 447.778 464.866 453.026 469.908 454.587 Z " fill="none" vector-effect="non-scaling-stroke" stroke-width="5" stroke="rgb(74,45,33)" stroke-linejoin="miter" stroke-linecap="square" stroke-miterlimit="3"/><g><path d=" M 389.315 110.66 C 421.94 111.035 434.315 110.285 436.19 115.535 C 438.065 120.785 449.69 167.285 441.065 173.66 Q 432.44 180.035 399.065 183.785" fill="rgb(89,68,59)" vector-effect="non-scaling-stroke" stroke-width="3" stroke="rgb(74,45,33)" stroke-linejoin="miter" stroke-linecap="square" stroke-miterlimit="3"/><circle vector-effect="non-scaling-stroke" cx="387.91652312992125" cy="110.64480807086619" r="1.5" fill="rgb(74,45,33)"/><circle vector-effect="non-scaling-stroke" cx="397.4751168799214" cy="183.96121432086642" r="1.5" fill="rgb(74,45,33)"/><path d=" M 381.065 113.66 Q 393.44 145.16 388.94 183.41" fill="none" vector-effect="non-scaling-stroke" stroke-width="5" stroke="rgb(74,45,33)" stroke-linejoin="miter" stroke-linecap="square" stroke-miterlimit="3"/><circle vector-effect="non-scaling-stroke" cx="380.18751922367085" cy="111.4275229146159" r="2.5" fill="rgb(74,45,33)"/><circle vector-effect="non-scaling-stroke" cx="388.64308562992073" cy="185.94265963336568" r="2.5" fill="rgb(0,0,0)"/><path d=" M 382.019 195.582 C 383.378 185.892 383.784 178.194 388.45 178.194 C 393.115 178.194 392.887 184.896 394.065 195.22 C 395.144 204.686 392.662 207.537 387.997 207.537 C 383.332 207.537 380.71 204.922 382.019 195.582 Z  M 385.642 198.204 C 385.642 195.599 386.758 193.485 388.133 193.485 C 389.507 193.485 390.623 195.599 390.623 198.204 C 390.623 200.808 389.507 202.923 388.133 202.923 C 386.758 202.923 385.642 200.808 385.642 198.204 Z " fill-rule="evenodd" fill="rgb(185,185,185)" vector-effect="non-scaling-stroke" stroke-width="2" stroke="rgb(74,45,33)" stroke-linejoin="miter" stroke-linecap="square" stroke-miterlimit="3"/></g><circle vector-effect="non-scaling-stroke" cx="408.8462106299211" cy="263.62918307086613" r="4.593749999999943" fill="rgb(235,235,235)"/><circle vector-effect="non-scaling-stroke" cx="479.34621062992096" cy="264.129183070866" r="4.593749999999943" fill="rgb(235,235,235)"/><circle vector-effect="non-scaling-stroke" cx="548.8462106299206" cy="261.6291830708657" r="4.59375" fill="rgb(235,235,235)"/><circle vector-effect="non-scaling-stroke" cx="616.3462106299207" cy="253.62918307086568" r="4.59375" fill="rgb(235,235,235)"/><path d=" M 172.982 446.535 Q 199.815 441.535 223.565 429.535 Q 247.315 417.535 265.315 396.285 C 270.893 407.28 276.663 414.634 282.565 418.285 Q 247.315 444.035 225.815 449.285 Q 207.857 453.671 172.982 446.535 Z " fill="rgb(123,145,153)"/><path d=" M 296.694 172.664 C 292.445 156.79 290.903 140.582 292.065 124.035 Q 301.897 133.904 311.651 158.661 Q 321.406 183.418 340.252 202.035 C 330.169 206.86 323.14 214.07 317.565 219.285 C 307.898 204.077 300.942 188.538 296.694 172.664 Z " fill="rgb(123,145,153)"/></g><g><path d=" M 268.968 47.228 C 270.968 32.228 282.706 24.071 292.968 27.228 C 305.968 31.228 308.468 38.537 308.468 53.897 C 308.468 69.258 299.954 81.728 289.468 81.728 C 278.982 81.728 266.958 62.304 268.968 47.228 Z " fill="rgb(103,140,46)" vector-effect="non-scaling-stroke" stroke-width="5" stroke="rgb(32,38,23)" stroke-linejoin="miter" stroke-linecap="square" stroke-miterlimit="3"/><path d=" M 296.051 32.038 C 303.618 33.395 306.267 42.876 306.267 55.153 C 306.267 68.441 298.902 79.228 289.831 79.228 C 284.667 79.228 279.958 74.934 277.077 69.012 C 278.89 70.025 280.857 70.578 282.911 70.578 C 291.982 70.578 299.347 59.79 299.347 46.503 C 299.347 41.078 298.119 36.069 296.051 32.038 Z " fill-rule="evenodd" fill="rgb(84,113,41)"/></g></g></svg>