<?xml version="1.0" encoding="UTF-8" standalone="no"?><!-- Generator: Gravit.io --><svg xmlns="http://www.w3.org/2000/svg" xmlns:xlink="http://www.w3.org/1999/xlink" style="isolation:isolate" viewBox="0 0 800 1200" width="800pt" height="1200pt"><defs><clipPath id="_clipPath_BjQXIFCvGDig1MbgFGO4NRQrGreZGMbC"><rect width="800" height="1200"/></clipPath></defs><g clip-path="url(#_clipPath_BjQXIFCvGDig1MbgFGO4NRQrGreZGMbC)"><g><path d=" M 145.046 1032 C 143.205 1014.649 169.139 992 200.046 992 C 230.953 992 261.046 1005.237 261.046 1016 C 261.046 1026.762 230.953 1046 200.046 1046 C 169.139 1046 146.562 1046.281 145.046 1032 Z " fill="rgb(103,140,46)" vector-effect="non-scaling-stroke" stroke-width="5" stroke="rgb(32,38,23)" stroke-linejoin="miter" stroke-linecap="square" stroke-miterlimit="3"/><path d=" M 150 1033.263 C 153 1024.156 181.194 1028.46 205 1024 C 232.304 1018.885 263.122 1007.129 258 1018 C 252.47 1029.737 226.688 1040.187 215 1042 C 185.205 1046.621 146.461 1044.005 150 1033.263 Z " fill="rgb(84,113,41)"/></g><g><path d=" M 124.935 665.35 C 137.178 634.862 163.513 608.339 171.964 611.732 C 180.415 615.126 174.178 642.634 161.935 673.122 C 149.693 703.611 136.051 725.609 127.6 722.216 C 119.149 718.822 112.693 695.839 124.935 665.35 Z " fill="rgb(103,140,46)" vector-effect="non-scaling-stroke" stroke-width="5" stroke="rgb(32,38,23)" stroke-linejoin="miter" stroke-linecap="square" stroke-miterlimit="3"/><path d=" M 146 678.882 C 155.048 659.656 168.256 615.767 173 618 C 175.476 619.165 170.308 648.484 159 675 C 153.299 688.368 146.718 701.543 141 710 C 136.328 716.909 131.02 720.48 130 720 C 125.256 717.767 136.952 698.108 146 678.882 Z " fill="rgb(84,113,41)"/></g><g><path d=" M 609.798 805.116 C 611.25 813.93 612 822.921 612 832.052 C 612 944.125 499.083 1035.115 360 1035.115 C 220.917 1035.115 108 944.125 108 832.052 L 108 832.052 C 108 807.139 113.58 783.267 123.795 761.208 C 130.118 742.943 164.934 656.841 187 541.606 C 195.926 494.991 191.498 481.135 210.531 424.991 C 223.714 369.217 287.007 326.885 363 326.885 C 425.814 326.885 479.952 355.808 504.301 397.332 C 549.279 457.815 561.845 489.832 573 545.606 C 583.998 600.596 594.19 673.89 603 742.606 Q 607.871 780.602 609.798 805.116 Z  M 502 396.606 M 506 404.606" fill-rule="evenodd" fill="rgb(163,166,83)" vector-effect="non-scaling-stroke" stroke-width="5" stroke="rgb(32,38,23)" stroke-linejoin="miter" stroke-linecap="square" stroke-miterlimit="3"/></g><g><path d=" M 591.02 793.032 C 592.363 801.198 593.056 809.53 593.056 817.992 C 593.056 921.845 488.627 1006.161 360 1006.161 C 231.373 1006.161 126.944 921.845 126.944 817.992 L 126.944 817.992 L 126.944 817.992 C 126.944 794.905 132.104 772.784 141.551 752.344 L 141.551 752.344 C 147.399 735.418 179.597 655.631 200.005 548.847 C 208.253 505.687 204.172 492.833 221.723 440.916 C 233.858 389.169 292.434 349.875 362.774 349.875 C 420.867 349.875 470.935 376.676 493.454 415.154 C 535.05 471.201 546.672 500.87 556.988 552.554 C 567.159 603.511 576.585 671.429 584.733 735.105 Q 589.238 770.315 591.02 793.032 Z  M 607.816 804.375 C 609.256 813.136 610 822.073 610 831.15 C 610 942.554 497.979 1033 360 1033 C 222.021 1033 110 942.554 110 831.15 L 110 831.15 C 110 806.385 115.536 782.656 125.669 760.729 C 131.943 742.573 166.482 656.985 188.373 542.438 C 197.228 496.101 192.835 482.329 211.718 426.52 C 224.796 371.079 287.587 329 362.976 329 C 425.292 329 479 357.75 503.156 399.026 C 547.777 459.147 560.243 490.973 571.31 546.414 C 582.22 601.076 592.332 673.932 601.071 742.238 Q 605.904 780.008 607.816 804.375 L 607.816 804.375 L 607.816 804.375 L 607.816 804.375 Z  M 500.873 398.304 M 504.841 406.256 M 491.325 414.481 M 495.025 421.895" fill-rule="evenodd" fill="rgb(134,136,81)"/></g><g><g><path d=" M 610.298 805.116 C 611.75 813.93 612.5 822.921 612.5 832.052 C 612.5 940.067 507.612 1028.498 375.5 1034.756 C 380.462 1034.995 385.464 1035.115 390.5 1035.115 C 529.583 1035.115 642.5 944.125 642.5 832.052 C 642.5 822.921 641.75 813.93 640.298 805.116 Q 638.371 780.602 633.5 742.606 C 624.69 673.89 614.498 600.596 603.5 545.606 C 592.345 489.832 579.779 457.815 534.801 397.332 C 510.452 355.808 456.314 326.885 393.5 326.885 C 388.425 326.885 383.406 327.074 378.462 327.461 C 434.681 331.613 482.166 359.009 504.594 397.056 C 549.742 457.719 562.329 489.749 573.5 545.606 C 584.498 600.596 594.69 673.89 603.5 742.606 Q 608.371 780.602 610.298 805.116 Z  M 532.5 396.606 M 536.5 404.606 M 502.5 396.606 M 506.5 404.606" fill-rule="evenodd" fill="rgb(103,140,46)" vector-effect="non-scaling-stroke" stroke-width="5" stroke="rgb(32,38,23)" stroke-linejoin="miter" stroke-linecap="square" stroke-miterlimit="3"/></g><g><path d=" M 623.736 805.116 C 625.194 813.93 625.946 822.921 625.946 832.052 C 625.946 942.238 516.378 1032.044 380 1035.027 C 382.332 1035.089 384.676 1035.115 387.027 1035.115 C 526.647 1035.115 640 944.125 640 832.052 C 640 822.921 639.248 813.93 637.79 805.116 Q 635.855 780.602 630.965 742.606 C 622.121 673.89 611.89 600.596 600.849 545.606 C 589.652 489.832 577.037 457.815 531.885 397.332 C 507.442 355.808 453.095 326.885 390.039 326.885 C 387.667 326.885 385.308 326.926 382.969 327.028 C 442.907 329.054 494.073 357.23 517.646 397.086 C 562.949 457.73 575.583 489.758 586.795 545.606 C 597.836 600.596 608.067 673.89 616.911 742.606 Q 621.801 780.602 623.736 805.116 Z  M 529.575 396.606 M 533.591 404.606 M 515.521 396.606 M 519.537 404.606" fill-rule="evenodd" fill="rgb(84,113,41)"/></g></g><g><path d=" M 225.554 836.148 C 240.411 759.213 325.251 673.298 389.582 686.318 C 501.593 708.987 493.601 809.506 478.744 886.441 C 463.887 963.376 386.393 975.373 321.949 962.928 C 257.505 950.483 210.697 913.083 225.554 836.148 Z " fill="rgb(147,91,58)" vector-effect="non-scaling-stroke" stroke-width="5" stroke="rgb(32,38,23)" stroke-linejoin="miter" stroke-linecap="square" stroke-miterlimit="3"/><path d=" M 262 770 C 299.239 709.642 376.129 696.378 382 700 C 387.871 703.622 329.239 728.642 292 789 C 254.761 849.358 249.871 890.622 244 887 C 238.129 883.378 224.761 830.358 262 770 Z " fill="rgb(185,134,104)"/><path d=" M 456.927 917.12 C 411.675 986.31 287.04 949.851 278.927 941 C 273.427 935 378.531 951.103 413.927 900.12 C 468.427 821.62 452.422 736.799 460.927 736.12 C 476.387 734.887 494.137 860.227 456.927 917.12 Z " fill="rgb(102,64,42)"/><path d=" M 299.001 772.324 C 308.579 755.548 350.023 723.195 352 724.324 C 353.977 725.453 313.579 757.92 304.001 774.696 C 294.423 791.471 274.53 829.669 273.001 829 C 269.001 827.25 289.423 789.099 299.001 772.324 Z " fill="rgb(255,255,255)"/></g><g><path d=" M 486.5 1030 C 486.5 1013.994 518.489 991 550.5 991 C 582.511 991 613.5 1013.994 613.5 1030 C 613.5 1046.006 587.511 1047 555.5 1047 C 523.489 1047 486.5 1046.006 486.5 1030 Z " fill="rgb(103,140,46)" vector-effect="non-scaling-stroke" stroke-width="5" stroke="rgb(32,38,23)" stroke-linejoin="miter" stroke-linecap="square" stroke-miterlimit="3"/><path d=" M 489.015 1032.906 C 487.729 1025.562 521.293 1029.149 547.015 1024.906 C 578.084 1019.781 609.727 1023.445 610.015 1031.906 C 610.132 1035.353 608.962 1041.302 586.015 1043.906 C 576.816 1044.95 565.011 1045.151 547.015 1044.906 C 501.077 1044.281 490.038 1038.749 489.015 1032.906 Z " fill="rgb(84,113,41)"/></g><g><circle vector-effect="non-scaling-stroke" cx="290" cy="442.6666666666665" r="39.33333333333336" fill="rgb(255,255,255)" stroke-width="3" stroke="rgb(0,0,0)" stroke-linejoin="miter" stroke-linecap="square" stroke-miterlimit="3"/><circle vector-effect="non-scaling-stroke" cx="290" cy="442.6666666666665" r="28.666666666666742" fill="rgb(0,0,0)"/><path d=" M 296.681 435.906 C 291.459 430.591 289.457 424.078 292.213 421.37 C 294.969 418.663 301.446 420.779 306.668 426.094 C 311.89 431.409 313.892 437.922 311.136 440.63 C 308.38 443.337 301.903 441.221 296.681 435.906 Z " fill="rgb(255,255,255)"/><path d=" M 275.755 457.946 C 268.269 451.454 266.057 441.728 270.817 436.239 C 275.578 430.75 285.519 431.563 293.004 438.054 C 300.49 444.546 302.702 454.272 297.942 459.761 C 293.182 465.25 283.24 464.437 275.755 457.946 Z " fill="rgb(255,255,255)"/><circle vector-effect="non-scaling-stroke" cx="284.00630641896146" cy="425.99999999999983" r="5.32702691437197" fill="rgb(255,255,255)"/></g><path d=" M 190.635 651.911 C 182.309 665.58 174.001 654.44 160.331 646.115 C 146.662 637.789 132.773 635.411 141.099 621.741 C 149.424 608.072 167.281 603.733 180.951 612.058 C 194.621 620.383 198.96 638.241 190.635 651.911 Z " fill="rgb(252,240,248)" vector-effect="non-scaling-stroke" stroke-width="5" stroke="rgb(155,119,142)" stroke-linejoin="miter" stroke-linecap="square" stroke-miterlimit="3"/><g><circle vector-effect="non-scaling-stroke" cx="415" cy="442.6666666666665" r="39.33333333333337" fill="rgb(255,255,255)" stroke-width="3" stroke="rgb(0,0,0)" stroke-linejoin="miter" stroke-linecap="square" stroke-miterlimit="3"/><circle vector-effect="non-scaling-stroke" cx="415.00000000000006" cy="442.66666666666663" r="28.666666666666742" fill="rgb(0,0,0)"/><path d=" M 421.681 435.906 C 416.459 430.591 414.457 424.078 417.213 421.37 C 419.969 418.663 426.446 420.779 431.668 426.094 C 436.89 431.409 438.892 437.922 436.136 440.63 C 433.38 443.337 426.903 441.221 421.681 435.906 Z " fill="rgb(255,255,255)"/><path d=" M 400.755 457.946 C 393.269 451.454 391.057 441.728 395.817 436.239 C 400.578 430.75 410.519 431.563 418.004 438.054 C 425.49 444.546 427.702 454.272 422.942 459.761 C 418.182 465.25 408.24 464.437 400.755 457.946 Z " fill="rgb(255,255,255)"/><circle vector-effect="non-scaling-stroke" cx="409.00630641896134" cy="425.9999999999999" r="5.32702691437197" fill="rgb(255,255,255)"/></g><g><path d=" M 328 525 C 326.12 520.771 321.5 512.25 326 507 C 330.5 503 341.615 501.381 349.549 501.381 C 365.416 501.381 370.75 503 373 512 C 375.156 520.625 372.868 537 357 537 C 341.132 537 332 534 328 525 Z " fill="rgb(221,163,184)" vector-effect="non-scaling-stroke" stroke-width="3" stroke="rgb(32,38,23)" stroke-linejoin="miter" stroke-linecap="square" stroke-miterlimit="3"/><path d=" M 360.227 652.273 C 471.333 654 513 587.5 577.273 585.227 C 592.564 578.033 597.321 571.306 606 572 C 614.679 572.694 622.148 576.063 625 645.455 C 628.547 731.756 650.893 780.472 637.5 876.136 C 629.545 932.955 489.773 960.227 360.227 956.818 C 230.682 953.409 168.045 938.545 117.045 892.045 C 77.233 822.483 169.333 585.333 179.333 586 C 210.667 590.667 249.121 650.545 360.227 652.273 Z " fill="rgb(252,240,248)" vector-effect="non-scaling-stroke" stroke-width="5" stroke="rgb(155,119,142)" stroke-linejoin="miter" stroke-linecap="square" stroke-miterlimit="3"/><path d=" M 310.75 649.25 C 338.5 652.5 363.5 656 379.617 654.398 C 400.5 653.5 428.8 647.511 452 639 C 494.5 621 528.25 599.5 550.75 592.438 C 561.846 588.562 572.184 586.645 577.75 587.5 C 593.673 581.298 603.635 570.082 611.25 577.25 C 618.865 584.418 623.307 622.964 626 695.333 C 641.826 789.285 642.771 854.259 633.333 881 C 618.667 932.333 487.651 953.286 406.969 954.422 C 326.287 955.558 249.473 947.925 220.25 939.402 C 206.875 905.188 208.625 842.839 208.625 762.839 C 208.625 682.839 231 660.5 245 626.5 C 253.5 631 277.5 642.75 310.75 649.25 Z " fill="rgb(242,225,236)"/><path d=" M 558.921 933.975 C 598.171 915.975 626.921 904.725 633.535 880.975 C 633.741 879.919 633.928 878.814 634.097 877.661 C 649 811.5 636 770.5 626 690.667 C 623.623 622.876 619.625 576.125 607.711 574.805 C 600.469 572.555 595.688 578.602 577.828 587.578 C 573.188 586.336 584.807 654.536 592.989 753.506 Q 601.171 852.475 558.921 933.975 Z " fill="rgb(171,200,201)"/><path d=" M 463.865 681.777 C 454.759 681.777 470.625 735.127 470.625 800.839 C 470.625 866.552 454.759 919.902 463.865 919.902 C 472.972 919.902 490.86 866.552 490.86 800.839 C 490.86 735.127 472.972 681.777 463.865 681.777 Z " fill="rgb(171,200,201)"/><g><g><path d=" M 206.857 518.636 L 207.312 517.906 C 210.894 512.091 214.573 506.345 218.356 500.669 C 221.597 495.817 224.934 491.026 228.368 486.314 L 228.814 485.701 C 228.965 485.432 229.253 485.25 229.583 485.25 C 230.068 485.25 230.463 485.644 230.463 486.13 C 230.463 486.319 230.403 486.494 230.302 486.637 L 230.303 486.638 L 229.786 487.347 C 226.362 492.042 223.042 496.807 219.819 501.642 C 216.044 507.3 212.374 513.028 208.801 518.817 L 208.345 519.571 L 208.344 519.57 C 208.195 519.846 207.904 520.034 207.569 520.034 C 207.083 520.034 206.688 519.639 206.688 519.154 C 206.688 518.96 206.751 518.782 206.857 518.636 Z " fill-rule="evenodd" fill="rgb(242,192,162)"/><path d=" M 218.744 518.636 L 219.199 517.906 C 222.781 512.091 226.46 506.345 230.243 500.669 C 233.484 495.817 236.821 491.026 240.255 486.314 L 240.701 485.701 C 240.852 485.432 241.14 485.25 241.47 485.25 C 241.955 485.25 242.35 485.644 242.35 486.13 C 242.35 486.319 242.29 486.494 242.189 486.637 L 242.19 486.638 L 241.674 487.347 C 238.249 492.042 234.929 496.807 231.706 501.642 C 227.931 507.3 224.261 513.028 220.688 518.817 L 220.232 519.571 L 220.231 519.57 C 220.083 519.846 219.791 520.034 219.456 520.034 C 218.97 520.034 218.576 519.639 218.576 519.154 C 218.576 518.96 218.638 518.782 218.744 518.636 Z " fill-rule="evenodd" fill="rgb(242,192,162)"/><path d=" M 230.631 518.636 L 231.086 517.906 C 234.668 512.091 238.347 506.345 242.131 500.669 C 245.371 495.817 248.708 491.026 252.142 486.314 L 252.588 485.701 C 252.739 485.432 253.027 485.25 253.357 485.25 C 253.842 485.25 254.237 485.644 254.237 486.13 C 254.237 486.319 254.177 486.494 254.076 486.637 L 254.077 486.638 L 253.561 487.347 C 250.136 492.042 246.816 496.807 243.593 501.642 C 239.818 507.3 236.148 513.028 232.575 518.817 L 232.119 519.571 L 232.118 519.57 C 231.97 519.846 231.678 520.034 231.343 520.034 C 230.857 520.034 230.463 519.639 230.463 519.154 C 230.463 518.96 230.525 518.782 230.631 518.636 Z " fill-rule="evenodd" fill="rgb(242,192,162)"/><path d=" M 242.518 518.636 L 242.973 517.906 C 246.555 512.091 250.234 506.345 254.018 500.669 C 257.258 495.817 260.595 491.026 264.029 486.314 L 264.475 485.701 C 264.626 485.432 264.914 485.25 265.244 485.25 C 265.73 485.25 266.124 485.644 266.124 486.13 C 266.124 486.319 266.064 486.494 265.963 486.637 L 265.964 486.638 L 265.448 487.347 C 262.023 492.042 258.704 496.807 255.48 501.642 C 251.705 507.3 248.035 513.028 244.462 518.817 L 244.006 519.571 L 244.005 519.57 C 243.857 519.846 243.565 520.034 243.23 520.034 C 242.744 520.034 242.35 519.639 242.35 519.154 C 242.35 518.96 242.412 518.782 242.518 518.636 Z " fill-rule="evenodd" fill="rgb(242,192,162)"/></g><g><path d=" M 424.784 518.636 L 425.239 517.906 C 428.821 512.091 432.5 506.345 436.284 500.669 C 439.524 495.817 442.861 491.026 446.295 486.314 L 446.741 485.701 C 446.892 485.432 447.18 485.25 447.51 485.25 C 447.995 485.25 448.39 485.644 448.39 486.13 C 448.39 486.319 448.33 486.494 448.229 486.637 L 448.23 486.638 L 447.714 487.347 C 444.289 492.042 440.969 496.807 437.746 501.642 C 433.971 507.3 430.301 513.028 426.728 518.817 L 426.272 519.571 L 426.271 519.57 C 426.123 519.846 425.831 520.034 425.496 520.034 C 425.01 520.034 424.616 519.639 424.616 519.154 C 424.616 518.96 424.678 518.782 424.784 518.636 Z " fill-rule="evenodd" fill="rgb(242,192,162)"/><path d=" M 436.671 518.636 L 437.126 517.906 C 440.708 512.091 444.387 506.345 448.171 500.669 C 451.411 495.817 454.748 491.026 458.182 486.314 L 458.628 485.701 C 458.779 485.432 459.067 485.25 459.397 485.25 C 459.882 485.25 460.277 485.644 460.277 486.13 C 460.277 486.319 460.217 486.494 460.116 486.637 L 460.117 486.638 L 459.601 487.347 C 456.176 492.042 452.856 496.807 449.633 501.642 C 445.858 507.3 442.188 513.028 438.615 518.817 L 438.159 519.571 L 438.158 519.57 C 438.01 519.846 437.718 520.034 437.383 520.034 C 436.897 520.034 436.503 519.639 436.503 519.154 C 436.503 518.96 436.565 518.782 436.671 518.636 Z " fill-rule="evenodd" fill="rgb(242,192,162)"/><path d=" M 448.558 518.636 L 449.013 517.906 C 452.595 512.091 456.274 506.345 460.058 500.669 C 463.298 495.817 466.635 491.026 470.069 486.314 L 470.516 485.701 C 470.666 485.432 470.954 485.25 471.284 485.25 C 471.77 485.25 472.164 485.644 472.164 486.13 C 472.164 486.319 472.104 486.494 472.003 486.637 L 472.005 486.638 L 471.488 487.347 C 468.063 492.042 464.744 496.807 461.52 501.642 C 457.745 507.3 454.076 513.028 450.502 518.817 L 450.047 519.571 L 450.045 519.57 C 449.897 519.846 449.605 520.034 449.27 520.034 C 448.784 520.034 448.39 519.639 448.39 519.154 C 448.39 518.96 448.452 518.782 448.558 518.636 Z " fill-rule="evenodd" fill="rgb(242,192,162)"/><path d=" M 460.445 518.636 L 460.9 517.906 C 464.482 512.091 468.161 506.345 471.945 500.669 C 475.185 495.817 478.523 491.026 481.956 486.314 L 482.403 485.701 C 482.553 485.432 482.841 485.25 483.171 485.25 C 483.657 485.25 484.051 485.644 484.051 486.13 C 484.051 486.319 483.992 486.494 483.89 486.637 L 483.892 486.638 L 483.375 487.347 C 479.95 492.042 476.631 496.807 473.407 501.642 C 469.632 507.3 465.963 513.028 462.389 518.817 L 461.934 519.571 L 461.932 519.57 C 461.784 519.846 461.492 520.034 461.157 520.034 C 460.671 520.034 460.277 519.639 460.277 519.154 C 460.277 518.96 460.339 518.782 460.445 518.636 Z " fill-rule="evenodd" fill="rgb(242,192,162)"/></g></g></g><g><path d=" M 381.866 844.567 C 381.957 843.813 382.004 843.046 382.004 842.267 L 382.004 796.556 L 402.142 813.338 C 405.665 816.273 410.909 815.797 413.844 812.274 L 413.844 812.274 C 416.78 808.751 416.304 803.507 412.78 800.571 L 382.004 774.924 L 382.004 760.309 C 394.772 753.489 403.469 740.029 403.469 724.553 C 403.469 702.197 385.318 684.046 362.962 684.046 C 340.605 684.046 322.454 702.197 322.454 724.553 C 322.454 740.029 331.151 753.489 343.92 760.309 L 343.92 774.924 L 313.143 800.571 C 309.62 803.507 309.143 808.751 312.079 812.274 L 312.079 812.274 C 315.015 815.797 320.259 816.273 323.782 813.338 L 343.92 796.556 L 343.92 842.267 C 343.92 843.657 344.069 845.013 344.412 846.297 C 344.174 846.724 343.994 847.191 343.855 847.681 L 327.996 903.642 C 326.746 908.054 329.313 912.651 333.725 913.902 L 333.725 913.902 C 338.137 915.152 342.735 912.585 343.985 908.173 L 357.492 860.51 C 359.225 861.03 361.061 861.309 362.962 861.309 L 362.962 861.309 C 365.175 861.309 367.3 860.93 369.277 860.235 L 380.617 908.141 C 381.673 912.604 386.154 915.369 390.617 914.313 L 390.617 914.313 C 395.079 913.256 397.845 908.776 396.788 904.313 L 383.39 847.713 C 383.109 846.526 382.586 845.458 381.866 844.567 Z " fill="rgb(193,74,94)" vector-effect="non-scaling-stroke" stroke-width="3" stroke="rgb(136,45,60)" stroke-linejoin="miter" stroke-linecap="square" stroke-miterlimit="3"/><path d=" M 346.345 743.942 C 340.349 737.946 330.073 739.441 329.839 724.553 C 329.551 706.274 344.681 691.429 362.963 691.429 C 381.245 691.429 395.95 706.272 396.088 724.553 C 396.2 739.441 385.578 737.946 379.582 743.942 C 376.399 751.234 382.242 757.466 362.963 757.678 C 343.685 757.89 348.745 750.26 346.345 743.942 Z " fill="rgb(235,235,235)"/><path d=" M 366.424 801.37 C 365.33 797.716 363.137 795.532 358.79 792.637 C 357.104 791.771 355.951 790.014 355.951 787.99 C 355.951 785.104 358.294 782.761 361.18 782.761 C 364.065 782.761 366.408 785.104 366.408 787.99 C 366.408 788.057 366.407 788.124 366.404 788.191 L 366.424 788.18 L 366.424 788.18 L 366.443 788.191 C 366.441 788.124 366.44 788.057 366.44 787.99 C 366.44 785.104 368.782 782.761 371.668 782.761 C 374.554 782.761 376.897 785.104 376.897 787.99 C 376.897 790.014 375.744 791.771 374.058 792.637 C 369.711 795.532 367.518 797.716 366.424 801.37 Z " fill="rgb(136,45,60)"/><circle vector-effect="non-scaling-stroke" cx="346.3449369022007" cy="722.8223545879459" r="10.039476576564937" fill="rgb(0,0,0)"/><circle vector-effect="non-scaling-stroke" cx="379.58167063339096" cy="722.8223545879459" r="10.039476576564937" fill="rgb(0,0,0)"/><circle vector-effect="non-scaling-stroke" cx="362.9617302916652" cy="825.3022835924473" r="13.907551707055006" fill="rgb(242,182,193)"/><path d=" M 362.962 815.513 Q 358.266 824.796 365.731 821.053 Q 381.354 819.382 371.271 825.302 Q 361.187 831.223 354.653 825.302 L 357.422 818.283 Q 361.447 813.717 357.422 818.283 C 353.398 822.849 348.031 826.138 351.883 829.362 C 355.734 832.586 371.055 826.224 365.731 832.132 C 360.408 838.039 355.02 837.411 357.422 834.901 C 359.824 832.391 357.141 820.901 362.962 823.823 C 368.782 826.744 371.336 827.782 368.501 832.132 C 365.667 836.481 377.936 832.04 374.041 825.302 C 370.146 818.564 369.302 805.841 365.731 815.513 C 362.161 825.186 361.923 824.515 360.192 821.053 C 358.461 817.591 348.031 816.53 351.883 821.053 C 355.734 825.575 364.823 841.977 365.731 837.671 C 366.64 833.365 355.496 837.52 360.192 832.132 C 364.888 826.744 371.725 826.938 368.501 823.823" fill="rgb(242,182,193)" vector-effect="non-scaling-stroke" stroke-width="3" stroke="rgb(136,45,60)" stroke-linejoin="miter" stroke-linecap="square" stroke-miterlimit="3"/><path d="M 362.962 753.863 L 362.962 753.863 C 364.49 753.863 365.731 755.104 365.731 756.632 L 365.731 772.104 C 365.731 773.633 364.49 774.874 362.962 774.874 L 362.962 774.874 C 361.433 774.874 360.192 773.633 360.192 772.104 L 360.192 756.632 C 360.192 755.104 361.433 753.863 362.962 753.863 Z" style="stroke:none;fill:#EBEBEB;stroke-miterlimit:10;"/><path d="M 318.691 806.635 L 318.691 806.635 C 319.18 807.223 320.054 807.303 320.641 806.814 L 344.717 786.786 C 345.305 786.297 345.385 785.423 344.896 784.835 L 344.896 784.835 C 344.408 784.248 343.534 784.168 342.946 784.656 L 318.87 804.685 C 318.282 805.173 318.202 806.047 318.691 806.635 Z" style="stroke:none;fill:#EBEBEB;stroke-miterlimit:10;"/><path d="M 336.334 905.622 L 336.334 905.622 C 337.069 905.833 337.867 905.304 338.114 904.441 L 350.19 862.381 C 350.438 861.518 350.043 860.646 349.308 860.435 L 349.308 860.435 C 348.574 860.225 347.776 860.754 347.528 861.616 L 335.452 903.677 C 335.204 904.54 335.6 905.411 336.334 905.622 Z" style="stroke:none;fill:#EBEBEB;stroke-miterlimit:10;"/><path d="M 388.504 905.672 L 388.504 905.672 C 387.762 905.853 386.986 905.292 386.774 904.42 L 376.414 861.904 C 376.201 861.032 376.631 860.177 377.374 859.996 L 377.374 859.996 C 378.117 859.815 378.892 860.376 379.105 861.248 L 389.465 903.764 C 389.677 904.636 389.247 905.491 388.504 905.672 Z" style="stroke:none;fill:#EBEBEB;stroke-miterlimit:10;"/><path d="M 406.869 806.635 L 406.869 806.635 C 406.38 807.223 405.506 807.303 404.919 806.814 L 380.843 786.786 C 380.255 786.297 380.175 785.423 380.664 784.835 L 380.664 784.835 C 381.152 784.248 382.026 784.168 382.614 784.656 L 406.69 804.685 C 407.278 805.173 407.358 806.047 406.869 806.635 Z" style="stroke:none;fill:#EBEBEB;stroke-miterlimit:10;"/></g><rect x="102" y="118" width="34" height="34" transform="matrix(1,0,0,1,0,0)" fill="rgb(235,235,235)"/><path d=" M 106.002 828.5 C 109.311 773.574 127.288 667.063 153.447 652.667 Q 179.606 638.27 170.122 598.667 L 328.875 649.5 Q 312.463 904.093 310.321 927.846 C 308.179 951.599 235.825 936.989 179.695 911 C 144.424 894.668 110.548 862.005 108 861 C 105.452 859.995 104.872 847.255 106.002 828.5 Z " fill="rgb(117,138,81)" vector-effect="non-scaling-stroke" stroke-width="5" stroke="rgb(0,0,0)" stroke-linejoin="miter" stroke-linecap="square" stroke-miterlimit="3"/><path d=" M 577.125 606.75 C 562.931 616.189 570.938 683.438 611.625 672.75 C 641.813 663 621.783 608.325 611.75 603.75 C 601.717 599.175 591.319 597.311 577.125 606.75 Z  M 419.303 647 Q 414.324 907.093 416.636 930.846 C 418.948 954.599 497.049 939.989 557.636 914 C 595.709 897.668 639.375 868.587 641.75 860.25 C 651.948 854.521 632.488 576.682 618.5 577 L 419.303 647 Z " fill-rule="evenodd" fill="rgb(117,138,81)" vector-effect="non-scaling-stroke" stroke-width="5" stroke="rgb(0,0,0)" stroke-linejoin="miter" stroke-linecap="square" stroke-miterlimit="3"/><path d=" M 318.5 753.137 L 318.5 644.5 C 318.5 642.844 317.156 641.5 315.5 641.5 L 315.5 641.5 C 313.844 641.5 312.5 642.844 312.5 644.5 L 312.5 753.412 C 310.702 754.51 309.5 756.491 309.5 758.75 C 309.5 762.199 312.301 765 315.75 765 C 319.199 765 322 762.199 322 758.75 C 322 756.287 320.572 754.155 318.5 753.137 Z " fill-rule="evenodd" fill="rgb(234,233,233)"/><path d=" M 435 722.046 L 435 649.5 C 435 647.844 433.656 646.5 432 646.5 L 432 646.5 C 430.344 646.5 429 647.844 429 649.5 L 429 722.524 C 427.197 723.633 426 725.582 426 727.799 C 426 731.248 428.899 734.049 432.469 734.049 C 436.04 734.049 438.938 731.248 438.938 727.799 C 438.938 725.217 437.314 722.998 435 722.046 Z " fill-rule="evenodd" fill="rgb(234,233,233)"/><path d=" M 168 592.125 C 168.375 583.5 176.02 579.87 176.25 578.25 C 176.48 576.63 172.187 565.292 181 556.667 C 202 557.792 242.301 577.776 270 592 C 297.699 606.224 326.993 631.801 333.333 648 C 338.83 662.043 279.532 645.894 243 634 C 206.468 622.106 173.625 615.563 168 592.125 Z " fill="rgb(117,138,81)" vector-effect="non-scaling-stroke" stroke-width="5" stroke="rgb(0,0,0)" stroke-linejoin="miter" stroke-linecap="square" stroke-miterlimit="3"/><path d=" M 560.667 840 C 558.175 799.518 557.5 731 549.5 695.5 Q 545.564 656.108 539.667 611.667 L 617 576.667 C 637.667 613 644.414 828.703 641.333 856.333 C 640.5 866 583.625 901.5 558.125 911.375 Q 562.854 875.531 560.667 840 Z  M 569.5 641 C 563.75 619.25 574.728 595.5 588.25 595.5 C 608.823 595.694 634.18 610.672 628.5 631.75 C 622.82 652.828 610.901 676.683 598 675.25 C 585.099 673.817 575.25 662.75 569.5 641 Z " fill-rule="evenodd" fill="rgb(74,87,51)"/><path d=" M 585.563 602.437 C 593.313 601.437 620.613 582.667 621.375 572.25 C 621.41 571.865 629.961 559.15 620.667 552 C 621.604 539.625 610.466 526.992 602 525.25 C 602.026 524.535 604.402 542.739 600.563 545.813 C 591.83 552.803 582.485 560.331 577.455 560.625 C 572.425 560.919 516.654 580.776 488.955 595 C 461.256 609.224 425.007 628.468 418.667 644.667 C 413.17 658.71 494.606 643.951 515.955 637 C 537.304 630.049 577.813 603.438 585.563 602.437 Z " fill="rgb(117,138,81)" vector-effect="non-scaling-stroke" stroke-width="5" stroke="rgb(0,0,0)" stroke-linejoin="miter" stroke-linecap="square" stroke-miterlimit="3"/><g><path d=" M 633.893 670.056 C 627.586 637.812 606.693 606.821 597.756 608.569 C 588.819 610.317 589.785 638.506 596.092 670.75 C 602.399 702.994 611.672 727.161 620.61 725.413 C 629.547 723.665 640.2 702.3 633.893 670.056 Z " fill="rgb(103,140,46)" vector-effect="non-scaling-stroke" stroke-width="5" stroke="rgb(32,38,23)" stroke-linejoin="miter" stroke-linecap="square" stroke-miterlimit="3"/><path d=" M 620 677 C 618.535 661.617 593.053 612.737 598 611 C 600.582 610.093 611.625 617 623 644 C 633.023 666.141 634.008 689.555 633 697 C 631.969 711.109 622.055 726.609 619 722 C 616.711 718.805 622 698 620 677 Z " fill="rgb(84,113,41)"/></g><path d=" M 634.761 628.579 C 638.589 644.12 624.83 642.161 609.289 645.989 C 593.748 649.817 582.272 657.992 578.444 642.451 C 574.616 626.91 584.125 611.185 599.666 607.357 C 615.207 603.529 630.933 613.038 634.761 628.579 Z " fill="rgb(171,200,201)" vector-effect="non-scaling-stroke" stroke-width="5" stroke="rgb(155,119,142)" stroke-linejoin="miter" stroke-linecap="square" stroke-miterlimit="3"/><path d=" M 579.75 635.375 C 579.125 628 584.75 620 588.75 616.25 C 593.082 612.188 608 636.588 608 643.625 C 601.875 645.25 595.083 648.875 588.75 648.875 C 581.75 649.625 580.333 642.255 579.75 635.375 Z " fill="rgb(235,235,235)"/><path d="M 535.936 795.144 L 584.904 805.248 C 590.039 806.308 593.348 811.337 592.288 816.472 L 592.288 816.472 C 591.229 821.607 586.199 824.916 581.064 823.856 L 532.096 813.752 C 526.961 812.692 523.652 807.663 524.712 802.528 L 524.712 802.528 C 525.771 797.393 530.801 794.084 535.936 795.144 Z" style="stroke:none;fill:#758A51;stroke-miterlimit:10;"/><path d="M 535.936 795.144 L 584.904 805.248 C 590.039 806.308 593.348 811.337 592.288 816.472 L 592.288 816.472 C 591.229 821.607 586.199 824.916 581.064 823.856 L 532.096 813.752 C 526.961 812.692 523.652 807.663 524.712 802.528 L 524.712 802.528 C 525.771 797.393 530.801 794.084 535.936 795.144 Z" style="fill:none;stroke:#000000;stroke-width:5;stroke-linecap:square;stroke-miterlimit:2;"/><path d="M 189.064 787.144 L 140.096 797.248 C 134.961 798.308 131.652 803.337 132.712 808.472 L 132.712 808.472 C 133.771 813.607 138.801 816.916 143.936 815.856 L 192.904 805.752 C 198.039 804.692 201.348 799.663 200.288 794.528 L 200.288 794.528 C 199.229 789.393 194.199 786.084 189.064 787.144 Z" style="stroke:none;fill:#758A51;stroke-linecap:square;stroke-miterlimit:2;"/><path d="M 189.064 787.144 L 140.096 797.248 C 134.961 798.308 131.652 803.337 132.712 808.472 L 132.712 808.472 C 133.771 813.607 138.801 816.916 143.936 815.856 L 192.904 805.752 C 198.039 804.692 201.348 799.663 200.288 794.528 L 200.288 794.528 C 199.229 789.393 194.199 786.084 189.064 787.144 Z" style="fill:none;stroke:#000000;stroke-width:5;stroke-linecap:square;stroke-miterlimit:2;"/><path d=" M 422 646 C 420.319 641.236 490.5 622.5 514.5 612.5 C 538.5 602.5 558.601 590.885 579.5 577.5 C 587.561 572.337 599.275 566.838 604.5 561.25 C 613.329 551.808 615 548.625 617.25 543.375 C 620.063 552.187 618.42 558.531 610.5 566 C 604.723 573.128 596.219 580.93 584.75 587.25 C 565.308 597.964 540.5 614.25 518.5 622 C 479.458 635.753 423.681 650.764 422 646 Z " fill="rgb(74,87,51)"/><path d=" M 331.125 649.781 C 333.555 645.352 266.063 617.625 243 606 Q 219.938 594.375 182 559.234 C 176.716 564.99 176.81 571.756 182.25 579.5 C 199.703 593.218 218.229 607.534 237 616.333 C 273 633.208 328.695 654.21 331.125 649.781 Z " fill="rgb(74,87,51)"/><path d=" M 424.125 645.75 C 422.444 640.986 494.625 631.125 521.25 622.125 C 547.875 613.125 567.101 598.052 588 584.667 C 596.061 579.504 607.233 577.795 612.458 572.207 C 618.235 566.028 618.881 555.189 618.328 553.641 C 625.517 558.594 621.563 566.438 619.031 572.203 C 617.766 581.484 591.188 599.203 586.406 599.344 C 579.255 603.285 571.195 605.77 563.766 610.031 C 550.996 617.354 538.22 626.423 521.625 631.875 C 484.5 645.75 425.806 650.514 424.125 645.75 Z " fill="rgb(74,87,51)"/><path d=" M 330.5 649.75 C 332.181 644.986 257.958 624.333 231.333 615.333 C 210.667 605.667 201.399 595.885 180.5 582.5 C 175.215 580.355 168.475 584.865 170.75 592.25 C 173.025 599.635 177.25 606.5 192.75 614.063 C 206.313 620.688 220.593 623.985 237.188 629.438 C 275.907 642.16 326.375 655.5 330.5 649.75 Z " fill="rgb(74,87,51)"/></g></svg>