<?xml version="1.0" encoding="UTF-8" standalone="no"?><!-- Generator: Gravit.io --><svg xmlns="http://www.w3.org/2000/svg" xmlns:xlink="http://www.w3.org/1999/xlink" style="isolation:isolate" viewBox="0 0 552.049 735.115" width="552.049pt" height="735.115pt"><defs><clipPath id="_clipPath_GJRVzGTLVHZls3PDD22Ucqlb6IvWcMvc"><rect width="552.049" height="735.115"/></clipPath></defs><g clip-path="url(#_clipPath_GJRVzGTLVHZls3PDD22Ucqlb6IvWcMvc)"><g><path d=" M 47.096 712.614 C 45.254 695.264 71.188 672.614 102.096 672.614 C 133.003 672.614 163.096 685.852 163.096 696.614 C 163.096 707.377 133.003 726.614 102.096 726.614 C 71.188 726.614 48.611 726.896 47.096 712.614 Z " fill="rgb(103,140,46)" vector-effect="non-scaling-stroke" stroke-width="5" stroke="rgb(32,38,23)" stroke-linejoin="miter" stroke-linecap="square" stroke-miterlimit="3"/><path d=" M 52.049 713.878 C 55.049 704.771 83.243 709.074 107.049 704.615 C 134.353 699.5 165.171 687.744 160.049 698.615 C 154.519 710.352 128.737 720.802 117.049 722.615 C 87.254 727.235 48.511 724.619 52.049 713.878 Z " fill="rgb(84,113,41)"/></g><g><path d=" M 26.985 345.965 C 39.227 315.476 65.563 288.954 74.013 292.347 C 82.464 295.74 76.227 323.248 63.985 353.737 C 51.742 384.226 38.1 406.224 29.65 402.83 C 21.199 399.437 14.742 376.454 26.985 345.965 Z " fill="rgb(103,140,46)" vector-effect="non-scaling-stroke" stroke-width="5" stroke="rgb(32,38,23)" stroke-linejoin="miter" stroke-linecap="square" stroke-miterlimit="3"/><path d=" M 48.049 359.496 C 57.097 340.27 70.305 296.382 75.049 298.615 C 77.526 299.78 72.358 329.099 61.049 355.615 C 55.349 368.982 48.768 382.158 43.049 390.615 C 38.378 397.524 33.069 401.094 32.049 400.615 C 27.305 398.382 39.002 378.723 48.049 359.496 Z " fill="rgb(84,113,41)"/></g><g><path d=" M 511.848 485.731 C 513.3 494.544 514.049 503.535 514.049 512.667 C 514.049 624.74 401.132 715.729 262.049 715.729 C 122.967 715.729 10.049 624.74 10.049 512.667 L 10.049 512.667 C 10.049 487.753 15.629 463.882 25.844 441.823 C 32.168 423.557 66.983 337.456 89.049 222.22 C 97.976 175.605 93.547 161.75 112.581 105.606 C 125.764 49.831 189.057 7.5 265.049 7.5 C 327.864 7.5 382.001 36.423 406.351 77.946 C 451.329 138.429 463.895 170.446 475.049 226.22 C 486.048 281.211 496.24 354.504 505.049 423.22 Q 509.921 461.217 511.848 485.731 Z  M 404.049 77.22 M 408.049 85.22" fill-rule="evenodd" fill="rgb(163,166,83)" vector-effect="non-scaling-stroke" stroke-width="5" stroke="rgb(32,38,23)" stroke-linejoin="miter" stroke-linecap="square" stroke-miterlimit="3"/></g><g><path d=" M 493.07 473.646 C 494.413 481.813 495.106 490.145 495.106 498.606 C 495.106 602.46 390.677 686.776 262.049 686.776 C 133.422 686.776 28.993 602.46 28.993 498.606 L 28.993 498.606 L 28.993 498.606 C 28.993 475.52 34.154 453.399 43.6 432.958 L 43.6 432.958 C 49.449 416.032 81.647 336.245 102.054 229.461 C 110.303 186.301 106.221 173.448 123.773 121.53 C 135.908 69.784 194.483 30.489 264.824 30.489 C 322.916 30.489 372.984 57.291 395.503 95.769 C 437.1 151.816 448.721 181.485 459.038 233.168 C 469.209 284.126 478.635 352.044 486.782 415.72 Q 491.288 450.93 493.07 473.646 Z  M 509.865 484.99 C 511.306 493.751 512.049 502.688 512.049 511.765 C 512.049 623.169 400.028 713.615 262.049 713.615 C 124.071 713.615 12.049 623.169 12.049 511.765 L 12.049 511.765 C 12.049 487 17.585 463.271 27.719 441.344 C 33.992 423.187 68.531 337.6 90.423 223.053 C 99.278 176.716 94.885 162.943 113.767 107.135 C 126.845 51.693 189.636 9.615 265.026 9.615 C 327.341 9.615 381.049 38.364 405.205 79.64 C 449.826 139.762 462.293 171.588 473.359 227.029 C 484.27 281.691 494.381 354.547 503.121 422.852 Q 507.954 460.622 509.865 484.99 L 509.865 484.99 L 509.865 484.99 L 509.865 484.99 Z  M 402.923 78.918 M 406.891 86.871 M 393.375 95.096 M 397.074 102.509" fill-rule="evenodd" fill="rgb(134,136,81)"/></g><g><g><path d=" M 512.348 485.731 C 513.8 494.544 514.549 503.535 514.549 512.667 C 514.549 620.682 409.661 709.112 277.549 715.37 C 282.512 715.61 287.513 715.729 292.549 715.729 C 431.632 715.729 544.549 624.74 544.549 512.667 C 544.549 503.535 543.8 494.544 542.348 485.731 Q 540.421 461.217 535.549 423.22 C 526.74 354.504 516.548 281.211 505.549 226.22 C 494.395 170.446 481.829 138.429 436.851 77.946 C 412.501 36.423 358.364 7.5 295.549 7.5 C 290.474 7.5 285.456 7.689 280.511 8.075 C 336.73 12.228 384.215 39.623 406.644 77.671 C 451.791 138.334 464.378 170.363 475.549 226.22 C 486.548 281.211 496.74 354.504 505.549 423.22 Q 510.421 461.217 512.348 485.731 Z  M 434.549 77.22 M 438.549 85.22 M 404.549 77.22 M 408.549 85.22" fill-rule="evenodd" fill="rgb(103,140,46)" vector-effect="non-scaling-stroke" stroke-width="5" stroke="rgb(32,38,23)" stroke-linejoin="miter" stroke-linecap="square" stroke-miterlimit="3"/></g><g><path d=" M 525.785 485.731 C 527.243 494.544 527.995 503.535 527.995 512.667 C 527.995 622.853 418.427 712.659 282.049 715.641 C 284.382 715.703 286.726 715.729 289.077 715.729 C 428.696 715.729 542.049 624.74 542.049 512.667 C 542.049 503.535 541.297 494.544 539.839 485.731 Q 537.905 461.217 533.015 423.22 C 524.171 354.504 513.939 281.211 502.899 226.22 C 491.701 170.446 479.086 138.429 433.935 77.946 C 409.491 36.423 355.145 7.5 292.088 7.5 C 289.717 7.5 287.358 7.541 285.019 7.642 C 344.956 9.669 396.122 37.845 419.695 77.7 C 464.999 138.344 477.632 170.372 488.845 226.22 C 499.885 281.211 510.117 354.504 518.961 423.22 Q 523.851 461.217 525.785 485.731 Z  M 431.625 77.22 M 435.64 85.22 M 417.571 77.22 M 421.586 85.22" fill-rule="evenodd" fill="rgb(84,113,41)"/></g></g><g><path d=" M 127.604 516.763 C 142.461 439.827 227.301 353.912 291.632 366.932 C 403.642 389.602 395.651 490.12 380.794 567.055 C 365.937 643.991 288.442 655.987 223.998 643.542 C 159.554 631.098 112.747 593.698 127.604 516.763 Z " fill="rgb(147,91,58)" vector-effect="non-scaling-stroke" stroke-width="5" stroke="rgb(32,38,23)" stroke-linejoin="miter" stroke-linecap="square" stroke-miterlimit="3"/><path d=" M 164.049 450.615 C 201.288 390.257 278.178 376.992 284.049 380.615 C 289.921 384.237 231.288 409.257 194.049 469.615 C 156.811 529.973 151.921 571.237 146.049 567.615 C 140.178 563.992 126.811 510.973 164.049 450.615 Z " fill="rgb(185,134,104)"/><path d=" M 358.976 597.735 C 313.725 666.924 189.09 630.465 180.976 621.615 C 175.476 615.615 280.581 631.718 315.976 580.735 C 370.476 502.235 354.472 417.413 362.976 416.735 C 378.436 415.501 396.186 540.842 358.976 597.735 Z " fill="rgb(102,64,42)"/><path d=" M 201.05 452.938 C 210.628 436.163 252.072 403.809 254.049 404.938 C 256.027 406.067 215.628 438.535 206.05 455.31 C 196.473 472.085 176.579 510.283 175.05 509.615 C 171.05 507.865 191.473 469.714 201.05 452.938 Z " fill="rgb(255,255,255)"/></g><g><path d=" M 388.549 710.615 C 388.549 694.609 420.538 671.615 452.549 671.615 C 484.561 671.615 515.549 694.609 515.549 710.615 C 515.549 726.62 489.561 727.615 457.549 727.615 C 425.538 727.615 388.549 726.62 388.549 710.615 Z " fill="rgb(103,140,46)" vector-effect="non-scaling-stroke" stroke-width="5" stroke="rgb(32,38,23)" stroke-linejoin="miter" stroke-linecap="square" stroke-miterlimit="3"/><path d=" M 391.064 713.521 C 389.778 706.177 423.342 709.764 449.064 705.521 C 480.133 700.396 511.777 704.059 512.064 712.521 C 512.181 715.967 511.012 721.917 488.064 724.521 C 478.865 725.564 467.061 725.766 449.064 725.521 C 403.127 724.896 392.087 719.364 391.064 713.521 Z " fill="rgb(84,113,41)"/></g><g><circle vector-effect="non-scaling-stroke" cx="192.0494889220896" cy="123.28120557924649" r="39.33333333333334" fill="rgb(255,255,255)" stroke-width="3" stroke="rgb(0,0,0)" stroke-linejoin="miter" stroke-linecap="square" stroke-miterlimit="3"/><circle vector-effect="non-scaling-stroke" cx="192.0494889220896" cy="123.28120557924649" r="28.666666666666714" fill="rgb(0,0,0)"/><path d=" M 198.731 116.521 C 193.509 111.206 191.507 104.693 194.262 101.985 C 197.018 99.277 203.495 101.394 208.717 106.709 C 213.939 112.023 215.941 118.536 213.186 121.244 C 210.43 123.952 203.953 121.835 198.731 116.521 Z " fill="rgb(255,255,255)"/><path d=" M 177.804 138.56 C 170.319 132.069 168.107 122.342 172.867 116.853 C 177.627 111.364 187.569 112.178 195.054 118.669 C 202.539 125.16 204.751 134.887 199.991 140.376 C 195.231 145.865 185.289 145.051 177.804 138.56 Z " fill="rgb(255,255,255)"/><circle vector-effect="non-scaling-stroke" cx="186.05579534105107" cy="106.6145389125798" r="5.32702691437197" fill="rgb(255,255,255)"/></g><path d=" M 92.684 332.525 C 84.359 346.195 76.051 335.055 62.381 326.729 C 48.711 318.404 34.823 316.026 43.148 302.356 C 51.474 288.686 69.331 284.347 83.001 292.672 C 96.671 300.998 101.01 318.855 92.684 332.525 Z " fill="rgb(252,240,248)" vector-effect="non-scaling-stroke" stroke-width="5" stroke="rgb(155,119,142)" stroke-linejoin="miter" stroke-linecap="square" stroke-miterlimit="3"/><g><circle vector-effect="non-scaling-stroke" cx="317.0494889220896" cy="123.28120557924649" r="39.33333333333337" fill="rgb(255,255,255)" stroke-width="3" stroke="rgb(0,0,0)" stroke-linejoin="miter" stroke-linecap="square" stroke-miterlimit="3"/><circle vector-effect="non-scaling-stroke" cx="317.04948892208967" cy="123.2812055792466" r="28.666666666666742" fill="rgb(0,0,0)"/><path d=" M 323.731 116.521 C 318.509 111.206 316.507 104.693 319.262 101.985 C 322.018 99.277 328.495 101.394 333.717 106.709 C 338.939 112.023 340.941 118.536 338.186 121.244 C 335.43 123.952 328.953 121.835 323.731 116.521 Z " fill="rgb(255,255,255)"/><path d=" M 302.804 138.56 C 295.319 132.069 293.107 122.342 297.867 116.853 C 302.627 111.364 312.569 112.178 320.054 118.669 C 327.539 125.16 329.751 134.887 324.991 140.376 C 320.231 145.865 310.289 145.051 302.804 138.56 Z " fill="rgb(255,255,255)"/><circle vector-effect="non-scaling-stroke" cx="311.05579534105095" cy="106.61453891257986" r="5.32702691437197" fill="rgb(255,255,255)"/></g><g><path d=" M 230.049 205.615 C 228.17 201.385 223.549 192.865 228.049 187.615 C 232.549 183.615 243.665 181.995 251.598 181.995 C 267.466 181.995 272.799 183.615 275.049 192.615 C 277.206 201.24 274.917 217.615 259.049 217.615 C 243.182 217.615 234.049 214.615 230.049 205.615 Z " fill="rgb(221,163,184)" vector-effect="non-scaling-stroke" stroke-width="3" stroke="rgb(32,38,23)" stroke-linejoin="miter" stroke-linecap="square" stroke-miterlimit="3"/><path d=" M 262.277 332.887 C 373.383 334.615 415.05 268.115 479.322 265.842 C 494.614 258.648 499.37 251.92 508.05 252.615 C 516.729 253.309 524.197 256.677 527.05 326.069 C 530.597 412.371 552.943 461.086 539.55 556.751 C 531.595 613.569 391.822 640.842 262.277 637.433 C 132.731 634.024 70.095 619.16 19.095 572.66 C -20.717 503.098 71.383 265.948 81.383 266.615 C 112.716 271.281 151.171 331.16 262.277 332.887 Z " fill="rgb(252,240,248)" vector-effect="non-scaling-stroke" stroke-width="5" stroke="rgb(155,119,142)" stroke-linejoin="miter" stroke-linecap="square" stroke-miterlimit="3"/><path d=" M 212.799 329.865 C 240.549 333.115 265.549 336.615 281.667 335.013 C 302.549 334.115 330.849 328.126 354.049 319.615 C 396.549 301.615 430.299 280.115 452.799 273.052 C 463.895 269.177 474.234 267.26 479.799 268.115 C 495.723 261.913 505.685 250.696 513.299 257.865 C 520.914 265.033 525.356 303.579 528.049 375.948 C 543.876 469.899 544.82 534.874 535.383 561.615 C 520.716 612.948 389.7 633.9 309.018 635.036 C 228.336 636.173 151.523 628.539 122.3 620.016 C 108.925 585.802 110.675 523.454 110.675 443.454 C 110.675 363.454 133.049 341.115 147.049 307.115 C 155.549 311.615 179.549 323.365 212.799 329.865 Z " fill="rgb(242,225,236)"/><path d=" M 460.97 614.59 C 500.22 596.59 528.97 585.34 535.584 561.59 C 535.79 560.534 535.977 559.428 536.146 558.275 C 551.049 492.115 538.049 451.115 528.049 371.281 C 525.672 303.491 521.674 256.74 509.76 255.419 C 502.518 253.169 497.737 259.216 479.878 268.193 C 475.237 266.95 486.857 335.151 495.039 434.12 Q 503.22 533.09 460.97 614.59 Z " fill="rgb(171,200,201)"/><path d=" M 365.915 362.391 C 356.808 362.391 372.675 415.741 372.675 481.454 C 372.675 547.166 356.808 600.516 365.915 600.516 C 375.021 600.516 392.909 547.166 392.909 481.454 C 392.909 415.741 375.021 362.391 365.915 362.391 Z " fill="rgb(171,200,201)"/><g><g><path d=" M 108.906 199.251 L 109.361 198.521 C 112.943 192.705 116.622 186.96 120.406 181.284 C 123.647 176.432 126.984 171.641 130.417 166.928 L 130.864 166.315 C 131.014 166.046 131.302 165.865 131.632 165.865 C 132.118 165.865 132.512 166.259 132.512 166.745 C 132.512 166.933 132.453 167.108 132.351 167.252 L 132.353 167.253 L 131.836 167.962 C 128.411 172.657 125.092 177.421 121.869 182.256 C 118.094 187.914 114.424 193.642 110.85 199.432 L 110.395 200.185 L 110.394 200.184 C 110.245 200.46 109.953 200.648 109.618 200.648 C 109.132 200.648 108.738 200.254 108.738 199.768 C 108.738 199.575 108.8 199.396 108.906 199.251 Z " fill-rule="evenodd" fill="rgb(242,192,162)"/><path d=" M 120.793 199.251 L 121.248 198.521 C 124.831 192.705 128.509 186.96 132.293 181.284 C 135.534 176.432 138.871 171.641 142.304 166.928 L 142.751 166.315 C 142.902 166.046 143.189 165.865 143.519 165.865 C 144.005 165.865 144.399 166.259 144.399 166.745 C 144.399 166.933 144.34 167.108 144.239 167.252 L 144.24 167.253 L 143.723 167.962 C 140.298 172.657 136.979 177.421 133.756 182.256 C 129.981 187.914 126.311 193.642 122.737 199.432 L 122.282 200.185 L 122.281 200.184 C 122.132 200.46 121.84 200.648 121.505 200.648 C 121.019 200.648 120.625 200.254 120.625 199.768 C 120.625 199.575 120.687 199.396 120.793 199.251 Z " fill-rule="evenodd" fill="rgb(242,192,162)"/><path d=" M 132.68 199.251 L 133.135 198.521 C 136.718 192.705 140.396 186.96 144.18 181.284 C 147.421 176.432 150.758 171.641 154.191 166.928 L 154.638 166.315 C 154.789 166.046 155.076 165.865 155.406 165.865 C 155.892 165.865 156.286 166.259 156.286 166.745 C 156.286 166.933 156.227 167.108 156.126 167.252 L 156.127 167.253 L 155.61 167.962 C 152.185 172.657 148.866 177.421 145.643 182.256 C 141.868 187.914 138.198 193.642 134.624 199.432 L 134.169 200.185 L 134.168 200.184 C 134.019 200.46 133.727 200.648 133.392 200.648 C 132.907 200.648 132.512 200.254 132.512 199.768 C 132.512 199.575 132.575 199.396 132.68 199.251 Z " fill-rule="evenodd" fill="rgb(242,192,162)"/><path d=" M 144.567 199.251 L 145.022 198.521 C 148.605 192.705 152.283 186.96 156.067 181.284 C 159.308 176.432 162.645 171.641 166.078 166.928 L 166.525 166.315 C 166.676 166.046 166.963 165.865 167.293 165.865 C 167.779 165.865 168.173 166.259 168.173 166.745 C 168.173 166.933 168.114 167.108 168.013 167.252 L 168.014 167.253 L 167.497 167.962 C 164.073 172.657 160.753 177.421 157.53 182.256 C 153.755 187.914 150.085 193.642 146.511 199.432 L 146.056 200.185 L 146.055 200.184 C 145.906 200.46 145.615 200.648 145.279 200.648 C 144.794 200.648 144.399 200.254 144.399 199.768 C 144.399 199.575 144.462 199.396 144.567 199.251 Z " fill-rule="evenodd" fill="rgb(242,192,162)"/></g><g><path d=" M 326.833 199.251 L 327.288 198.521 C 330.871 192.705 334.549 186.96 338.333 181.284 C 341.574 176.432 344.911 171.641 348.344 166.928 L 348.791 166.315 C 348.942 166.046 349.229 165.865 349.559 165.865 C 350.045 165.865 350.439 166.259 350.439 166.745 C 350.439 166.933 350.38 167.108 350.279 167.252 L 350.28 167.253 L 349.763 167.962 C 346.338 172.657 343.019 177.421 339.796 182.256 C 336.021 187.914 332.351 193.642 328.777 199.432 L 328.322 200.185 L 328.321 200.184 C 328.172 200.46 327.88 200.648 327.545 200.648 C 327.059 200.648 326.665 200.254 326.665 199.768 C 326.665 199.575 326.727 199.396 326.833 199.251 Z " fill-rule="evenodd" fill="rgb(242,192,162)"/><path d=" M 338.72 199.251 L 339.175 198.521 C 342.758 192.705 346.436 186.96 350.22 181.284 C 353.461 176.432 356.798 171.641 360.231 166.928 L 360.678 166.315 C 360.829 166.046 361.116 165.865 361.446 165.865 C 361.932 165.865 362.326 166.259 362.326 166.745 C 362.326 166.933 362.267 167.108 362.166 167.252 L 362.167 167.253 L 361.65 167.962 C 358.226 172.657 354.906 177.421 351.683 182.256 C 347.908 187.914 344.238 193.642 340.664 199.432 L 340.209 200.185 L 340.208 200.184 C 340.059 200.46 339.768 200.648 339.432 200.648 C 338.947 200.648 338.552 200.254 338.552 199.768 C 338.552 199.575 338.615 199.396 338.72 199.251 Z " fill-rule="evenodd" fill="rgb(242,192,162)"/><path d=" M 350.607 199.251 L 351.062 198.521 C 354.645 192.705 358.323 186.96 362.107 181.284 C 365.348 176.432 368.685 171.641 372.118 166.928 L 372.565 166.315 C 372.716 166.046 373.003 165.865 373.333 165.865 C 373.819 165.865 374.213 166.259 374.213 166.745 C 374.213 166.933 374.154 167.108 374.053 167.252 L 374.054 167.253 L 373.537 167.962 C 370.113 172.657 366.793 177.421 363.57 182.256 C 359.795 187.914 356.125 193.642 352.551 199.432 L 352.096 200.185 L 352.095 200.184 C 351.946 200.46 351.655 200.648 351.319 200.648 C 350.834 200.648 350.439 200.254 350.439 199.768 C 350.439 199.575 350.502 199.396 350.607 199.251 Z " fill-rule="evenodd" fill="rgb(242,192,162)"/><path d=" M 362.494 199.251 L 362.95 198.521 C 366.532 192.705 370.211 186.96 373.994 181.284 C 377.235 176.432 380.572 171.641 384.005 166.928 L 384.452 166.315 C 384.603 166.046 384.891 165.865 385.22 165.865 C 385.706 165.865 386.101 166.259 386.101 166.745 C 386.101 166.933 386.041 167.108 385.94 167.252 L 385.941 167.253 L 385.424 167.962 C 382 172.657 378.68 177.421 375.457 182.256 C 371.682 187.914 368.012 193.642 364.439 199.432 L 363.983 200.185 L 363.982 200.184 C 363.833 200.46 363.542 200.648 363.207 200.648 C 362.721 200.648 362.326 200.254 362.326 199.768 C 362.326 199.575 362.389 199.396 362.494 199.251 Z " fill-rule="evenodd" fill="rgb(242,192,162)"/></g></g></g><g><path d=" M 283.916 525.181 C 284.006 524.428 284.053 523.66 284.053 522.881 L 284.053 477.17 L 304.191 493.952 C 307.714 496.888 312.958 496.411 315.894 492.888 L 315.894 492.888 C 318.83 489.365 318.353 484.121 314.83 481.185 L 284.053 455.538 L 284.053 440.923 C 296.822 434.103 305.518 420.643 305.518 405.168 C 305.518 382.811 287.368 364.661 265.011 364.661 C 242.655 364.661 224.504 382.811 224.504 405.168 C 224.504 420.643 233.201 434.103 245.969 440.923 L 245.969 455.538 L 215.192 481.185 C 211.669 484.121 211.193 489.365 214.129 492.888 L 214.129 492.888 C 217.064 496.411 222.308 496.888 225.831 493.952 L 245.969 477.17 L 245.969 522.881 C 245.969 524.272 246.119 525.627 246.461 526.911 C 246.223 527.338 246.043 527.806 245.904 528.296 L 230.046 584.256 C 228.795 588.669 231.362 593.266 235.775 594.516 L 235.775 594.516 C 240.187 595.767 244.784 593.2 246.034 588.787 L 259.541 541.125 C 261.274 541.644 263.11 541.923 265.011 541.923 L 265.011 541.923 C 267.224 541.923 269.35 541.545 271.326 540.849 L 282.667 588.756 C 283.723 593.218 288.204 595.984 292.666 594.927 L 292.666 594.927 C 297.129 593.871 299.894 589.39 298.838 584.928 L 285.44 528.328 C 285.159 527.14 284.635 526.073 283.916 525.181 Z " fill="rgb(193,74,94)" vector-effect="non-scaling-stroke" stroke-width="3" stroke="rgb(136,45,60)" stroke-linejoin="miter" stroke-linecap="square" stroke-miterlimit="3"/><path d=" M 248.394 424.556 C 242.399 418.56 232.122 420.055 231.888 405.168 C 231.601 386.888 246.731 372.043 265.013 372.043 C 283.295 372.043 298 386.887 298.137 405.168 C 298.25 420.055 287.627 418.56 281.631 424.556 C 278.449 431.848 284.291 438.08 265.013 438.293 C 245.734 438.505 250.795 430.875 248.394 424.556 Z " fill="rgb(235,235,235)"/><path d=" M 268.473 481.985 C 267.379 478.33 265.187 476.146 260.839 473.252 C 259.153 472.386 258 470.628 258 468.604 C 258 465.718 260.343 463.375 263.229 463.375 C 266.115 463.375 268.458 465.718 268.458 468.604 C 268.458 468.671 268.456 468.738 268.454 468.805 L 268.473 468.795 L 268.473 468.795 L 268.493 468.805 C 268.49 468.738 268.489 468.671 268.489 468.604 C 268.489 465.718 270.832 463.375 273.718 463.375 C 276.604 463.375 278.946 465.718 278.946 468.604 C 278.946 470.628 277.794 472.386 276.108 473.252 C 271.76 476.146 269.568 478.33 268.473 481.985 Z " fill="rgb(136,45,60)"/><circle vector-effect="non-scaling-stroke" cx="248.3944258242903" cy="403.4368935005259" r="10.039476576564923" fill="rgb(0,0,0)"/><circle vector-effect="non-scaling-stroke" cx="281.63115955548056" cy="403.4368935005259" r="10.039476576564937" fill="rgb(0,0,0)"/><circle vector-effect="non-scaling-stroke" cx="265.0112192137548" cy="505.9168225050273" r="13.907551707054992" fill="rgb(242,182,193)"/><path d=" M 265.011 496.128 Q 260.316 505.411 267.781 501.667 Q 283.404 499.996 273.32 505.917 Q 263.237 511.837 256.702 505.917 L 259.472 498.898 Q 263.497 494.332 259.472 498.898 C 255.447 503.463 250.081 506.752 253.932 509.977 C 257.784 513.201 273.104 506.839 267.781 512.746 C 262.458 518.654 257.07 518.026 259.472 515.516 C 261.874 513.006 259.19 501.516 265.011 504.437 C 270.832 507.358 273.385 508.397 270.551 512.746 C 267.716 517.096 279.985 512.655 276.09 505.917 C 272.195 499.179 271.351 486.455 267.781 496.128 C 264.211 505.8 263.973 505.129 262.241 501.667 C 260.51 498.205 250.081 497.145 253.932 501.667 C 257.784 506.19 266.872 522.592 267.781 518.286 C 268.69 513.98 257.546 518.134 262.241 512.746 C 266.937 507.358 273.775 507.553 270.551 504.437" fill="rgb(242,182,193)" vector-effect="non-scaling-stroke" stroke-width="3" stroke="rgb(136,45,60)" stroke-linejoin="miter" stroke-linecap="square" stroke-miterlimit="3"/><path d="M 265.011 434.477 L 265.011 434.477 C 266.54 434.477 267.781 435.718 267.781 437.247 L 267.781 452.719 C 267.781 454.247 266.54 455.488 265.011 455.488 L 265.011 455.488 C 263.483 455.488 262.241 454.247 262.241 452.719 L 262.241 437.247 C 262.241 435.718 263.483 434.477 265.011 434.477 Z" style="stroke:none;fill:#EBEBEB;stroke-miterlimit:10;"/><path d="M 220.74 487.25 L 220.74 487.25 C 221.229 487.837 222.103 487.917 222.691 487.429 L 246.767 467.4 C 247.355 466.911 247.435 466.038 246.946 465.45 L 246.946 465.45 C 246.457 464.862 245.583 464.782 244.996 465.271 L 220.919 485.299 C 220.332 485.788 220.252 486.662 220.74 487.25 Z" style="stroke:none;fill:#EBEBEB;stroke-miterlimit:10;"/><path d="M 238.384 586.237 L 238.384 586.237 C 239.118 586.448 239.916 585.918 240.164 585.056 L 252.24 542.995 C 252.488 542.133 252.092 541.261 251.358 541.05 L 251.358 541.05 C 250.623 540.839 249.826 541.368 249.578 542.231 L 237.502 584.291 C 237.254 585.154 237.649 586.026 238.384 586.237 Z" style="stroke:none;fill:#EBEBEB;stroke-miterlimit:10;"/><path d="M 290.554 586.287 L 290.554 586.287 C 289.811 586.468 289.036 585.906 288.823 585.034 L 278.463 542.519 C 278.251 541.647 278.681 540.792 279.423 540.611 L 279.423 540.611 C 280.166 540.43 280.942 540.991 281.154 541.863 L 291.514 584.379 C 291.727 585.251 291.296 586.106 290.554 586.287 Z" style="stroke:none;fill:#EBEBEB;stroke-miterlimit:10;"/><path d="M 308.919 487.25 L 308.919 487.25 C 308.43 487.837 307.556 487.917 306.968 487.429 L 282.892 467.4 C 282.305 466.911 282.224 466.038 282.713 465.45 L 282.713 465.45 C 283.202 464.862 284.076 464.782 284.663 465.271 L 308.74 485.299 C 309.327 485.788 309.407 486.662 308.919 487.25 Z" style="stroke:none;fill:#EBEBEB;stroke-miterlimit:10;"/></g><g><path d=" M 535.943 350.671 C 529.636 318.427 508.743 287.435 499.805 289.183 C 490.868 290.931 491.835 319.121 498.141 351.365 C 504.448 383.609 513.722 407.775 522.659 406.027 C 531.596 404.279 542.249 382.915 535.943 350.671 Z " fill="rgb(103,140,46)" vector-effect="non-scaling-stroke" stroke-width="5" stroke="rgb(32,38,23)" stroke-linejoin="miter" stroke-linecap="square" stroke-miterlimit="3"/><path d=" M 522.049 357.615 C 520.584 342.232 495.102 293.352 500.049 291.615 C 502.631 290.708 513.674 297.615 525.049 324.615 C 535.073 346.755 536.057 370.169 535.049 377.615 C 534.018 391.724 524.104 407.224 521.049 402.615 C 518.76 399.419 524.049 378.615 522.049 357.615 Z " fill="rgb(84,113,41)"/></g><path d=" M 536.81 309.194 C 540.638 324.735 526.88 322.775 511.339 326.603 C 495.798 330.431 484.321 338.606 480.493 323.065 C 476.665 307.524 486.175 291.799 501.716 287.971 C 517.257 284.143 532.982 293.653 536.81 309.194 Z " fill="rgb(171,200,201)" vector-effect="non-scaling-stroke" stroke-width="5" stroke="rgb(155,119,142)" stroke-linejoin="miter" stroke-linecap="square" stroke-miterlimit="3"/></g></svg>