<?xml version="1.0" encoding="UTF-8" standalone="no"?><!-- Generator: Gravit.io --><svg xmlns="http://www.w3.org/2000/svg" xmlns:xlink="http://www.w3.org/1999/xlink" style="isolation:isolate" viewBox="0 0 800 1200" width="800pt" height="1200pt"><defs><clipPath id="_clipPath_Sj9iznMDnQ6vUCvabk0QckNdUEq6RMsx"><rect width="800" height="1200"/></clipPath></defs><g clip-path="url(#_clipPath_Sj9iznMDnQ6vUCvabk0QckNdUEq6RMsx)"><g><path d=" M 145.046 1032 C 143.205 1014.649 169.139 992 200.046 992 C 230.953 992 261.046 1005.237 261.046 1016 C 261.046 1026.762 230.953 1046 200.046 1046 C 169.139 1046 146.562 1046.281 145.046 1032 Z " fill="rgb(103,140,46)" vector-effect="non-scaling-stroke" stroke-width="5" stroke="rgb(32,38,23)" stroke-linejoin="miter" stroke-linecap="square" stroke-miterlimit="3"/><path d=" M 150 1033.263 C 153 1024.156 181.194 1028.46 205 1024 C 232.304 1018.885 263.122 1007.129 258 1018 C 252.47 1029.737 226.688 1040.187 215 1042 C 185.205 1046.621 146.461 1044.005 150 1033.263 Z " fill="rgb(84,113,41)"/></g><g><path d=" M 124.935 665.35 C 137.178 634.862 163.513 608.339 171.964 611.732 C 180.415 615.126 174.178 642.634 161.935 673.122 C 149.693 703.611 136.051 725.609 127.6 722.216 C 119.149 718.822 112.693 695.839 124.935 665.35 Z " fill="rgb(103,140,46)" vector-effect="non-scaling-stroke" stroke-width="5" stroke="rgb(32,38,23)" stroke-linejoin="miter" stroke-linecap="square" stroke-miterlimit="3"/><path d=" M 146 678.882 C 155.048 659.656 168.256 615.767 173 618 C 175.476 619.165 170.308 648.484 159 675 C 153.299 688.368 146.718 701.543 141 710 C 136.328 716.909 131.02 720.48 130 720 C 125.256 717.767 136.952 698.108 146 678.882 Z " fill="rgb(84,113,41)"/></g><g><path d=" M 609.798 805.116 C 611.25 813.93 612 822.921 612 832.052 C 612 944.125 499.083 1035.115 360 1035.115 C 220.917 1035.115 108 944.125 108 832.052 L 108 832.052 C 108 807.139 113.58 783.267 123.795 761.208 C 130.118 742.943 164.934 656.841 187 541.606 C 195.926 494.991 191.498 481.135 210.531 424.991 C 223.714 369.217 287.007 326.885 363 326.885 C 425.814 326.885 479.952 355.808 504.301 397.332 C 549.279 457.815 561.845 489.832 573 545.606 C 583.998 600.596 594.19 673.89 603 742.606 Q 607.871 780.602 609.798 805.116 Z  M 502 396.606 M 506 404.606" fill-rule="evenodd" fill="rgb(163,166,83)" vector-effect="non-scaling-stroke" stroke-width="5" stroke="rgb(32,38,23)" stroke-linejoin="miter" stroke-linecap="square" stroke-miterlimit="3"/></g><g><path d=" M 591.02 793.032 C 592.363 801.198 593.056 809.53 593.056 817.992 C 593.056 921.845 488.627 1006.161 360 1006.161 C 231.373 1006.161 126.944 921.845 126.944 817.992 L 126.944 817.992 L 126.944 817.992 C 126.944 794.905 132.104 772.784 141.551 752.344 L 141.551 752.344 C 147.399 735.418 179.597 655.631 200.005 548.847 C 208.253 505.687 204.172 492.833 221.723 440.916 C 233.858 389.169 292.434 349.875 362.774 349.875 C 420.867 349.875 470.935 376.676 493.454 415.154 C 535.05 471.201 546.672 500.87 556.988 552.554 C 567.159 603.511 576.585 671.429 584.733 735.105 Q 589.238 770.315 591.02 793.032 Z  M 607.816 804.375 C 609.256 813.136 610 822.073 610 831.15 C 610 942.554 497.979 1033 360 1033 C 222.021 1033 110 942.554 110 831.15 L 110 831.15 C 110 806.385 115.536 782.656 125.669 760.729 C 131.943 742.573 166.482 656.985 188.373 542.438 C 197.228 496.101 192.835 482.329 211.718 426.52 C 224.796 371.079 287.587 329 362.976 329 C 425.292 329 479 357.75 503.156 399.026 C 547.777 459.147 560.243 490.973 571.31 546.414 C 582.22 601.076 592.332 673.932 601.071 742.238 Q 605.904 780.008 607.816 804.375 L 607.816 804.375 L 607.816 804.375 L 607.816 804.375 Z  M 500.873 398.304 M 504.841 406.256 M 491.325 414.481 M 495.025 421.895" fill-rule="evenodd" fill="rgb(134,136,81)"/></g><g><g><path d=" M 610.298 805.116 C 611.75 813.93 612.5 822.921 612.5 832.052 C 612.5 940.067 507.612 1028.498 375.5 1034.756 C 380.462 1034.995 385.464 1035.115 390.5 1035.115 C 529.583 1035.115 642.5 944.125 642.5 832.052 C 642.5 822.921 641.75 813.93 640.298 805.116 Q 638.371 780.602 633.5 742.606 C 624.69 673.89 614.498 600.596 603.5 545.606 C 592.345 489.832 579.779 457.815 534.801 397.332 C 510.452 355.808 456.314 326.885 393.5 326.885 C 388.425 326.885 383.406 327.074 378.462 327.461 C 434.681 331.613 482.166 359.009 504.594 397.056 C 549.742 457.719 562.329 489.749 573.5 545.606 C 584.498 600.596 594.69 673.89 603.5 742.606 Q 608.371 780.602 610.298 805.116 Z  M 532.5 396.606 M 536.5 404.606 M 502.5 396.606 M 506.5 404.606" fill-rule="evenodd" fill="rgb(103,140,46)" vector-effect="non-scaling-stroke" stroke-width="5" stroke="rgb(32,38,23)" stroke-linejoin="miter" stroke-linecap="square" stroke-miterlimit="3"/></g><g><path d=" M 623.736 805.116 C 625.194 813.93 625.946 822.921 625.946 832.052 C 625.946 942.238 516.378 1032.044 380 1035.027 C 382.332 1035.089 384.676 1035.115 387.027 1035.115 C 526.647 1035.115 640 944.125 640 832.052 C 640 822.921 639.248 813.93 637.79 805.116 Q 635.855 780.602 630.965 742.606 C 622.121 673.89 611.89 600.596 600.849 545.606 C 589.652 489.832 577.037 457.815 531.885 397.332 C 507.442 355.808 453.095 326.885 390.039 326.885 C 387.667 326.885 385.308 326.926 382.969 327.028 C 442.907 329.054 494.073 357.23 517.646 397.086 C 562.949 457.73 575.583 489.758 586.795 545.606 C 597.836 600.596 608.067 673.89 616.911 742.606 Q 621.801 780.602 623.736 805.116 Z  M 529.575 396.606 M 533.591 404.606 M 515.521 396.606 M 519.537 404.606" fill-rule="evenodd" fill="rgb(84,113,41)"/></g></g><g><path d=" M 225.554 836.148 C 240.411 759.213 325.251 673.298 389.582 686.318 C 501.593 708.987 493.601 809.506 478.744 886.441 C 463.887 963.376 386.393 975.373 321.949 962.928 C 257.505 950.483 210.697 913.083 225.554 836.148 Z " fill="rgb(147,91,58)" vector-effect="non-scaling-stroke" stroke-width="5" stroke="rgb(32,38,23)" stroke-linejoin="miter" stroke-linecap="square" stroke-miterlimit="3"/><path d=" M 262 770 C 299.239 709.642 376.129 696.378 382 700 C 387.871 703.622 329.239 728.642 292 789 C 254.761 849.358 249.871 890.622 244 887 C 238.129 883.378 224.761 830.358 262 770 Z " fill="rgb(185,134,104)"/><path d=" M 456.927 917.12 C 411.675 986.31 287.04 949.851 278.927 941 C 273.427 935 378.531 951.103 413.927 900.12 C 468.427 821.62 452.422 736.799 460.927 736.12 C 476.387 734.887 494.137 860.227 456.927 917.12 Z " fill="rgb(102,64,42)"/><path d=" M 299.001 772.324 C 308.579 755.548 350.023 723.195 352 724.324 C 353.977 725.453 313.579 757.92 304.001 774.696 C 294.423 791.471 274.53 829.669 273.001 829 C 269.001 827.25 289.423 789.099 299.001 772.324 Z " fill="rgb(255,255,255)"/></g><g><path d=" M 486.5 1030 C 486.5 1013.994 518.489 991 550.5 991 C 582.511 991 613.5 1013.994 613.5 1030 C 613.5 1046.006 587.511 1047 555.5 1047 C 523.489 1047 486.5 1046.006 486.5 1030 Z " fill="rgb(103,140,46)" vector-effect="non-scaling-stroke" stroke-width="5" stroke="rgb(32,38,23)" stroke-linejoin="miter" stroke-linecap="square" stroke-miterlimit="3"/><path d=" M 489.015 1032.906 C 487.729 1025.562 521.293 1029.149 547.015 1024.906 C 578.084 1019.781 609.727 1023.445 610.015 1031.906 C 610.132 1035.353 608.962 1041.302 586.015 1043.906 C 576.816 1044.95 565.011 1045.151 547.015 1044.906 C 501.077 1044.281 490.038 1038.749 489.015 1032.906 Z " fill="rgb(84,113,41)"/></g><g><circle vector-effect="non-scaling-stroke" cx="290" cy="442.6666666666665" r="39.33333333333336" fill="rgb(255,255,255)" stroke-width="3" stroke="rgb(0,0,0)" stroke-linejoin="miter" stroke-linecap="square" stroke-miterlimit="3"/><circle vector-effect="non-scaling-stroke" cx="290" cy="442.6666666666665" r="28.666666666666742" fill="rgb(0,0,0)"/><path d=" M 296.681 435.906 C 291.459 430.591 289.457 424.078 292.213 421.37 C 294.969 418.663 301.446 420.779 306.668 426.094 C 311.89 431.409 313.892 437.922 311.136 440.63 C 308.38 443.337 301.903 441.221 296.681 435.906 Z " fill="rgb(255,255,255)"/><path d=" M 275.755 457.946 C 268.269 451.454 266.057 441.728 270.817 436.239 C 275.578 430.75 285.519 431.563 293.004 438.054 C 300.49 444.546 302.702 454.272 297.942 459.761 C 293.182 465.25 283.24 464.437 275.755 457.946 Z " fill="rgb(255,255,255)"/><circle vector-effect="non-scaling-stroke" cx="284.00630641896146" cy="425.99999999999983" r="5.32702691437197" fill="rgb(255,255,255)"/></g><path d=" M 190.635 651.911 C 182.309 665.58 174.001 654.44 160.331 646.115 C 146.662 637.789 132.773 635.411 141.099 621.741 C 149.424 608.072 167.281 603.733 180.951 612.058 C 194.621 620.383 198.96 638.241 190.635 651.911 Z " fill="rgb(252,240,248)" vector-effect="non-scaling-stroke" stroke-width="5" stroke="rgb(155,119,142)" stroke-linejoin="miter" stroke-linecap="square" stroke-miterlimit="3"/><g><circle vector-effect="non-scaling-stroke" cx="415" cy="442.6666666666665" r="39.33333333333337" fill="rgb(255,255,255)" stroke-width="3" stroke="rgb(0,0,0)" stroke-linejoin="miter" stroke-linecap="square" stroke-miterlimit="3"/><circle vector-effect="non-scaling-stroke" cx="415.00000000000006" cy="442.66666666666663" r="28.666666666666742" fill="rgb(0,0,0)"/><path d=" M 421.681 435.906 C 416.459 430.591 414.457 424.078 417.213 421.37 C 419.969 418.663 426.446 420.779 431.668 426.094 C 436.89 431.409 438.892 437.922 436.136 440.63 C 433.38 443.337 426.903 441.221 421.681 435.906 Z " fill="rgb(255,255,255)"/><path d=" M 400.755 457.946 C 393.269 451.454 391.057 441.728 395.817 436.239 C 400.578 430.75 410.519 431.563 418.004 438.054 C 425.49 444.546 427.702 454.272 422.942 459.761 C 418.182 465.25 408.24 464.437 400.755 457.946 Z " fill="rgb(255,255,255)"/><circle vector-effect="non-scaling-stroke" cx="409.00630641896134" cy="425.9999999999999" r="5.32702691437197" fill="rgb(255,255,255)"/></g><g><path d=" M 328 525 C 326.12 520.771 321.5 512.25 326 507 C 330.5 503 341.615 501.381 349.549 501.381 C 365.416 501.381 370.75 503 373 512 C 375.156 520.625 372.868 537 357 537 C 341.132 537 332 534 328 525 Z " fill="rgb(221,163,184)" vector-effect="non-scaling-stroke" stroke-width="3" stroke="rgb(32,38,23)" stroke-linejoin="miter" stroke-linecap="square" stroke-miterlimit="3"/><path d=" M 360.227 652.273 C 471.333 654 513 587.5 577.273 585.227 C 592.564 578.033 597.321 571.306 606 572 C 614.679 572.694 622.148 576.063 625 645.455 C 628.547 731.756 650.893 780.472 637.5 876.136 C 629.545 932.955 489.773 960.227 360.227 956.818 C 230.682 953.409 168.045 938.545 117.045 892.045 C 77.233 822.483 169.333 585.333 179.333 586 C 210.667 590.667 249.121 650.545 360.227 652.273 Z " fill="rgb(252,240,248)" vector-effect="non-scaling-stroke" stroke-width="5" stroke="rgb(155,119,142)" stroke-linejoin="miter" stroke-linecap="square" stroke-miterlimit="3"/><path d=" M 310.75 649.25 C 338.5 652.5 363.5 656 379.617 654.398 C 400.5 653.5 428.8 647.511 452 639 C 494.5 621 528.25 599.5 550.75 592.438 C 561.846 588.562 572.184 586.645 577.75 587.5 C 593.673 581.298 603.635 570.082 611.25 577.25 C 618.865 584.418 623.307 622.964 626 695.333 C 641.826 789.285 642.771 854.259 633.333 881 C 618.667 932.333 487.651 953.286 406.969 954.422 C 326.287 955.558 249.473 947.925 220.25 939.402 C 206.875 905.188 208.625 842.839 208.625 762.839 C 208.625 682.839 231 660.5 245 626.5 C 253.5 631 277.5 642.75 310.75 649.25 Z " fill="rgb(242,225,236)"/><path d=" M 558.921 933.975 C 598.171 915.975 626.921 904.725 633.535 880.975 C 633.741 879.919 633.928 878.814 634.097 877.661 C 649 811.5 636 770.5 626 690.667 C 623.623 622.876 619.625 576.125 607.711 574.805 C 600.469 572.555 595.688 578.602 577.828 587.578 C 573.188 586.336 584.807 654.536 592.989 753.506 Q 601.171 852.475 558.921 933.975 Z " fill="rgb(171,200,201)"/><path d=" M 463.865 681.777 C 454.759 681.777 470.625 735.127 470.625 800.839 C 470.625 866.552 454.759 919.902 463.865 919.902 C 472.972 919.902 490.86 866.552 490.86 800.839 C 490.86 735.127 472.972 681.777 463.865 681.777 Z " fill="rgb(171,200,201)"/><g><g><path d=" M 206.857 518.636 L 207.312 517.906 C 210.894 512.091 214.573 506.345 218.356 500.669 C 221.597 495.817 224.934 491.026 228.368 486.314 L 228.814 485.701 C 228.965 485.432 229.253 485.25 229.583 485.25 C 230.068 485.25 230.463 485.644 230.463 486.13 C 230.463 486.319 230.403 486.494 230.302 486.637 L 230.303 486.638 L 229.786 487.347 C 226.362 492.042 223.042 496.807 219.819 501.642 C 216.044 507.3 212.374 513.028 208.801 518.817 L 208.345 519.571 L 208.344 519.57 C 208.195 519.846 207.904 520.034 207.569 520.034 C 207.083 520.034 206.688 519.639 206.688 519.154 C 206.688 518.96 206.751 518.782 206.857 518.636 Z " fill-rule="evenodd" fill="rgb(242,192,162)"/><path d=" M 218.744 518.636 L 219.199 517.906 C 222.781 512.091 226.46 506.345 230.243 500.669 C 233.484 495.817 236.821 491.026 240.255 486.314 L 240.701 485.701 C 240.852 485.432 241.14 485.25 241.47 485.25 C 241.955 485.25 242.35 485.644 242.35 486.13 C 242.35 486.319 242.29 486.494 242.189 486.637 L 242.19 486.638 L 241.674 487.347 C 238.249 492.042 234.929 496.807 231.706 501.642 C 227.931 507.3 224.261 513.028 220.688 518.817 L 220.232 519.571 L 220.231 519.57 C 220.083 519.846 219.791 520.034 219.456 520.034 C 218.97 520.034 218.576 519.639 218.576 519.154 C 218.576 518.96 218.638 518.782 218.744 518.636 Z " fill-rule="evenodd" fill="rgb(242,192,162)"/><path d=" M 230.631 518.636 L 231.086 517.906 C 234.668 512.091 238.347 506.345 242.131 500.669 C 245.371 495.817 248.708 491.026 252.142 486.314 L 252.588 485.701 C 252.739 485.432 253.027 485.25 253.357 485.25 C 253.842 485.25 254.237 485.644 254.237 486.13 C 254.237 486.319 254.177 486.494 254.076 486.637 L 254.077 486.638 L 253.561 487.347 C 250.136 492.042 246.816 496.807 243.593 501.642 C 239.818 507.3 236.148 513.028 232.575 518.817 L 232.119 519.571 L 232.118 519.57 C 231.97 519.846 231.678 520.034 231.343 520.034 C 230.857 520.034 230.463 519.639 230.463 519.154 C 230.463 518.96 230.525 518.782 230.631 518.636 Z " fill-rule="evenodd" fill="rgb(242,192,162)"/><path d=" M 242.518 518.636 L 242.973 517.906 C 246.555 512.091 250.234 506.345 254.018 500.669 C 257.258 495.817 260.595 491.026 264.029 486.314 L 264.475 485.701 C 264.626 485.432 264.914 485.25 265.244 485.25 C 265.73 485.25 266.124 485.644 266.124 486.13 C 266.124 486.319 266.064 486.494 265.963 486.637 L 265.964 486.638 L 265.448 487.347 C 262.023 492.042 258.704 496.807 255.48 501.642 C 251.705 507.3 248.035 513.028 244.462 518.817 L 244.006 519.571 L 244.005 519.57 C 243.857 519.846 243.565 520.034 243.23 520.034 C 242.744 520.034 242.35 519.639 242.35 519.154 C 242.35 518.96 242.412 518.782 242.518 518.636 Z " fill-rule="evenodd" fill="rgb(242,192,162)"/></g><g><path d=" M 424.784 518.636 L 425.239 517.906 C 428.821 512.091 432.5 506.345 436.284 500.669 C 439.524 495.817 442.861 491.026 446.295 486.314 L 446.741 485.701 C 446.892 485.432 447.18 485.25 447.51 485.25 C 447.995 485.25 448.39 485.644 448.39 486.13 C 448.39 486.319 448.33 486.494 448.229 486.637 L 448.23 486.638 L 447.714 487.347 C 444.289 492.042 440.969 496.807 437.746 501.642 C 433.971 507.3 430.301 513.028 426.728 518.817 L 426.272 519.571 L 426.271 519.57 C 426.123 519.846 425.831 520.034 425.496 520.034 C 425.01 520.034 424.616 519.639 424.616 519.154 C 424.616 518.96 424.678 518.782 424.784 518.636 Z " fill-rule="evenodd" fill="rgb(242,192,162)"/><path d=" M 436.671 518.636 L 437.126 517.906 C 440.708 512.091 444.387 506.345 448.171 500.669 C 451.411 495.817 454.748 491.026 458.182 486.314 L 458.628 485.701 C 458.779 485.432 459.067 485.25 459.397 485.25 C 459.882 485.25 460.277 485.644 460.277 486.13 C 460.277 486.319 460.217 486.494 460.116 486.637 L 460.117 486.638 L 459.601 487.347 C 456.176 492.042 452.856 496.807 449.633 501.642 C 445.858 507.3 442.188 513.028 438.615 518.817 L 438.159 519.571 L 438.158 519.57 C 438.01 519.846 437.718 520.034 437.383 520.034 C 436.897 520.034 436.503 519.639 436.503 519.154 C 436.503 518.96 436.565 518.782 436.671 518.636 Z " fill-rule="evenodd" fill="rgb(242,192,162)"/><path d=" M 448.558 518.636 L 449.013 517.906 C 452.595 512.091 456.274 506.345 460.058 500.669 C 463.298 495.817 466.635 491.026 470.069 486.314 L 470.516 485.701 C 470.666 485.432 470.954 485.25 471.284 485.25 C 471.77 485.25 472.164 485.644 472.164 486.13 C 472.164 486.319 472.104 486.494 472.003 486.637 L 472.005 486.638 L 471.488 487.347 C 468.063 492.042 464.744 496.807 461.52 501.642 C 457.745 507.3 454.076 513.028 450.502 518.817 L 450.047 519.571 L 450.045 519.57 C 449.897 519.846 449.605 520.034 449.27 520.034 C 448.784 520.034 448.39 519.639 448.39 519.154 C 448.39 518.96 448.452 518.782 448.558 518.636 Z " fill-rule="evenodd" fill="rgb(242,192,162)"/><path d=" M 460.445 518.636 L 460.9 517.906 C 464.482 512.091 468.161 506.345 471.945 500.669 C 475.185 495.817 478.523 491.026 481.956 486.314 L 482.403 485.701 C 482.553 485.432 482.841 485.25 483.171 485.25 C 483.657 485.25 484.051 485.644 484.051 486.13 C 484.051 486.319 483.992 486.494 483.89 486.637 L 483.892 486.638 L 483.375 487.347 C 479.95 492.042 476.631 496.807 473.407 501.642 C 469.632 507.3 465.963 513.028 462.389 518.817 L 461.934 519.571 L 461.932 519.57 C 461.784 519.846 461.492 520.034 461.157 520.034 C 460.671 520.034 460.277 519.639 460.277 519.154 C 460.277 518.96 460.339 518.782 460.445 518.636 Z " fill-rule="evenodd" fill="rgb(242,192,162)"/></g></g></g><g><path d=" M 633.893 670.056 C 627.586 637.812 606.693 606.821 597.756 608.569 C 588.819 610.317 589.785 638.506 596.092 670.75 C 602.399 702.994 611.672 727.161 620.61 725.413 C 629.547 723.665 640.2 702.3 633.893 670.056 Z " fill="rgb(103,140,46)" vector-effect="non-scaling-stroke" stroke-width="5" stroke="rgb(32,38,23)" stroke-linejoin="miter" stroke-linecap="square" stroke-miterlimit="3"/><path d=" M 620 677 C 618.535 661.617 593.053 612.737 598 611 C 600.582 610.093 611.625 617 623 644 C 633.023 666.141 634.008 689.555 633 697 C 631.969 711.109 622.055 726.609 619 722 C 616.711 718.805 622 698 620 677 Z " fill="rgb(84,113,41)"/></g><g><path d=" M 370.866 842.567 C 370.957 841.813 371.004 841.046 371.004 840.267 L 371.004 794.556 L 391.142 811.338 C 394.665 814.273 399.909 813.797 402.844 810.274 L 402.844 810.274 C 405.78 806.751 405.304 801.507 401.78 798.571 L 371.004 772.924 L 371.004 758.309 C 383.772 751.489 392.469 738.029 392.469 722.553 C 392.469 700.197 374.318 682.046 351.962 682.046 C 329.605 682.046 311.454 700.197 311.454 722.553 C 311.454 738.029 320.151 751.489 332.92 758.309 L 332.92 772.924 L 302.143 798.571 C 298.62 801.507 298.143 806.751 301.079 810.274 L 301.079 810.274 C 304.015 813.797 309.259 814.273 312.782 811.338 L 332.92 794.556 L 332.92 840.267 C 332.92 841.657 333.069 843.013 333.412 844.297 C 333.174 844.724 332.994 845.191 332.855 845.681 L 316.996 901.642 C 315.746 906.054 318.313 910.651 322.725 911.902 L 322.725 911.902 C 327.137 913.152 331.735 910.585 332.985 906.173 L 346.492 858.51 C 348.225 859.03 350.061 859.309 351.962 859.309 L 351.962 859.309 C 354.175 859.309 356.3 858.93 358.277 858.235 L 369.617 906.141 C 370.673 910.604 375.154 913.369 379.617 912.313 L 379.617 912.313 C 384.079 911.256 386.845 906.776 385.788 902.313 L 372.39 845.713 C 372.109 844.526 371.586 843.458 370.866 842.567 Z " fill="rgb(193,74,94)" vector-effect="non-scaling-stroke" stroke-width="3" stroke="rgb(136,45,60)" stroke-linejoin="miter" stroke-linecap="square" stroke-miterlimit="3"/><path d=" M 335.345 741.942 C 329.349 735.946 319.073 737.441 318.839 722.553 C 318.551 704.274 333.681 689.429 351.963 689.429 C 370.245 689.429 384.95 704.272 385.088 722.553 C 385.2 737.441 374.578 735.946 368.582 741.942 C 365.399 749.234 371.242 755.466 351.963 755.678 C 332.685 755.89 337.745 748.26 335.345 741.942 Z " fill="rgb(235,235,235)"/><path d=" M 355.424 799.37 C 354.33 795.716 352.137 793.532 347.79 790.637 C 346.104 789.771 344.951 788.014 344.951 785.99 C 344.951 783.104 347.294 780.761 350.18 780.761 C 353.065 780.761 355.408 783.104 355.408 785.99 C 355.408 786.057 355.407 786.124 355.404 786.191 L 355.424 786.18 L 355.424 786.18 L 355.443 786.191 C 355.441 786.124 355.44 786.057 355.44 785.99 C 355.44 783.104 357.782 780.761 360.668 780.761 C 363.554 780.761 365.897 783.104 365.897 785.99 C 365.897 788.014 364.744 789.771 363.058 790.637 C 358.711 793.532 356.518 795.716 355.424 799.37 Z " fill="rgb(136,45,60)"/><circle vector-effect="non-scaling-stroke" cx="335.34493690220063" cy="720.8223545879459" r="10.039476576564937" fill="rgb(0,0,0)"/><circle vector-effect="non-scaling-stroke" cx="368.5816706333909" cy="720.8223545879459" r="10.039476576564937" fill="rgb(0,0,0)"/><circle vector-effect="non-scaling-stroke" cx="351.96173029166516" cy="823.3022835924473" r="13.907551707055006" fill="rgb(242,182,193)"/><path d=" M 351.962 813.513 Q 347.266 822.796 354.731 819.053 Q 370.354 817.382 360.271 823.302 Q 350.187 829.223 343.653 823.302 L 346.422 816.283 Q 350.447 811.717 346.422 816.283 C 342.398 820.849 337.031 824.138 340.883 827.362 C 344.734 830.586 360.055 824.224 354.731 830.132 C 349.408 836.039 344.02 835.411 346.422 832.901 C 348.824 830.391 346.141 818.901 351.962 821.823 C 357.782 824.744 360.336 825.782 357.501 830.132 C 354.667 834.481 366.936 830.04 363.041 823.302 C 359.146 816.564 358.302 803.841 354.731 813.513 C 351.161 823.186 350.923 822.515 349.192 819.053 C 347.461 815.591 337.031 814.53 340.883 819.053 C 344.734 823.575 353.823 839.977 354.731 835.671 C 355.64 831.365 344.496 835.52 349.192 830.132 C 353.888 824.744 360.725 824.938 357.501 821.823" fill="rgb(242,182,193)" vector-effect="non-scaling-stroke" stroke-width="3" stroke="rgb(136,45,60)" stroke-linejoin="miter" stroke-linecap="square" stroke-miterlimit="3"/><path d="M 351.962 751.863 L 351.962 751.863 C 353.49 751.863 354.731 753.104 354.731 754.632 L 354.731 770.104 C 354.731 771.633 353.49 772.874 351.962 772.874 L 351.962 772.874 C 350.433 772.874 349.192 771.633 349.192 770.104 L 349.192 754.632 C 349.192 753.104 350.433 751.863 351.962 751.863 Z" style="stroke:none;fill:#EBEBEB;stroke-miterlimit:10;"/><path d="M 307.691 804.635 L 307.691 804.635 C 308.18 805.223 309.054 805.303 309.641 804.814 L 333.717 784.786 C 334.305 784.297 334.385 783.423 333.896 782.835 L 333.896 782.835 C 333.408 782.248 332.534 782.168 331.946 782.656 L 307.87 802.685 C 307.282 803.173 307.202 804.047 307.691 804.635 Z" style="stroke:none;fill:#EBEBEB;stroke-miterlimit:10;"/><path d="M 325.334 903.622 L 325.334 903.622 C 326.069 903.833 326.867 903.304 327.114 902.441 L 339.19 860.381 C 339.438 859.518 339.043 858.646 338.308 858.435 L 338.308 858.435 C 337.574 858.225 336.776 858.754 336.528 859.616 L 324.452 901.677 C 324.204 902.54 324.6 903.411 325.334 903.622 Z" style="stroke:none;fill:#EBEBEB;stroke-miterlimit:10;"/><path d="M 377.504 903.672 L 377.504 903.672 C 376.762 903.853 375.986 903.292 375.774 902.42 L 365.414 859.904 C 365.201 859.032 365.631 858.177 366.374 857.996 L 366.374 857.996 C 367.117 857.815 367.892 858.376 368.105 859.248 L 378.465 901.764 C 378.677 902.636 378.247 903.491 377.504 903.672 Z" style="stroke:none;fill:#EBEBEB;stroke-miterlimit:10;"/><path d="M 395.869 804.635 L 395.869 804.635 C 395.38 805.223 394.506 805.303 393.919 804.814 L 369.843 784.786 C 369.255 784.297 369.175 783.423 369.664 782.835 L 369.664 782.835 C 370.152 782.248 371.026 782.168 371.614 782.656 L 395.69 802.685 C 396.278 803.173 396.358 804.047 395.869 804.635 Z" style="stroke:none;fill:#EBEBEB;stroke-miterlimit:10;"/></g><path d=" M 634.761 628.579 C 638.589 644.12 624.83 642.161 609.289 645.989 C 593.748 649.817 582.272 657.992 578.444 642.451 C 574.616 626.91 584.125 611.185 599.666 607.357 C 615.207 603.529 630.933 613.038 634.761 628.579 Z " fill="rgb(171,200,201)" vector-effect="non-scaling-stroke" stroke-width="5" stroke="rgb(155,119,142)" stroke-linejoin="miter" stroke-linecap="square" stroke-miterlimit="3"/><path d=" M 579.75 635.375 C 579.125 628 584.75 620 588.75 616.25 C 593.082 612.188 608 636.588 608 643.625 C 601.875 645.25 595.083 648.875 588.75 648.875 C 581.75 649.625 580.333 642.255 579.75 635.375 Z " fill="rgb(235,235,235)"/></g></svg>