<?xml version="1.0" encoding="UTF-8" standalone="no"?><!-- Generator: Gravit.io --><svg xmlns="http://www.w3.org/2000/svg" xmlns:xlink="http://www.w3.org/1999/xlink" style="isolation:isolate" viewBox="0 0 1200 800" width="1200pt" height="800pt"><defs><clipPath id="_clipPath_rfD34k2mhu8m5WltlpIVULe39Qzn8bEO"><rect width="1200" height="800"/></clipPath></defs><g clip-path="url(#_clipPath_rfD34k2mhu8m5WltlpIVULe39Qzn8bEO)"><rect width="1200" height="800" style="fill:rgb(221,218,218)" fill-opacity="0"/><g><path d=" M 814.731 204 C 837.802 216.171 855.874 233.171 871.089 257.094 Q 890.964 288.344 899.089 328.094 Q 241.291 358.945 269.813 327.75 C 298.484 296.391 315.9 278.163 344 267.333 C 376 255 408.208 255.958 439.333 260.333 Q 470.458 264.708 514.089 264.171 Q 529.964 244.469 545.089 232.094 C 552.802 225.784 573.192 214.217 596.249 204 L 814.731 204 L 814.731 204 Z " fill="rgb(103,140,46)" vector-effect="non-scaling-stroke" stroke-width="5" stroke="rgb(32,38,23)" stroke-linejoin="miter" stroke-linecap="square" stroke-miterlimit="3"/><path d=" M 681.609 201.738 C 676.673 201.88 672.115 202.152 667.875 202.5 C 630.961 205.529 567.375 235.125 551.25 247.875 Q 535.957 259.967 514.667 287.333 Q 474 278 447.743 275.683 C 416.693 271.318 372.546 268.129 342 277.333 Q 319.875 284 300.364 299.788 C 297.757 301.897 297.591 301.71 299.994 299.371 Q 312.125 287.563 327.92 277.893 C 335.167 273.595 343.722 270.494 350.273 267.773 C 355.527 265.592 371.883 261.256 391.375 260.125 C 407.272 259.203 425.505 261.008 439.453 262.969 Q 470.504 267.333 514.583 266.821 Q 530.42 247.166 545.509 234.82 C 554.647 227.344 581.621 212.472 609.676 201.24 L 681.609 201.738 L 722.128 202.018 L 805.957 202.598 C 833.129 214.942 853.719 233.014 870.73 259.761 Q 880.91 275.767 888 294.008 Q 883.731 285.571 878.711 277.678 C 858.884 246.502 834.193 227.111 799.9 214.828 C 779.176 207.405 750.033 203.425 722.128 202.018 L 681.609 201.738 L 681.609 201.738 Z " fill="rgb(84,113,41)"/></g><g><path d=" M 905.694 371.364 C 899.545 335.818 884.753 299.431 893.857 297.856 C 902.96 296.281 932.533 330.111 938.683 365.657 C 944.832 401.203 938.493 423.086 929.39 424.661 C 920.286 426.236 911.844 406.911 905.694 371.364 Z " fill="rgb(103,140,46)" vector-effect="non-scaling-stroke" stroke-width="5" stroke="rgb(32,38,23)" stroke-linejoin="miter" stroke-linecap="square" stroke-miterlimit="3"/><path d=" M 916.362 321.403 C 922.824 326.938 932.823 346.621 936.375 367.75 C 941.291 396.994 936.961 421.382 929.477 422.677 C 924.093 423.608 918.99 415.648 914.667 400.241 C 916.474 402.021 918.337 402.761 920.233 402.433 C 927.968 401.095 933.354 382.503 928.129 352.302 C 926.234 341.349 921.722 330.588 916.362 321.403 Z " fill-rule="evenodd" fill="rgb(84,113,41)"/></g><g><path d=" M 819.75 603.25 C 819.75 592.143 842.512 571.03 883 574.5 C 909.25 576.75 964.25 580.5 961.25 596.75 C 959.204 607.835 928.882 612.25 896.75 612.25 C 864.618 612.25 819.75 614.357 819.75 603.25 Z " fill="rgb(103,140,46)" vector-effect="non-scaling-stroke" stroke-width="5" stroke="rgb(32,38,23)" stroke-linejoin="miter" stroke-linecap="square" stroke-miterlimit="3"/><path d=" M 822.671 601.89 C 822.429 602.229 822.311 602.483 822.297 602.656 C 821.547 611.797 873.202 609.582 901.697 609.582 C 930.191 609.582 957.081 605.666 958.895 595.836 C 960.231 588.601 947.719 584.89 931.956 582.748 C 934.284 584.656 935.422 586.858 934.952 589.407 C 933.137 599.237 906.248 603.152 877.753 603.152 C 859.554 603.152 836.748 603.914 822.671 601.89 Z " fill-rule="evenodd" fill="rgb(84,113,41)"/></g><g><g><path d=" M 308.941 532.355 C 312.479 541.19 313.481 570.494 320.141 573.219 C 326.8 575.943 333.856 563.816 344.148 556.854 C 354.439 549.892 361.307 546.582 367.058 550.214 C 372.809 553.846 389.289 567.947 386.733 574.429 C 384.33 580.521 350.958 598.909 337.999 605.001 C 325.333 610.955 317.416 615.936 305.668 613.382 C 294.636 610.984 289.663 609.636 285.634 579.272 C 281.649 549.242 281.057 536.411 283.364 528.25 C 285.577 520.418 305.366 523.426 308.941 532.355 Z " fill="rgb(103,140,46)" vector-effect="non-scaling-stroke" stroke-width="5" stroke="rgb(32,38,23)" stroke-linejoin="miter" stroke-linecap="square" stroke-miterlimit="3"/><path d=" M 380.293 565.475 C 383.346 568.395 384.535 572.231 384.047 573.469 C 381.842 579.059 348.142 597.937 336.249 603.527 C 324.626 608.991 317.361 613.562 306.58 611.218 C 296.455 609.017 291.892 607.781 288.194 579.916 C 284.537 552.358 283.633 537.224 285.75 529.734 C 286.215 528.087 287.566 527.116 289.382 526.711 C 289.125 534.489 290.17 545.949 292.668 564.775 C 296.366 592.639 300.929 593.875 311.053 596.076 C 321.834 598.42 329.099 593.849 340.723 588.385 C 349.974 584.037 370.56 572.86 380.293 565.475 Z " fill-rule="evenodd" fill="rgb(84,113,41)"/></g><path d=" M 325.371 586.121 L 325.04 583.97 L 324.94 583.25 C 324.93 583.25 324.93 583.24 324.93 583.23 C 324.83 582.49 324.7 581.75 324.56 581.02 C 324.45 580.44 324.3 579.88 324.11 579.33 C 323.921 578.809 323.7 578.312 323.428 577.841 C 323.318 578.255 323.164 578.657 322.98 579.05 C 322.57 579.94 322.09 580.8 321.56 581.63 C 321.31 582.03 321.07 582.44 320.84 582.85 L 319.648 584.962 C 319.269 585.861 318.38 586.492 317.344 586.492 C 315.964 586.492 314.844 585.372 314.844 583.992 C 314.844 583.474 315.002 582.992 315.272 582.593 L 315.25 582.58 L 316.48 580.4 C 316.75 579.91 317.04 579.43 317.33 578.95 C 317.75 578.31 318.12 577.64 318.45 576.94 C 318.68 576.44 318.81 575.9 318.83 575.34 L 318.92 572.85 L 321.226 572.933 L 324.26 570.52 L 325.82 572.48 C 326.49 573.32 327.1 574.22 327.65 575.15 C 328.12 575.95 328.51 576.79 328.82 577.66 C 329.1 578.45 329.32 579.26 329.48 580.08 C 329.63 580.89 329.76 581.7 329.88 582.51 L 329.99 583.22 L 330.307 585.338 C 330.32 585.403 330.329 585.468 330.337 585.534 L 330.36 585.69 L 330.349 585.692 C 330.351 585.73 330.352 585.769 330.352 585.809 C 330.352 587.188 329.231 588.309 327.852 588.309 C 326.689 588.309 325.711 587.514 325.432 586.438 L 325.42 586.44 L 325.393 586.261 C 325.384 586.215 325.377 586.168 325.371 586.121 Z " fill-rule="evenodd" fill="rgb(32,38,23)"/></g><path d=" M 380.33 588.968 C 370.059 601.243 363.505 588.988 351.23 578.717 C 338.955 568.445 325.577 564.022 335.848 551.747 C 346.119 539.472 364.424 537.845 376.699 548.117 C 388.974 558.388 390.601 576.693 380.33 588.968 Z " fill="rgb(171,200,201)" vector-effect="non-scaling-stroke" stroke-width="5" stroke="rgb(176,150,167)" stroke-linejoin="miter" stroke-linecap="square" stroke-miterlimit="3"/><path d=" M 517.864 311.409 C 454.645 293.549 381.681 273.491 317.109 296.418 C 229.166 327.643 212.369 441.844 275.449 505.17 C 374.784 604.894 526.964 617.729 659.545 619.095 C 735.908 619.882 831.101 633.521 880.093 561.101 C 930.152 487.103 934.884 328.614 862.188 266.486 C 775.393 192.308 574.313 198.105 517.864 311.409 L 517.864 311.409 L 517.864 311.409 Z  M 517.864 311.409 C 531.066 314.283 544.346 316.992 557.112 321.501 L 557.112 321.501 L 557.112 321.501" fill-rule="evenodd" fill="rgb(163,166,83)" vector-effect="non-scaling-stroke" stroke-width="5" stroke="rgb(32,38,23)" stroke-linejoin="miter" stroke-linecap="square" stroke-miterlimit="3"/><g><path d=" M 519.988 313.704 C 519.867 313.677 519.746 313.651 519.625 313.625 L 519.625 313.625 L 519.625 313.625 L 519.983 313.719 L 519.988 313.704 Z  M 520.83 329.944 C 520.798 330.005 520.767 330.066 520.737 330.128 L 520.737 330.128 L 520.737 330.128 L 520.737 330.128 C 463.111 313.894 396.602 295.662 337.742 316.502 C 257.579 344.884 242.268 448.689 299.767 506.251 C 390.314 596.896 529.032 608.563 649.884 609.805 C 719.491 610.52 806.263 622.917 850.921 557.09 C 896.551 489.828 900.865 345.767 834.6 289.294 C 761.867 227.309 601.092 226.761 535.654 307.104 L 535.654 307.104 L 560.454 314.382 C 563.928 315.401 565.917 319.049 564.892 322.522 L 561.187 335.077 C 560.162 338.55 556.509 340.541 553.035 339.522 L 521.905 330.386 C 521.524 330.275 521.161 330.131 520.83 329.944 Z  M 518.223 313.444 C 455.327 295.725 382.736 275.826 318.493 298.571 C 230.999 329.549 214.172 441.703 279.492 505.336 C 378.32 604.271 527.533 615.332 659.438 616.687 C 735.411 617.468 828.196 632.66 876.937 560.812 C 926.741 487.399 933.116 330.513 860.791 268.876 C 774.438 195.284 574.385 201.035 518.223 313.444 L 518.223 313.444 L 518.223 313.444 L 518.223 313.444 L 518.223 313.444 L 518.223 313.444 Z " fill-rule="evenodd" fill="rgb(134,136,81)"/><g><path d=" M 557.95 321.123 L 555.697 320.187 C 555.517 320.117 555.337 320.047 555.157 319.987 C 554.587 319.787 554.017 319.587 553.457 319.397 C 551.197 318.647 548.937 317.917 546.667 317.197 C 537.587 314.307 528.507 311.437 519.417 308.587 L 517.037 307.837 L 515.537 312.607 L 517.927 313.357 C 527.007 316.207 536.087 319.077 545.157 321.957 C 547.397 322.667 549.637 323.397 551.867 324.147 C 552.417 324.327 552.967 324.517 553.507 324.707 C 553.597 324.737 553.697 324.767 553.787 324.807 L 556.097 325.767 L 556.102 325.755 C 556.435 325.918 556.808 326.01 557.203 326.01 C 558.583 326.01 559.703 324.89 559.703 323.51 C 559.703 322.39 558.965 321.441 557.95 321.123 Z " fill-rule="evenodd" fill="rgb(32,38,23)"/></g></g><g><path d=" M 330.641 327.63 L 330.64 327.63 L 330.5 325.13 C 330.48 324.72 330.47 324.3 330.47 323.89 C 330.46 322.52 330.6 321.16 330.89 319.83 C 331.16 318.61 331.59 317.44 332.17 316.34 C 333.27 314.32 334.87 312.61 336.83 311.4 C 337.77 310.8 338.77 310.29 339.81 309.88 C 340.87 309.46 341.95 309.11 343.05 308.83 C 345.38 308.26 347.74 307.86 350.12 307.63 C 352.31 307.61 354.5 307.54 356.69 307.42 C 358.44 307.32 360.2 307.26 361.95 307.24 C 364.62 307.22 367.29 307.5 369.9 308.06 L 372.34 308.58 L 372.333 308.611 C 373.477 308.841 374.34 309.852 374.34 311.063 C 374.34 312.442 373.22 313.563 371.84 313.563 C 371.516 313.563 371.206 313.501 370.922 313.388 L 368.85 312.94 C 366.6 312.46 364.3 312.23 361.99 312.24 C 360.32 312.26 358.64 312.32 356.97 312.41 C 354.78 312.54 352.58 312.61 350.38 312.62 C 348.32 312.83 346.28 313.19 344.27 313.68 C 343.38 313.91 342.51 314.19 341.65 314.53 C 340.9 314.83 340.17 315.2 339.48 315.63 C 338.26 316.39 337.26 317.44 336.58 318.7 C 336.21 319.39 335.94 320.13 335.78 320.9 C 335.56 321.87 335.46 322.87 335.47 323.87 C 335.47 324.2 335.48 324.53 335.5 324.87 L 335.627 327.31 C 335.636 327.393 335.64 327.477 335.64 327.563 C 335.64 328.942 334.52 330.063 333.14 330.063 C 331.783 330.063 330.677 328.979 330.641 327.63 Z " fill="rgb(32,38,23)"/><path d=" M 335.095 458.807 L 337.111 457.772 C 369.119 441.768 417.511 397.733 427.591 361.332 L 427.591 361.332 L 428.261 358.922 L 428.268 358.924 C 428.545 357.845 429.525 357.047 430.689 357.047 C 432.069 357.047 433.189 358.167 433.189 359.547 C 433.189 359.83 433.142 360.103 433.055 360.357 L 432.411 362.672 C 421.724 400.587 372.67 445.13 339.391 462.232 L 339.391 462.232 L 337.419 463.232 C 337.346 463.273 337.271 463.311 337.194 463.346 L 337.161 463.362 L 337.161 463.36 C 336.859 463.489 336.528 463.56 336.18 463.56 C 334.8 463.56 333.68 462.44 333.68 461.06 C 333.68 460.15 334.167 459.354 334.894 458.916 L 334.891 458.912 L 334.986 458.863 C 335.022 458.844 335.058 458.825 335.095 458.807 Z " fill="rgb(32,38,23)"/><path d=" M 283.803 382.266 L 283.8 382.29 L 281.32 381.98 C 280.96 381.94 280.59 381.88 280.23 381.81 C 279.55 381.68 278.86 381.61 278.17 381.59 C 277.57 381.59 276.97 381.69 276.4 381.88 C 275.01 382.33 273.73 383.06 272.64 384.04 C 271.66 384.95 270.87 386.05 270.3 387.27 C 269.67 388.63 269.23 390.07 268.99 391.55 C 268.72 393.21 268.59 394.88 268.6 396.55 C 268.62 398.98 268.8 401.41 269.15 403.82 C 269.46 405.98 269.81 408.13 270.22 410.27 C 270.3 410.7 270.38 411.13 270.46 411.55 L 270.866 413.769 C 270.914 413.963 270.94 414.166 270.94 414.375 C 270.94 415.755 269.82 416.875 268.44 416.875 C 267.243 416.875 266.242 416.032 265.997 414.909 L 265.99 414.91 L 265.54 412.45 C 265.46 412.03 265.39 411.62 265.31 411.2 C 264.89 408.98 264.52 406.76 264.2 404.53 C 263.82 401.9 263.62 399.24 263.6 396.59 C 263.59 394.63 263.74 392.68 264.06 390.75 C 264.37 388.82 264.95 386.94 265.76 385.17 C 266.61 383.35 267.79 381.71 269.26 380.35 C 270.88 378.89 272.78 377.79 274.85 377.12 C 275.94 376.76 277.08 376.59 278.23 376.59 C 279.21 376.61 280.19 376.72 281.16 376.9 C 281.41 376.95 281.67 376.99 281.93 377.02 L 284.162 377.29 C 285.536 377.297 286.65 378.414 286.65 379.79 C 286.65 381.17 285.53 382.29 284.15 382.29 C 284.032 382.29 283.916 382.282 283.803 382.266 Z " fill="rgb(32,38,23)"/><g><path d=" M 311.719 388.766 L 288.516 417.875 L 293.297 423.359 L 301.031 423.781 L 313.547 417.031 L 320.859 401.422 L 320.438 393.406 L 314.813 387.078 L 311.719 388.766 Z " fill="rgb(255,255,255)" vector-effect="non-scaling-stroke" stroke-width="1" stroke="rgb(0,0,0)" stroke-linejoin="miter" stroke-linecap="square" stroke-miterlimit="3"/><g><path d=" M 290.824 422.153 C 298.813 426.25 309.38 420.097 315.949 413.528 C 322.854 406.623 323.074 397.153 320.449 391.403 C 318.637 387.465 318.078 386.471 317 387 M 279 430 C 286.063 421.813 290.621 415.393 297 407 C 301.75 400.75 308.859 390.375 315 388" fill-rule="evenodd" fill="none" vector-effect="non-scaling-stroke" stroke-width="5" stroke="rgb(32,38,23)" stroke-linejoin="miter" stroke-linecap="square" stroke-miterlimit="3"/><circle vector-effect="non-scaling-stroke" cx="277.39390624999993" cy="431.8710937500001" r="2.5" fill="rgb(32,38,23)"/></g><path d=" M 302.348 401.976 C 302.348 399.581 303.299 397.28 304.994 395.585 C 306.688 393.891 308.989 392.939 311.385 392.939 C 313.78 392.939 316.081 393.891 317.776 395.585 C 319.47 397.28 320.422 399.581 320.422 401.976 C 320.422 404.371 319.47 406.672 317.776 408.367 C 316.081 410.061 313.78 411.013 311.385 411.013 C 308.989 411.013 306.688 410.061 304.994 408.367 C 303.299 406.672 302.348 404.371 302.348 401.976 Z  M 307.577 401.976 C 307.577 400.961 307.975 399.999 308.686 399.288 C 309.408 398.566 310.37 398.169 311.385 398.169 C 312.389 398.169 313.362 398.566 314.073 399.288 C 314.784 399.999 315.192 400.961 315.192 401.976 C 315.192 402.98 314.784 403.953 314.073 404.664 C 313.362 405.386 312.389 405.783 311.385 405.783 C 310.37 405.783 309.408 405.386 308.686 404.664 C 307.975 403.953 307.577 402.98 307.577 401.976 Z " fill-rule="evenodd" fill="rgb(32,38,23)"/></g><g><path d=" M 377.719 320.266 L 354.516 349.375 L 359.297 354.859 L 367.031 355.281 L 379.547 348.531 L 386.859 332.922 L 386.438 324.906 L 380.813 318.578 L 377.719 320.266 Z " fill="rgb(255,255,255)" vector-effect="non-scaling-stroke" stroke-width="1" stroke="rgb(0,0,0)" stroke-linejoin="miter" stroke-linecap="square" stroke-miterlimit="3"/><g><path d=" M 335.168 359.744 C 348.363 366.1 372.606 325.308 378 319.586 M 356 353 C 363.069 359.45 372.516 355.008 378 349.75 C 383.695 343.934 386.594 336.719 386.75 329.5 C 387 325.188 379.875 315.813 378 319" fill-rule="evenodd" fill="none" vector-effect="non-scaling-stroke" stroke-width="5" stroke="rgb(32,38,23)" stroke-linejoin="miter" stroke-linecap="square" stroke-miterlimit="3"/><circle vector-effect="non-scaling-stroke" cx="332.94208333333313" cy="358.67057291666674" r="2.5" fill="rgb(32,38,23)"/></g><path d=" M 370.196 332.521 C 370.196 330.231 371.106 328.031 372.726 326.411 C 374.346 324.791 376.546 323.881 378.836 323.881 C 381.126 323.881 383.326 324.791 384.946 326.411 C 386.566 328.031 387.476 330.231 387.476 332.521 C 387.476 334.811 386.566 337.011 384.946 338.631 C 383.326 340.251 381.126 341.161 378.836 341.161 C 376.546 341.161 374.346 340.251 372.726 338.631 C 371.106 337.011 370.196 334.811 370.196 332.521 Z  M 375.196 332.521 C 375.196 331.551 375.576 330.631 376.256 329.951 C 376.946 329.261 377.866 328.881 378.836 328.881 C 379.796 328.881 380.726 329.261 381.406 329.951 C 382.086 330.631 382.476 331.551 382.476 332.521 C 382.476 333.481 382.086 334.411 381.406 335.091 C 380.726 335.781 379.796 336.161 378.836 336.161 C 377.866 336.161 376.946 335.781 376.256 335.091 C 375.576 334.411 375.196 333.481 375.196 332.521 Z " fill-rule="evenodd" fill="rgb(32,38,23)"/></g></g><g><path d=" M 810.442 527.797 C 740.764 563.641 620.793 550 591.29 491.369 C 539.921 389.283 632.768 341.723 707.47 320.196 C 784.032 298.133 811.136 319.759 850.589 373.676 C 889.488 426.838 880.119 491.952 810.442 527.797 Z " fill="rgb(147,91,58)" vector-effect="non-scaling-stroke" stroke-width="5" stroke="rgb(32,38,23)" stroke-linejoin="miter" stroke-linecap="square" stroke-miterlimit="3"/><path d=" M 727.523 540.169 C 657.055 548.172 599.125 495.903 598.347 489.048 C 597.568 482.193 653.464 512.844 723.932 504.841 C 794.4 496.837 839.721 482.193 840.5 489.048 C 841.279 495.903 797.991 532.166 727.523 540.169 Z " fill="rgb(102,64,42)"/><path d=" M 769.862 319.032 C 848.697 331.19 862.04 447.342 857.5 458 C 854.423 465.225 830.987 374.351 772.078 363.59 C 681.374 347.022 613.239 394.915 609.25 387.715 C 602 374.625 705.037 309.035 769.862 319.032 Z " fill="rgb(185,134,104)"/><path d=" M 757.273 352.639 C 738.523 348.94 675.039 362.411 674.705 364.663 C 674.372 366.915 735.773 357.065 753.273 360.565 C 785.587 367.028 817.854 395.181 818.273 393.565 C 819.368 389.338 781.509 357.42 757.273 352.639 Z " fill="rgb(255,255,255)"/></g><path d=" M 523.25 313.875 C 536.837 343.366 554.853 378.106 538 459 C 521.147 539.894 412.612 581.23 410.333 589 C 408.054 596.77 521.306 626.601 590.698 629.453 C 677 633 752.208 632.472 783.906 623.415 C 815.604 614.359 853.25 525 859.25 429 C 865.25 333 860.806 229.564 827 209 C 793.194 188.436 705.746 192.118 636 198 C 566.254 203.882 529.894 227.239 522 265 C 514.106 302.761 516.682 299.619 523.25 313.875 Z " fill="rgb(252,240,248)" vector-effect="non-scaling-stroke" stroke-width="5" stroke="rgb(176,150,167)" stroke-linejoin="miter" stroke-linecap="square" stroke-miterlimit="3"/><path d=" M 529.313 320.25 C 533.25 329.063 538.5 340.875 543.563 360.187 C 551.625 391.313 547.312 435.375 537.75 471.375 C 510.75 546 418.219 583.172 413.297 589.359 C 420.188 595.687 525.21 624.327 593 626.75 C 677.31 629.763 749.104 628.488 780.5 622.25 C 815.834 615.229 848.513 508.088 854.25 453.375 C 859.987 398.662 861.086 292.848 852.563 263.625 C 818.349 250.25 756 252 676 252 C 596 252 554.125 276.25 520.125 290.25 C 518.062 301.688 522.896 308.14 529.313 320.25 Z " fill="rgb(242,225,236)"/><path d=" M 833.5 547.75 C 815.5 587 804.25 615.75 780.5 622.364 C 749.104 628.485 677.31 629.736 593 626.779 C 525.21 624.402 411.584 594.252 413.508 588.656 C 431.156 578.074 451.875 569 493.84 534.234 Q 554.061 573.636 653.03 581.818 Q 752 590 833.5 547.75 Z " fill="rgb(171,200,201)"/><g><g><path d=" M 493 235.5 C 502.878 191.617 498.305 147.781 507.458 149.841 C 516.612 151.902 530.378 198.117 520.5 242 C 510.622 285.883 526.992 297.793 481.313 292.5 C 470.835 281.762 483.122 279.383 493 235.5 Z " fill="rgb(103,140,46)" vector-effect="non-scaling-stroke" stroke-width="5" stroke="rgb(32,38,23)" stroke-linejoin="miter" stroke-linecap="square" stroke-miterlimit="3"/><path d=" M 478.11 279.248 C 477.907 279.595 477.731 279.911 477.562 280.219 C 476.067 283.479 474.54 286.26 474.938 288 C 475.335 289.74 477.656 290.438 481.313 291.562 C 522.407 304.207 509.637 285.445 517.421 246.721 C 524.939 209.323 518.284 159.585 508.687 153.375 C 506.905 152.222 505.627 155.651 504.525 161.985 C 511.051 174.784 516.739 205.173 510.171 234.353 C 501.913 271.038 515.577 289.48 478.11 279.248 Z " fill-rule="evenodd" fill="rgb(84,113,41)"/></g><g><path d=" M 508.5 205.5 C 510.5 190.5 522.238 182.342 532.5 185.5 C 545.5 189.5 548 196.809 548 212.169 C 548 227.529 539.486 240 529 240 C 518.514 240 506.49 220.576 508.5 205.5 Z " fill="rgb(103,140,46)" vector-effect="non-scaling-stroke" stroke-width="5" stroke="rgb(32,38,23)" stroke-linejoin="miter" stroke-linecap="square" stroke-miterlimit="3"/><path d=" M 535.583 190.309 C 543.15 191.666 545.799 201.148 545.799 213.425 C 545.799 226.712 538.434 237.5 529.363 237.5 C 524.199 237.5 519.49 233.206 516.609 227.284 C 518.422 228.296 520.389 228.85 522.443 228.85 C 531.514 228.85 538.879 218.062 538.879 204.775 C 538.879 199.349 537.651 194.34 535.583 190.309 Z " fill-rule="evenodd" fill="rgb(84,113,41)"/></g></g><path d=" M 468.809 261.279 C 472.858 245.794 484.015 254.08 499.5 258.129 C 514.985 262.178 528.971 260.468 524.922 275.953 C 520.873 291.438 505.014 300.722 489.529 296.673 C 474.044 292.623 464.76 276.764 468.809 261.279 Z " fill="rgb(252,240,248)" vector-effect="non-scaling-stroke" stroke-width="5" stroke="rgb(176,150,167)" stroke-linejoin="miter" stroke-linecap="square" stroke-miterlimit="3"/><path d=" M 470.313 267.969 C 477.484 273.594 484.188 277.421 493.453 279.844 C 502.718 282.266 512.602 281.414 519.914 281.695 C 516.188 291 503.156 297.375 489.563 294.094 C 475.969 290.813 469.266 277.547 470.313 267.969 Z " fill="rgb(171,200,201)"/><path d=" M 594.938 507.24 C 594.938 498.133 648.288 514 714 514 C 779.712 514 833.062 498.133 833.062 507.24 C 833.062 516.346 779.712 534.234 714 534.234 C 648.288 534.234 594.938 516.346 594.938 507.24 Z " fill="rgb(171,200,201)"/></g></svg>