<?xml version="1.0" encoding="UTF-8" standalone="no"?><!-- Generator: Gravit.io --><svg xmlns="http://www.w3.org/2000/svg" xmlns:xlink="http://www.w3.org/1999/xlink" style="isolation:isolate" viewBox="0 0 552.54 851.356" width="552.54pt" height="851.356pt"><defs><clipPath id="_clipPath_eXUQgzZi9RkDwXHMxU9wk6NZB81jpONS"><rect width="552.54" height="851.356"/></clipPath></defs><g clip-path="url(#_clipPath_eXUQgzZi9RkDwXHMxU9wk6NZB81jpONS)"><g><path d=" M 46.149 828.855 C 44.308 811.505 70.242 788.855 101.149 788.855 C 132.057 788.855 162.149 802.093 162.149 812.855 C 162.149 823.618 132.057 842.855 101.149 842.855 C 70.242 842.855 47.665 843.137 46.149 828.855 Z " fill="rgb(103,140,46)" vector-effect="non-scaling-stroke" stroke-width="5" stroke="rgb(32,38,23)" stroke-linejoin="miter" stroke-linecap="square" stroke-miterlimit="3"/><path d=" M 51.103 830.119 C 54.103 821.012 82.297 825.315 106.103 820.856 C 133.407 815.741 164.225 803.985 159.103 814.856 C 153.573 826.593 127.791 837.043 116.103 838.856 C 86.308 843.476 47.565 840.86 51.103 830.119 Z " fill="rgb(84,113,41)"/></g><g><path d=" M 26.038 462.206 C 38.281 431.717 64.616 405.195 73.067 408.588 C 81.518 411.981 75.281 439.489 63.038 469.978 C 50.796 500.467 37.154 522.465 28.703 519.071 C 20.252 515.678 13.796 492.695 26.038 462.206 Z " fill="rgb(103,140,46)" vector-effect="non-scaling-stroke" stroke-width="5" stroke="rgb(32,38,23)" stroke-linejoin="miter" stroke-linecap="square" stroke-miterlimit="3"/><path d=" M 47.103 475.738 C 56.151 456.511 69.359 412.623 74.103 414.856 C 76.579 416.021 71.411 445.34 60.103 471.856 C 54.402 485.223 47.821 498.399 42.103 506.856 C 37.431 513.765 32.123 517.336 31.103 516.856 C 26.359 514.623 38.055 494.964 47.103 475.738 Z " fill="rgb(84,113,41)"/></g><g><path d=" M 510.901 601.972 C 512.354 610.785 513.103 619.777 513.103 628.908 C 513.103 740.981 400.186 831.97 261.103 831.97 C 122.021 831.97 9.103 740.981 9.103 628.908 L 9.103 628.908 C 9.103 603.994 14.683 580.123 24.898 558.064 C 31.222 539.798 66.037 453.697 88.103 338.461 C 97.029 291.846 92.601 277.991 111.634 221.847 C 124.817 166.073 188.11 123.741 264.103 123.741 C 326.917 123.741 381.055 152.664 405.404 194.187 C 450.382 254.67 462.948 286.687 474.103 342.461 C 485.101 397.452 495.293 470.745 504.103 539.461 Q 508.975 577.458 510.901 601.972 Z  M 403.103 193.461 M 407.103 201.461" fill-rule="evenodd" fill="rgb(163,166,83)" vector-effect="non-scaling-stroke" stroke-width="5" stroke="rgb(32,38,23)" stroke-linejoin="miter" stroke-linecap="square" stroke-miterlimit="3"/></g><g><path d=" M 492.123 589.887 C 493.466 598.054 494.159 606.386 494.159 614.847 C 494.159 718.701 389.73 803.017 261.103 803.017 C 132.476 803.017 28.047 718.701 28.047 614.847 L 28.047 614.847 L 28.047 614.847 C 28.047 591.761 33.207 569.64 42.654 549.199 L 42.654 549.199 C 48.503 532.273 80.701 452.486 101.108 345.703 C 109.356 302.543 105.275 289.689 122.826 237.771 C 134.962 186.025 193.537 146.73 263.878 146.73 C 321.97 146.73 372.038 173.532 394.557 212.01 C 436.154 268.057 447.775 297.726 458.091 349.409 C 468.263 400.367 477.689 468.285 485.836 531.961 Q 490.341 567.171 492.123 589.887 Z  M 508.919 601.231 C 510.36 609.992 511.103 618.929 511.103 628.006 C 511.103 739.41 399.082 829.856 261.103 829.856 C 123.124 829.856 11.103 739.41 11.103 628.006 L 11.103 628.006 C 11.103 603.241 16.639 579.512 26.772 557.585 C 33.046 539.428 67.585 453.841 89.476 339.294 C 98.332 292.957 93.938 279.185 112.821 223.376 C 125.899 167.934 188.69 125.856 264.079 125.856 C 326.395 125.856 380.103 154.606 404.259 195.881 C 448.88 256.003 461.346 287.829 472.413 343.27 C 483.323 397.932 493.435 470.788 502.175 539.093 Q 507.007 576.863 508.919 601.231 L 508.919 601.231 L 508.919 601.231 L 508.919 601.231 Z  M 401.976 195.159 M 405.944 203.112 M 392.429 211.337 M 396.128 218.75" fill-rule="evenodd" fill="rgb(134,136,81)"/></g><g><g><path d=" M 497.153 515.873 C 517.822 540.93 531.762 569.895 536.901 601.087 L 536.901 601.087 C 538.354 609.9 539.103 618.891 539.103 628.022 C 539.103 740.095 426.186 831.085 287.103 831.085 C 282.067 831.085 277.065 830.965 272.103 830.726 C 404.215 824.468 509.103 736.037 509.103 628.022 C 509.103 627.843 509.103 627.664 509.102 627.485 Q 526.124 631.038 538.103 631.576 Q 538.436 620.605 536.901 601.087 Q 534.975 576.573 530.103 538.576 C 521.293 469.86 505.226 400.346 494.228 345.356 C 490.649 327.462 469.997 316.334 465.103 301.606 C 454.852 270.754 459.89 235.805 432.135 194.633 C 430.572 192.302 428.894 189.949 427.103 187.576 L 427.103 187.576 Q 413.649 169.752 386.772 173.597 C 361.406 145.872 321.176 126.827 275.065 123.431 C 280.009 123.044 285.028 122.856 290.103 122.856 C 353.58 122.856 408.196 152.392 432.135 194.633 C 440.481 209.31 445.103 225.529 445.103 242.576 C 445.103 248.21 444.598 253.753 443.623 259.181 C 456.843 285.411 463.705 309.586 470.103 341.576 C 479.898 390.549 489.053 454.039 497.153 515.873 Z  M 429.103 192.576 M 433.103 200.576 M 399.103 192.576 M 403.103 200.576" fill-rule="evenodd" fill="rgb(103,140,46)" vector-effect="non-scaling-stroke" stroke-width="4" stroke="rgb(32,38,23)" stroke-linejoin="miter" stroke-linecap="square" stroke-miterlimit="3"/></g><g><path d=" M 514.275 544.546 C 524.215 562.196 531.102 581.188 534.393 601.087 L 534.393 601.087 C 535.851 609.9 536.603 618.891 536.603 628.022 C 536.603 740.095 423.25 831.085 283.63 831.085 C 281.279 831.085 278.936 831.059 276.603 830.997 C 412.034 828.035 521.026 739.452 522.533 630.315 Q 529.68 631.311 535.599 631.576 Q 535.933 620.605 534.393 601.087 Q 532.459 576.573 527.568 538.576 C 518.725 469.86 502.019 395.971 490.978 340.981 C 489.348 332.861 484.133 327.228 479.079 321.781 C 480.588 328.055 482.004 334.631 483.398 341.576 C 494.439 396.566 504.671 469.86 513.514 538.576 Q 513.904 541.604 514.275 544.546 Z  M 458.778 263.063 C 454.003 242.159 446.924 219.763 428.912 194.069 C 427.405 191.927 425.828 189.763 424.171 187.576 L 424.171 187.576 Q 414.97 175.434 399.516 173.348 C 372.571 144.168 329.064 124.662 279.572 122.998 C 281.911 122.897 284.27 122.856 286.642 122.856 C 350.082 122.856 404.706 152.131 428.912 194.069 C 435.816 206.017 440.247 218.994 441.7 232.617 C 448.469 243.345 454.042 253.311 458.778 263.063 Z  M 426.178 192.576 M 430.194 200.576 M 412.124 192.576 M 416.14 200.576" fill-rule="evenodd" fill="rgb(84,113,41)"/></g></g><g><path d=" M 126.657 633.004 C 141.514 556.069 226.354 470.153 290.685 483.173 C 402.696 505.843 394.704 606.361 379.847 683.297 C 364.99 760.232 287.496 772.228 223.052 759.783 C 158.608 747.339 111.8 709.939 126.657 633.004 Z " fill="rgb(147,91,58)" vector-effect="non-scaling-stroke" stroke-width="5" stroke="rgb(32,38,23)" stroke-linejoin="miter" stroke-linecap="square" stroke-miterlimit="3"/><path d=" M 163.103 566.856 C 200.342 506.498 277.232 493.233 283.103 496.856 C 288.975 500.478 230.342 525.498 193.103 585.856 C 155.864 646.214 150.975 687.478 145.103 683.856 C 139.232 680.233 125.864 627.214 163.103 566.856 Z " fill="rgb(185,134,104)"/><path d=" M 358.03 713.976 C 312.778 783.165 188.143 746.706 180.03 737.856 C 174.53 731.856 279.634 747.959 315.03 696.976 C 369.53 618.476 353.526 533.654 362.03 532.976 C 377.49 531.743 395.24 657.083 358.03 713.976 Z " fill="rgb(102,64,42)"/><path d=" M 200.104 569.179 C 209.682 552.404 251.126 520.051 253.103 521.179 C 255.08 522.308 214.682 554.776 205.104 571.551 C 195.526 588.327 175.633 626.525 174.104 625.856 C 170.104 624.106 190.526 585.955 200.104 569.179 Z " fill="rgb(255,255,255)"/></g><g><path d=" M 387.603 826.856 C 387.603 810.85 419.592 787.856 451.603 787.856 C 483.614 787.856 514.603 810.85 514.603 826.856 C 514.603 842.861 488.614 843.856 456.603 843.856 C 424.592 843.856 387.603 842.861 387.603 826.856 Z " fill="rgb(103,140,46)" vector-effect="non-scaling-stroke" stroke-width="5" stroke="rgb(32,38,23)" stroke-linejoin="miter" stroke-linecap="square" stroke-miterlimit="3"/><path d=" M 390.118 829.762 C 388.832 822.418 422.396 826.005 448.118 821.762 C 479.187 816.637 510.83 820.301 511.118 828.762 C 511.235 832.208 510.066 838.158 487.118 840.762 C 477.919 841.805 466.114 842.007 448.118 841.762 C 402.18 841.137 391.141 835.605 390.118 829.762 Z " fill="rgb(84,113,41)"/></g><path d=" M 18.291 490.418 C 19.135 489.776 30.666 484.043 37.228 485.168 Q 43.791 486.293 49.603 497.543 L 72.853 403.606 Q 77.108 398.01 60.853 407.356 C 34.51 422.501 9.113 497.395 18.291 490.418 Z " fill="rgb(159,115,181)" vector-effect="non-scaling-stroke" stroke-width="5" stroke="rgb(68,17,98)" stroke-linejoin="miter" stroke-linecap="square" stroke-miterlimit="3"/><path d=" M 263.603 439.856 C 317.603 438.356 517.994 384.517 470.436 304.189 C 491.936 318.064 515.495 412.793 515.103 424.856 C 514.701 437.218 535.103 538.856 537.103 564.856 C 539.103 590.856 545.77 682.189 513.103 706.189 C 480.436 730.189 347.103 760.856 263.103 760.856 C 179.103 760.856 63.469 729.36 24.103 707.856 C 11.551 700.999 -0.305 614.437 14.103 580.856 C 27.958 548.563 62.36 440.06 64.103 427.856 C 66.103 413.856 80.72 385.699 82.228 357.668 C 82.905 345.087 209.603 441.356 263.603 439.856 Z " fill="rgb(159,115,181)" vector-effect="non-scaling-stroke" stroke-width="5" stroke="rgb(68,17,98)" stroke-linejoin="miter" stroke-linecap="square" stroke-miterlimit="3"/><g><path d=" M 236.603 546.242 L 236.603 437.606 C 236.603 435.95 235.259 434.606 233.603 434.606 L 233.603 434.606 C 231.947 434.606 230.603 435.95 230.603 437.606 L 230.603 546.517 C 228.805 547.615 227.603 549.596 227.603 551.856 C 227.603 555.305 230.404 558.106 233.853 558.106 C 237.303 558.106 240.103 555.305 240.103 551.856 C 240.103 549.393 238.675 547.261 236.603 546.242 Z " fill-rule="evenodd" fill="rgb(244,242,242)"/><path d=" M 301.103 511.151 L 301.103 438.606 C 301.103 436.95 299.759 435.606 298.103 435.606 L 298.103 435.606 C 296.447 435.606 295.103 436.95 295.103 438.606 L 295.103 511.629 C 293.3 512.739 292.103 514.688 292.103 516.904 C 292.103 520.354 295.002 523.154 298.572 523.154 C 302.143 523.154 305.042 520.354 305.042 516.904 C 305.042 514.322 303.417 512.104 301.103 511.151 Z " fill-rule="evenodd" fill="rgb(244,242,242)"/></g><path d=" M 452.103 459.856 C 447.336 519.189 482.007 606.568 461.103 640.856 C 436.745 680.809 351.125 667.409 341.035 676.962 C 317.505 686.374 168.9 674.608 82.103 676.856 C 44.403 677.832 10.204 639.647 10.103 639.856 C 10.002 640.064 10.841 661.59 14.77 679.522 C 17.827 693.477 24.022 704.74 24.916 705.418 C 25.809 706.096 67.694 723.776 84.77 728.856 C 101.845 733.935 146.017 746.328 189.603 752.856 C 226.552 758.389 262.67 758 279.978 758.106 C 297.286 758.211 386.434 748.208 429.783 734.613 C 478.603 721.106 496.462 714.434 513.337 703.043 C 520.181 695.918 521.753 694.051 526.134 683.543 C 530.987 671.981 537.731 643.996 536.853 616.856 C 536.853 588.606 534.313 556.83 528.853 525.356 C 525.72 499.215 522.02 465.193 520.353 456.106 C 518.686 447.019 511.576 411.722 502.436 379.856 C 493.297 347.989 482.129 319.553 475.603 314.106 Q 457.377 394.213 452.103 459.856 Z " fill="rgb(128,71,136)"/><g><path d=" M 501.673 465.798 C 501.145 432.947 502.285 400.52 511.391 400.374 C 520.496 400.227 538.181 450.735 538.71 483.586 C 539.238 516.437 522.411 519.27 513.306 519.416 C 504.2 519.563 502.202 498.649 501.673 465.798 Z " fill="rgb(103,140,46)" vector-effect="non-scaling-stroke" stroke-width="5" stroke="rgb(32,38,23)" stroke-linejoin="miter" stroke-linecap="square" stroke-miterlimit="3"/><path d=" M 522.479 471.707 C 522.215 467.489 506.702 403.687 511.94 403.448 C 513.174 403.392 517.503 408.729 523.188 423.212 C 528.873 437.695 534.033 457.858 535.333 473.616 C 536.95 488.045 534.64 499.102 533.812 502.136 C 532.985 505.171 531.337 507.981 529.767 509.998 C 528.539 511.575 527.359 512.667 526.658 513 C 525.957 513.332 522.936 515.606 520.998 515.684 C 519.061 515.761 522.744 475.924 522.479 471.707 Z " fill="rgb(84,113,41)"/></g><path d=" M 508.867 392.713 C 495.285 396.109 498.534 507.132 504.216 500.314 Q 501.569 481.96 522.028 484.189 C 540.966 486.251 538.549 494.626 537.216 498.626 C 533.622 509.407 548.885 483.342 544.103 459.713 C 532.77 403.713 514.201 391.38 508.867 392.713 Z " fill="rgb(159,115,181)" vector-effect="non-scaling-stroke" stroke-width="5" stroke="rgb(68,17,98)" stroke-linejoin="miter" stroke-linecap="square" stroke-miterlimit="3"/><path d=" M 260.436 192.856 C 204.04 199.319 152.163 221.318 104.773 258.824 Q 129.233 108.173 144.799 87.049 C 160.364 65.924 258.084 25.707 261.003 27.345 L 261.003 27.345 L 260.436 192.856 L 260.436 192.856 Z  M 260.436 192.856 C 347.183 205.986 410.192 227.986 449.435 258.824 Q 424.976 108.173 409.41 87.049 C 393.845 65.924 264.894 25.429 261.003 27.345 L 261.003 27.345 L 260.436 192.856 L 260.436 192.856 Z " fill-rule="evenodd" fill="rgb(162,56,74)" vector-effect="non-scaling-stroke" stroke-width="5" stroke="rgb(108,36,48)" stroke-linejoin="miter" stroke-linecap="square" stroke-miterlimit="3"/><path d=" M 151.416 119.074 C 156.749 105.408 158.464 85.779 194.505 59.856 C 219.724 41.717 248.645 25.591 267.77 26.716 C 286.895 27.841 323.186 42.356 358.436 61.856 C 393.84 81.441 410.354 106.504 426.103 131.856 C 441.852 157.207 447.231 254.831 449.435 264.139 C 451.639 273.446 453.967 323.856 426.103 375.856 C 410.869 403.101 285.603 430.606 289.103 434.856 C 292.603 439.106 426.123 437.438 445.103 406.856 C 464.083 376.274 484.734 288.784 473.436 247.472 C 470.103 226.356 446.175 103.59 432.88 91.856 C 411.175 72.699 376.089 38.285 352.436 28.716 C 327.339 18.562 280.77 -0.144 243.77 10.856 C 206.77 21.856 171.282 58.423 153.103 72.189 C 130.695 89.158 127.809 112.691 118.839 147.522 C 109.868 182.353 82.103 287.856 83.103 301.856 C 84.103 315.856 81.978 357.856 92.103 384.856 C 102.228 411.856 236.228 438.856 247.103 434.856 C 266.228 424.231 165.916 388.028 133.103 366.189 C 91.978 316.606 125.386 185.776 151.416 119.074 Z " fill="rgb(164,101,158)" vector-effect="non-scaling-stroke" stroke-width="5" stroke="rgb(68,17,98)" stroke-linejoin="miter" stroke-linecap="square" stroke-miterlimit="3"/><path d=" M 117.384 233.004 C 125.338 190.135 137.399 146.447 149.447 116.918 C 155.189 102.846 157.724 83.577 192.947 57.887 C 218.045 39.582 248.228 23.231 267.353 24.356 C 286.478 25.481 325.697 40.606 360.947 60.106 C 396.351 79.691 412.979 106.051 428.728 131.403 C 444.477 156.754 450.661 258.28 452.041 264.106 C 453.42 269.931 452.459 301.203 448.416 320.824 C 443.872 342.872 438.291 361.231 425.947 380.543 C 422.051 384.848 412.651 391.054 404.611 395.426 C 384.904 405.39 359.139 413.995 328.111 423.797 Q 313.106 428.222 296.681 433.746 Q 405.103 420.856 433.603 394.606 C 452.583 364.024 474.901 287.418 463.603 246.106 C 460.271 224.989 437.148 108.59 423.853 96.856 C 402.148 77.699 368.755 47.925 345.103 38.356 C 320.005 28.202 288.436 12.189 251.103 20.856 C 213.502 29.584 164.61 67.842 153.77 89.522 C 143.103 110.856 139.74 117.358 130.77 152.189 C 121.8 187.02 96.603 286.106 97.603 300.106 C 98.603 314.106 113.353 360.106 128.353 382.606 C 150.103 399.856 245.986 433.629 246.9 431.918 C 247.814 430.208 243.529 426.467 236.125 422.18 C 228.433 416.831 213.502 408.661 194.904 400.418 C 171.759 389.316 146.082 378.013 131.478 368.293 C 107.895 340.837 107.848 285.799 117.384 233.004 Z " fill="rgb(128,71,136)"/><path d=" M 295.978 240.668 C 295.978 239.323 312.045 228.106 331.603 228.106 C 351.162 228.106 364.791 251.698 364.791 253.043 C 364.791 254.388 351.162 232.981 331.603 232.981 C 312.045 232.981 295.978 242.013 295.978 240.668 Z " fill="none" vector-effect="non-scaling-stroke" stroke-width="5" stroke="rgb(0,0,0)" stroke-linejoin="miter" stroke-linecap="butt" stroke-miterlimit="3"/><path d=" M 148.353 227.856 C 113.723 239.263 92.615 266.051 87.966 261.806 C 75.28 250.224 150.74 184.356 241.436 184.356 C 332.133 184.356 466.228 241.231 442.978 261.106 C 437.283 266.684 427.353 275.356 417.853 270.856 C 383.853 256.106 326.653 219.272 256.103 215.856 C 219.06 214.062 176.732 218.508 148.353 227.856 Z " fill="rgb(162,56,74)" vector-effect="non-scaling-stroke" stroke-width="5" stroke="rgb(108,36,48)" stroke-linejoin="miter" stroke-linecap="square" stroke-miterlimit="3"/><path d=" M 131.353 254.606 C 130.533 258.387 116.447 260.024 90.244 262.793 C 99.666 256.731 121.478 237.856 141.197 230.449 C 158.666 222.668 195.291 216.856 211.353 216.856 C 183.678 219.884 129.97 245.66 131.353 254.606 Z " fill="rgb(70,20,29)" vector-effect="non-scaling-stroke" stroke-width="4" stroke="rgb(108,36,48)" stroke-linejoin="miter" stroke-linecap="square" stroke-miterlimit="3"/><path d=" M 197.003 567.244 C 185.744 567.331 175.423 575.286 173.969 584.996 C 173.969 584.996 169.892 603.401 164.374 622.62 C 157.92 645.099 149.495 668.691 147.011 674.597 C 142.647 684.976 148.244 693.402 159.503 693.402 C 238.039 704.229 315.424 704.239 391.628 693.402 C 402.887 693.402 408.485 684.976 404.12 674.597 C 401.637 668.691 393.212 645.099 386.757 622.62 C 381.239 603.401 377.162 584.996 377.162 584.996 C 375.708 575.286 365.387 567.331 354.129 567.244 C 297.671 573.409 245.305 573.419 197.003 567.244 Z " fill="rgb(164,101,158)" vector-effect="non-scaling-stroke" stroke-width="5" stroke="rgb(68,17,98)" stroke-linejoin="miter" stroke-linecap="square" stroke-miterlimit="3"/><path d=" M 314.103 660.856 C 268.853 651.606 152.212 668.075 149.728 673.981 C 145.978 681.731 147.603 690.106 159.603 691.481 C 236.654 701.636 313.174 701.156 390.853 690.981 C 402.228 691.481 405.843 683.234 401.478 672.856 C 398.995 666.95 381.228 613.481 379.041 603.668 C 322.583 609.834 336.103 657.856 314.103 660.856 Z " fill="rgb(98,47,104)"/><path d=" M 343.613 573.616 C 346.353 573.626 349.073 574.106 351.643 575.016 C 354.093 575.876 356.393 577.126 358.443 578.706 C 360.453 580.236 362.183 582.096 363.543 584.216 C 364.893 586.286 365.793 588.616 366.183 591.056 C 366.933 594.376 367.713 597.696 368.523 601.006 C 370.353 608.536 372.333 616.036 374.463 623.486 C 377.163 632.836 380.093 642.116 383.253 651.316 C 384.463 654.876 385.713 658.426 387.003 661.966 C 387.763 664.106 388.573 666.226 389.433 668.316 C 389.903 669.436 390.273 670.596 390.533 671.786 C 390.783 672.886 390.903 674.026 390.913 675.156 C 390.923 676.946 390.573 678.716 389.873 680.366 C 389.173 681.966 388.123 683.406 386.813 684.556 C 385.443 685.746 383.843 686.646 382.123 687.206 C 380.293 687.796 378.383 688.106 376.453 688.106 C 343.293 692.806 309.843 695.156 276.343 695.146 C 242.333 695.126 208.373 692.766 174.683 688.106 C 172.753 688.106 170.843 687.796 169.003 687.206 C 167.283 686.646 165.693 685.746 164.323 684.556 C 163.003 683.406 161.963 681.966 161.263 680.366 C 160.563 678.716 160.203 676.946 160.223 675.156 C 160.223 674.026 160.353 672.886 160.593 671.786 C 160.853 670.596 161.223 669.436 161.703 668.316 C 162.563 666.226 163.373 664.106 164.133 661.966 C 165.423 658.426 166.673 654.876 167.883 651.316 C 171.043 642.116 173.973 632.836 176.673 623.486 C 178.803 616.036 180.773 608.536 182.603 601.006 C 183.423 597.696 184.203 594.376 184.943 591.056 C 185.343 588.616 186.243 586.286 187.583 584.216 C 188.953 582.096 190.683 580.236 192.683 578.706 C 194.743 577.126 197.043 575.876 199.483 575.016 C 202.073 574.096 204.793 573.626 207.543 573.616 C 218.203 574.976 228.903 575.986 239.623 576.636 C 250.703 577.306 261.793 577.646 272.883 577.636 C 284.433 577.626 295.973 577.296 307.503 576.636 C 319.563 575.946 331.603 574.936 343.613 573.616 Z  M 343.863 578.626 C 345.943 578.656 348.013 579.036 349.973 579.726 C 351.933 580.416 353.763 581.416 355.413 582.676 C 356.963 583.856 358.293 585.296 359.353 586.936 C 360.343 588.466 361.003 590.186 361.273 591.986 C 362.033 595.396 362.833 598.796 363.673 602.186 C 365.513 609.786 367.513 617.346 369.653 624.866 C 372.383 634.296 375.333 643.646 378.513 652.926 C 379.743 656.516 381.003 660.096 382.293 663.666 C 383.083 665.876 383.923 668.076 384.823 670.246 C 385.173 671.086 385.453 671.966 385.653 672.856 C 385.823 673.626 385.913 674.406 385.913 675.186 C 385.923 676.286 385.703 677.376 385.283 678.386 C 384.873 679.306 384.273 680.126 383.523 680.786 C 382.663 681.536 381.663 682.096 380.583 682.456 C 379.143 682.916 377.643 683.136 376.133 683.096 C 343.073 687.796 309.733 690.156 276.353 690.146 C 242.443 690.126 208.583 687.766 174.993 683.096 C 173.493 683.136 171.983 682.916 170.553 682.456 C 169.473 682.096 168.473 681.536 167.603 680.786 C 166.853 680.126 166.253 679.306 165.853 678.386 C 165.423 677.376 165.213 676.286 165.223 675.186 C 165.223 674.406 165.303 673.626 165.473 672.856 C 165.673 671.966 165.953 671.086 166.313 670.246 C 167.203 668.076 168.043 665.876 168.833 663.666 C 170.133 660.096 171.393 656.516 172.613 652.926 C 175.793 643.646 178.753 634.296 181.473 624.866 C 183.623 617.346 185.623 609.786 187.463 602.186 C 188.293 598.796 189.093 595.396 189.863 591.986 C 190.133 590.186 190.783 588.466 191.783 586.936 C 192.833 585.296 194.173 583.856 195.723 582.676 C 197.363 581.416 199.203 580.416 201.153 579.736 C 203.113 579.036 205.173 578.656 207.243 578.626 C 217.903 579.976 228.603 580.976 239.323 581.626 C 250.493 582.306 261.693 582.646 272.883 582.636 C 284.523 582.626 296.163 582.296 307.793 581.626 C 319.843 580.936 331.863 579.936 343.863 578.626 Z " fill-rule="evenodd" fill="rgb(68,17,98)"/><path d=" M 378.162 578.87 Q 388.212 591.965 395.962 622.465 Q 403.712 652.965 407.388 676.043 C 394.014 640.278 384.779 608.787 378.162 578.87 Z " fill="rgb(128,71,136)"/><path d=" M 526.744 482.473 C 519.179 470.223 519.103 451.743 519.103 437.106 C 519.103 407.716 507.548 395.496 509.447 395.11 C 520.215 397.351 530.323 418.459 536.77 439.856 C 543.376 461.78 544.134 477.012 539.435 489.469 Q 534.127 483.106 526.744 482.473 Z " fill="rgb(128,71,136)"/><path d=" M 35.666 482.606 C 34.791 476.543 44.682 455.825 47.853 445.106 C 54.821 421.554 66.148 406.992 66.416 407.168 C 66.683 407.344 65.099 411.558 63.541 418.356 C 62.705 422.001 61.954 426.508 60.759 431.403 C 59.358 437.143 57.441 443.466 55.509 450.293 Q 48.828 473.902 44.291 486.231 C 42.087 483.935 39.222 482.737 35.666 482.606 Z " fill="rgb(128,71,136)"/><path d=" M 239.784 130.065 L 258.355 75.059 L 258.355 44.856 L 223.732 134.801 L 218.498 136.345 L 189.753 153.431 L 219.63 145.456 L 204.883 183.766 L 229.873 159.42 L 236.069 141.068 L 258.355 135.12 L 258.355 135.12 L 258.355 124.586 L 239.784 130.065 Z  M 278.135 118.751 L 263.383 75.059 L 263.383 44.856 L 290.432 115.123 L 330.883 103.189 L 305.55 122.522 L 294.423 125.492 L 316.855 183.766 L 291.865 159.42 L 281.569 128.923 L 263.383 133.777 L 263.383 133.777 L 263.383 123.103 L 278.135 118.751 Z " fill-rule="evenodd" fill="rgb(235,235,235)"/><path d=" M 226.806 334.106 C 225.447 333.668 220.61 332.376 222.144 333.017 C 224.213 333.88 226.791 334.775 228.234 334.8 C 251.199 335.207 272.754 337.161 294.103 336.106 C 315.452 335.05 329.117 327.612 331.56 322.9 C 331.62 322.785 334.896 317.977 332.576 319.137 C 329.166 322.512 332.072 325.887 322.978 329.356" fill="none" vector-effect="non-scaling-stroke" stroke-width="5" stroke="rgb(0,0,0)" stroke-linejoin="miter" stroke-linecap="square" stroke-miterlimit="3"/><path d=" M 253.228 335.856 C 253.176 335.279 257.626 335.36 260.353 334.606 C 267.318 332.679 280.804 329.699 289.692 328.902 C 300.872 327.899 317.814 326.793 321.103 328.103 C 321.453 328.242 327.111 327.078 326.869 327.293 C 325.181 328.793 301.057 335.543 290.728 335.543 C 280.399 335.543 253.267 336.292 253.228 335.856 Z " fill="rgb(235,235,235)" vector-effect="non-scaling-stroke" stroke-width="3" stroke="rgb(0,0,0)" stroke-linejoin="miter" stroke-linecap="square" stroke-miterlimit="3"/><path d=" M 185.853 263.106 C 184.353 254.106 192.749 250.973 204.572 253.746 C 222.752 258.011 229.603 257.965 225.384 266.824 C 221.411 275.169 216.495 278.356 204.353 278.356 C 192.211 278.356 187.314 271.872 185.853 263.106 Z " fill="rgb(235,235,235)" vector-effect="non-scaling-stroke" stroke-width="5" stroke="rgb(0,0,0)" stroke-linejoin="miter" stroke-linecap="square" stroke-miterlimit="3"/><path d=" M 347.25 263.772 C 348.75 254.772 338.999 248.522 324.666 249.856 C 309.916 252.606 304.02 256.772 306.77 265.522 C 309.475 274.131 316.608 279.022 328.75 279.022 C 340.892 279.022 345.789 272.539 347.25 263.772 Z " fill="rgb(235,235,235)" vector-effect="non-scaling-stroke" stroke-width="5" stroke="rgb(0,0,0)" stroke-linejoin="miter" stroke-linecap="square" stroke-miterlimit="3"/><circle vector-effect="non-scaling-stroke" cx="207.93645005821017" cy="263.3556412524492" r="5.166666666666657" fill="rgb(0,0,0)" stroke-width="5" stroke="rgb(0,0,0)" stroke-linejoin="miter" stroke-linecap="butt" stroke-miterlimit="3"/><circle vector-effect="non-scaling-stroke" cx="325.16664911465045" cy="264.02230791911586" r="5.166666666666629" fill="rgb(0,0,0)" stroke-width="5" stroke="rgb(0,0,0)" stroke-linejoin="miter" stroke-linecap="butt" stroke-miterlimit="3"/><path d=" M 182.228 242.356 C 182.353 241.363 203.715 239.784 211.518 240.767 C 219.321 241.75 239.353 248.863 239.228 249.856 C 239.103 250.849 218.868 245.348 211.064 244.365 C 203.261 243.382 182.103 243.349 182.228 242.356 Z " fill="none" vector-effect="non-scaling-stroke" stroke-width="5" stroke="rgb(0,0,0)" stroke-linejoin="miter" stroke-linecap="butt" stroke-miterlimit="3"/></g></svg>