<?xml version="1.0" encoding="UTF-8" standalone="no"?><!-- Generator: Gravit.io --><svg xmlns="http://www.w3.org/2000/svg" xmlns:xlink="http://www.w3.org/1999/xlink" style="isolation:isolate" viewBox="0 0 962 1280" width="962pt" height="1280pt"><defs><clipPath id="_clipPath_amLnYGvifKl7GsGqH3KSg6WsFAW8MKa3"><rect width="962" height="1280"/></clipPath></defs><g clip-path="url(#_clipPath_amLnYGvifKl7GsGqH3KSg6WsFAW8MKa3)"><g><path d=" M 145.046 1032 C 143.205 1014.649 169.139 992 200.046 992 C 230.953 992 261.046 1005.237 261.046 1016 C 261.046 1026.762 230.953 1046 200.046 1046 C 169.139 1046 146.562 1046.281 145.046 1032 Z " fill="rgb(103,140,46)" vector-effect="non-scaling-stroke" stroke-width="5" stroke="rgb(32,38,23)" stroke-linejoin="miter" stroke-linecap="square" stroke-miterlimit="3"/><path d=" M 150 1033.263 C 153 1024.156 181.194 1028.46 205 1024 C 232.304 1018.885 263.122 1007.129 258 1018 C 252.47 1029.737 226.688 1040.187 215 1042 C 185.205 1046.621 146.461 1044.005 150 1033.263 Z " fill="rgb(84,113,41)"/></g><g><path d=" M 124.935 665.35 C 137.178 634.862 163.513 608.339 171.964 611.732 C 180.415 615.126 174.178 642.634 161.935 673.122 C 149.693 703.611 136.051 725.609 127.6 722.216 C 119.149 718.822 112.693 695.839 124.935 665.35 Z " fill="rgb(103,140,46)" vector-effect="non-scaling-stroke" stroke-width="5" stroke="rgb(32,38,23)" stroke-linejoin="miter" stroke-linecap="square" stroke-miterlimit="3"/><path d=" M 146 678.882 C 155.048 659.656 168.256 615.767 173 618 C 175.476 619.165 170.308 648.484 159 675 C 153.299 688.368 146.718 701.543 141 710 C 136.328 716.909 131.02 720.48 130 720 C 125.256 717.767 136.952 698.108 146 678.882 Z " fill="rgb(84,113,41)"/></g><g><path d=" M 609.798 805.116 C 611.25 813.93 612 822.921 612 832.052 C 612 944.125 499.083 1035.115 360 1035.115 C 220.917 1035.115 108 944.125 108 832.052 L 108 832.052 C 108 807.139 113.58 783.267 123.795 761.208 C 130.118 742.943 164.934 656.841 187 541.606 C 195.926 494.991 191.498 481.135 210.531 424.991 C 223.714 369.217 287.007 326.885 363 326.885 C 425.814 326.885 479.952 355.808 504.301 397.332 C 549.279 457.815 561.845 489.832 573 545.606 C 583.998 600.596 594.19 673.89 603 742.606 Q 607.871 780.602 609.798 805.116 Z  M 502 396.606 M 506 404.606" fill-rule="evenodd" fill="rgb(163,166,83)" vector-effect="non-scaling-stroke" stroke-width="5" stroke="rgb(32,38,23)" stroke-linejoin="miter" stroke-linecap="square" stroke-miterlimit="3"/></g><g><path d=" M 591.02 793.032 C 592.363 801.198 593.056 809.53 593.056 817.992 C 593.056 921.845 488.627 1006.161 360 1006.161 C 231.373 1006.161 126.944 921.845 126.944 817.992 L 126.944 817.992 L 126.944 817.992 C 126.944 794.905 132.104 772.784 141.551 752.344 L 141.551 752.344 C 147.399 735.418 179.597 655.631 200.005 548.847 C 208.253 505.687 204.172 492.833 221.723 440.916 C 233.858 389.169 292.434 349.875 362.774 349.875 C 420.867 349.875 470.935 376.676 493.454 415.154 C 535.05 471.201 546.672 500.87 556.988 552.554 C 567.159 603.511 576.585 671.429 584.733 735.105 Q 589.238 770.315 591.02 793.032 Z  M 607.816 804.375 C 609.256 813.136 610 822.073 610 831.15 C 610 942.554 497.979 1033 360 1033 C 222.021 1033 110 942.554 110 831.15 L 110 831.15 C 110 806.385 115.536 782.656 125.669 760.729 C 131.943 742.573 166.482 656.985 188.373 542.438 C 197.228 496.101 192.835 482.329 211.718 426.52 C 224.796 371.079 287.587 329 362.976 329 C 425.292 329 479 357.75 503.156 399.026 C 547.777 459.147 560.243 490.973 571.31 546.414 C 582.22 601.076 592.332 673.932 601.071 742.238 Q 605.904 780.008 607.816 804.375 L 607.816 804.375 L 607.816 804.375 L 607.816 804.375 Z  M 500.873 398.304 M 504.841 406.256 M 491.325 414.481 M 495.025 421.895" fill-rule="evenodd" fill="rgb(134,136,81)"/></g><g><g><path d=" M 605.798 804.231 C 607.25 813.044 608 822.035 608 831.167 C 608 939.182 503.112 1027.612 371 1033.87 C 375.962 1034.11 380.964 1034.229 386 1034.229 C 525.083 1034.229 638 943.24 638 831.167 C 638 822.035 637.25 813.044 635.798 804.231 Q 633.871 779.717 629 741.72 C 620.19 673.004 609.998 599.711 599 544.72 C 587.845 488.946 575.279 456.929 530.301 396.446 C 505.952 354.923 451.814 326 389 326 C 383.925 326 378.906 326.189 373.962 326.575 C 430.181 330.728 477.666 358.123 500.094 396.171 C 545.242 456.834 557.829 488.863 569 544.72 C 579.998 599.711 590.19 673.004 599 741.72 Q 603.871 779.717 605.798 804.231 Z  M 528 395.72 M 532 403.72 M 498 395.72 M 502 403.72" fill-rule="evenodd" fill="rgb(103,140,46)" vector-effect="non-scaling-stroke" stroke-width="4" stroke="rgb(32,38,23)" stroke-linejoin="miter" stroke-linecap="square" stroke-miterlimit="3"/></g><g><path d=" M 619.236 804.231 C 620.694 813.044 621.446 822.035 621.446 831.167 C 621.446 941.353 511.878 1031.159 375.5 1034.141 C 377.832 1034.203 380.176 1034.229 382.527 1034.229 C 522.147 1034.229 635.5 943.24 635.5 831.167 C 635.5 822.035 634.748 813.044 633.29 804.231 Q 631.355 779.717 626.465 741.72 C 617.621 673.004 607.39 599.711 596.349 544.72 C 585.152 488.946 572.537 456.929 527.385 396.446 C 502.942 354.923 448.595 326 385.539 326 C 383.167 326 380.808 326.041 378.469 326.142 C 438.407 328.169 489.573 356.345 513.146 396.2 C 558.449 456.844 571.083 488.872 582.295 544.72 C 593.336 599.711 603.567 673.004 612.411 741.72 Q 617.301 779.717 619.236 804.231 Z  M 525.075 395.72 M 529.091 403.72 M 511.021 395.72 M 515.037 403.72" fill-rule="evenodd" fill="rgb(84,113,41)"/></g></g><g><g><path d=" M 342.52 474.839 C 342.46 474.787 342.401 474.731 342.345 474.664 C 342.321 474.648 342.299 474.624 342.281 474.59 C 341.78 474.059 341.357 473.287 341.004 472.301 C 338.192 464.434 338.769 462.112 340.129 460.301 C 341.556 458.401 344.676 456.608 346.129 456.301 C 347.645 455.981 352.535 455.755 355.129 458.301 C 357.723 460.848 359.672 463.928 360.004 464.39 C 360.848 465.561 360.338 466.467 360.004 466.39 C 358.864 466.124 357.801 463.546 353.129 461.301 C 348.642 459.146 347.419 459.632 346.129 460.301 C 344.973 460.901 344.156 462.219 345.129 464.301 C 346.203 466.6 347.369 468.998 347.811 470.311 C 348.249 470.889 348.504 471.61 348.504 472.39 C 348.504 474.321 346.936 475.89 345.004 475.89 C 344.03 475.89 343.147 475.49 342.52 474.839 Z " fill-rule="evenodd" fill="rgb(0,0,0)" vector-effect="non-scaling-stroke" stroke-width="1" stroke="rgb(0,0,0)" stroke-linejoin="miter" stroke-linecap="square" stroke-miterlimit="3"/></g><circle vector-effect="non-scaling-stroke" cx="301" cy="433" r="5.5" fill="rgb(0,0,0)"/><circle vector-effect="non-scaling-stroke" cx="406.5" cy="427.5" r="5.5" fill="rgb(0,0,0)"/><path d=" M 257.799 427.442 L 292.32 424 L 327.551 422.408 C 328.948 422.345 330.002 421.176 329.903 419.8 L 329.903 419.8 C 329.803 418.424 328.588 417.358 327.191 417.421 L 292.32 419 L 257.439 422.457 C 256.047 422.595 254.998 423.824 255.097 425.2 L 255.097 425.2 C 255.197 426.576 256.407 427.581 257.799 427.442 Z " fill="rgb(0,0,0)"/><path d=" M 366.299 419.006 L 400.82 415.563 L 436.051 413.971 C 437.448 413.908 438.502 412.739 438.403 411.363 L 438.403 411.363 C 438.303 409.987 437.088 408.921 435.691 408.984 L 400.82 410.563 L 365.939 414.02 C 364.547 414.158 363.498 415.387 363.597 416.764 L 363.597 416.764 C 363.697 418.14 364.907 419.144 366.299 419.006 Z " fill="rgb(0,0,0)"/></g><g><path d=" M 225.554 836.148 C 240.411 759.213 325.251 673.298 389.582 686.318 C 501.593 708.987 493.601 809.506 478.744 886.441 C 463.887 963.376 386.393 975.373 321.949 962.928 C 257.505 950.483 210.697 913.083 225.554 836.148 Z " fill="rgb(147,91,58)" vector-effect="non-scaling-stroke" stroke-width="5" stroke="rgb(32,38,23)" stroke-linejoin="miter" stroke-linecap="square" stroke-miterlimit="3"/><path d=" M 262 770 C 299.239 709.642 376.129 696.378 382 700 C 387.871 703.622 329.239 728.642 292 789 C 254.761 849.358 249.871 890.622 244 887 C 238.129 883.378 224.761 830.358 262 770 Z " fill="rgb(185,134,104)"/><path d=" M 456.927 917.12 C 411.675 986.31 287.04 949.851 278.927 941 C 273.427 935 378.531 951.103 413.927 900.12 C 468.427 821.62 452.422 736.799 460.927 736.12 C 476.387 734.887 494.137 860.227 456.927 917.12 Z " fill="rgb(102,64,42)"/><path d=" M 299.001 772.324 C 308.579 755.548 350.023 723.195 352 724.324 C 353.977 725.453 313.579 757.92 304.001 774.696 C 294.423 791.471 274.53 829.669 273.001 829 C 269.001 827.25 289.423 789.099 299.001 772.324 Z " fill="rgb(255,255,255)"/></g><g><path d=" M 486.5 1030 C 486.5 1013.994 518.489 991 550.5 991 C 582.511 991 613.5 1013.994 613.5 1030 C 613.5 1046.006 587.511 1047 555.5 1047 C 523.489 1047 486.5 1046.006 486.5 1030 Z " fill="rgb(103,140,46)" vector-effect="non-scaling-stroke" stroke-width="5" stroke="rgb(32,38,23)" stroke-linejoin="miter" stroke-linecap="square" stroke-miterlimit="3"/><path d=" M 489.015 1032.906 C 487.729 1025.562 521.293 1029.149 547.015 1024.906 C 578.084 1019.781 609.727 1023.445 610.015 1031.906 C 610.132 1035.353 608.962 1041.302 586.015 1043.906 C 576.816 1044.95 565.011 1045.151 547.015 1044.906 C 501.077 1044.281 490.038 1038.749 489.015 1032.906 Z " fill="rgb(84,113,41)"/></g><path d=" M 117.188 693.563 C 118.032 692.921 129.563 687.188 136.125 688.313 Q 142.688 689.438 148.5 700.688 L 171.75 606.75 Q 176.005 601.155 159.75 610.5 C 133.407 625.645 108.01 700.539 117.188 693.563 Z " fill="rgb(255,237,41)" vector-effect="non-scaling-stroke" stroke-width="5" stroke="rgb(227,149,23)" stroke-linejoin="miter" stroke-linecap="square" stroke-miterlimit="3"/><path d=" M 208.875 489.75 C 222.875 527.75 218 547 243 563 C 268 579 302.5 585 318.5 585 C 334.5 585 386 589 411 584 C 436 579 479 547.5 498 532.5 C 505.886 526.274 559.188 483.638 567 458 C 581.391 421.798 614.392 615.937 614 628 C 613.598 640.363 634 742 636 768 C 638 794 642.405 860.8 642 893 C 641.608 924.169 629.118 930.179 604 935.5 C 526.215 951.977 529.5 957 447.75 967 C 366 977 327 984 271 977 C 215 970 170 952.879 130 932.579 C 122.329 928.686 106.875 903 105 867 C 103.179 832.033 103.463 820.535 113 784 C 121.875 750 139 726 141 711 C 143 696 161 645 163 631 C 165 617 173 602 175 574 C 177 546 194.875 451.75 208.875 489.75 Z " fill="rgb(255,237,41)" vector-effect="non-scaling-stroke" stroke-width="5" stroke="rgb(227,149,23)" stroke-linejoin="miter" stroke-linecap="square" stroke-miterlimit="3"/><g><path d=" M 320.5 696.137 L 320.5 587.5 C 320.5 585.844 319.156 584.5 317.5 584.5 L 317.5 584.5 C 315.844 584.5 314.5 585.844 314.5 587.5 L 314.5 696.412 C 312.702 697.51 311.5 699.491 311.5 701.75 C 311.5 705.199 314.301 708 317.75 708 C 321.199 708 324 705.199 324 701.75 C 324 699.287 322.572 697.155 320.5 696.137 Z " fill-rule="evenodd" fill="rgb(227,149,23)"/><path d=" M 385 661.046 L 385 588.5 C 385 586.844 383.656 585.5 382 585.5 L 382 585.5 C 380.344 585.5 379 586.844 379 588.5 L 379 661.524 C 377.197 662.633 376 664.582 376 666.799 C 376 670.248 378.899 673.049 382.469 673.049 C 386.04 673.049 388.938 670.248 388.938 666.799 C 388.938 664.217 387.314 661.998 385 661.046 Z " fill-rule="evenodd" fill="rgb(227,149,23)"/></g><g><path d=" M 600.57 668.942 C 600.042 636.092 601.182 603.665 610.288 603.518 C 619.393 603.372 637.078 653.88 637.607 686.73 C 638.135 719.581 621.308 722.414 612.203 722.56 C 603.097 722.707 601.099 701.793 600.57 668.942 Z " fill="rgb(103,140,46)" vector-effect="non-scaling-stroke" stroke-width="5" stroke="rgb(32,38,23)" stroke-linejoin="miter" stroke-linecap="square" stroke-miterlimit="3"/><path d=" M 621.376 674.851 C 621.112 670.633 605.599 606.831 610.836 606.593 C 612.071 606.536 616.4 611.873 622.085 626.356 C 627.77 640.839 632.93 661.002 634.229 676.76 C 635.847 691.19 633.537 702.246 632.709 705.281 C 631.882 708.315 630.234 711.126 628.664 713.142 C 627.436 714.719 626.256 715.811 625.555 716.144 C 624.854 716.477 621.833 718.751 619.895 718.828 C 617.957 718.905 621.64 679.069 621.376 674.851 Z " fill="rgb(84,113,41)"/></g><path d=" M 607.764 595.858 C 594.182 599.253 597.431 710.276 603.113 703.458 Q 600.466 685.105 620.925 687.333 C 639.863 689.396 637.446 697.771 636.113 701.771 C 632.519 712.551 647.782 686.487 643 662.858 C 631.667 606.858 613.098 594.524 607.764 595.858 Z " fill="rgb(255,237,41)" vector-effect="non-scaling-stroke" stroke-width="5" stroke="rgb(227,149,23)" stroke-linejoin="miter" stroke-linecap="square" stroke-miterlimit="3"/><path d=" M 235.848 417.237 C 247.583 384.348 261.373 370.413 284.583 355.237 C 310.583 338.237 331.389 325.112 350.514 326.237 C 369.639 327.362 403.931 331.404 439.181 350.904 C 474.585 370.489 498.583 390.598 514.333 415.95 C 530.082 441.301 534.795 457.975 536.999 467.283 C 539.203 476.59 540.728 499.388 458.348 545.987 C 375.967 592.587 341.551 586.454 342.275 589.42 C 342.999 592.386 408.237 588.168 442.848 574.571 C 477.458 560.973 523.458 523.223 534.583 512.098 C 545.708 500.973 572.008 478.606 572.333 450.616 C 572.549 431.938 526.92 381.83 513.624 370.095 C 491.919 350.939 456.833 331.667 433.181 322.098 C 408.083 311.944 370.848 295.237 333.848 306.237 C 296.848 317.237 253.928 350.069 237.848 366.237 C 220.208 383.973 205.958 416.598 199.583 440.904 C 193.208 465.21 190.779 482.293 193.181 501.571 C 195.583 520.848 206.487 551.043 229.848 565.571 C 253.208 580.098 345.848 598.904 338.514 588.237 C 335.513 583.872 285.848 579.571 249.848 550.904 C 227.888 533.418 224.045 450.315 235.848 417.237 Z " fill="rgb(255,237,41)" vector-effect="non-scaling-stroke" stroke-width="5" stroke="rgb(227,149,23)" stroke-linejoin="miter" stroke-linecap="square" stroke-miterlimit="3"/><g><circle vector-effect="non-scaling-stroke" cx="360.0000000000001" cy="628" r="6.25" fill="rgb(164,107,17)"/><circle vector-effect="non-scaling-stroke" cx="352.75" cy="716.2932754186909" r="6.25" fill="rgb(164,107,17)"/><circle vector-effect="non-scaling-stroke" cx="330.1" cy="804.9999999999999" r="6.25" fill="rgb(164,107,17)"/><circle vector-effect="non-scaling-stroke" cx="338.3750000000001" cy="895.9999999999998" r="6.25" fill="rgb(164,107,17)"/><path d=" M 332.882 960.894 L 332.83 958.995 C 332.83 958.645 332.8 958.295 332.75 957.944 C 332.66 957.203 332.56 956.461 332.45 955.72 C 332.11 953.485 331.77 951.24 331.41 949.005 C 330.52 943.537 329.7 938.068 328.93 932.579 C 328.53 929.685 328.17 926.781 327.85 923.866 C 327.56 921.199 327.33 918.521 327.17 915.833 C 327.04 913.66 326.81 911.498 326.47 909.345 C 326.08 906.925 325.66 904.515 325.19 902.116 C 324.51 898.511 323.87 894.896 323.27 891.281 C 322.44 886.101 321.72 880.9 321.12 875.679 C 320.27 868.223 319.56 860.746 319.01 853.249 C 318.24 842.806 317.63 832.353 317.2 821.889 C 317.02 817.883 316.93 813.867 316.93 809.85 C 316.91 801.56 317.36 793.259 318.29 785.02 C 319.07 778.254 320.26 771.539 321.85 764.928 C 323.22 759.305 324.86 753.754 326.78 748.295 C 328.5 743.424 330.31 738.605 332.22 733.816 C 333.38 730.87 334.52 727.915 335.63 724.949 C 336.73 722.013 337.75 719.047 338.69 716.061 C 339.66 712.992 340.49 709.892 341.21 706.751 C 341.96 703.404 342.55 700.026 342.97 696.617 C 344.24 686.298 345.17 675.948 345.77 665.567 C 346.39 655.495 346.7 645.402 346.72 635.309 C 346.72 631.005 346.65 626.7 346.49 622.405 C 346.36 618.77 346.13 615.145 345.81 611.53 C 345.57 608.79 345.2 606.072 344.68 603.373 C 344.5 602.426 344.27 601.489 343.99 600.572 C 343.81 599.975 343.58 599.388 343.3 598.842 L 342.825 597.929 C 342.478 597.564 342.23 597.099 342.123 596.582 L 342.12 596.576 L 342.122 596.575 C 342.084 596.392 342.064 596.202 342.064 596.008 C 342.064 594.489 343.262 593.256 344.736 593.256 C 346.157 593.256 347.32 594.4 347.403 595.842 L 347.7 596.412 C 348.14 597.256 348.5 598.142 348.77 599.058 C 349.1 600.15 349.37 601.252 349.59 602.374 C 350.14 605.248 350.54 608.142 350.79 611.066 C 351.12 614.774 351.36 618.492 351.49 622.21 C 351.64 626.576 351.72 630.953 351.72 635.32 C 351.7 645.515 351.38 655.701 350.76 665.876 C 350.16 676.37 349.21 686.844 347.93 697.266 C 347.49 700.85 346.87 704.403 346.08 707.915 C 345.33 711.2 344.46 714.444 343.45 717.647 C 342.48 720.726 341.43 723.785 340.3 726.802 C 339.17 729.799 338.02 732.786 336.85 735.762 C 334.97 740.489 333.17 745.247 331.48 750.046 C 329.62 755.34 328.03 760.716 326.7 766.174 C 325.16 772.58 324.01 779.068 323.26 785.618 C 322.35 793.661 321.91 801.745 321.93 809.84 C 321.93 813.784 322.02 817.729 322.19 821.663 C 322.63 832.075 323.23 842.476 324 852.868 C 324.54 860.283 325.24 867.687 326.09 875.071 C 326.68 880.21 327.38 885.329 328.2 890.427 C 328.79 894 329.42 897.564 330.1 901.117 C 330.57 903.578 331.01 906.039 331.41 908.511 C 331.77 910.839 332.02 913.176 332.16 915.524 C 332.31 918.12 332.53 920.705 332.82 923.29 C 333.14 926.142 333.49 929.005 333.88 931.848 C 334.65 937.296 335.46 942.733 336.34 948.161 C 336.7 950.416 337.05 952.682 337.39 954.937 C 337.5 955.71 337.61 956.482 337.7 957.254 C 337.78 957.79 337.82 958.336 337.83 958.871 L 337.88 961.012 C 337.897 961.135 337.906 961.261 337.906 961.389 C 337.906 962.83 336.77 964 335.371 964 C 333.972 964 332.836 962.83 332.836 961.389 C 332.836 961.22 332.852 961.054 332.882 960.894 Z " fill-rule="evenodd" fill="rgb(227,149,23)"/></g><path d=" M 241.228 870.582 L 188.702 864.132 L 188.702 864.132 C 187.332 863.964 186.084 864.939 185.916 866.309 L 185.916 866.309 C 185.748 867.678 186.723 868.927 188.092 869.095 L 247.978 876.448 C 248.101 876.463 248.222 876.469 248.342 876.462 C 248.532 876.515 248.722 876.567 248.915 876.615 C 255.32 878.212 261.816 874.309 263.413 867.904 C 263.604 867.138 263.716 866.371 263.745 865.611 C 263.77 865.514 263.789 865.413 263.801 865.31 L 270.982 807.003 L 270.982 807.003 C 271.15 805.633 270.175 804.384 268.806 804.216 L 268.806 804.216 C 267.437 804.047 266.188 805.022 266.019 806.392 L 259.886 856.191 C 258.464 854.885 256.705 853.906 254.702 853.407 C 248.297 851.81 241.801 855.713 240.204 862.118 C 239.464 865.085 239.905 868.072 241.228 870.582 Z " fill-rule="evenodd" fill="rgb(227,192,36)"/><g><path d="M 255.891 786.742 L 199.7 779.869 C 194.251 779.202 189.287 783.085 188.621 788.533 L 181.019 850.68 C 180.353 856.128 184.235 861.092 189.683 861.758 L 245.875 868.631 C 251.323 869.298 256.287 865.415 256.954 859.967 L 264.555 797.82 C 265.221 792.372 261.339 787.408 255.891 786.742 Z" style="stroke:none;fill:#FFED29;stroke-miterlimit:10;"/><path d="M 255.891 786.742 L 199.7 779.869 C 194.251 779.202 189.287 783.085 188.621 788.533 L 181.019 850.68 C 180.353 856.128 184.235 861.092 189.683 861.758 L 245.875 868.631 C 251.323 869.298 256.287 865.415 256.954 859.967 L 264.555 797.82 C 265.221 792.372 261.339 787.408 255.891 786.742 Z" style="fill:none;stroke:#E39517;stroke-width:5;stroke-linecap:square;stroke-miterlimit:2;"/><path d="M 255.484 786.692 L 200.107 779.918 C 194.434 779.225 189.265 783.267 188.571 788.94 L 186.674 804.447 C 185.98 810.12 190.023 815.289 195.695 815.983 L 251.073 822.756 C 256.746 823.45 261.914 819.408 262.608 813.735 L 264.505 798.227 C 265.199 792.555 261.157 787.386 255.484 786.692 Z" style="stroke:none;fill:#FFED29;stroke-linecap:square;stroke-miterlimit:2;"/><path d="M 255.484 786.692 L 200.107 779.918 C 194.434 779.225 189.265 783.267 188.571 788.94 L 186.674 804.447 C 185.98 810.12 190.023 815.289 195.695 815.983 L 251.073 822.756 C 256.746 823.45 261.914 819.408 262.608 813.735 L 264.505 798.227 C 265.199 792.555 261.157 787.386 255.484 786.692 Z" style="fill:none;stroke:#E39517;stroke-width:5;stroke-linecap:square;stroke-miterlimit:2;"/><path d=" M 230.739 810.716 C 231.158 807.292 228.718 804.172 225.294 803.753 C 221.87 803.334 218.75 805.774 218.332 809.198 C 217.913 812.622 220.353 815.742 223.777 816.161 C 227.201 816.579 230.32 814.14 230.739 810.716 Z " fill="rgb(164,107,17)"/></g><path d=" M 608.781 598.281 C 612.125 598.75 617.281 603.313 622.313 611.25 C 627.344 619.188 632.953 631.734 638.813 654.563 Q 644.672 677.391 638.25 692.438 C 636.485 690.327 636.27 690.164 634.635 688.793 C 633 687.422 624.156 684.594 618.234 684.625 C 618.234 677.533 620.622 667.582 621.125 657.5 C 621.542 649.149 621.375 643.875 619.5 634.125 C 617.625 624.375 605.438 597.813 608.781 598.281 Z " fill="rgb(227,192,36)"/><path d=" M 516.341 864.729 L 463.815 871.178 L 463.815 871.178 C 462.446 871.347 461.47 872.595 461.638 873.965 L 461.638 873.965 C 461.807 875.334 463.055 876.309 464.424 876.141 L 524.31 868.788 C 524.433 868.773 524.552 868.749 524.666 868.714 C 524.864 868.719 525.061 868.724 525.26 868.724 C 531.861 868.724 537.219 863.365 537.219 856.764 C 537.219 855.975 537.143 855.203 536.987 854.459 C 536.988 854.358 536.981 854.256 536.969 854.153 L 529.83 795.841 L 529.83 795.841 C 529.662 794.471 528.414 793.495 527.045 793.663 L 527.045 793.663 C 525.675 793.831 524.699 795.079 524.867 796.448 L 530.964 846.252 C 529.268 845.329 527.325 844.805 525.26 844.805 C 518.659 844.805 513.3 850.164 513.3 856.764 C 513.3 859.822 514.45 862.614 516.341 864.729 Z " fill-rule="evenodd" fill="rgb(227,192,36)"/><g><path d="M 454.109 786.742 L 510.3 779.869 C 515.749 779.202 520.713 783.085 521.379 788.533 L 528.981 850.68 C 529.647 856.128 525.765 861.092 520.317 861.758 L 464.125 868.631 C 458.677 869.298 453.713 865.415 453.046 859.967 L 445.445 797.82 C 444.779 792.372 448.661 787.408 454.109 786.742 Z" style="stroke:none;fill:#FFED29;stroke-linecap:square;stroke-miterlimit:2;"/><path d="M 454.109 786.742 L 510.3 779.869 C 515.749 779.202 520.713 783.085 521.379 788.533 L 528.981 850.68 C 529.647 856.128 525.765 861.092 520.317 861.758 L 464.125 868.631 C 458.677 869.298 453.713 865.415 453.046 859.967 L 445.445 797.82 C 444.779 792.372 448.661 787.408 454.109 786.742 Z" style="fill:none;stroke:#E39517;stroke-width:5;stroke-linecap:square;stroke-miterlimit:2;"/><path d="M 454.516 786.692 L 509.893 779.918 C 515.566 779.225 520.735 783.267 521.429 788.94 L 523.326 804.447 C 524.02 810.12 519.977 815.289 514.305 815.983 L 458.927 822.756 C 453.254 823.45 448.086 819.408 447.392 813.735 L 445.495 798.227 C 444.801 792.555 448.843 787.386 454.516 786.692 Z" style="stroke:none;fill:#FFED29;stroke-linecap:square;stroke-miterlimit:2;"/><path d="M 454.516 786.692 L 509.893 779.918 C 515.566 779.225 520.735 783.267 521.429 788.94 L 523.326 804.447 C 524.02 810.12 519.977 815.289 514.305 815.983 L 458.927 822.756 C 453.254 823.45 448.086 819.408 447.392 813.735 L 445.495 798.227 C 444.801 792.555 448.843 787.386 454.516 786.692 Z" style="fill:none;stroke:#E39517;stroke-width:5;stroke-linecap:square;stroke-miterlimit:2;"/><path d=" M 479.261 810.716 C 478.842 807.292 481.282 804.172 484.706 803.753 C 488.13 803.334 491.25 805.774 491.668 809.198 C 492.087 812.622 489.647 815.742 486.223 816.161 C 482.799 816.579 479.68 814.14 479.261 810.716 Z " fill="rgb(164,107,17)"/></g><path d=" M 458.875 830 Q 456.094 830.297 451.719 828.656 L 451.125 823.57 C 453.68 825.188 457.379 825.43 458.762 825.277 C 474.816 823.402 511.348 818.947 515.092 818.396 Q 518.836 817.846 522.082 814.867 L 522.729 819.923 C 521.344 821.063 519.375 822.563 517 822.875 C 491.415 826.241 480.16 827.728 458.875 830 Z " fill="rgb(227,192,36)"/><path d=" M 251.144 829.953 Q 253.925 830.25 258.3 828.609 L 258.894 823.523 C 256.339 825.141 252.64 825.383 251.257 825.23 C 235.202 823.355 198.671 818.9 194.927 818.35 Q 191.183 817.799 187.937 814.82 L 187.289 819.876 C 188.675 821.016 190.644 822.516 193.019 822.828 C 218.603 826.195 229.858 827.681 251.144 829.953 Z " fill="rgb(227,192,36)"/><path d=" M 615.422 930.016 C 602.672 933.672 568.595 940.737 565.822 941.377 C 573.447 938.627 609 929 621.5 907 Q 634 885 611.633 724.746 C 617.553 724.821 622.231 724.053 626.438 721.5 C 630.58 728.991 631.363 734.126 635.543 797.063 C 639.723 859.999 639.727 884.168 639.381 897.27 C 639.035 910.371 634.294 917.749 632.906 919.891 C 631.518 922.032 628.403 926.042 615.422 930.016 Z " fill="rgb(227,192,36)"/><path d=" M 137.063 686.031 C 139.219 682.563 143.594 671.859 149.219 653.438 C 154.844 635.016 162.719 614.156 165.906 610.113 C 159.795 636.903 152.484 663.448 143.835 689.719 C 141.656 687.656 140.688 687.313 137.063 686.031 Z " fill="rgb(227,192,36)"/><path d=" M 599.013 609.249 C 598.562 612.039 598.047 615.251 597.614 618.917 Q 597.337 621.267 597.064 623.856 Q 595.011 620.915 594.064 613.356 Q 589.161 574.195 573.906 459.406 C 576.645 462.894 580.533 471.879 587.438 499.055 C 590.332 510.448 593.666 525.122 597.814 543.794 Q 601.94 562.36 606.721 593.575 C 605.391 593.859 603.164 595.805 601.383 600.164 C 600.82 601.641 599.918 603.645 599.013 609.249 Z " fill="rgb(227,192,36)"/><path d=" M 243.41 569.227 C 238.857 567.519 234.728 565.435 233.937 565.063 C 233.147 564.69 229.853 562.722 226.881 560.514 C 224.646 558.853 222.749 557.008 221.375 555.875 C 220.001 554.742 213.583 547.284 209.906 541.389 C 205.397 534.159 202.122 527.054 202.75 526.75 C 203.339 526.465 208.516 536.979 219 546.375 C 229.484 555.771 233.813 558.75 245.063 563.438 C 256.312 568.125 270.094 573 293.906 579.938 Q 317.719 586.875 334.344 588.812 C 322.896 589.143 310.783 587.338 298.031 584.813 C 287.058 582.64 272.907 578.696 263.681 575.912 C 258.901 574.47 250.182 571.766 243.41 569.227 Z " fill="rgb(227,192,36)"/><path d=" M 423.492 577.977 Q 400.673 584.091 368.305 586.789 Q 425.878 573.362 448.43 563.258 C 470.982 553.154 502.74 530.071 506.086 526.977 C 509.432 523.882 529.1 507.583 533.749 502.586 C 538.398 497.588 549.403 486.563 557.117 474.581 C 564.831 462.598 569.253 449.658 569.82 449.445 C 569.945 449.398 570.08 450.669 569.789 453.799 C 569.414 458.779 567.948 466.506 562.687 475.508 C 555.888 486.816 545.742 498.347 539.836 503.562 C 528.918 514.498 516.306 525.295 503.812 534.75 C 491.415 544.409 480.374 551.771 469.125 558.375 C 451.073 568.973 440.904 573.533 423.492 577.977 Z " fill="rgb(227,192,36)"/><path d=" M 566.219 439.156 C 569.502 444.998 569.794 449.268 569.859 450.059 C 569.925 450.849 565.89 459.756 557 476.125 Q 560 466 560.667 458.333 C 561.333 450.667 559.569 443.531 558.5 440.25 C 557.431 436.969 555.563 432.188 540.563 410.063 Q 525.563 387.938 509.438 369.779 Q 516.375 375.687 522.828 382.656 C 528.834 389.142 536.958 398.085 540 401.719 C 543.042 405.352 547.308 410.969 552.639 417.619 C 557.778 424.03 562.986 432.409 566.219 439.156 Z " fill="rgb(227,192,36)"/></g></svg>