<?xml version="1.0" encoding="UTF-8" standalone="no"?><!-- Generator: Gravit.io --><svg xmlns="http://www.w3.org/2000/svg" xmlns:xlink="http://www.w3.org/1999/xlink" style="isolation:isolate" viewBox="0 0 128 128" width="128pt" height="128pt"><defs><clipPath id="_clipPath_MEsQyWuzio31EoUzrcVgkkmj6bYLvoBE"><rect width="128" height="128"/></clipPath></defs><g clip-path="url(#_clipPath_MEsQyWuzio31EoUzrcVgkkmj6bYLvoBE)"><defs><filter id="vZkWEGqIRrUtjotffYuFhrkfCBGmVAvN" x="-200%" y="-200%" width="400%" height="400%" filterUnits="objectBoundingBox" color-interpolation-filters="sRGB"><feGaussianBlur xmlns="http://www.w3.org/2000/svg" in="SourceGraphic" stdDeviation="0"/><feOffset xmlns="http://www.w3.org/2000/svg" dx="2" dy="2" result="pf_100_offsetBlur"/><feFlood xmlns="http://www.w3.org/2000/svg" flood-color="#341C53" flood-opacity="0.8"/><feComposite xmlns="http://www.w3.org/2000/svg" in2="pf_100_offsetBlur" operator="in" result="pf_100_dropShadow"/><feBlend xmlns="http://www.w3.org/2000/svg" in="SourceGraphic" in2="pf_100_dropShadow" mode="normal"/></filter></defs><g filter="url(#vZkWEGqIRrUtjotffYuFhrkfCBGmVAvN)"><path d=" M 25.517 101.667 C 15.515 101.667 7.395 93.546 7.395 83.545 C 7.395 73.543 15.515 65.422 25.517 65.422 C 25.602 65.422 25.688 65.423 25.772 65.427 C 25.592 64.036 25.517 62.614 25.517 61.175 C 25.517 38.827 43.661 20.683 66.009 20.683 C 83.526 20.683 98.46 31.831 104.105 47.409 C 113.241 48.326 120.375 56.047 120.375 65.422 C 120.375 75.424 112.255 83.545 102.253 83.545 L 102.253 83.545 L 102.253 83.545 C 101.432 83.545 101.264 83.545 102.253 83.545 L 102.253 83.545 C 107.254 83.545 111.314 87.605 111.314 92.606 C 111.314 97.607 107.254 101.667 102.253 101.667 L 102.253 101.667 Q 26.036 101.667 25.517 101.667 Z " fill="rgb(193,74,94)" vector-effect="non-scaling-stroke" stroke-width="1" stroke="rgb(136,45,60)" stroke-linejoin="miter" stroke-linecap="square" stroke-miterlimit="3"/></g><g filter="url(#MVSaZG5R7Eo4SDcc6NgEn2feJJwWZMxA)"><circle vector-effect="non-scaling-stroke" cx="44.21815117200218" cy="41.24999999999998" r="33.25" fill="rgb(193,74,94)" stroke-width="1" stroke="rgb(136,45,60)" stroke-linejoin="miter" stroke-linecap="square" stroke-miterlimit="3"/><circle vector-effect="non-scaling-stroke" cx="32.19555230194554" cy="23.216101694915157" r="6.011299435028249" fill="rgb(136,45,60)"/><path d=" M 15.775 57.742 C 21.456 67.514 32.167 74.029 44.274 74.029 L 44.274 74.029 L 44.274 74.029 C 62.374 74.029 77.068 59.335 77.068 41.236 C 77.068 29.128 70.492 18.545 60.721 12.864 C 63.532 17.7 65.143 23.319 65.143 29.311 C 65.143 47.41 50.449 62.104 32.349 62.104 C 26.357 62.104 20.611 60.554 15.775 57.742 Z " fill="rgb(242,182,193)"/><circle vector-effect="non-scaling-stroke" cx="37.92507207595683" cy="52.99081920903939" r="11.740819209039538" fill="rgb(136,45,60)"/><circle vector-effect="non-scaling-stroke" cx="56.24075004205862" cy="29.22740112994345" r="4.50847457627119" fill="rgb(136,45,60)"/><circle vector-effect="non-scaling-stroke" cx="69.76617377087203" cy="45.007062146892565" r="2.817796610169495" fill="rgb(193,74,94)"/><circle vector-effect="non-scaling-stroke" cx="54.92577829064617" cy="65.85875706214685" r="2.817796610169495" fill="rgb(193,74,94)"/></g><defs><filter id="MVSaZG5R7Eo4SDcc6NgEn2feJJwWZMxA" x="-200%" y="-200%" width="400%" height="400%" filterUnits="objectBoundingBox" color-interpolation-filters="sRGB"><feGaussianBlur xmlns="http://www.w3.org/2000/svg" in="SourceGraphic" stdDeviation="0"/><feOffset xmlns="http://www.w3.org/2000/svg" dx="1" dy="1" result="pf_100_offsetBlur"/><feFlood xmlns="http://www.w3.org/2000/svg" flood-color="#341C53" flood-opacity="0.8"/><feComposite xmlns="http://www.w3.org/2000/svg" in2="pf_100_offsetBlur" operator="in" result="pf_100_dropShadow"/><feBlend xmlns="http://www.w3.org/2000/svg" in="SourceGraphic" in2="pf_100_dropShadow" mode="normal"/></filter></defs><defs><filter id="NaYTMSeeMYtvZPfMBpQA6NCeUYObgX4W" x="-200%" y="-200%" width="400%" height="400%" filterUnits="objectBoundingBox" color-interpolation-filters="sRGB"><feGaussianBlur xmlns="http://www.w3.org/2000/svg" in="SourceGraphic" stdDeviation="0"/><feOffset xmlns="http://www.w3.org/2000/svg" dx="1" dy="1" result="pf_100_offsetBlur"/><feFlood xmlns="http://www.w3.org/2000/svg" flood-color="#341C53" flood-opacity="0.8"/><feComposite xmlns="http://www.w3.org/2000/svg" in2="pf_100_offsetBlur" operator="in" result="pf_100_dropShadow"/><feBlend xmlns="http://www.w3.org/2000/svg" in="SourceGraphic" in2="pf_100_dropShadow" mode="normal"/></filter></defs><g filter="url(#NaYTMSeeMYtvZPfMBpQA6NCeUYObgX4W)"><path d="M 40.26 107.525 L 40.26 107.525 C 40.812 107.525 41.26 107.973 41.26 108.525 L 41.26 116.725 C 41.26 117.277 40.812 117.725 40.26 117.725 L 40.26 117.725 C 39.708 117.725 39.26 117.277 39.26 116.725 L 39.26 108.525 C 39.26 107.973 39.708 107.525 40.26 107.525 Z" style="stroke:none;fill:#C14A5E;stroke-miterlimit:10;"/></g><defs><filter id="m8lhUE9EeABMOqcJe0bz6NxxEXllfcmB" x="-200%" y="-200%" width="400%" height="400%" filterUnits="objectBoundingBox" color-interpolation-filters="sRGB"><feGaussianBlur xmlns="http://www.w3.org/2000/svg" in="SourceGraphic" stdDeviation="0"/><feOffset xmlns="http://www.w3.org/2000/svg" dx="1" dy="1" result="pf_100_offsetBlur"/><feFlood xmlns="http://www.w3.org/2000/svg" flood-color="#341C53" flood-opacity="0.8"/><feComposite xmlns="http://www.w3.org/2000/svg" in2="pf_100_offsetBlur" operator="in" result="pf_100_dropShadow"/><feBlend xmlns="http://www.w3.org/2000/svg" in="SourceGraphic" in2="pf_100_dropShadow" mode="normal"/></filter></defs><g filter="url(#m8lhUE9EeABMOqcJe0bz6NxxEXllfcmB)"><path d="M 70.26 107.525 L 70.26 107.525 C 70.812 107.525 71.26 107.973 71.26 108.525 L 71.26 116.725 C 71.26 117.277 70.812 117.725 70.26 117.725 L 70.26 117.725 C 69.708 117.725 69.26 117.277 69.26 116.725 L 69.26 108.525 C 69.26 107.973 69.708 107.525 70.26 107.525 Z" style="stroke:none;fill:#C14A5E;stroke-miterlimit:10;"/></g><defs><filter id="nCb1g98H1QfHB77qcbiSpNQ0AYf1ld0t" x="-200%" y="-200%" width="400%" height="400%" filterUnits="objectBoundingBox" color-interpolation-filters="sRGB"><feGaussianBlur xmlns="http://www.w3.org/2000/svg" in="SourceGraphic" stdDeviation="0"/><feOffset xmlns="http://www.w3.org/2000/svg" dx="1" dy="1" result="pf_100_offsetBlur"/><feFlood xmlns="http://www.w3.org/2000/svg" flood-color="#341C53" flood-opacity="0.8"/><feComposite xmlns="http://www.w3.org/2000/svg" in2="pf_100_offsetBlur" operator="in" result="pf_100_dropShadow"/><feBlend xmlns="http://www.w3.org/2000/svg" in="SourceGraphic" in2="pf_100_dropShadow" mode="normal"/></filter></defs><g filter="url(#nCb1g98H1QfHB77qcbiSpNQ0AYf1ld0t)"><path d="M 100.26 107.525 L 100.26 107.525 C 100.812 107.525 101.26 107.973 101.26 108.525 L 101.26 116.725 C 101.26 117.277 100.812 117.725 100.26 117.725 L 100.26 117.725 C 99.708 117.725 99.26 117.277 99.26 116.725 L 99.26 108.525 C 99.26 107.973 99.708 107.525 100.26 107.525 Z" style="stroke:none;fill:#C14A5E;stroke-miterlimit:10;"/></g><defs><filter id="zcJM2oy2o9aB9TIoCtkaKk5w0AdwbRhb" x="-200%" y="-200%" width="400%" height="400%" filterUnits="objectBoundingBox" color-interpolation-filters="sRGB"><feGaussianBlur xmlns="http://www.w3.org/2000/svg" in="SourceGraphic" stdDeviation="0"/><feOffset xmlns="http://www.w3.org/2000/svg" dx="1" dy="1" result="pf_100_offsetBlur"/><feFlood xmlns="http://www.w3.org/2000/svg" flood-color="#341C53" flood-opacity="0.8"/><feComposite xmlns="http://www.w3.org/2000/svg" in2="pf_100_offsetBlur" operator="in" result="pf_100_dropShadow"/><feBlend xmlns="http://www.w3.org/2000/svg" in="SourceGraphic" in2="pf_100_dropShadow" mode="normal"/></filter></defs><g filter="url(#zcJM2oy2o9aB9TIoCtkaKk5w0AdwbRhb)"><circle vector-effect="non-scaling-stroke" cx="30.259817838668827" cy="112.62500000000006" r="1.5" fill="rgb(193,74,94)"/></g><defs><filter id="zHDHuDBvciA2lSfzL6z8Za40AgLPp6RT" x="-200%" y="-200%" width="400%" height="400%" filterUnits="objectBoundingBox" color-interpolation-filters="sRGB"><feGaussianBlur xmlns="http://www.w3.org/2000/svg" in="SourceGraphic" stdDeviation="0"/><feOffset xmlns="http://www.w3.org/2000/svg" dx="1" dy="1" result="pf_100_offsetBlur"/><feFlood xmlns="http://www.w3.org/2000/svg" flood-color="#341C53" flood-opacity="0.8"/><feComposite xmlns="http://www.w3.org/2000/svg" in2="pf_100_offsetBlur" operator="in" result="pf_100_dropShadow"/><feBlend xmlns="http://www.w3.org/2000/svg" in="SourceGraphic" in2="pf_100_dropShadow" mode="normal"/></filter></defs><g filter="url(#zHDHuDBvciA2lSfzL6z8Za40AgLPp6RT)"><circle vector-effect="non-scaling-stroke" cx="20.259817838668823" cy="107.52500090291417" r="1.5" fill="rgb(193,74,94)"/></g><defs><filter id="0b4gfmWeeLKmVII8Yq1bBXWo78tpC1y0" x="-200%" y="-200%" width="400%" height="400%" filterUnits="objectBoundingBox" color-interpolation-filters="sRGB"><feGaussianBlur xmlns="http://www.w3.org/2000/svg" in="SourceGraphic" stdDeviation="0"/><feOffset xmlns="http://www.w3.org/2000/svg" dx="1" dy="1" result="pf_100_offsetBlur"/><feFlood xmlns="http://www.w3.org/2000/svg" flood-color="#341C53" flood-opacity="0.8"/><feComposite xmlns="http://www.w3.org/2000/svg" in2="pf_100_offsetBlur" operator="in" result="pf_100_dropShadow"/><feBlend xmlns="http://www.w3.org/2000/svg" in="SourceGraphic" in2="pf_100_dropShadow" mode="normal"/></filter></defs><g filter="url(#0b4gfmWeeLKmVII8Yq1bBXWo78tpC1y0)"><circle vector-effect="non-scaling-stroke" cx="60.25981783866885" cy="112.625" r="1.5" fill="rgb(193,74,94)"/></g><defs><filter id="l1c2FRiuvHQc61OdYtsWG3WBpXJnB1H2" x="-200%" y="-200%" width="400%" height="400%" filterUnits="objectBoundingBox" color-interpolation-filters="sRGB"><feGaussianBlur xmlns="http://www.w3.org/2000/svg" in="SourceGraphic" stdDeviation="0"/><feOffset xmlns="http://www.w3.org/2000/svg" dx="1" dy="1" result="pf_100_offsetBlur"/><feFlood xmlns="http://www.w3.org/2000/svg" flood-color="#341C53" flood-opacity="0.8"/><feComposite xmlns="http://www.w3.org/2000/svg" in2="pf_100_offsetBlur" operator="in" result="pf_100_dropShadow"/><feBlend xmlns="http://www.w3.org/2000/svg" in="SourceGraphic" in2="pf_100_dropShadow" mode="normal"/></filter></defs><g filter="url(#l1c2FRiuvHQc61OdYtsWG3WBpXJnB1H2)"><path d=" M 88.76 112.637 C 88.753 111.809 89.42 111.132 90.248 111.125 C 91.076 111.118 91.753 111.785 91.76 112.613 C 91.766 113.441 91.1 114.118 90.272 114.125 C 89.444 114.132 88.766 113.465 88.76 112.637 Z " fill="rgb(193,74,94)"/></g><defs><filter id="KvZfppqJXzBa9ZPVZLJOdQvxdbKxefRv" x="-200%" y="-200%" width="400%" height="400%" filterUnits="objectBoundingBox" color-interpolation-filters="sRGB"><feGaussianBlur xmlns="http://www.w3.org/2000/svg" in="SourceGraphic" stdDeviation="0"/><feOffset xmlns="http://www.w3.org/2000/svg" dx="1" dy="1" result="pf_100_offsetBlur"/><feFlood xmlns="http://www.w3.org/2000/svg" flood-color="#341C53" flood-opacity="0.8"/><feComposite xmlns="http://www.w3.org/2000/svg" in2="pf_100_offsetBlur" operator="in" result="pf_100_dropShadow"/><feBlend xmlns="http://www.w3.org/2000/svg" in="SourceGraphic" in2="pf_100_dropShadow" mode="normal"/></filter></defs><g filter="url(#KvZfppqJXzBa9ZPVZLJOdQvxdbKxefRv)"><path d=" M 48.76 107.537 C 48.753 106.709 49.42 106.032 50.248 106.025 C 51.076 106.018 51.753 106.685 51.76 107.513 C 51.766 108.341 51.1 109.018 50.272 109.025 C 49.444 109.032 48.766 108.365 48.76 107.537 Z " fill="rgb(193,74,94)"/></g><defs><filter id="icL3T2D6cMNqGkpr0oaU4xzS0igm9ZVC" x="-200%" y="-200%" width="400%" height="400%" filterUnits="objectBoundingBox" color-interpolation-filters="sRGB"><feGaussianBlur xmlns="http://www.w3.org/2000/svg" in="SourceGraphic" stdDeviation="0"/><feOffset xmlns="http://www.w3.org/2000/svg" dx="1" dy="1" result="pf_100_offsetBlur"/><feFlood xmlns="http://www.w3.org/2000/svg" flood-color="#341C53" flood-opacity="0.8"/><feComposite xmlns="http://www.w3.org/2000/svg" in2="pf_100_offsetBlur" operator="in" result="pf_100_dropShadow"/><feBlend xmlns="http://www.w3.org/2000/svg" in="SourceGraphic" in2="pf_100_dropShadow" mode="normal"/></filter></defs><g filter="url(#icL3T2D6cMNqGkpr0oaU4xzS0igm9ZVC)"><path d=" M 78.76 107.537 C 78.753 106.709 79.42 106.032 80.248 106.025 C 81.076 106.018 81.753 106.685 81.76 107.513 C 81.766 108.341 81.1 109.018 80.272 109.025 C 79.444 109.032 78.766 108.365 78.76 107.537 Z " fill="rgb(193,74,94)"/></g></g></svg>