<?xml version="1.0" encoding="UTF-8" standalone="no"?><!-- Generator: Gravit.io --><svg xmlns="http://www.w3.org/2000/svg" xmlns:xlink="http://www.w3.org/1999/xlink" style="isolation:isolate" viewBox="0 0 128 128" width="128pt" height="128pt"><defs><clipPath id="_clipPath_Z25VCRaav2vz6b7odOCBzHgsIE8kqCNl"><rect width="128" height="128"/></clipPath></defs><g clip-path="url(#_clipPath_Z25VCRaav2vz6b7odOCBzHgsIE8kqCNl)"><g style="opacity:0.99;" filter="url(#SpE2wwjCtQ8fhtDvb9eBCXzebAqqRMSG)"><g><path d="M 76.366 60.753 L 91.18 60.753 C 92.354 60.753 93.308 59.799 93.308 58.625 L 93.308 58.625 C 93.308 57.451 92.354 56.497 91.18 56.497 L 76.366 56.497 C 75.192 56.497 74.238 57.451 74.238 58.625 L 74.238 58.625 C 74.238 59.799 75.192 60.753 76.366 60.753 Z" style="stroke:none;fill:#F2B6C1;stroke-miterlimit:10;"/><path d="M 76.366 60.753 L 91.18 60.753 C 92.354 60.753 93.308 59.799 93.308 58.625 L 93.308 58.625 C 93.308 57.451 92.354 56.497 91.18 56.497 L 76.366 56.497 C 75.192 56.497 74.238 57.451 74.238 58.625 L 74.238 58.625 C 74.238 59.799 75.192 60.753 76.366 60.753 Z" style="fill:none;stroke:#E86F7F;stroke-width:1;stroke-linecap:square;stroke-miterlimit:2;"/><path d="M 9.186 60.753 L 24 60.753 C 25.174 60.753 26.127 59.799 26.127 58.625 L 26.127 58.625 C 26.127 57.451 25.174 56.497 24 56.497 L 9.186 56.497 C 8.011 56.497 7.058 57.451 7.058 58.625 L 7.058 58.625 C 7.058 59.799 8.011 60.753 9.186 60.753 Z" style="stroke:none;fill:#E87181;stroke-linecap:square;stroke-miterlimit:2;"/><path d="M 9.186 60.753 L 24 60.753 C 25.174 60.753 26.127 59.799 26.127 58.625 L 26.127 58.625 C 26.127 57.451 25.174 56.497 24 56.497 L 9.186 56.497 C 8.011 56.497 7.058 57.451 7.058 58.625 L 7.058 58.625 C 7.058 59.799 8.011 60.753 9.186 60.753 Z" style="fill:none;stroke:#C14A5E;stroke-width:1;stroke-linecap:square;stroke-miterlimit:2;"/><path d="M 52.311 99.622 L 52.311 84.808 C 52.311 83.634 51.357 82.681 50.183 82.681 L 50.183 82.681 C 49.009 82.681 48.055 83.634 48.055 84.808 L 48.055 99.622 C 48.055 100.797 49.009 101.75 50.183 101.75 L 50.183 101.75 C 51.357 101.75 52.311 100.797 52.311 99.622 Z" style="stroke:none;fill:#F2B6C1;stroke-linecap:square;stroke-miterlimit:2;"/><path d="M 52.311 99.622 L 52.311 84.808 C 52.311 83.634 51.357 82.681 50.183 82.681 L 50.183 82.681 C 49.009 82.681 48.055 83.634 48.055 84.808 L 48.055 99.622 C 48.055 100.797 49.009 101.75 50.183 101.75 L 50.183 101.75 C 51.357 101.75 52.311 100.797 52.311 99.622 Z" style="fill:none;stroke:#E86F7F;stroke-width:1;stroke-linecap:square;stroke-miterlimit:2;"/><path d="M 52.311 32.442 L 52.311 17.628 C 52.311 16.453 51.357 15.5 50.183 15.5 L 50.183 15.5 C 49.009 15.5 48.055 16.453 48.055 17.628 L 48.055 32.442 C 48.055 33.616 49.009 34.569 50.183 34.569 L 50.183 34.569 C 51.357 34.569 52.311 33.616 52.311 32.442 Z" style="stroke:none;fill:#E87181;stroke-linecap:square;stroke-miterlimit:2;"/><path d="M 52.311 32.442 L 52.311 17.628 C 52.311 16.453 51.357 15.5 50.183 15.5 L 50.183 15.5 C 49.009 15.5 48.055 16.453 48.055 17.628 L 48.055 32.442 C 48.055 33.616 49.009 34.569 50.183 34.569 L 50.183 34.569 C 51.357 34.569 52.311 33.616 52.311 32.442 Z" style="fill:none;stroke:#C14A5E;stroke-width:1;stroke-linecap:square;stroke-miterlimit:2;"/></g><g><path d="M 70.202 41.615 L 80.677 31.14 C 81.507 30.31 81.507 28.961 80.677 28.131 L 80.677 28.131 C 79.846 27.301 78.498 27.301 77.668 28.131 L 67.193 38.606 C 66.362 39.436 66.362 40.785 67.193 41.615 L 67.193 41.615 C 68.023 42.446 69.371 42.446 70.202 41.615 Z" style="stroke:none;fill:#E87181;stroke-linecap:square;stroke-miterlimit:2;"/><path d="M 70.202 41.615 L 80.677 31.14 C 81.507 30.31 81.507 28.961 80.677 28.131 L 80.677 28.131 C 79.846 27.301 78.498 27.301 77.668 28.131 L 67.193 38.606 C 66.362 39.436 66.362 40.785 67.193 41.615 L 67.193 41.615 C 68.023 42.446 69.371 42.446 70.202 41.615 Z" style="fill:none;stroke:#C14A5E;stroke-width:1;stroke-linecap:square;stroke-miterlimit:2;"/><path d="M 22.698 89.119 L 33.173 78.644 C 34.003 77.814 34.003 76.465 33.173 75.635 L 33.173 75.635 C 32.343 74.804 30.994 74.804 30.164 75.635 L 19.689 86.11 C 18.859 86.94 18.859 88.289 19.689 89.119 L 19.689 89.119 C 20.519 89.949 21.868 89.949 22.698 89.119 Z" style="stroke:none;fill:#E87181;stroke-linecap:square;stroke-miterlimit:2;"/><path d="M 22.698 89.119 L 33.173 78.644 C 34.003 77.814 34.003 76.465 33.173 75.635 L 33.173 75.635 C 32.343 74.804 30.994 74.804 30.164 75.635 L 19.689 86.11 C 18.859 86.94 18.859 88.289 19.689 89.119 L 19.689 89.119 C 20.519 89.949 21.868 89.949 22.698 89.119 Z" style="fill:none;stroke:#C14A5E;stroke-width:1;stroke-linecap:square;stroke-miterlimit:2;"/><path d="M 80.677 86.11 L 70.202 75.635 C 69.371 74.804 68.023 74.804 67.193 75.635 L 67.193 75.635 C 66.362 76.465 66.362 77.814 67.193 78.644 L 77.668 89.119 C 78.498 89.949 79.846 89.949 80.677 89.119 L 80.677 89.119 C 81.507 88.289 81.507 86.94 80.677 86.11 Z" style="stroke:none;fill:#F2B6C1;stroke-linecap:square;stroke-miterlimit:2;"/><path d="M 80.677 86.11 L 70.202 75.635 C 69.371 74.804 68.023 74.804 67.193 75.635 L 67.193 75.635 C 66.362 76.465 66.362 77.814 67.193 78.644 L 77.668 89.119 C 78.498 89.949 79.846 89.949 80.677 89.119 L 80.677 89.119 C 81.507 88.289 81.507 86.94 80.677 86.11 Z" style="fill:none;stroke:#E86F7F;stroke-width:1;stroke-linecap:square;stroke-miterlimit:2;"/><path d="M 33.173 38.606 L 22.698 28.131 C 21.868 27.301 20.519 27.301 19.689 28.131 L 19.689 28.131 C 18.859 28.961 18.859 30.31 19.689 31.14 L 30.164 41.615 C 30.994 42.446 32.343 42.446 33.173 41.615 L 33.173 41.615 C 34.003 40.785 34.003 39.436 33.173 38.606 Z" style="stroke:none;fill:#E87181;stroke-linecap:square;stroke-miterlimit:2;"/><path d="M 33.173 38.606 L 22.698 28.131 C 21.868 27.301 20.519 27.301 19.689 28.131 L 19.689 28.131 C 18.859 28.961 18.859 30.31 19.689 31.14 L 30.164 41.615 C 30.994 42.446 32.343 42.446 33.173 41.615 L 33.173 41.615 C 34.003 40.785 34.003 39.436 33.173 38.606 Z" style="fill:none;stroke:#C14A5E;stroke-width:1;stroke-linecap:square;stroke-miterlimit:2;"/></g><circle vector-effect="non-scaling-stroke" cx="50.182894545018954" cy="58.62499999999994" r="22.39350912778905" fill="rgb(232,112,128)" stroke-width="1" stroke="rgb(193,73,93)" stroke-linejoin="miter" stroke-linecap="square" stroke-miterlimit="3"/></g><defs><filter id="SpE2wwjCtQ8fhtDvb9eBCXzebAqqRMSG" x="-200%" y="-200%" width="400%" height="400%" filterUnits="objectBoundingBox" color-interpolation-filters="sRGB"><feGaussianBlur xmlns="http://www.w3.org/2000/svg" in="SourceGraphic" stdDeviation="0"/><feOffset xmlns="http://www.w3.org/2000/svg" dx="2" dy="2" result="pf_100_offsetBlur"/><feFlood xmlns="http://www.w3.org/2000/svg" flood-color="#341C53" flood-opacity="0.65"/><feComposite xmlns="http://www.w3.org/2000/svg" in2="pf_100_offsetBlur" operator="in" result="pf_100_dropShadow"/><feBlend xmlns="http://www.w3.org/2000/svg" in="SourceGraphic" in2="pf_100_dropShadow" mode="normal"/></filter></defs><defs><filter id="9f8GrtlQIBuNmMAtJSxJeCmDrD3gXJnU" x="-200%" y="-200%" width="400%" height="400%" filterUnits="objectBoundingBox" color-interpolation-filters="sRGB"><feGaussianBlur xmlns="http://www.w3.org/2000/svg" in="SourceGraphic" stdDeviation="0"/><feOffset xmlns="http://www.w3.org/2000/svg" dx="2" dy="2" result="pf_100_offsetBlur"/><feFlood xmlns="http://www.w3.org/2000/svg" flood-color="#341C53" flood-opacity="0.65"/><feComposite xmlns="http://www.w3.org/2000/svg" in2="pf_100_offsetBlur" operator="in" result="pf_100_dropShadow"/><feBlend xmlns="http://www.w3.org/2000/svg" in="SourceGraphic" in2="pf_100_dropShadow" mode="normal"/></filter></defs><g filter="url(#9f8GrtlQIBuNmMAtJSxJeCmDrD3gXJnU)"><path d=" M 38.026 110.492 C 29.383 110.492 22.366 103.474 22.366 94.831 C 22.366 86.188 29.383 79.17 38.026 79.17 C 38.1 79.17 38.174 79.171 38.247 79.174 C 38.091 77.972 38.026 76.744 38.026 75.5 C 38.026 56.188 53.706 40.508 73.018 40.508 C 88.156 40.508 101.062 50.142 105.94 63.604 C 113.835 64.396 120 71.069 120 79.17 C 120 87.814 112.983 94.831 104.339 94.831 L 104.339 94.831 L 104.339 94.831 C 103.63 94.831 103.485 94.831 104.339 94.831 L 104.339 94.831 C 108.661 94.831 112.17 98.34 112.17 102.661 C 112.17 106.983 108.661 110.492 104.339 110.492 L 104.339 110.492 Q 38.475 110.492 38.026 110.492 Z " fill="rgb(242,182,193)" vector-effect="non-scaling-stroke" stroke-width="1" stroke="rgb(193,74,94)" stroke-linejoin="miter" stroke-linecap="square" stroke-miterlimit="3"/></g></g></svg>