<?xml version="1.0" encoding="UTF-8" standalone="no"?><!-- Generator: Gravit.io --><svg xmlns="http://www.w3.org/2000/svg" xmlns:xlink="http://www.w3.org/1999/xlink" style="isolation:isolate" viewBox="0 0 128 128" width="128pt" height="128pt"><defs><clipPath id="_clipPath_iMDDnlijZYDu5kbgvRMHWq3mZtSmuffO"><rect width="128" height="128"/></clipPath></defs><g clip-path="url(#_clipPath_iMDDnlijZYDu5kbgvRMHWq3mZtSmuffO)"><g filter="url(#TRtw7I25Kd7lOBC0XS0FzAGvjeUTN6xL)"><g><path d="M 100.429 66.96 L 121.04 66.96 C 122.674 66.96 124 65.634 124 64 L 124 64 C 124 62.366 122.674 61.04 121.04 61.04 L 100.429 61.04 C 98.795 61.04 97.469 62.366 97.469 64 L 97.469 64 C 97.469 65.634 98.795 66.96 100.429 66.96 Z" style="stroke:none;fill:#F2B6C1;stroke-miterlimit:10;"/><path d="M 100.429 66.96 L 121.04 66.96 C 122.674 66.96 124 65.634 124 64 L 124 64 C 124 62.366 122.674 61.04 121.04 61.04 L 100.429 61.04 C 98.795 61.04 97.469 62.366 97.469 64 L 97.469 64 C 97.469 65.634 98.795 66.96 100.429 66.96 Z" style="fill:none;stroke:#C14A5E;stroke-width:1;stroke-linecap:square;stroke-miterlimit:2;"/><path d="M 6.96 66.96 L 27.571 66.96 C 29.205 66.96 30.531 65.634 30.531 64 L 30.531 64 C 30.531 62.366 29.205 61.04 27.571 61.04 L 6.96 61.04 C 5.326 61.04 4 62.366 4 64 L 4 64 C 4 65.634 5.326 66.96 6.96 66.96 Z" style="stroke:none;fill:#F2B6C1;stroke-linecap:square;stroke-miterlimit:2;"/><path d="M 6.96 66.96 L 27.571 66.96 C 29.205 66.96 30.531 65.634 30.531 64 L 30.531 64 C 30.531 62.366 29.205 61.04 27.571 61.04 L 6.96 61.04 C 5.326 61.04 4 62.366 4 64 L 4 64 C 4 65.634 5.326 66.96 6.96 66.96 Z" style="fill:none;stroke:#C14A5E;stroke-width:1;stroke-linecap:square;stroke-miterlimit:2;"/><path d="M 66.96 121.04 L 66.96 100.429 C 66.96 98.795 65.634 97.469 64 97.469 L 64 97.469 C 62.366 97.469 61.04 98.795 61.04 100.429 L 61.04 121.04 C 61.04 122.674 62.366 124 64 124 L 64 124 C 65.634 124 66.96 122.674 66.96 121.04 Z" style="stroke:none;fill:#F2B6C1;stroke-linecap:square;stroke-miterlimit:2;"/><path d="M 66.96 121.04 L 66.96 100.429 C 66.96 98.795 65.634 97.469 64 97.469 L 64 97.469 C 62.366 97.469 61.04 98.795 61.04 100.429 L 61.04 121.04 C 61.04 122.674 62.366 124 64 124 L 64 124 C 65.634 124 66.96 122.674 66.96 121.04 Z" style="fill:none;stroke:#C14A5E;stroke-width:1;stroke-linecap:square;stroke-miterlimit:2;"/><path d="M 66.96 27.571 L 66.96 6.96 C 66.96 5.326 65.634 4 64 4 L 64 4 C 62.366 4 61.04 5.326 61.04 6.96 L 61.04 27.571 C 61.04 29.205 62.366 30.531 64 30.531 L 64 30.531 C 65.634 30.531 66.96 29.205 66.96 27.571 Z" style="stroke:none;fill:#F2B6C1;stroke-linecap:square;stroke-miterlimit:2;"/><path d="M 66.96 27.571 L 66.96 6.96 C 66.96 5.326 65.634 4 64 4 L 64 4 C 62.366 4 61.04 5.326 61.04 6.96 L 61.04 27.571 C 61.04 29.205 62.366 30.531 64 30.531 L 64 30.531 C 65.634 30.531 66.96 29.205 66.96 27.571 Z" style="fill:none;stroke:#C14A5E;stroke-width:1;stroke-linecap:square;stroke-miterlimit:2;"/></g><g><path d="M 91.852 40.334 L 106.426 25.76 C 107.582 24.605 107.582 22.729 106.426 21.574 L 106.426 21.574 C 105.271 20.418 103.395 20.418 102.24 21.574 L 87.666 36.148 C 86.511 37.303 86.511 39.179 87.666 40.334 L 87.666 40.334 C 88.821 41.489 90.697 41.489 91.852 40.334 Z" style="stroke:none;fill:#F2B6C1;stroke-linecap:square;stroke-miterlimit:2;"/><path d="M 91.852 40.334 L 106.426 25.76 C 107.582 24.605 107.582 22.729 106.426 21.574 L 106.426 21.574 C 105.271 20.418 103.395 20.418 102.24 21.574 L 87.666 36.148 C 86.511 37.303 86.511 39.179 87.666 40.334 L 87.666 40.334 C 88.821 41.489 90.697 41.489 91.852 40.334 Z" style="fill:none;stroke:#C14A5E;stroke-width:1;stroke-linecap:square;stroke-miterlimit:2;"/><path d="M 25.76 106.426 L 40.334 91.852 C 41.489 90.697 41.489 88.821 40.334 87.666 L 40.334 87.666 C 39.179 86.511 37.303 86.511 36.148 87.666 L 21.574 102.24 C 20.418 103.395 20.418 105.271 21.574 106.426 L 21.574 106.426 C 22.729 107.582 24.605 107.582 25.76 106.426 Z" style="stroke:none;fill:#F2B6C1;stroke-linecap:square;stroke-miterlimit:2;"/><path d="M 25.76 106.426 L 40.334 91.852 C 41.489 90.697 41.489 88.821 40.334 87.666 L 40.334 87.666 C 39.179 86.511 37.303 86.511 36.148 87.666 L 21.574 102.24 C 20.418 103.395 20.418 105.271 21.574 106.426 L 21.574 106.426 C 22.729 107.582 24.605 107.582 25.76 106.426 Z" style="fill:none;stroke:#C14A5E;stroke-width:1;stroke-linecap:square;stroke-miterlimit:2;"/><path d="M 106.426 102.24 L 91.852 87.666 C 90.697 86.511 88.821 86.511 87.666 87.666 L 87.666 87.666 C 86.511 88.821 86.511 90.697 87.666 91.852 L 102.24 106.426 C 103.395 107.582 105.271 107.582 106.426 106.426 L 106.426 106.426 C 107.582 105.271 107.582 103.395 106.426 102.24 Z" style="stroke:none;fill:#F2B6C1;stroke-linecap:square;stroke-miterlimit:2;"/><path d="M 106.426 102.24 L 91.852 87.666 C 90.697 86.511 88.821 86.511 87.666 87.666 L 87.666 87.666 C 86.511 88.821 86.511 90.697 87.666 91.852 L 102.24 106.426 C 103.395 107.582 105.271 107.582 106.426 106.426 L 106.426 106.426 C 107.582 105.271 107.582 103.395 106.426 102.24 Z" style="fill:none;stroke:#C14A5E;stroke-width:1;stroke-linecap:square;stroke-miterlimit:2;"/><path d="M 40.334 36.148 L 25.76 21.574 C 24.605 20.418 22.729 20.418 21.574 21.574 L 21.574 21.574 C 20.418 22.729 20.418 24.605 21.574 25.76 L 36.148 40.334 C 37.303 41.489 39.179 41.489 40.334 40.334 L 40.334 40.334 C 41.489 39.179 41.489 37.303 40.334 36.148 Z" style="stroke:none;fill:#F2B6C1;stroke-linecap:square;stroke-miterlimit:2;"/><path d="M 40.334 36.148 L 25.76 21.574 C 24.605 20.418 22.729 20.418 21.574 21.574 L 21.574 21.574 C 20.418 22.729 20.418 24.605 21.574 25.76 L 36.148 40.334 C 37.303 41.489 39.179 41.489 40.334 40.334 L 40.334 40.334 C 41.489 39.179 41.489 37.303 40.334 36.148 Z" style="fill:none;stroke:#C14A5E;stroke-width:1;stroke-linecap:square;stroke-miterlimit:2;"/></g><circle vector-effect="non-scaling-stroke" cx="63.999999999999986" cy="64.00000000000003" r="31.156186612576064" fill="rgb(242,182,193)" stroke-width="1" stroke="rgb(193,74,94)" stroke-linejoin="miter" stroke-linecap="square" stroke-miterlimit="3"/></g><defs><filter id="TRtw7I25Kd7lOBC0XS0FzAGvjeUTN6xL" x="-200%" y="-200%" width="400%" height="400%" filterUnits="objectBoundingBox" color-interpolation-filters="sRGB"><feGaussianBlur xmlns="http://www.w3.org/2000/svg" in="SourceGraphic" stdDeviation="0"/><feOffset xmlns="http://www.w3.org/2000/svg" dx="2" dy="2" result="pf_100_offsetBlur"/><feFlood xmlns="http://www.w3.org/2000/svg" flood-color="#341C53" flood-opacity="0.8"/><feComposite xmlns="http://www.w3.org/2000/svg" in2="pf_100_offsetBlur" operator="in" result="pf_100_dropShadow"/><feBlend xmlns="http://www.w3.org/2000/svg" in="SourceGraphic" in2="pf_100_dropShadow" mode="normal"/></filter></defs></g></svg>