<?xml version="1.0" encoding="UTF-8" standalone="no"?><!-- Generator: Gravit.io --><svg xmlns="http://www.w3.org/2000/svg" xmlns:xlink="http://www.w3.org/1999/xlink" style="isolation:isolate" viewBox="0 0 128 128" width="128pt" height="128pt"><defs><clipPath id="_clipPath_ZKhTaebEcNKbCHtat1c9jPOuJaUh706X"><rect width="128" height="128"/></clipPath></defs><g clip-path="url(#_clipPath_ZKhTaebEcNKbCHtat1c9jPOuJaUh706X)"><g style="opacity:0.99;" filter="url(#5XQk3jHVTqz35TQaXEkvVSMZjKbb4oVF)"><g><path d="M 76.366 50.261 L 91.18 50.261 C 92.354 50.261 93.308 49.308 93.308 48.133 L 93.308 48.133 C 93.308 46.959 92.354 46.006 91.18 46.006 L 76.366 46.006 C 75.192 46.006 74.238 46.959 74.238 48.133 L 74.238 48.133 C 74.238 49.308 75.192 50.261 76.366 50.261 Z" style="stroke:none;fill:#F2B6C1;stroke-miterlimit:10;"/><path d="M 76.366 50.261 L 91.18 50.261 C 92.354 50.261 93.308 49.308 93.308 48.133 L 93.308 48.133 C 93.308 46.959 92.354 46.006 91.18 46.006 L 76.366 46.006 C 75.192 46.006 74.238 46.959 74.238 48.133 L 74.238 48.133 C 74.238 49.308 75.192 50.261 76.366 50.261 Z" style="fill:none;stroke:#E86F7F;stroke-width:1;stroke-linecap:square;stroke-miterlimit:2;"/><path d="M 9.186 50.261 L 24 50.261 C 25.174 50.261 26.127 49.308 26.127 48.133 L 26.127 48.133 C 26.127 46.959 25.174 46.006 24 46.006 L 9.186 46.006 C 8.011 46.006 7.058 46.959 7.058 48.133 L 7.058 48.133 C 7.058 49.308 8.011 50.261 9.186 50.261 Z" style="stroke:none;fill:#E87181;stroke-linecap:square;stroke-miterlimit:2;"/><path d="M 9.186 50.261 L 24 50.261 C 25.174 50.261 26.127 49.308 26.127 48.133 L 26.127 48.133 C 26.127 46.959 25.174 46.006 24 46.006 L 9.186 46.006 C 8.011 46.006 7.058 46.959 7.058 48.133 L 7.058 48.133 C 7.058 49.308 8.011 50.261 9.186 50.261 Z" style="fill:none;stroke:#C14A5E;stroke-width:1;stroke-linecap:square;stroke-miterlimit:2;"/><path d="M 52.311 89.131 L 52.311 74.317 C 52.311 73.142 51.357 72.189 50.183 72.189 L 50.183 72.189 C 49.009 72.189 48.055 73.142 48.055 74.317 L 48.055 89.131 C 48.055 90.305 49.009 91.258 50.183 91.258 L 50.183 91.258 C 51.357 91.258 52.311 90.305 52.311 89.131 Z" style="stroke:none;fill:#F2B6C1;stroke-linecap:square;stroke-miterlimit:2;"/><path d="M 52.311 89.131 L 52.311 74.317 C 52.311 73.142 51.357 72.189 50.183 72.189 L 50.183 72.189 C 49.009 72.189 48.055 73.142 48.055 74.317 L 48.055 89.131 C 48.055 90.305 49.009 91.258 50.183 91.258 L 50.183 91.258 C 51.357 91.258 52.311 90.305 52.311 89.131 Z" style="fill:none;stroke:#E86F7F;stroke-width:1;stroke-linecap:square;stroke-miterlimit:2;"/><path d="M 52.311 21.95 L 52.311 7.136 C 52.311 5.962 51.357 5.008 50.183 5.008 L 50.183 5.008 C 49.009 5.008 48.055 5.962 48.055 7.136 L 48.055 21.95 C 48.055 23.124 49.009 24.078 50.183 24.078 L 50.183 24.078 C 51.357 24.078 52.311 23.124 52.311 21.95 Z" style="stroke:none;fill:#E87181;stroke-linecap:square;stroke-miterlimit:2;"/><path d="M 52.311 21.95 L 52.311 7.136 C 52.311 5.962 51.357 5.008 50.183 5.008 L 50.183 5.008 C 49.009 5.008 48.055 5.962 48.055 7.136 L 48.055 21.95 C 48.055 23.124 49.009 24.078 50.183 24.078 L 50.183 24.078 C 51.357 24.078 52.311 23.124 52.311 21.95 Z" style="fill:none;stroke:#C14A5E;stroke-width:1;stroke-linecap:square;stroke-miterlimit:2;"/></g><g><path d="M 70.202 31.123 L 80.677 20.648 C 81.507 19.818 81.507 18.47 80.677 17.639 L 80.677 17.639 C 79.846 16.809 78.498 16.809 77.668 17.639 L 67.193 28.114 C 66.362 28.945 66.362 30.293 67.193 31.123 L 67.193 31.123 C 68.023 31.954 69.371 31.954 70.202 31.123 Z" style="stroke:none;fill:#E87181;stroke-linecap:square;stroke-miterlimit:2;"/><path d="M 70.202 31.123 L 80.677 20.648 C 81.507 19.818 81.507 18.47 80.677 17.639 L 80.677 17.639 C 79.846 16.809 78.498 16.809 77.668 17.639 L 67.193 28.114 C 66.362 28.945 66.362 30.293 67.193 31.123 L 67.193 31.123 C 68.023 31.954 69.371 31.954 70.202 31.123 Z" style="fill:none;stroke:#C14A5E;stroke-width:1;stroke-linecap:square;stroke-miterlimit:2;"/><path d="M 22.698 78.627 L 33.173 68.152 C 34.003 67.322 34.003 65.974 33.173 65.143 L 33.173 65.143 C 32.343 64.313 30.994 64.313 30.164 65.143 L 19.689 75.618 C 18.859 76.449 18.859 77.797 19.689 78.627 L 19.689 78.627 C 20.519 79.458 21.868 79.458 22.698 78.627 Z" style="stroke:none;fill:#E87181;stroke-linecap:square;stroke-miterlimit:2;"/><path d="M 22.698 78.627 L 33.173 68.152 C 34.003 67.322 34.003 65.974 33.173 65.143 L 33.173 65.143 C 32.343 64.313 30.994 64.313 30.164 65.143 L 19.689 75.618 C 18.859 76.449 18.859 77.797 19.689 78.627 L 19.689 78.627 C 20.519 79.458 21.868 79.458 22.698 78.627 Z" style="fill:none;stroke:#C14A5E;stroke-width:1;stroke-linecap:square;stroke-miterlimit:2;"/><path d="M 80.677 75.618 L 70.202 65.143 C 69.371 64.313 68.023 64.313 67.193 65.143 L 67.193 65.143 C 66.362 65.974 66.362 67.322 67.193 68.152 L 77.668 78.627 C 78.498 79.458 79.846 79.458 80.677 78.627 L 80.677 78.627 C 81.507 77.797 81.507 76.449 80.677 75.618 Z" style="stroke:none;fill:#F2B6C1;stroke-linecap:square;stroke-miterlimit:2;"/><path d="M 80.677 75.618 L 70.202 65.143 C 69.371 64.313 68.023 64.313 67.193 65.143 L 67.193 65.143 C 66.362 65.974 66.362 67.322 67.193 68.152 L 77.668 78.627 C 78.498 79.458 79.846 79.458 80.677 78.627 L 80.677 78.627 C 81.507 77.797 81.507 76.449 80.677 75.618 Z" style="fill:none;stroke:#E86F7F;stroke-width:1;stroke-linecap:square;stroke-miterlimit:2;"/><path d="M 33.173 28.114 L 22.698 17.639 C 21.868 16.809 20.519 16.809 19.689 17.639 L 19.689 17.639 C 18.859 18.47 18.859 19.818 19.689 20.648 L 30.164 31.123 C 30.994 31.954 32.343 31.954 33.173 31.123 L 33.173 31.123 C 34.003 30.293 34.003 28.945 33.173 28.114 Z" style="stroke:none;fill:#E87181;stroke-linecap:square;stroke-miterlimit:2;"/><path d="M 33.173 28.114 L 22.698 17.639 C 21.868 16.809 20.519 16.809 19.689 17.639 L 19.689 17.639 C 18.859 18.47 18.859 19.818 19.689 20.648 L 30.164 31.123 C 30.994 31.954 32.343 31.954 33.173 31.123 L 33.173 31.123 C 34.003 30.293 34.003 28.945 33.173 28.114 Z" style="fill:none;stroke:#C14A5E;stroke-width:1;stroke-linecap:square;stroke-miterlimit:2;"/></g><circle vector-effect="non-scaling-stroke" cx="50.182894545018954" cy="48.13328933715816" r="22.393509127789045" fill="rgb(232,112,128)" stroke-width="1" stroke="rgb(193,73,93)" stroke-linejoin="miter" stroke-linecap="square" stroke-miterlimit="3"/></g><defs><filter id="5XQk3jHVTqz35TQaXEkvVSMZjKbb4oVF" x="-200%" y="-200%" width="400%" height="400%" filterUnits="objectBoundingBox" color-interpolation-filters="sRGB"><feGaussianBlur xmlns="http://www.w3.org/2000/svg" in="SourceGraphic" stdDeviation="0"/><feOffset xmlns="http://www.w3.org/2000/svg" dx="2" dy="2" result="pf_100_offsetBlur"/><feFlood xmlns="http://www.w3.org/2000/svg" flood-color="#341C53" flood-opacity="0.65"/><feComposite xmlns="http://www.w3.org/2000/svg" in2="pf_100_offsetBlur" operator="in" result="pf_100_dropShadow"/><feBlend xmlns="http://www.w3.org/2000/svg" in="SourceGraphic" in2="pf_100_dropShadow" mode="normal"/></filter></defs><defs><filter id="Xz1NeL3x24h3jEaQOA6X6pf4sarnDap6" x="-200%" y="-200%" width="400%" height="400%" filterUnits="objectBoundingBox" color-interpolation-filters="sRGB"><feGaussianBlur xmlns="http://www.w3.org/2000/svg" in="SourceGraphic" stdDeviation="0"/><feOffset xmlns="http://www.w3.org/2000/svg" dx="2" dy="2" result="pf_100_offsetBlur"/><feFlood xmlns="http://www.w3.org/2000/svg" flood-color="#341C53" flood-opacity="0.65"/><feComposite xmlns="http://www.w3.org/2000/svg" in2="pf_100_offsetBlur" operator="in" result="pf_100_dropShadow"/><feBlend xmlns="http://www.w3.org/2000/svg" in="SourceGraphic" in2="pf_100_dropShadow" mode="normal"/></filter></defs><g filter="url(#Xz1NeL3x24h3jEaQOA6X6pf4sarnDap6)"><path d=" M 38.026 100 C 29.383 100 22.366 92.983 22.366 84.339 C 22.366 75.696 29.383 68.679 38.026 68.679 C 38.1 68.679 38.174 68.679 38.247 68.682 C 38.091 67.481 38.026 66.252 38.026 65.008 C 38.026 45.696 53.706 30.017 73.018 30.017 C 88.156 30.017 101.062 39.65 105.94 53.113 C 113.835 53.904 120 60.577 120 68.679 C 120 77.322 112.983 84.339 104.339 84.339 L 104.339 84.339 L 104.339 84.339 C 103.63 84.339 103.485 84.339 104.339 84.339 L 104.339 84.339 C 108.661 84.339 112.17 87.848 112.17 92.17 C 112.17 96.491 108.661 100 104.339 100 L 104.339 100 Q 38.475 100 38.026 100 Z " fill="rgb(242,182,193)" vector-effect="non-scaling-stroke" stroke-width="1" stroke="rgb(193,74,94)" stroke-linejoin="miter" stroke-linecap="square" stroke-miterlimit="3"/></g><defs><filter id="qKZWK5PS438qBbf7nfQsTMbYLT9sJ3xQ" x="-200%" y="-200%" width="400%" height="400%" filterUnits="objectBoundingBox" color-interpolation-filters="sRGB"><feGaussianBlur xmlns="http://www.w3.org/2000/svg" in="SourceGraphic" stdDeviation="0"/><feOffset xmlns="http://www.w3.org/2000/svg" dx="1" dy="1" result="pf_100_offsetBlur"/><feFlood xmlns="http://www.w3.org/2000/svg" flood-color="#341C53" flood-opacity="0.65"/><feComposite xmlns="http://www.w3.org/2000/svg" in2="pf_100_offsetBlur" operator="in" result="pf_100_dropShadow"/><feBlend xmlns="http://www.w3.org/2000/svg" in="SourceGraphic" in2="pf_100_dropShadow" mode="normal"/></filter></defs><g filter="url(#qKZWK5PS438qBbf7nfQsTMbYLT9sJ3xQ)"><path d="M 49 104.8 L 49 104.8 C 49.552 104.8 50 105.248 50 105.8 L 50 114 C 50 114.552 49.552 115 49 115 L 49 115 C 48.448 115 48 114.552 48 114 L 48 105.8 C 48 105.248 48.448 104.8 49 104.8 Z" style="stroke:none;fill:#C14A5E;stroke-linecap:square;stroke-miterlimit:2;"/></g><defs><filter id="NCky2VAGT5ii9q7FaYJLcVQQKCSnv74s" x="-200%" y="-200%" width="400%" height="400%" filterUnits="objectBoundingBox" color-interpolation-filters="sRGB"><feGaussianBlur xmlns="http://www.w3.org/2000/svg" in="SourceGraphic" stdDeviation="0"/><feOffset xmlns="http://www.w3.org/2000/svg" dx="1" dy="1" result="pf_100_offsetBlur"/><feFlood xmlns="http://www.w3.org/2000/svg" flood-color="#341C53" flood-opacity="0.65"/><feComposite xmlns="http://www.w3.org/2000/svg" in2="pf_100_offsetBlur" operator="in" result="pf_100_dropShadow"/><feBlend xmlns="http://www.w3.org/2000/svg" in="SourceGraphic" in2="pf_100_dropShadow" mode="normal"/></filter></defs><g filter="url(#NCky2VAGT5ii9q7FaYJLcVQQKCSnv74s)"><path d="M 40 109.9 L 40 109.9 C 40.552 109.9 41 110.348 41 110.9 L 41 119.1 C 41 119.652 40.552 120.1 40 120.1 L 40 120.1 C 39.448 120.1 39 119.652 39 119.1 L 39 110.9 C 39 110.348 39.448 109.9 40 109.9 Z" style="stroke:none;fill:#C14A5E;stroke-linecap:square;stroke-miterlimit:2;"/></g><defs><filter id="k5yP4KyMtYHBR9TSsK2qI6bZtyOOrexC" x="-200%" y="-200%" width="400%" height="400%" filterUnits="objectBoundingBox" color-interpolation-filters="sRGB"><feGaussianBlur xmlns="http://www.w3.org/2000/svg" in="SourceGraphic" stdDeviation="0"/><feOffset xmlns="http://www.w3.org/2000/svg" dx="1" dy="1" result="pf_100_offsetBlur"/><feFlood xmlns="http://www.w3.org/2000/svg" flood-color="#341C53" flood-opacity="0.65"/><feComposite xmlns="http://www.w3.org/2000/svg" in2="pf_100_offsetBlur" operator="in" result="pf_100_dropShadow"/><feBlend xmlns="http://www.w3.org/2000/svg" in="SourceGraphic" in2="pf_100_dropShadow" mode="normal"/></filter></defs><g filter="url(#k5yP4KyMtYHBR9TSsK2qI6bZtyOOrexC)"><path d="M 70 109.8 L 70 109.8 C 70.552 109.8 71 110.248 71 110.8 L 71 119 C 71 119.552 70.552 120 70 120 L 70 120 C 69.448 120 69 119.552 69 119 L 69 110.8 C 69 110.248 69.448 109.8 70 109.8 Z" style="stroke:none;fill:#C14A5E;stroke-linecap:square;stroke-miterlimit:2;"/></g><defs><filter id="RxEq1qQPDzx9awusc1uifJFPdsbxVk7z" x="-200%" y="-200%" width="400%" height="400%" filterUnits="objectBoundingBox" color-interpolation-filters="sRGB"><feGaussianBlur xmlns="http://www.w3.org/2000/svg" in="SourceGraphic" stdDeviation="0"/><feOffset xmlns="http://www.w3.org/2000/svg" dx="1" dy="1" result="pf_100_offsetBlur"/><feFlood xmlns="http://www.w3.org/2000/svg" flood-color="#341C53" flood-opacity="0.65"/><feComposite xmlns="http://www.w3.org/2000/svg" in2="pf_100_offsetBlur" operator="in" result="pf_100_dropShadow"/><feBlend xmlns="http://www.w3.org/2000/svg" in="SourceGraphic" in2="pf_100_dropShadow" mode="normal"/></filter></defs><g filter="url(#RxEq1qQPDzx9awusc1uifJFPdsbxVk7z)"><path d="M 90 109.8 L 90 109.8 C 90.552 109.8 91 110.248 91 110.8 L 91 119 C 91 119.552 90.552 120 90 120 L 90 120 C 89.448 120 89 119.552 89 119 L 89 110.8 C 89 110.248 89.448 109.8 90 109.8 Z" style="stroke:none;fill:#C14A5E;stroke-linecap:square;stroke-miterlimit:2;"/></g><defs><filter id="5rzOE8g9LXDKhtcwmATkCy7JRtYSXuGM" x="-200%" y="-200%" width="400%" height="400%" filterUnits="objectBoundingBox" color-interpolation-filters="sRGB"><feGaussianBlur xmlns="http://www.w3.org/2000/svg" in="SourceGraphic" stdDeviation="0"/><feOffset xmlns="http://www.w3.org/2000/svg" dx="1" dy="1" result="pf_100_offsetBlur"/><feFlood xmlns="http://www.w3.org/2000/svg" flood-color="#341C53" flood-opacity="0.65"/><feComposite xmlns="http://www.w3.org/2000/svg" in2="pf_100_offsetBlur" operator="in" result="pf_100_dropShadow"/><feBlend xmlns="http://www.w3.org/2000/svg" in="SourceGraphic" in2="pf_100_dropShadow" mode="normal"/></filter></defs><g filter="url(#5rzOE8g9LXDKhtcwmATkCy7JRtYSXuGM)"><path d="M 59 104.8 L 59 104.8 C 59.552 104.8 60 105.248 60 105.8 L 60 114 C 60 114.552 59.552 115 59 115 L 59 115 C 58.448 115 58 114.552 58 114 L 58 105.8 C 58 105.248 58.448 104.8 59 104.8 Z" style="stroke:none;fill:#C14A5E;stroke-linecap:square;stroke-miterlimit:2;"/></g><defs><filter id="gs3CuGhTBZqhhGPfgnVxWPQ8wwofgF2R" x="-200%" y="-200%" width="400%" height="400%" filterUnits="objectBoundingBox" color-interpolation-filters="sRGB"><feGaussianBlur xmlns="http://www.w3.org/2000/svg" in="SourceGraphic" stdDeviation="0"/><feOffset xmlns="http://www.w3.org/2000/svg" dx="1" dy="1" result="pf_100_offsetBlur"/><feFlood xmlns="http://www.w3.org/2000/svg" flood-color="#341C53" flood-opacity="0.65"/><feComposite xmlns="http://www.w3.org/2000/svg" in2="pf_100_offsetBlur" operator="in" result="pf_100_dropShadow"/><feBlend xmlns="http://www.w3.org/2000/svg" in="SourceGraphic" in2="pf_100_dropShadow" mode="normal"/></filter></defs><g filter="url(#gs3CuGhTBZqhhGPfgnVxWPQ8wwofgF2R)"><path d="M 100 104.8 L 100 104.8 C 100.552 104.8 101 105.248 101 105.8 L 101 114 C 101 114.552 100.552 115 100 115 L 100 115 C 99.448 115 99 114.552 99 114 L 99 105.8 C 99 105.248 99.448 104.8 100 104.8 Z" style="stroke:none;fill:#C14A5E;stroke-linecap:square;stroke-miterlimit:2;"/></g><defs><filter id="uVdZjvf2BPvl4yB7sWe06koDTrHbYEW8" x="-200%" y="-200%" width="400%" height="400%" filterUnits="objectBoundingBox" color-interpolation-filters="sRGB"><feGaussianBlur xmlns="http://www.w3.org/2000/svg" in="SourceGraphic" stdDeviation="0"/><feOffset xmlns="http://www.w3.org/2000/svg" dx="1" dy="1" result="pf_100_offsetBlur"/><feFlood xmlns="http://www.w3.org/2000/svg" flood-color="#341C53" flood-opacity="0.65"/><feComposite xmlns="http://www.w3.org/2000/svg" in2="pf_100_offsetBlur" operator="in" result="pf_100_dropShadow"/><feBlend xmlns="http://www.w3.org/2000/svg" in="SourceGraphic" in2="pf_100_dropShadow" mode="normal"/></filter></defs><g filter="url(#uVdZjvf2BPvl4yB7sWe06koDTrHbYEW8)"><path d="M 80 104.8 L 80 104.8 C 80.552 104.8 81 105.248 81 105.8 L 81 114 C 81 114.552 80.552 115 80 115 L 80 115 C 79.448 115 79 114.552 79 114 L 79 105.8 C 79 105.248 79.448 104.8 80 104.8 Z" style="stroke:none;fill:#C14A5E;stroke-linecap:square;stroke-miterlimit:2;"/></g></g></svg>