<?xml version="1.0" encoding="UTF-8" standalone="no"?><!-- Generator: Gravit.io --><svg xmlns="http://www.w3.org/2000/svg" xmlns:xlink="http://www.w3.org/1999/xlink" style="isolation:isolate" viewBox="0 0 128 128" width="128pt" height="128pt"><defs><clipPath id="_clipPath_T0rE5DnwSs2UxoKKGHfwSV3VXRZjNmy7"><rect width="128" height="128"/></clipPath></defs><g clip-path="url(#_clipPath_T0rE5DnwSs2UxoKKGHfwSV3VXRZjNmy7)"><defs><filter id="CqTn3IIvHgNN2c3rWGHSORcSYdEJQ88l" x="-200%" y="-200%" width="400%" height="400%" filterUnits="objectBoundingBox" color-interpolation-filters="sRGB"><feGaussianBlur xmlns="http://www.w3.org/2000/svg" in="SourceGraphic" stdDeviation="0"/><feOffset xmlns="http://www.w3.org/2000/svg" dx="1" dy="1" result="pf_100_offsetBlur"/><feFlood xmlns="http://www.w3.org/2000/svg" flood-color="#341C53" flood-opacity="0.65"/><feComposite xmlns="http://www.w3.org/2000/svg" in2="pf_100_offsetBlur" operator="in" result="pf_100_dropShadow"/><feBlend xmlns="http://www.w3.org/2000/svg" in="SourceGraphic" in2="pf_100_dropShadow" mode="normal"/></filter></defs><g filter="url(#CqTn3IIvHgNN2c3rWGHSORcSYdEJQ88l)"><path d=" M 47.535 98.804 L 47.807 98.199 C 48.304 97.092 47.809 95.791 46.703 95.293 L 46.703 95.293 L 46.703 95.293 C 45.597 94.796 44.295 95.291 43.798 96.397 L 41.21 102.154 C 40.663 102.804 40.52 103.743 40.923 104.552 L 40.923 104.552 C 41.464 105.638 42.784 106.08 43.87 105.539 L 46.485 104.237 L 43.039 111.907 C 42.542 113.013 43.036 114.315 44.143 114.812 L 44.143 114.812 C 45.249 115.309 46.551 114.814 47.048 113.708 L 52.961 100.549 C 53.458 99.442 52.964 98.141 51.857 97.643 L 51.857 97.643 L 51.857 97.643 C 51.655 97.552 51.446 97.495 51.238 97.484 C 50.779 97.381 50.283 97.435 49.829 97.662 L 47.535 98.804 Z " fill-rule="evenodd" fill="rgb(253,226,173)" vector-effect="non-scaling-stroke" stroke-width="1" stroke="rgb(232,177,88)" stroke-linejoin="miter" stroke-linecap="square" stroke-miterlimit="3"/></g><defs><filter id="FPTg3t77pa07mvysqfLJPXban6Zd2cfp" x="-200%" y="-200%" width="400%" height="400%" filterUnits="objectBoundingBox" color-interpolation-filters="sRGB"><feGaussianBlur xmlns="http://www.w3.org/2000/svg" in="SourceGraphic" stdDeviation="0"/><feOffset xmlns="http://www.w3.org/2000/svg" dx="1" dy="1" result="pf_100_offsetBlur"/><feFlood xmlns="http://www.w3.org/2000/svg" flood-color="#341C53" flood-opacity="0.65"/><feComposite xmlns="http://www.w3.org/2000/svg" in2="pf_100_offsetBlur" operator="in" result="pf_100_dropShadow"/><feBlend xmlns="http://www.w3.org/2000/svg" in="SourceGraphic" in2="pf_100_dropShadow" mode="normal"/></filter></defs><g filter="url(#FPTg3t77pa07mvysqfLJPXban6Zd2cfp)"><path d=" M 75.38 98.804 L 75.652 98.199 C 76.149 97.092 75.655 95.791 74.548 95.293 L 74.548 95.293 L 74.548 95.293 C 73.442 94.796 72.14 95.291 71.643 96.397 L 69.056 102.154 C 68.508 102.804 68.366 103.743 68.768 104.552 L 68.768 104.552 C 69.309 105.638 70.629 106.08 71.715 105.539 L 74.331 104.237 L 70.884 111.907 C 70.387 113.013 70.882 114.315 71.988 114.812 L 71.988 114.812 C 73.094 115.309 74.396 114.814 74.893 113.708 L 80.807 100.549 C 81.304 99.442 80.809 98.141 79.703 97.643 L 79.703 97.643 L 79.703 97.643 C 79.5 97.552 79.291 97.495 79.083 97.484 C 78.624 97.381 78.129 97.435 77.674 97.662 L 75.38 98.804 Z " fill-rule="evenodd" fill="rgb(253,226,173)" vector-effect="non-scaling-stroke" stroke-width="1" stroke="rgb(232,177,88)" stroke-linejoin="miter" stroke-linecap="square" stroke-miterlimit="3"/></g><defs><filter id="eCVjaXt5ybZo9sdQgHve9DaJJvjfmVJr" x="-200%" y="-200%" width="400%" height="400%" filterUnits="objectBoundingBox" color-interpolation-filters="sRGB"><feGaussianBlur xmlns="http://www.w3.org/2000/svg" in="SourceGraphic" stdDeviation="0"/><feOffset xmlns="http://www.w3.org/2000/svg" dx="2" dy="2" result="pf_100_offsetBlur"/><feFlood xmlns="http://www.w3.org/2000/svg" flood-color="#341C53" flood-opacity="0.65"/><feComposite xmlns="http://www.w3.org/2000/svg" in2="pf_100_offsetBlur" operator="in" result="pf_100_dropShadow"/><feBlend xmlns="http://www.w3.org/2000/svg" in="SourceGraphic" in2="pf_100_dropShadow" mode="normal"/></filter></defs><g filter="url(#eCVjaXt5ybZo9sdQgHve9DaJJvjfmVJr)"><path d=" M 25.632 96.483 C 15.63 96.483 7.51 88.363 7.51 78.361 C 7.51 68.359 15.63 60.239 25.632 60.239 C 25.718 60.239 25.803 60.24 25.888 60.243 C 25.707 58.853 25.632 57.431 25.632 55.992 C 25.632 33.644 43.776 15.5 66.124 15.5 C 83.641 15.5 98.575 26.648 104.221 42.226 C 113.356 43.142 120.49 50.864 120.49 60.239 C 120.49 70.241 112.37 78.361 102.368 78.361 L 102.368 78.361 L 102.368 78.361 C 101.547 78.361 101.379 78.361 102.368 78.361 L 102.368 78.361 C 107.369 78.361 111.429 82.421 111.429 87.422 C 111.429 92.423 107.369 96.483 102.368 96.483 L 102.368 96.483 Q 26.151 96.483 25.632 96.483 Z " fill="rgb(242,182,193)" vector-effect="non-scaling-stroke" stroke-width="1" stroke="rgb(193,74,94)" stroke-linejoin="miter" stroke-linecap="square" stroke-miterlimit="3"/></g><defs><filter id="0cDLsp5xEZM6Y1ZDvjsM56VS3er35fe5" x="-200%" y="-200%" width="400%" height="400%" filterUnits="objectBoundingBox" color-interpolation-filters="sRGB"><feGaussianBlur xmlns="http://www.w3.org/2000/svg" in="SourceGraphic" stdDeviation="0"/><feOffset xmlns="http://www.w3.org/2000/svg" dx="1" dy="1" result="pf_100_offsetBlur"/><feFlood xmlns="http://www.w3.org/2000/svg" flood-color="#341C53" flood-opacity="0.65"/><feComposite xmlns="http://www.w3.org/2000/svg" in2="pf_100_offsetBlur" operator="in" result="pf_100_dropShadow"/><feBlend xmlns="http://www.w3.org/2000/svg" in="SourceGraphic" in2="pf_100_dropShadow" mode="normal"/></filter></defs><g filter="url(#0cDLsp5xEZM6Y1ZDvjsM56VS3er35fe5)"><path d="M 30 99.953 L 30 99.953 C 30.552 99.953 31 100.401 31 100.953 L 31 109.153 C 31 109.705 30.552 110.153 30 110.153 L 30 110.153 C 29.448 110.153 29 109.705 29 109.153 L 29 100.953 C 29 100.401 29.448 99.953 30 99.953 Z" style="stroke:none;fill:#C14A5E;stroke-miterlimit:10;"/></g><defs><filter id="AxtFpnr52gxp9f7yWNqfss52dpNtBnRm" x="-200%" y="-200%" width="400%" height="400%" filterUnits="objectBoundingBox" color-interpolation-filters="sRGB"><feGaussianBlur xmlns="http://www.w3.org/2000/svg" in="SourceGraphic" stdDeviation="0"/><feOffset xmlns="http://www.w3.org/2000/svg" dx="1" dy="1" result="pf_100_offsetBlur"/><feFlood xmlns="http://www.w3.org/2000/svg" flood-color="#341C53" flood-opacity="0.65"/><feComposite xmlns="http://www.w3.org/2000/svg" in2="pf_100_offsetBlur" operator="in" result="pf_100_dropShadow"/><feBlend xmlns="http://www.w3.org/2000/svg" in="SourceGraphic" in2="pf_100_dropShadow" mode="normal"/></filter></defs><g filter="url(#AxtFpnr52gxp9f7yWNqfss52dpNtBnRm)"><path d="M 60 99.8 L 60 99.8 C 60.552 99.8 61 100.248 61 100.8 L 61 109 C 61 109.552 60.552 110 60 110 L 60 110 C 59.448 110 59 109.552 59 109 L 59 100.8 C 59 100.248 59.448 99.8 60 99.8 Z" style="stroke:none;fill:#C14A5E;stroke-miterlimit:10;"/></g><defs><filter id="C9jPvT3mG2StXlaNryH3H2l9mHok2nNV" x="-200%" y="-200%" width="400%" height="400%" filterUnits="objectBoundingBox" color-interpolation-filters="sRGB"><feGaussianBlur xmlns="http://www.w3.org/2000/svg" in="SourceGraphic" stdDeviation="0"/><feOffset xmlns="http://www.w3.org/2000/svg" dx="1" dy="1" result="pf_100_offsetBlur"/><feFlood xmlns="http://www.w3.org/2000/svg" flood-color="#341C53" flood-opacity="0.65"/><feComposite xmlns="http://www.w3.org/2000/svg" in2="pf_100_offsetBlur" operator="in" result="pf_100_dropShadow"/><feBlend xmlns="http://www.w3.org/2000/svg" in="SourceGraphic" in2="pf_100_dropShadow" mode="normal"/></filter></defs><g filter="url(#C9jPvT3mG2StXlaNryH3H2l9mHok2nNV)"><path d="M 100 99.8 L 100 99.8 C 100.552 99.8 101 100.248 101 100.8 L 101 109 C 101 109.552 100.552 110 100 110 L 100 110 C 99.448 110 99 109.552 99 109 L 99 100.8 C 99 100.248 99.448 99.8 100 99.8 Z" style="stroke:none;fill:#C14A5E;stroke-miterlimit:10;"/></g><defs><filter id="b2x34q7IVnW0wvxiH68KQLb4lOcbZ2vD" x="-200%" y="-200%" width="400%" height="400%" filterUnits="objectBoundingBox" color-interpolation-filters="sRGB"><feGaussianBlur xmlns="http://www.w3.org/2000/svg" in="SourceGraphic" stdDeviation="0"/><feOffset xmlns="http://www.w3.org/2000/svg" dx="1" dy="1" result="pf_100_offsetBlur"/><feFlood xmlns="http://www.w3.org/2000/svg" flood-color="#341C53" flood-opacity="0.65"/><feComposite xmlns="http://www.w3.org/2000/svg" in2="pf_100_offsetBlur" operator="in" result="pf_100_dropShadow"/><feBlend xmlns="http://www.w3.org/2000/svg" in="SourceGraphic" in2="pf_100_dropShadow" mode="normal"/></filter></defs><g filter="url(#b2x34q7IVnW0wvxiH68KQLb4lOcbZ2vD)"><path d="M 20 104.9 L 20 104.9 C 20.552 104.9 21 105.348 21 105.9 L 21 114.1 C 21 114.652 20.552 115.1 20 115.1 L 20 115.1 C 19.448 115.1 19 114.652 19 114.1 L 19 105.9 C 19 105.348 19.448 104.9 20 104.9 Z" style="stroke:none;fill:#C14A5E;stroke-miterlimit:10;"/></g><defs><filter id="RvnyXPEXFHxfgoBNhQMIY7N9gqVJa1bV" x="-200%" y="-200%" width="400%" height="400%" filterUnits="objectBoundingBox" color-interpolation-filters="sRGB"><feGaussianBlur xmlns="http://www.w3.org/2000/svg" in="SourceGraphic" stdDeviation="0"/><feOffset xmlns="http://www.w3.org/2000/svg" dx="1" dy="1" result="pf_100_offsetBlur"/><feFlood xmlns="http://www.w3.org/2000/svg" flood-color="#341C53" flood-opacity="0.65"/><feComposite xmlns="http://www.w3.org/2000/svg" in2="pf_100_offsetBlur" operator="in" result="pf_100_dropShadow"/><feBlend xmlns="http://www.w3.org/2000/svg" in="SourceGraphic" in2="pf_100_dropShadow" mode="normal"/></filter></defs><g filter="url(#RvnyXPEXFHxfgoBNhQMIY7N9gqVJa1bV)"><path d="M 90 104.9 L 90 104.9 C 90.552 104.9 91 105.348 91 105.9 L 91 114.1 C 91 114.652 90.552 115.1 90 115.1 L 90 115.1 C 89.448 115.1 89 114.652 89 114.1 L 89 105.9 C 89 105.348 89.448 104.9 90 104.9 Z" style="stroke:none;fill:#C14A5E;stroke-miterlimit:10;"/></g></g></svg>