<?xml version="1.0" encoding="UTF-8" standalone="no"?><!-- Generator: Gravit.io --><svg xmlns="http://www.w3.org/2000/svg" xmlns:xlink="http://www.w3.org/1999/xlink" style="isolation:isolate" viewBox="0 0 800 1200" width="800pt" height="1200pt"><defs><clipPath id="_clipPath_p8tXzDGKc3XMWT7ncf1xDL6k7hvl4mDZ"><rect width="800" height="1200"/></clipPath></defs><g clip-path="url(#_clipPath_p8tXzDGKc3XMWT7ncf1xDL6k7hvl4mDZ)"><g><path d=" M 145.046 1032 C 143.205 1014.649 169.139 992 200.046 992 C 230.953 992 261.046 1005.237 261.046 1016 C 261.046 1026.762 230.953 1046 200.046 1046 C 169.139 1046 146.562 1046.281 145.046 1032 Z " fill="rgb(103,140,46)" vector-effect="non-scaling-stroke" stroke-width="5" stroke="rgb(32,38,23)" stroke-linejoin="miter" stroke-linecap="square" stroke-miterlimit="3"/><path d=" M 150 1033.263 C 153 1024.156 181.194 1028.46 205 1024 C 232.304 1018.885 263.122 1007.129 258 1018 C 252.47 1029.737 226.688 1040.187 215 1042 C 185.205 1046.621 146.461 1044.005 150 1033.263 Z " fill="rgb(84,113,41)"/></g><g><path d=" M 210.12 428.022 L 210.12 428.022 C 207.011 427.033 203.842 428.8 203.049 431.965 L 203.049 431.965 C 202.256 435.13 199.514 436.082 196.93 434.089 L 196.93 434.089 C 194.346 432.097 190.765 432.673 188.937 435.376 L 188.937 435.376 C 187.109 438.078 184.207 438.035 182.46 435.279 L 182.46 435.279 C 180.714 432.523 177.151 431.84 174.509 433.754 L 174.509 433.754 C 171.867 435.669 169.155 434.635 168.457 431.448 L 168.457 431.448 C 167.758 428.261 164.644 426.4 161.506 427.296 L 161.506 427.296 C 158.369 428.191 156.174 426.293 156.607 423.059 L 156.607 423.059 C 157.041 419.825 154.751 417.011 151.496 416.78 L 151.496 416.78 C 148.242 416.548 146.828 414.013 148.342 411.123 L 148.342 411.123 C 149.856 408.232 148.666 404.805 145.687 403.474 L 145.687 403.474 C 142.708 402.143 142.247 399.278 144.658 397.079 L 144.658 397.079 C 147.068 394.881 147.123 391.254 144.779 388.984 L 144.779 388.984 C 142.434 386.715 142.981 383.864 145.998 382.623 L 145.998 382.623 C 149.016 381.382 150.307 377.992 148.881 375.057 L 148.881 375.057 C 147.454 372.123 148.943 369.631 152.203 369.497 L 152.203 369.497 C 155.463 369.363 157.836 366.619 157.499 363.373 L 157.499 363.373 C 157.162 360.128 159.413 358.296 162.522 359.285 L 162.522 359.285 C 165.632 360.273 168.8 358.506 169.594 355.342 L 169.594 355.342 C 170.387 352.177 173.129 351.225 175.712 353.218 L 175.712 353.218 C 178.296 355.21 181.878 354.634 183.706 351.931 L 183.706 351.931 C 185.534 349.228 188.436 349.272 190.182 352.028 L 190.182 352.028 C 191.929 354.784 195.491 355.467 198.133 353.553 L 198.133 353.553 C 200.776 351.638 203.488 352.671 204.186 355.858 L 204.186 355.858 C 204.885 359.046 207.999 360.906 211.136 360.011 L 211.136 360.011 C 214.274 359.116 216.469 361.014 216.035 364.248 L 216.035 364.248 C 215.602 367.482 217.892 370.295 221.146 370.527 L 221.146 370.527 C 224.401 370.759 225.814 373.294 224.301 376.184 L 224.301 376.184 C 222.787 379.075 223.977 382.502 226.956 383.833 L 226.956 383.833 C 229.935 385.163 230.396 388.029 227.985 390.227 L 227.985 390.227 C 225.574 392.426 225.52 396.053 227.864 398.323 L 227.864 398.323 C 230.208 400.592 229.662 403.442 226.644 404.684 L 226.644 404.684 C 223.627 405.925 222.335 409.315 223.762 412.25 L 223.762 412.25 C 225.188 415.184 223.7 417.675 220.44 417.81 L 220.44 417.81 C 217.18 417.944 214.807 420.688 215.144 423.933 L 215.144 423.933 C 215.48 427.179 213.23 429.011 210.12 428.022 Z " fill="rgb(157,151,98)" vector-effect="non-scaling-stroke" stroke-width="5" stroke="rgb(140,136,94)" stroke-linejoin="miter" stroke-linecap="square" stroke-miterlimit="3"/><path d=" M 174.878 368.534 Q 177.753 371.409 181.819 377.534" fill="none" vector-effect="non-scaling-stroke" stroke-width="5" stroke="rgb(140,136,94)" stroke-linejoin="miter" stroke-linecap="square" stroke-miterlimit="3"/><path d=" M 161.946 384.056 Q 165.868 385.128 172.436 388.432" fill="none" vector-effect="non-scaling-stroke" stroke-width="5" stroke="rgb(140,136,94)" stroke-linejoin="miter" stroke-linecap="square" stroke-miterlimit="3"/><path d=" M 186.325 406.351 Q 186.843 410.384 186.317 417.717" fill="none" vector-effect="non-scaling-stroke" stroke-width="5" stroke="rgb(140,136,94)" stroke-linejoin="miter" stroke-linecap="square" stroke-miterlimit="3"/><path d=" M 170.661 403.034 Q 167.786 405.909 163.721 412.034" fill="none" vector-effect="non-scaling-stroke" stroke-width="5" stroke="rgb(140,136,94)" stroke-linejoin="miter" stroke-linecap="square" stroke-miterlimit="3"/><path d=" M 197.111 383.844 Q 199.986 380.969 206.111 376.904" fill="none" vector-effect="non-scaling-stroke" stroke-width="5" stroke="rgb(140,136,94)" stroke-linejoin="miter" stroke-linecap="square" stroke-miterlimit="3"/><path d=" M 201.031 400.489 Q 204.869 401.829 211.192 405.579" fill="none" vector-effect="non-scaling-stroke" stroke-width="5" stroke="rgb(140,136,94)" stroke-linejoin="miter" stroke-linecap="square" stroke-miterlimit="3"/></g><g><path d=" M 600.59 418.837 L 600.59 418.837 C 597.481 417.848 594.312 419.615 593.519 422.78 L 593.519 422.78 C 592.725 425.945 589.984 426.897 587.4 424.904 L 587.4 424.904 C 584.816 422.911 581.235 423.488 579.407 426.191 L 579.407 426.191 C 577.579 428.893 574.677 428.85 572.93 426.094 L 572.93 426.094 C 571.184 423.338 567.621 422.655 564.979 424.569 L 564.979 424.569 C 562.337 426.483 559.625 425.45 558.926 422.263 L 558.926 422.263 C 558.228 419.076 555.114 417.215 551.976 418.111 L 551.976 418.111 C 548.839 419.006 546.643 417.107 547.077 413.874 L 547.077 413.874 C 547.511 410.64 545.221 407.826 541.966 407.594 L 541.966 407.594 C 538.712 407.363 537.298 404.828 538.812 401.937 L 538.812 401.937 C 540.325 399.047 539.136 395.62 536.157 394.289 L 536.157 394.289 C 533.178 392.958 532.717 390.093 535.127 387.894 L 535.127 387.894 C 537.538 385.696 537.593 382.068 535.248 379.799 L 535.248 379.799 C 532.904 377.529 533.451 374.679 536.468 373.438 L 536.468 373.438 C 539.486 372.196 540.777 368.806 539.351 365.872 L 539.351 365.872 C 537.924 362.938 539.413 360.446 542.673 360.312 L 542.673 360.312 C 545.933 360.177 548.306 357.433 547.969 354.188 L 547.969 354.188 C 547.632 350.943 549.883 349.111 552.992 350.099 L 552.992 350.099 C 556.102 351.088 559.27 349.321 560.064 346.156 L 560.064 346.156 C 560.857 342.992 563.599 342.04 566.182 344.032 L 566.182 344.032 C 568.766 346.025 572.348 345.448 574.176 342.746 L 574.176 342.746 C 576.004 340.043 578.906 340.086 580.652 342.842 L 580.652 342.842 C 582.398 345.599 585.961 346.282 588.603 344.367 L 588.603 344.367 C 591.245 342.453 593.958 343.486 594.656 346.673 L 594.656 346.673 C 595.354 349.86 598.469 351.721 601.606 350.826 L 601.606 350.826 C 604.744 349.93 606.939 351.829 606.505 355.063 L 606.505 355.063 C 606.071 358.297 608.362 361.11 611.616 361.342 L 611.616 361.342 C 614.871 361.574 616.284 364.108 614.77 366.999 L 614.77 366.999 C 613.257 369.889 614.447 373.317 617.426 374.647 L 617.426 374.647 C 620.405 375.978 620.866 378.844 618.455 381.042 L 618.455 381.042 C 616.044 383.241 615.99 386.868 618.334 389.137 L 618.334 389.137 C 620.678 391.407 620.131 394.257 617.114 395.499 L 617.114 395.499 C 614.097 396.74 612.805 400.13 614.232 403.064 L 614.232 403.064 C 615.658 405.999 614.17 408.49 610.91 408.625 L 610.91 408.625 C 607.65 408.759 605.276 411.503 605.613 414.748 L 605.613 414.748 C 605.95 417.994 603.699 419.826 600.59 418.837 Z " fill="rgb(157,151,98)" vector-effect="non-scaling-stroke" stroke-width="5" stroke="rgb(140,136,94)" stroke-linejoin="miter" stroke-linecap="square" stroke-miterlimit="3"/><path d=" M 565.348 359.349 Q 568.223 362.224 572.289 368.349" fill="none" vector-effect="non-scaling-stroke" stroke-width="5" stroke="rgb(140,136,94)" stroke-linejoin="miter" stroke-linecap="square" stroke-miterlimit="3"/><path d=" M 552.416 374.87 Q 556.338 375.943 562.905 379.247" fill="none" vector-effect="non-scaling-stroke" stroke-width="5" stroke="rgb(140,136,94)" stroke-linejoin="miter" stroke-linecap="square" stroke-miterlimit="3"/><path d=" M 576.795 397.166 Q 577.313 401.199 576.787 408.532" fill="none" vector-effect="non-scaling-stroke" stroke-width="5" stroke="rgb(140,136,94)" stroke-linejoin="miter" stroke-linecap="square" stroke-miterlimit="3"/><path d=" M 561.131 393.849 Q 558.256 396.724 554.19 402.849" fill="none" vector-effect="non-scaling-stroke" stroke-width="5" stroke="rgb(140,136,94)" stroke-linejoin="miter" stroke-linecap="square" stroke-miterlimit="3"/><path d=" M 587.581 374.659 Q 590.456 371.784 596.581 367.718" fill="none" vector-effect="non-scaling-stroke" stroke-width="5" stroke="rgb(140,136,94)" stroke-linejoin="miter" stroke-linecap="square" stroke-miterlimit="3"/><path d=" M 591.5 391.304 Q 595.339 392.644 601.662 396.394" fill="none" vector-effect="non-scaling-stroke" stroke-width="5" stroke="rgb(140,136,94)" stroke-linejoin="miter" stroke-linecap="square" stroke-miterlimit="3"/></g><g><path d=" M 609.798 805.116 C 611.25 813.93 612 822.921 612 832.052 C 612 944.125 499.083 1035.115 360 1035.115 C 220.917 1035.115 108 944.125 108 832.052 L 108 832.052 C 108 807.139 113.58 783.267 123.795 761.208 C 130.118 742.943 164.934 656.841 187 541.606 C 195.926 494.991 191.498 481.135 210.531 424.991 C 223.714 369.217 287.007 326.885 363 326.885 C 425.814 326.885 479.952 355.808 504.301 397.332 C 549.279 457.815 561.845 489.832 573 545.606 C 583.998 600.596 594.19 673.89 603 742.606 Q 607.871 780.602 609.798 805.116 Z  M 502 396.606 M 506 404.606" fill-rule="evenodd" fill="rgb(163,166,83)" vector-effect="non-scaling-stroke" stroke-width="5" stroke="rgb(32,38,23)" stroke-linejoin="miter" stroke-linecap="square" stroke-miterlimit="3"/></g><g><path d=" M 591.02 793.032 C 592.363 801.198 593.056 809.53 593.056 817.992 C 593.056 921.845 488.627 1006.161 360 1006.161 C 231.373 1006.161 126.944 921.845 126.944 817.992 L 126.944 817.992 L 126.944 817.992 C 126.944 794.905 132.104 772.784 141.551 752.344 L 141.551 752.344 C 147.399 735.418 179.597 655.631 200.005 548.847 C 208.253 505.687 204.172 492.833 221.723 440.916 C 233.858 389.169 292.434 349.875 362.774 349.875 C 420.867 349.875 470.935 376.676 493.454 415.154 C 535.05 471.201 546.672 500.87 556.988 552.554 C 567.159 603.511 576.585 671.429 584.733 735.105 Q 589.238 770.315 591.02 793.032 Z  M 607.816 804.375 C 609.256 813.136 610 822.073 610 831.15 C 610 942.554 497.979 1033 360 1033 C 222.021 1033 110 942.554 110 831.15 L 110 831.15 C 110 806.385 115.536 782.656 125.669 760.729 C 131.943 742.573 166.482 656.985 188.373 542.438 C 197.228 496.101 192.835 482.329 211.718 426.52 C 224.796 371.079 287.587 329 362.976 329 C 425.292 329 479 357.75 503.156 399.026 C 547.777 459.147 560.243 490.973 571.31 546.414 C 582.22 601.076 592.332 673.932 601.071 742.238 Q 605.904 780.008 607.816 804.375 L 607.816 804.375 L 607.816 804.375 L 607.816 804.375 Z  M 500.873 398.304 M 504.841 406.256 M 491.325 414.481 M 495.025 421.895" fill-rule="evenodd" fill="rgb(134,136,81)"/></g><g><g><path d=" M 610.298 805.116 C 611.75 813.93 612.5 822.921 612.5 832.052 C 612.5 940.067 507.612 1028.498 375.5 1034.756 C 380.462 1034.995 385.464 1035.115 390.5 1035.115 C 529.583 1035.115 642.5 944.125 642.5 832.052 C 642.5 822.921 641.75 813.93 640.298 805.116 Q 638.371 780.602 633.5 742.606 C 624.69 673.89 614.498 600.596 603.5 545.606 C 592.345 489.832 579.779 457.815 534.801 397.332 C 510.452 355.808 456.314 326.885 393.5 326.885 C 388.425 326.885 383.406 327.074 378.462 327.461 C 434.681 331.613 482.166 359.009 504.594 397.056 C 549.742 457.719 562.329 489.749 573.5 545.606 C 584.498 600.596 594.69 673.89 603.5 742.606 Q 608.371 780.602 610.298 805.116 Z  M 532.5 396.606 M 536.5 404.606 M 502.5 396.606 M 506.5 404.606" fill-rule="evenodd" fill="rgb(103,140,46)" vector-effect="non-scaling-stroke" stroke-width="5" stroke="rgb(32,38,23)" stroke-linejoin="miter" stroke-linecap="square" stroke-miterlimit="3"/></g><g><path d=" M 623.736 805.116 C 625.194 813.93 625.946 822.921 625.946 832.052 C 625.946 942.238 516.378 1032.044 380 1035.027 C 382.332 1035.089 384.676 1035.115 387.027 1035.115 C 526.647 1035.115 640 944.125 640 832.052 C 640 822.921 639.248 813.93 637.79 805.116 Q 635.855 780.602 630.965 742.606 C 622.121 673.89 611.89 600.596 600.849 545.606 C 589.652 489.832 577.037 457.815 531.885 397.332 C 507.442 355.808 453.095 326.885 390.039 326.885 C 387.667 326.885 385.308 326.926 382.969 327.028 C 442.907 329.054 494.073 357.23 517.646 397.086 C 562.949 457.73 575.583 489.758 586.795 545.606 C 597.836 600.596 608.067 673.89 616.911 742.606 Q 621.801 780.602 623.736 805.116 Z  M 529.575 396.606 M 533.591 404.606 M 515.521 396.606 M 519.537 404.606" fill-rule="evenodd" fill="rgb(84,113,41)"/></g></g><g><path d=" M 225.554 836.148 C 240.411 759.213 325.251 673.298 389.582 686.318 C 501.593 708.987 493.601 809.506 478.744 886.441 C 463.887 963.376 386.393 975.373 321.949 962.928 C 257.505 950.483 210.697 913.083 225.554 836.148 Z " fill="rgb(147,91,58)" vector-effect="non-scaling-stroke" stroke-width="5" stroke="rgb(32,38,23)" stroke-linejoin="miter" stroke-linecap="square" stroke-miterlimit="3"/><path d=" M 262 770 C 299.239 709.642 376.129 696.378 382 700 C 387.871 703.622 329.239 728.642 292 789 C 254.761 849.358 249.871 890.622 244 887 C 238.129 883.378 224.761 830.358 262 770 Z " fill="rgb(185,134,104)"/><path d=" M 456.927 917.12 C 411.675 986.31 287.04 949.851 278.927 941 C 273.427 935 378.531 951.103 413.927 900.12 C 468.427 821.62 452.422 736.799 460.927 736.12 C 476.387 734.887 494.137 860.227 456.927 917.12 Z " fill="rgb(102,64,42)"/><path d=" M 299.001 772.324 C 308.579 755.548 350.023 723.195 352 724.324 C 353.977 725.453 313.579 757.92 304.001 774.696 C 294.423 791.471 274.53 829.669 273.001 829 C 269.001 827.25 289.423 789.099 299.001 772.324 Z " fill="rgb(255,255,255)"/></g><g><path d=" M 486.5 1030 C 486.5 1013.994 518.489 991 550.5 991 C 582.511 991 613.5 1013.994 613.5 1030 C 613.5 1046.006 587.511 1047 555.5 1047 C 523.489 1047 486.5 1046.006 486.5 1030 Z " fill="rgb(103,140,46)" vector-effect="non-scaling-stroke" stroke-width="5" stroke="rgb(32,38,23)" stroke-linejoin="miter" stroke-linecap="square" stroke-miterlimit="3"/><path d=" M 489.015 1032.906 C 487.729 1025.562 521.293 1029.149 547.015 1024.906 C 578.084 1019.781 609.727 1023.445 610.015 1031.906 C 610.132 1035.353 608.962 1041.302 586.015 1043.906 C 576.816 1044.95 565.011 1045.151 547.015 1044.906 C 501.077 1044.281 490.038 1038.749 489.015 1032.906 Z " fill="rgb(84,113,41)"/></g><g><g><path d=" M 206.857 518.636 L 207.312 517.906 C 210.894 512.091 214.573 506.345 218.356 500.669 C 221.597 495.817 224.934 491.026 228.368 486.314 L 228.814 485.701 C 228.965 485.432 229.253 485.25 229.583 485.25 C 230.068 485.25 230.463 485.644 230.463 486.13 C 230.463 486.319 230.403 486.494 230.302 486.637 L 230.303 486.638 L 229.786 487.347 C 226.362 492.042 223.042 496.807 219.819 501.642 C 216.044 507.3 212.374 513.028 208.801 518.817 L 208.345 519.571 L 208.344 519.57 C 208.195 519.846 207.904 520.034 207.569 520.034 C 207.083 520.034 206.688 519.639 206.688 519.154 C 206.688 518.96 206.751 518.782 206.857 518.636 Z " fill-rule="evenodd" fill="rgb(242,192,162)"/><path d=" M 218.744 518.636 L 219.199 517.906 C 222.781 512.091 226.46 506.345 230.243 500.669 C 233.484 495.817 236.821 491.026 240.255 486.314 L 240.701 485.701 C 240.852 485.432 241.14 485.25 241.47 485.25 C 241.955 485.25 242.35 485.644 242.35 486.13 C 242.35 486.319 242.29 486.494 242.189 486.637 L 242.19 486.638 L 241.674 487.347 C 238.249 492.042 234.929 496.807 231.706 501.642 C 227.931 507.3 224.261 513.028 220.688 518.817 L 220.232 519.571 L 220.231 519.57 C 220.083 519.846 219.791 520.034 219.456 520.034 C 218.97 520.034 218.576 519.639 218.576 519.154 C 218.576 518.96 218.638 518.782 218.744 518.636 Z " fill-rule="evenodd" fill="rgb(242,192,162)"/><path d=" M 230.631 518.636 L 231.086 517.906 C 234.668 512.091 238.347 506.345 242.131 500.669 C 245.371 495.817 248.708 491.026 252.142 486.314 L 252.588 485.701 C 252.739 485.432 253.027 485.25 253.357 485.25 C 253.842 485.25 254.237 485.644 254.237 486.13 C 254.237 486.319 254.177 486.494 254.076 486.637 L 254.077 486.638 L 253.561 487.347 C 250.136 492.042 246.816 496.807 243.593 501.642 C 239.818 507.3 236.148 513.028 232.575 518.817 L 232.119 519.571 L 232.118 519.57 C 231.97 519.846 231.678 520.034 231.343 520.034 C 230.857 520.034 230.463 519.639 230.463 519.154 C 230.463 518.96 230.525 518.782 230.631 518.636 Z " fill-rule="evenodd" fill="rgb(242,192,162)"/><path d=" M 242.518 518.636 L 242.973 517.906 C 246.555 512.091 250.234 506.345 254.018 500.669 C 257.258 495.817 260.595 491.026 264.029 486.314 L 264.475 485.701 C 264.626 485.432 264.914 485.25 265.244 485.25 C 265.73 485.25 266.124 485.644 266.124 486.13 C 266.124 486.319 266.064 486.494 265.963 486.637 L 265.964 486.638 L 265.448 487.347 C 262.023 492.042 258.704 496.807 255.48 501.642 C 251.705 507.3 248.035 513.028 244.462 518.817 L 244.006 519.571 L 244.005 519.57 C 243.857 519.846 243.565 520.034 243.23 520.034 C 242.744 520.034 242.35 519.639 242.35 519.154 C 242.35 518.96 242.412 518.782 242.518 518.636 Z " fill-rule="evenodd" fill="rgb(242,192,162)"/></g><g><path d=" M 424.784 518.636 L 425.239 517.906 C 428.821 512.091 432.5 506.345 436.284 500.669 C 439.524 495.817 442.861 491.026 446.295 486.314 L 446.741 485.701 C 446.892 485.432 447.18 485.25 447.51 485.25 C 447.995 485.25 448.39 485.644 448.39 486.13 C 448.39 486.319 448.33 486.494 448.229 486.637 L 448.23 486.638 L 447.714 487.347 C 444.289 492.042 440.969 496.807 437.746 501.642 C 433.971 507.3 430.301 513.028 426.728 518.817 L 426.272 519.571 L 426.271 519.57 C 426.123 519.846 425.831 520.034 425.496 520.034 C 425.01 520.034 424.616 519.639 424.616 519.154 C 424.616 518.96 424.678 518.782 424.784 518.636 Z " fill-rule="evenodd" fill="rgb(242,192,162)"/><path d=" M 436.671 518.636 L 437.126 517.906 C 440.708 512.091 444.387 506.345 448.171 500.669 C 451.411 495.817 454.748 491.026 458.182 486.314 L 458.628 485.701 C 458.779 485.432 459.067 485.25 459.397 485.25 C 459.882 485.25 460.277 485.644 460.277 486.13 C 460.277 486.319 460.217 486.494 460.116 486.637 L 460.117 486.638 L 459.601 487.347 C 456.176 492.042 452.856 496.807 449.633 501.642 C 445.858 507.3 442.188 513.028 438.615 518.817 L 438.159 519.571 L 438.158 519.57 C 438.01 519.846 437.718 520.034 437.383 520.034 C 436.897 520.034 436.503 519.639 436.503 519.154 C 436.503 518.96 436.565 518.782 436.671 518.636 Z " fill-rule="evenodd" fill="rgb(242,192,162)"/><path d=" M 448.558 518.636 L 449.013 517.906 C 452.595 512.091 456.274 506.345 460.058 500.669 C 463.298 495.817 466.635 491.026 470.069 486.314 L 470.516 485.701 C 470.666 485.432 470.954 485.25 471.284 485.25 C 471.77 485.25 472.164 485.644 472.164 486.13 C 472.164 486.319 472.104 486.494 472.003 486.637 L 472.005 486.638 L 471.488 487.347 C 468.063 492.042 464.744 496.807 461.52 501.642 C 457.745 507.3 454.076 513.028 450.502 518.817 L 450.047 519.571 L 450.045 519.57 C 449.897 519.846 449.605 520.034 449.27 520.034 C 448.784 520.034 448.39 519.639 448.39 519.154 C 448.39 518.96 448.452 518.782 448.558 518.636 Z " fill-rule="evenodd" fill="rgb(242,192,162)"/><path d=" M 460.445 518.636 L 460.9 517.906 C 464.482 512.091 468.161 506.345 471.945 500.669 C 475.185 495.817 478.523 491.026 481.956 486.314 L 482.403 485.701 C 482.553 485.432 482.841 485.25 483.171 485.25 C 483.657 485.25 484.051 485.644 484.051 486.13 C 484.051 486.319 483.992 486.494 483.89 486.637 L 483.892 486.638 L 483.375 487.347 C 479.95 492.042 476.631 496.807 473.407 501.642 C 469.632 507.3 465.963 513.028 462.389 518.817 L 461.934 519.571 L 461.932 519.57 C 461.784 519.846 461.492 520.034 461.157 520.034 C 460.671 520.034 460.277 519.639 460.277 519.154 C 460.277 518.96 460.339 518.782 460.445 518.636 Z " fill-rule="evenodd" fill="rgb(242,192,162)"/></g></g><g><path d=" M 283.979 444.42 C 301.979 422.42 314.979 426.42 325.979 444.42" fill="none" vector-effect="non-scaling-stroke" stroke-width="5" stroke="rgb(0,0,0)" stroke-linejoin="miter" stroke-linecap="square" stroke-miterlimit="3"/><circle vector-effect="non-scaling-stroke" cx="282.2769941897214" cy="446.48339843750006" r="2.516601562499943" fill="rgb(0,0,0)"/><circle vector-effect="non-scaling-stroke" cx="327.1480879397214" cy="446.3642578125001" r="2.516601562499943" fill="rgb(0,0,0)"/></g><g><path d=" M 406.76 444.42 C 388.76 422.42 375.76 426.42 364.76 444.42" fill="none" vector-effect="non-scaling-stroke" stroke-width="5" stroke="rgb(0,0,0)" stroke-linejoin="miter" stroke-linecap="square" stroke-miterlimit="3"/><circle vector-effect="non-scaling-stroke" cx="408.4625410647215" cy="446.48339843750006" r="2.516601562499943" fill="rgb(0,0,0)"/><circle vector-effect="non-scaling-stroke" cx="363.5914473147214" cy="446.3642578125001" r="2.516601562499943" fill="rgb(0,0,0)"/></g><path d=" M 302.882 520.055 C 291.738 512.383 307.814 496.308 317.495 490.127 C 327.177 483.947 340.136 483.326 347.063 483.774 C 371.384 485.347 342.522 493.568 330.648 501.057 C 318.774 508.547 314.025 527.728 302.882 520.055 Z " fill="rgb(255,140,161)" vector-effect="non-scaling-stroke" stroke-width="3" stroke="rgb(0,0,0)" stroke-linejoin="miter" stroke-linecap="square" stroke-miterlimit="3"/><g><path d=" M 324 486 C 354.459 478.406 369.002 491.168 375.5 488.68" fill="none" vector-effect="non-scaling-stroke" stroke-width="3" stroke="rgb(0,0,0)" stroke-linejoin="miter" stroke-linecap="square" stroke-miterlimit="3"/><circle vector-effect="non-scaling-stroke" cx="322.4140625" cy="486.4052734375001" r="1.51953125" fill="rgb(0,0,0)"/><circle vector-effect="non-scaling-stroke" cx="376.7890625" cy="488.1708984375002" r="1.51953125" fill="rgb(0,0,0)"/></g><g><line x1="310.25" y1="509.385" x2="317.396" y2="500.638" vector-effect="non-scaling-stroke" stroke-width="3" stroke="rgb(204,78,101)" stroke-linejoin="miter" stroke-linecap="square" stroke-miterlimit="3"/><path d=" M 308.374 511.5 C 307.774 510.914 307.763 509.951 308.349 509.351 C 308.935 508.751 309.897 508.74 310.497 509.326 C 311.097 509.912 311.109 510.875 310.523 511.474 C 309.937 512.074 308.974 512.086 308.374 511.5 Z " fill="rgb(204,78,101)"/><path d=" M 317.385 500.45 C 316.785 499.864 316.773 498.901 317.359 498.301 C 317.945 497.701 318.908 497.69 319.508 498.276 C 320.108 498.862 320.119 499.825 319.533 500.425 C 318.947 501.025 317.984 501.036 317.385 500.45 Z " fill="rgb(204,78,101)"/></g><g><path d=" M 271.423 487.545 L 271.423 487.545 C 267.71 486.364 263.925 488.474 262.978 492.254 L 262.978 492.254 C 262.03 496.034 258.756 497.171 255.67 494.791 L 255.67 494.791 C 252.584 492.411 248.307 493.1 246.124 496.328 L 246.124 496.328 C 243.941 499.555 240.475 499.504 238.389 496.212 L 238.389 496.212 C 236.303 492.92 232.048 492.104 228.893 494.391 L 228.893 494.391 C 225.737 496.677 222.498 495.443 221.664 491.637 L 221.664 491.637 C 220.83 487.83 217.11 485.608 213.363 486.678 L 213.363 486.678 C 209.616 487.747 206.994 485.479 207.512 481.617 L 207.512 481.617 C 208.03 477.755 205.295 474.395 201.408 474.118 L 201.408 474.118 C 197.522 473.841 195.834 470.814 197.641 467.362 L 197.641 467.362 C 199.449 463.91 198.028 459.817 194.47 458.227 L 194.47 458.227 C 190.912 456.638 190.362 453.216 193.241 450.59 L 193.241 450.59 C 196.12 447.964 196.185 443.632 193.385 440.922 L 193.385 440.922 C 190.586 438.211 191.239 434.807 194.842 433.325 L 194.842 433.325 C 198.446 431.842 199.989 427.793 198.285 424.289 L 198.285 424.289 C 196.581 420.784 198.359 417.809 202.252 417.648 L 202.252 417.648 C 206.146 417.488 208.98 414.211 208.578 410.335 L 208.578 410.335 C 208.175 406.459 210.863 404.271 214.577 405.452 L 214.577 405.452 C 218.29 406.632 222.075 404.522 223.022 400.742 L 223.022 400.742 C 223.97 396.963 227.244 395.826 230.33 398.206 L 230.33 398.206 C 233.416 400.585 237.693 399.897 239.876 396.669 L 239.876 396.669 C 242.059 393.441 245.525 393.493 247.611 396.785 L 247.611 396.785 C 249.697 400.076 253.952 400.892 257.107 398.606 L 257.107 398.606 C 260.263 396.319 263.502 397.553 264.336 401.36 L 264.336 401.36 C 265.17 405.166 268.89 407.388 272.637 406.319 L 272.637 406.319 C 276.384 405.25 279.006 407.517 278.488 411.379 L 278.488 411.379 C 277.97 415.241 280.705 418.602 284.592 418.878 L 284.592 418.878 C 288.478 419.155 290.166 422.183 288.359 425.635 L 288.359 425.635 C 286.551 429.087 287.972 433.18 291.53 434.769 L 291.53 434.769 C 295.088 436.359 295.638 439.781 292.759 442.407 L 292.759 442.407 C 289.88 445.032 289.815 449.364 292.615 452.075 L 292.615 452.075 C 295.414 454.785 294.761 458.189 291.158 459.672 L 291.158 459.672 C 287.554 461.154 286.011 465.203 287.715 468.708 L 287.715 468.708 C 289.419 472.212 287.641 475.188 283.748 475.348 L 283.748 475.348 C 279.854 475.509 277.02 478.786 277.422 482.662 L 277.422 482.662 C 277.825 486.538 275.137 488.726 271.423 487.545 Z " fill="rgb(166,160,103)" vector-effect="non-scaling-stroke" stroke-width="5" stroke="rgb(140,136,94)" stroke-linejoin="miter" stroke-linecap="square" stroke-miterlimit="3"/><path d=" M 229.333 416.498 Q 232.767 419.932 237.623 427.247" fill="none" vector-effect="non-scaling-stroke" stroke-width="5" stroke="rgb(140,136,94)" stroke-linejoin="miter" stroke-linecap="square" stroke-miterlimit="3"/><path d=" M 213.889 435.036 Q 218.573 436.316 226.416 440.263" fill="none" vector-effect="non-scaling-stroke" stroke-width="5" stroke="rgb(140,136,94)" stroke-linejoin="miter" stroke-linecap="square" stroke-miterlimit="3"/><path d=" M 243.005 461.663 Q 243.624 466.48 242.995 475.237" fill="none" vector-effect="non-scaling-stroke" stroke-width="5" stroke="rgb(140,136,94)" stroke-linejoin="miter" stroke-linecap="square" stroke-miterlimit="3"/><path d=" M 224.297 457.702 Q 220.864 461.135 216.008 468.45" fill="none" vector-effect="non-scaling-stroke" stroke-width="5" stroke="rgb(140,136,94)" stroke-linejoin="miter" stroke-linecap="square" stroke-miterlimit="3"/><path d=" M 255.887 434.783 Q 259.32 431.35 266.635 426.494" fill="none" vector-effect="non-scaling-stroke" stroke-width="5" stroke="rgb(140,136,94)" stroke-linejoin="miter" stroke-linecap="square" stroke-miterlimit="3"/><path d=" M 260.567 454.662 Q 265.152 456.263 272.704 460.741" fill="none" vector-effect="non-scaling-stroke" stroke-width="5" stroke="rgb(140,136,94)" stroke-linejoin="miter" stroke-linecap="square" stroke-miterlimit="3"/></g><g><path d=" M 345.234 505.047 L 345.234 505.047 C 341.52 503.866 337.736 505.976 336.789 509.756 L 336.789 509.756 C 335.841 513.536 332.567 514.672 329.481 512.293 L 329.481 512.293 C 326.395 509.913 322.118 510.601 319.934 513.829 L 319.934 513.829 C 317.751 517.057 314.286 517.005 312.2 513.714 L 312.2 513.714 C 310.114 510.422 305.859 509.606 302.703 511.893 L 302.703 511.893 C 299.548 514.179 296.309 512.945 295.475 509.139 L 295.475 509.139 C 294.641 505.332 290.921 503.11 287.174 504.179 L 287.174 504.179 C 283.427 505.249 280.805 502.981 281.323 499.119 L 281.323 499.119 C 281.841 495.257 279.106 491.897 275.219 491.62 L 275.219 491.62 C 271.332 491.343 269.644 488.316 271.452 484.864 L 271.452 484.864 C 273.26 481.412 271.839 477.318 268.281 475.729 L 268.281 475.729 C 264.723 474.139 264.172 470.717 267.052 468.092 L 267.052 468.092 C 269.931 465.466 269.996 461.134 267.196 458.423 L 267.196 458.423 C 264.396 455.713 265.049 452.309 268.653 450.826 L 268.653 450.826 C 272.257 449.344 273.799 445.295 272.096 441.791 L 272.096 441.791 C 270.392 438.286 272.17 435.31 276.063 435.15 L 276.063 435.15 C 279.956 434.989 282.791 431.712 282.388 427.836 L 282.388 427.836 C 281.986 423.961 284.674 421.772 288.388 422.953 L 288.388 422.953 C 292.101 424.134 295.885 422.024 296.833 418.244 L 296.833 418.244 C 297.78 414.464 301.055 413.328 304.141 415.707 L 304.141 415.707 C 307.226 418.087 311.504 417.399 313.687 414.171 L 313.687 414.171 C 315.87 410.943 319.336 410.995 321.422 414.286 L 321.422 414.286 C 323.507 417.578 327.763 418.394 330.918 416.107 L 330.918 416.107 C 334.074 413.821 337.313 415.055 338.147 418.861 L 338.147 418.861 C 338.981 422.668 342.7 424.89 346.447 423.821 L 346.448 423.821 C 350.195 422.751 352.816 425.019 352.298 428.881 L 352.298 428.881 C 351.78 432.743 354.515 436.103 358.402 436.38 L 358.402 436.38 C 362.289 436.657 363.977 439.684 362.17 443.136 L 362.17 443.136 C 360.362 446.588 361.783 450.682 365.341 452.271 L 365.341 452.271 C 368.898 453.86 369.449 457.283 366.57 459.908 L 366.57 459.908 C 363.69 462.534 363.626 466.866 366.425 469.577 L 366.425 469.577 C 369.225 472.287 368.572 475.691 364.968 477.174 L 364.968 477.174 C 361.365 478.656 359.822 482.705 361.526 486.209 L 361.526 486.209 C 363.23 489.714 361.452 492.69 357.559 492.85 L 357.559 492.85 C 353.665 493.011 350.831 496.288 351.233 500.164 L 351.233 500.164 C 351.636 504.039 348.947 506.228 345.234 505.047 Z " fill="rgb(166,160,103)" vector-effect="non-scaling-stroke" stroke-width="5" stroke="rgb(140,136,94)" stroke-linejoin="miter" stroke-linecap="square" stroke-miterlimit="3"/><path d=" M 303.144 434 Q 306.578 437.434 311.434 444.749" fill="none" vector-effect="non-scaling-stroke" stroke-width="5" stroke="rgb(140,136,94)" stroke-linejoin="miter" stroke-linecap="square" stroke-miterlimit="3"/><path d=" M 287.7 452.537 Q 292.384 453.818 300.227 457.764" fill="none" vector-effect="non-scaling-stroke" stroke-width="5" stroke="rgb(140,136,94)" stroke-linejoin="miter" stroke-linecap="square" stroke-miterlimit="3"/><path d=" M 316.816 479.165 Q 317.434 483.982 316.806 492.739" fill="none" vector-effect="non-scaling-stroke" stroke-width="5" stroke="rgb(140,136,94)" stroke-linejoin="miter" stroke-linecap="square" stroke-miterlimit="3"/><path d=" M 298.108 475.203 Q 294.674 478.637 289.819 485.952" fill="none" vector-effect="non-scaling-stroke" stroke-width="5" stroke="rgb(140,136,94)" stroke-linejoin="miter" stroke-linecap="square" stroke-miterlimit="3"/><path d=" M 329.698 452.285 Q 333.131 448.851 340.446 443.996" fill="none" vector-effect="non-scaling-stroke" stroke-width="5" stroke="rgb(140,136,94)" stroke-linejoin="miter" stroke-linecap="square" stroke-miterlimit="3"/><path d=" M 334.378 472.164 Q 338.963 473.764 346.514 478.243" fill="none" vector-effect="non-scaling-stroke" stroke-width="5" stroke="rgb(140,136,94)" stroke-linejoin="miter" stroke-linecap="square" stroke-miterlimit="3"/></g><g><path d=" M 417.423 505.047 L 417.423 505.047 C 413.71 503.866 409.925 505.976 408.978 509.756 L 408.978 509.756 C 408.03 513.536 404.756 514.672 401.67 512.293 L 401.67 512.293 C 398.584 509.913 394.307 510.601 392.124 513.829 L 392.124 513.829 C 389.941 517.057 386.475 517.005 384.389 513.714 L 384.389 513.714 C 382.303 510.422 378.048 509.606 374.893 511.893 L 374.893 511.893 C 371.737 514.179 368.498 512.945 367.664 509.139 L 367.664 509.139 C 366.83 505.332 363.11 503.11 359.363 504.179 L 359.363 504.179 C 355.616 505.249 352.994 502.981 353.512 499.119 L 353.512 499.119 C 354.03 495.257 351.295 491.897 347.408 491.62 L 347.408 491.62 C 343.522 491.343 341.834 488.316 343.641 484.864 L 343.641 484.864 C 345.449 481.412 344.028 477.318 340.47 475.729 L 340.47 475.729 C 336.912 474.139 336.362 470.717 339.241 468.092 L 339.241 468.092 C 342.12 465.466 342.185 461.134 339.385 458.423 L 339.385 458.423 C 336.586 455.713 337.239 452.309 340.842 450.826 L 340.842 450.826 C 344.446 449.344 345.989 445.295 344.285 441.791 L 344.285 441.791 C 342.581 438.286 344.359 435.31 348.252 435.15 L 348.252 435.15 C 352.146 434.989 354.98 431.712 354.578 427.836 L 354.578 427.836 C 354.175 423.961 356.863 421.772 360.577 422.953 L 360.577 422.953 C 364.29 424.134 368.075 422.024 369.022 418.244 L 369.022 418.244 C 369.97 414.464 373.244 413.328 376.33 415.707 L 376.33 415.707 C 379.416 418.087 383.693 417.399 385.876 414.171 L 385.876 414.171 C 388.059 410.943 391.525 410.995 393.611 414.286 L 393.611 414.286 C 395.697 417.578 399.952 418.394 403.107 416.107 L 403.107 416.107 C 406.263 413.821 409.502 415.055 410.336 418.861 L 410.336 418.861 C 411.17 422.668 414.89 424.89 418.637 423.821 L 418.637 423.821 C 422.384 422.751 425.006 425.019 424.488 428.881 L 424.488 428.881 C 423.97 432.743 426.705 436.103 430.592 436.38 L 430.592 436.38 C 434.478 436.657 436.166 439.684 434.359 443.136 L 434.359 443.136 C 432.551 446.588 433.972 450.682 437.53 452.271 L 437.53 452.271 C 441.088 453.86 441.638 457.283 438.759 459.908 L 438.759 459.908 C 435.88 462.534 435.815 466.866 438.615 469.577 L 438.615 469.577 C 441.414 472.287 440.761 475.691 437.158 477.174 L 437.158 477.174 C 433.554 478.656 432.011 482.705 433.715 486.209 L 433.715 486.209 C 435.419 489.714 433.641 492.69 429.748 492.85 L 429.748 492.85 C 425.854 493.011 423.02 496.288 423.422 500.164 L 423.422 500.164 C 423.825 504.039 421.137 506.228 417.423 505.047 Z " fill="rgb(166,160,103)" vector-effect="non-scaling-stroke" stroke-width="5" stroke="rgb(140,136,94)" stroke-linejoin="miter" stroke-linecap="square" stroke-miterlimit="3"/><path d=" M 375.333 434 Q 378.767 437.434 383.623 444.749" fill="none" vector-effect="non-scaling-stroke" stroke-width="5" stroke="rgb(140,136,94)" stroke-linejoin="miter" stroke-linecap="square" stroke-miterlimit="3"/><path d=" M 359.889 452.537 Q 364.573 453.818 372.416 457.764" fill="none" vector-effect="non-scaling-stroke" stroke-width="5" stroke="rgb(140,136,94)" stroke-linejoin="miter" stroke-linecap="square" stroke-miterlimit="3"/><path d=" M 389.005 479.165 Q 389.624 483.982 388.995 492.739" fill="none" vector-effect="non-scaling-stroke" stroke-width="5" stroke="rgb(140,136,94)" stroke-linejoin="miter" stroke-linecap="square" stroke-miterlimit="3"/><path d=" M 370.297 475.203 Q 366.864 478.637 362.008 485.952" fill="none" vector-effect="non-scaling-stroke" stroke-width="5" stroke="rgb(140,136,94)" stroke-linejoin="miter" stroke-linecap="square" stroke-miterlimit="3"/><path d=" M 401.887 452.285 Q 405.32 448.851 412.635 443.996" fill="none" vector-effect="non-scaling-stroke" stroke-width="5" stroke="rgb(140,136,94)" stroke-linejoin="miter" stroke-linecap="square" stroke-miterlimit="3"/><path d=" M 406.567 472.164 Q 411.152 473.764 418.704 478.243" fill="none" vector-effect="non-scaling-stroke" stroke-width="5" stroke="rgb(140,136,94)" stroke-linejoin="miter" stroke-linecap="square" stroke-miterlimit="3"/></g><g><path d=" M 494.423 493.191 L 494.423 493.191 C 490.71 492.01 486.925 494.12 485.978 497.9 L 485.978 497.9 C 485.03 501.68 481.756 502.816 478.67 500.437 L 478.67 500.437 C 475.584 498.057 471.307 498.746 469.124 501.973 L 469.124 501.973 C 466.941 505.201 463.475 505.149 461.389 501.858 L 461.389 501.858 C 459.303 498.566 455.048 497.75 451.893 500.037 L 451.893 500.037 C 448.737 502.323 445.498 501.089 444.664 497.283 L 444.664 497.283 C 443.83 493.476 440.11 491.254 436.363 492.323 L 436.363 492.323 C 432.616 493.393 429.994 491.125 430.512 487.263 L 430.512 487.263 C 431.03 483.401 428.295 480.041 424.408 479.764 L 424.408 479.764 C 420.522 479.487 418.834 476.46 420.641 473.008 L 420.641 473.008 C 422.449 469.556 421.028 465.463 417.47 463.873 L 417.47 463.873 C 413.912 462.284 413.362 458.861 416.241 456.236 L 416.241 456.236 C 419.12 453.61 419.185 449.278 416.385 446.568 L 416.385 446.568 C 413.586 443.857 414.239 440.453 417.842 438.97 L 417.842 438.97 C 421.446 437.488 422.989 433.439 421.285 429.935 L 421.285 429.935 C 419.581 426.43 421.359 423.455 425.252 423.294 L 425.252 423.294 C 429.146 423.134 431.98 419.856 431.578 415.981 L 431.578 415.981 C 431.175 412.105 433.863 409.917 437.577 411.097 L 437.577 411.097 C 441.29 412.278 445.075 410.168 446.022 406.388 L 446.022 406.388 C 446.97 402.609 450.244 401.472 453.33 403.851 L 453.33 403.851 C 456.416 406.231 460.693 405.543 462.876 402.315 L 462.876 402.315 C 465.059 399.087 468.525 399.139 470.611 402.43 L 470.611 402.43 C 472.697 405.722 476.952 406.538 480.107 404.252 L 480.107 404.252 C 483.263 401.965 486.502 403.199 487.336 407.006 L 487.336 407.006 C 488.17 410.812 491.89 413.034 495.637 411.965 L 495.637 411.965 C 499.384 410.896 502.006 413.163 501.488 417.025 L 501.488 417.025 C 500.97 420.887 503.705 424.248 507.592 424.524 L 507.592 424.524 C 511.478 424.801 513.166 427.828 511.359 431.28 L 511.359 431.28 C 509.551 434.733 510.972 438.826 514.53 440.415 L 514.53 440.415 C 518.088 442.005 518.638 445.427 515.759 448.052 L 515.759 448.052 C 512.88 450.678 512.815 455.01 515.615 457.721 L 515.615 457.721 C 518.414 460.431 517.761 463.835 514.158 465.318 L 514.158 465.318 C 510.554 466.8 509.011 470.849 510.715 474.354 L 510.715 474.354 C 512.419 477.858 510.641 480.834 506.748 480.994 L 506.748 480.994 C 502.854 481.155 500.02 484.432 500.422 488.308 L 500.422 488.308 C 500.825 492.184 498.137 494.372 494.423 493.191 Z " fill="rgb(166,160,103)" vector-effect="non-scaling-stroke" stroke-width="5" stroke="rgb(140,136,94)" stroke-linejoin="miter" stroke-linecap="square" stroke-miterlimit="3"/><path d=" M 452.333 422.144 Q 455.767 425.578 460.623 432.893" fill="none" vector-effect="non-scaling-stroke" stroke-width="5" stroke="rgb(140,136,94)" stroke-linejoin="miter" stroke-linecap="square" stroke-miterlimit="3"/><path d=" M 436.889 440.682 Q 441.573 441.962 449.416 445.909" fill="none" vector-effect="non-scaling-stroke" stroke-width="5" stroke="rgb(140,136,94)" stroke-linejoin="miter" stroke-linecap="square" stroke-miterlimit="3"/><path d=" M 466.005 467.309 Q 466.624 472.126 465.995 480.883" fill="none" vector-effect="non-scaling-stroke" stroke-width="5" stroke="rgb(140,136,94)" stroke-linejoin="miter" stroke-linecap="square" stroke-miterlimit="3"/><path d=" M 447.297 463.347 Q 443.864 466.781 439.008 474.096" fill="none" vector-effect="non-scaling-stroke" stroke-width="5" stroke="rgb(140,136,94)" stroke-linejoin="miter" stroke-linecap="square" stroke-miterlimit="3"/><path d=" M 478.887 440.429 Q 482.32 436.996 489.635 432.14" fill="none" vector-effect="non-scaling-stroke" stroke-width="5" stroke="rgb(140,136,94)" stroke-linejoin="miter" stroke-linecap="square" stroke-miterlimit="3"/><path d=" M 483.567 460.308 Q 488.152 461.908 495.704 466.387" fill="none" vector-effect="non-scaling-stroke" stroke-width="5" stroke="rgb(140,136,94)" stroke-linejoin="miter" stroke-linecap="square" stroke-miterlimit="3"/></g><g><path d=" M 562.005 490.486 L 562.005 490.486 C 558.292 489.305 554.508 491.415 553.56 495.195 L 553.56 495.195 C 552.613 498.974 549.338 500.111 546.253 497.731 L 546.253 497.731 C 543.167 495.352 538.889 496.04 536.706 499.268 L 536.706 499.268 C 534.523 502.496 531.057 502.444 528.971 499.153 L 528.971 499.152 C 526.886 495.861 522.63 495.045 519.475 497.331 L 519.475 497.331 C 516.32 499.618 513.081 498.384 512.246 494.577 L 512.246 494.577 C 511.412 490.771 507.693 488.549 503.946 489.618 L 503.946 489.618 C 500.198 490.687 497.577 488.42 498.095 484.558 L 498.095 484.558 C 498.613 480.696 495.878 477.335 491.991 477.059 L 491.991 477.059 C 488.104 476.782 486.416 473.755 488.224 470.302 L 488.224 470.302 C 490.031 466.85 488.61 462.757 485.053 461.168 L 485.053 461.168 C 481.495 459.578 480.944 456.156 483.823 453.531 L 483.823 453.531 C 486.703 450.905 486.767 446.573 483.968 443.862 L 483.968 443.862 C 481.168 441.152 481.821 437.748 485.425 436.265 L 485.425 436.265 C 489.028 434.783 490.571 430.734 488.867 427.229 L 488.867 427.229 C 487.163 423.725 488.941 420.749 492.835 420.589 L 492.835 420.589 C 496.728 420.428 499.562 417.151 499.16 413.275 L 499.16 413.275 C 498.757 409.399 501.446 407.211 505.159 408.392 L 505.159 408.392 C 508.873 409.573 512.657 407.463 513.604 403.683 L 513.604 403.683 C 514.552 399.903 517.826 398.767 520.912 401.146 L 520.912 401.146 C 523.998 403.526 528.276 402.837 530.459 399.61 L 530.459 399.61 C 532.642 396.382 536.108 396.434 538.193 399.725 L 538.193 399.725 C 540.279 403.017 544.534 403.833 547.69 401.546 L 547.69 401.546 C 550.845 399.26 554.084 400.494 554.918 404.3 L 554.918 404.3 C 555.752 408.107 559.472 410.329 563.219 409.26 L 563.219 409.26 C 566.966 408.19 569.588 410.458 569.07 414.32 L 569.07 414.32 C 568.552 418.182 571.287 421.542 575.174 421.819 L 575.174 421.819 C 579.061 422.096 580.749 425.123 578.941 428.575 L 578.941 428.575 C 577.133 432.027 578.554 436.12 582.112 437.71 L 582.112 437.71 C 585.67 439.299 586.221 442.721 583.341 445.347 L 583.341 445.347 C 580.462 447.973 580.397 452.305 583.197 455.015 L 583.197 455.015 C 585.997 457.726 585.344 461.13 581.74 462.612 L 581.74 462.612 C 578.136 464.095 576.594 468.144 578.298 471.648 L 578.298 471.648 C 580.001 475.153 578.224 478.128 574.33 478.289 L 574.33 478.289 C 570.437 478.449 567.602 481.726 568.005 485.602 L 568.005 485.602 C 568.407 489.478 565.719 491.666 562.005 490.486 Z " fill="rgb(166,160,103)" vector-effect="non-scaling-stroke" stroke-width="5" stroke="rgb(140,136,94)" stroke-linejoin="miter" stroke-linecap="square" stroke-miterlimit="3"/><path d=" M 519.916 419.439 Q 523.349 422.872 528.205 430.188" fill="none" vector-effect="non-scaling-stroke" stroke-width="5" stroke="rgb(140,136,94)" stroke-linejoin="miter" stroke-linecap="square" stroke-miterlimit="3"/><path d=" M 504.471 437.976 Q 509.155 439.257 516.998 443.203" fill="none" vector-effect="non-scaling-stroke" stroke-width="5" stroke="rgb(140,136,94)" stroke-linejoin="miter" stroke-linecap="square" stroke-miterlimit="3"/><path d=" M 533.587 464.604 Q 534.206 469.42 533.577 478.178" fill="none" vector-effect="non-scaling-stroke" stroke-width="5" stroke="rgb(140,136,94)" stroke-linejoin="miter" stroke-linecap="square" stroke-miterlimit="3"/><path d=" M 514.88 460.642 Q 511.446 464.076 506.59 471.391" fill="none" vector-effect="non-scaling-stroke" stroke-width="5" stroke="rgb(140,136,94)" stroke-linejoin="miter" stroke-linecap="square" stroke-miterlimit="3"/><path d=" M 546.469 437.724 Q 549.903 434.29 557.218 429.434" fill="none" vector-effect="non-scaling-stroke" stroke-width="5" stroke="rgb(140,136,94)" stroke-linejoin="miter" stroke-linecap="square" stroke-miterlimit="3"/><path d=" M 551.15 457.603 Q 555.734 459.203 563.286 463.682" fill="none" vector-effect="non-scaling-stroke" stroke-width="5" stroke="rgb(140,136,94)" stroke-linejoin="miter" stroke-linecap="square" stroke-miterlimit="3"/></g><g><path d=" M 602.174 450.727 L 602.174 450.727 C 599.304 449.814 596.379 451.445 595.646 454.367 L 595.646 454.367 C 594.914 457.288 592.383 458.167 589.998 456.328 L 589.998 456.328 C 587.613 454.488 584.306 455.02 582.619 457.515 L 582.619 457.515 C 580.932 460.01 578.253 459.97 576.64 457.426 L 576.64 457.426 C 575.028 454.882 571.739 454.251 569.3 456.018 L 569.3 456.018 C 566.861 457.786 564.358 456.832 563.713 453.89 L 563.713 453.89 C 563.068 450.948 560.193 449.23 557.297 450.056 L 557.297 450.056 C 554.4 450.883 552.374 449.13 552.774 446.145 L 552.774 446.145 C 553.175 443.16 551.061 440.563 548.056 440.349 L 548.056 440.349 C 545.052 440.135 543.747 437.795 545.145 435.126 L 545.145 435.126 C 546.542 432.458 545.444 429.294 542.694 428.066 L 542.694 428.066 C 539.943 426.837 539.518 424.192 541.743 422.163 L 541.743 422.163 C 543.969 420.133 544.019 416.785 541.855 414.69 L 541.855 414.69 C 539.691 412.595 540.196 409.963 542.981 408.817 L 542.981 408.817 C 545.767 407.672 546.959 404.542 545.642 401.833 L 545.642 401.833 C 544.325 399.124 545.699 396.824 548.709 396.7 L 548.709 396.7 C 551.718 396.576 553.909 394.043 553.598 391.047 L 553.598 391.047 C 553.287 388.052 555.365 386.36 558.235 387.273 L 558.235 387.273 C 561.105 388.186 564.03 386.555 564.763 383.633 L 564.763 383.633 C 565.495 380.712 568.026 379.833 570.411 381.672 L 570.411 381.672 C 572.796 383.512 576.103 382.98 577.79 380.485 L 577.79 380.485 C 579.478 377.99 582.156 378.03 583.769 380.574 L 583.769 380.574 C 585.381 383.118 588.67 383.749 591.109 381.982 L 591.109 381.982 C 593.548 380.214 596.051 381.168 596.696 384.11 L 596.696 384.11 C 597.341 387.052 600.216 388.77 603.112 387.944 L 603.112 387.944 C 606.009 387.117 608.035 388.87 607.635 391.855 L 607.635 391.855 C 607.234 394.84 609.348 397.437 612.353 397.651 L 612.353 397.651 C 615.357 397.865 616.662 400.205 615.264 402.874 L 615.264 402.874 C 613.867 405.542 614.965 408.706 617.716 409.934 L 617.716 409.934 C 620.466 411.163 620.891 413.808 618.666 415.837 L 618.666 415.837 C 616.44 417.867 616.39 421.215 618.554 423.31 L 618.554 423.31 C 620.718 425.405 620.213 428.037 617.428 429.183 L 617.428 429.183 C 614.642 430.328 613.45 433.458 614.767 436.167 L 614.767 436.167 C 616.084 438.876 614.71 441.176 611.7 441.3 L 611.7 441.3 C 608.691 441.424 606.5 443.957 606.811 446.953 L 606.811 446.953 C 607.122 449.948 605.044 451.64 602.174 450.727 Z " fill="rgb(166,160,103)" vector-effect="non-scaling-stroke" stroke-width="5" stroke="rgb(140,136,94)" stroke-linejoin="miter" stroke-linecap="square" stroke-miterlimit="3"/><path d=" M 569.641 395.812 Q 572.295 398.466 576.048 404.12" fill="none" vector-effect="non-scaling-stroke" stroke-width="5" stroke="rgb(140,136,94)" stroke-linejoin="miter" stroke-linecap="square" stroke-miterlimit="3"/><path d=" M 557.703 410.14 Q 561.324 411.13 567.386 414.18" fill="none" vector-effect="non-scaling-stroke" stroke-width="5" stroke="rgb(140,136,94)" stroke-linejoin="miter" stroke-linecap="square" stroke-miterlimit="3"/><path d=" M 580.208 430.722 Q 580.686 434.445 580.201 441.214" fill="none" vector-effect="non-scaling-stroke" stroke-width="5" stroke="rgb(140,136,94)" stroke-linejoin="miter" stroke-linecap="square" stroke-miterlimit="3"/><path d=" M 565.748 427.66 Q 563.094 430.314 559.341 435.968" fill="none" vector-effect="non-scaling-stroke" stroke-width="5" stroke="rgb(140,136,94)" stroke-linejoin="miter" stroke-linecap="square" stroke-miterlimit="3"/><path d=" M 590.165 409.945 Q 592.819 407.291 598.474 403.538" fill="none" vector-effect="non-scaling-stroke" stroke-width="5" stroke="rgb(140,136,94)" stroke-linejoin="miter" stroke-linecap="square" stroke-miterlimit="3"/><path d=" M 593.783 425.31 Q 597.327 426.547 603.164 430.009" fill="none" vector-effect="non-scaling-stroke" stroke-width="5" stroke="rgb(140,136,94)" stroke-linejoin="miter" stroke-linecap="square" stroke-miterlimit="3"/></g><g><path d=" M 763.174 424.727 L 763.174 424.727 C 760.304 423.814 757.379 425.445 756.646 428.367 L 756.646 428.367 C 755.914 431.288 753.383 432.167 750.998 430.328 L 750.998 430.328 C 748.613 428.488 745.306 429.02 743.619 431.515 L 743.619 431.515 C 741.932 434.01 739.253 433.97 737.64 431.426 L 737.64 431.426 C 736.028 428.882 732.739 428.251 730.3 430.018 L 730.3 430.018 C 727.861 431.786 725.358 430.832 724.713 427.89 L 724.713 427.89 C 724.068 424.948 721.193 423.23 718.297 424.056 L 718.297 424.056 C 715.4 424.883 713.374 423.13 713.774 420.145 L 713.774 420.145 C 714.175 417.16 712.061 414.563 709.056 414.349 L 709.056 414.349 C 706.052 414.135 704.747 411.795 706.145 409.126 L 706.145 409.126 C 707.542 406.458 706.444 403.294 703.694 402.066 L 703.694 402.066 C 700.943 400.837 700.518 398.192 702.743 396.163 L 702.743 396.163 C 704.969 394.133 705.019 390.785 702.855 388.69 L 702.855 388.69 C 700.691 386.595 701.196 383.963 703.981 382.817 L 703.981 382.817 C 706.767 381.672 707.959 378.542 706.642 375.833 L 706.642 375.833 C 705.325 373.124 706.699 370.824 709.709 370.7 L 709.709 370.7 C 712.718 370.576 714.909 368.043 714.598 365.047 L 714.598 365.047 C 714.287 362.052 716.365 360.36 719.235 361.273 L 719.235 361.273 C 722.105 362.186 725.03 360.555 725.763 357.633 L 725.763 357.633 C 726.495 354.712 729.026 353.833 731.411 355.672 L 731.411 355.672 C 733.796 357.512 737.103 356.98 738.79 354.485 L 738.79 354.485 C 740.478 351.99 743.156 352.03 744.769 354.574 L 744.769 354.574 C 746.381 357.118 749.67 357.749 752.109 355.982 L 752.109 355.982 C 754.548 354.214 757.051 355.168 757.696 358.11 L 757.696 358.11 C 758.341 361.052 761.216 362.77 764.112 361.944 L 764.112 361.944 C 767.009 361.117 769.035 362.87 768.635 365.855 L 768.635 365.855 C 768.234 368.84 770.348 371.437 773.353 371.651 L 773.353 371.651 C 776.357 371.865 777.662 374.205 776.264 376.874 L 776.264 376.874 C 774.867 379.542 775.965 382.706 778.716 383.934 L 778.716 383.934 C 781.466 385.163 781.891 387.808 779.666 389.837 L 779.666 389.837 C 777.44 391.867 777.39 395.215 779.554 397.31 L 779.554 397.31 C 781.718 399.405 781.213 402.037 778.428 403.183 L 778.428 403.183 C 775.642 404.328 774.45 407.458 775.767 410.167 L 775.767 410.167 C 777.084 412.876 775.71 415.176 772.7 415.3 L 772.7 415.3 C 769.691 415.424 767.5 417.957 767.811 420.953 L 767.811 420.953 C 768.122 423.948 766.044 425.64 763.174 424.727 Z " fill="rgb(166,160,103)" vector-effect="non-scaling-stroke" stroke-width="5" stroke="rgb(140,136,94)" stroke-linejoin="miter" stroke-linecap="square" stroke-miterlimit="3"/><path d=" M 730.641 369.812 Q 733.295 372.466 737.048 378.12" fill="none" vector-effect="non-scaling-stroke" stroke-width="5" stroke="rgb(140,136,94)" stroke-linejoin="miter" stroke-linecap="square" stroke-miterlimit="3"/><path d=" M 718.703 384.14 Q 722.324 385.13 728.386 388.18" fill="none" vector-effect="non-scaling-stroke" stroke-width="5" stroke="rgb(140,136,94)" stroke-linejoin="miter" stroke-linecap="square" stroke-miterlimit="3"/><path d=" M 741.208 404.722 Q 741.686 408.445 741.201 415.214" fill="none" vector-effect="non-scaling-stroke" stroke-width="5" stroke="rgb(140,136,94)" stroke-linejoin="miter" stroke-linecap="square" stroke-miterlimit="3"/><path d=" M 726.748 401.66 Q 724.094 404.314 720.341 409.968" fill="none" vector-effect="non-scaling-stroke" stroke-width="5" stroke="rgb(140,136,94)" stroke-linejoin="miter" stroke-linecap="square" stroke-miterlimit="3"/><path d=" M 751.165 383.945 Q 753.819 381.291 759.474 377.538" fill="none" vector-effect="non-scaling-stroke" stroke-width="5" stroke="rgb(140,136,94)" stroke-linejoin="miter" stroke-linecap="square" stroke-miterlimit="3"/><path d=" M 754.783 399.31 Q 758.327 400.547 764.164 404.009" fill="none" vector-effect="non-scaling-stroke" stroke-width="5" stroke="rgb(140,136,94)" stroke-linejoin="miter" stroke-linecap="square" stroke-miterlimit="3"/></g><g><path d=" M 204.97 469.072 L 204.97 469.072 C 202.099 468.159 199.174 469.79 198.442 472.711 L 198.442 472.711 C 197.709 475.633 195.178 476.512 192.793 474.672 L 192.793 474.672 C 190.408 472.833 187.102 473.365 185.414 475.86 L 185.414 475.86 C 183.727 478.355 181.048 478.315 179.436 475.771 L 179.436 475.771 C 177.824 473.226 174.535 472.596 172.096 474.363 L 172.096 474.363 C 169.657 476.13 167.153 475.176 166.508 472.234 L 166.508 472.234 C 165.864 469.292 162.989 467.574 160.092 468.401 L 160.092 468.401 C 157.196 469.228 155.17 467.475 155.57 464.49 L 155.57 464.49 C 155.97 461.504 153.856 458.907 150.852 458.693 L 150.852 458.693 C 147.848 458.479 146.543 456.139 147.94 453.471 L 147.94 453.471 C 149.337 450.803 148.239 447.639 145.489 446.41 L 145.489 446.41 C 142.739 445.182 142.313 442.537 144.539 440.507 L 144.539 440.507 C 146.764 438.478 146.814 435.129 144.65 433.034 L 144.65 433.034 C 142.486 430.939 142.991 428.308 145.777 427.162 L 145.777 427.162 C 148.562 426.016 149.754 422.887 148.437 420.178 L 148.437 420.178 C 147.121 417.469 148.495 415.169 151.504 415.045 L 151.504 415.045 C 154.514 414.921 156.704 412.388 156.393 409.392 L 156.393 409.392 C 156.082 406.396 158.16 404.705 161.03 405.618 L 161.03 405.618 C 163.901 406.53 166.826 404.899 167.558 401.978 L 167.558 401.978 C 168.291 399.056 170.821 398.178 173.207 400.017 L 173.207 400.017 C 175.592 401.856 178.898 401.324 180.586 398.829 L 180.586 398.829 C 182.273 396.334 184.952 396.374 186.564 398.918 L 186.564 398.918 C 188.176 401.463 191.465 402.093 193.904 400.326 L 193.904 400.326 C 196.343 398.559 198.847 399.513 199.492 402.455 L 199.492 402.455 C 200.136 405.397 203.011 407.115 205.908 406.288 L 205.908 406.288 C 208.804 405.462 210.83 407.214 210.43 410.199 L 210.43 410.199 C 210.03 413.185 212.144 415.782 215.148 415.996 L 215.148 415.996 C 218.152 416.21 219.457 418.55 218.06 421.218 L 218.06 421.218 C 216.663 423.886 217.761 427.05 220.511 428.279 L 220.511 428.279 C 223.261 429.507 223.687 432.152 221.461 434.182 L 221.461 434.182 C 219.236 436.211 219.186 439.56 221.35 441.655 L 221.35 441.655 C 223.513 443.75 223.009 446.381 220.223 447.527 L 220.223 447.527 C 217.438 448.673 216.246 451.802 217.563 454.511 L 217.563 454.511 C 218.879 457.22 217.505 459.52 214.496 459.644 L 214.496 459.644 C 211.487 459.768 209.296 462.301 209.607 465.297 L 209.607 465.297 C 209.918 468.293 207.84 469.984 204.97 469.072 Z " fill="rgb(166,160,103)" vector-effect="non-scaling-stroke" stroke-width="5" stroke="rgb(140,136,94)" stroke-linejoin="miter" stroke-linecap="square" stroke-miterlimit="3"/><path d=" M 172.436 414.156 Q 175.09 416.81 178.844 422.464" fill="none" vector-effect="non-scaling-stroke" stroke-width="5" stroke="rgb(140,136,94)" stroke-linejoin="miter" stroke-linecap="square" stroke-miterlimit="3"/><path d=" M 160.499 428.485 Q 164.119 429.474 170.182 432.525" fill="none" vector-effect="non-scaling-stroke" stroke-width="5" stroke="rgb(140,136,94)" stroke-linejoin="miter" stroke-linecap="square" stroke-miterlimit="3"/><path d=" M 183.004 449.066 Q 183.482 452.789 182.996 459.558" fill="none" vector-effect="non-scaling-stroke" stroke-width="5" stroke="rgb(140,136,94)" stroke-linejoin="miter" stroke-linecap="square" stroke-miterlimit="3"/><path d=" M 168.544 446.004 Q 165.89 448.658 162.137 454.312" fill="none" vector-effect="non-scaling-stroke" stroke-width="5" stroke="rgb(140,136,94)" stroke-linejoin="miter" stroke-linecap="square" stroke-miterlimit="3"/><path d=" M 192.961 428.29 Q 195.615 425.636 201.269 421.882" fill="none" vector-effect="non-scaling-stroke" stroke-width="5" stroke="rgb(140,136,94)" stroke-linejoin="miter" stroke-linecap="square" stroke-miterlimit="3"/><path d=" M 196.579 443.655 Q 200.122 444.892 205.959 448.354" fill="none" vector-effect="non-scaling-stroke" stroke-width="5" stroke="rgb(140,136,94)" stroke-linejoin="miter" stroke-linecap="square" stroke-miterlimit="3"/></g><g><g><path d=" M 90.083 701.667 C 90.083 687.593 101.509 676.167 115.583 676.167 C 129.657 676.167 141.083 687.593 141.083 701.667 C 141.083 715.741 129.657 727.167 115.583 727.167 C 101.509 727.167 90.083 715.741 90.083 701.667 Z  M 97.083 705.917 C 98.739 699.351 105.641 698.347 115.833 700.917 C 126.026 703.486 130.989 707.601 129.333 714.167 C 127.678 720.733 120.86 725.524 110.668 722.954 C 100.476 720.385 95.428 712.483 97.083 705.917 Z " fill-rule="evenodd" fill="rgb(104,84,137)" vector-effect="non-scaling-stroke" stroke-width="5" stroke="rgb(49,37,68)" stroke-linejoin="miter" stroke-linecap="square" stroke-miterlimit="3"/><path d=" M 133.25 642.417 C 133.25 628.343 151.926 616.667 166 616.667 C 180.074 616.667 173.5 626.917 172.5 640.167 C 171.441 654.201 172.824 667.917 158.75 667.917 C 144.676 667.917 133.25 656.491 133.25 642.417 Z " fill="rgb(104,84,137)" vector-effect="non-scaling-stroke" stroke-width="5" stroke="rgb(49,37,68)" stroke-linejoin="miter" stroke-linecap="square" stroke-miterlimit="3"/><path d=" M 126.588 680.313 C 134.098 684.085 139.254 691.86 139.254 700.831 C 138.782 712.237 130.729 719.531 129.698 719.766 C 130.543 718.253 133.87 712.078 130.657 706.693 C 130.475 702.584 130.249 697.781 130.249 692.727 C 130.249 688.152 128.908 683.887 126.588 680.313 Z " fill="rgb(69,53,96)"/><path d=" M 167.714 619.313 C 169.258 619.567 170.854 619.547 171.839 620.906 C 172.823 622.266 171.625 629.441 170.667 639.75 C 169.542 652.875 170.589 665.766 157.917 665.766 C 149.82 665.766 141.087 652.938 144.789 652.938 C 157.461 652.938 167.749 642.649 167.749 629.977 Q 167.749 626.415 167.714 619.313 Z " fill="rgb(69,53,96)"/><path d=" M 105.333 667.417 C 105.333 653.343 116.759 641.917 130.833 641.917 C 144.907 641.917 156.333 653.343 156.333 667.417 C 156.333 681.491 144.907 692.917 130.833 692.917 C 116.759 692.917 105.333 681.491 105.333 667.417 Z " fill="rgb(104,84,137)" vector-effect="non-scaling-stroke" stroke-width="5" stroke="rgb(49,37,68)" stroke-linejoin="miter" stroke-linecap="square" stroke-miterlimit="3"/><path d=" M 141.338 647.063 C 148.848 650.835 154.004 658.61 154.004 667.581 C 154.004 680.253 143.715 690.542 131.043 690.542 C 122.946 690.542 115.822 686.341 111.744 679.995 C 114.838 681.56 118.337 682.438 122.039 682.438 C 134.711 682.438 144.999 672.149 144.999 659.477 C 144.999 654.902 143.658 650.637 141.338 647.063 Z " fill="rgb(69,53,96)"/></g><g><path d=" M 103.544 702.911 C 107.235 700.732 112.014 701.458 117.427 703.414 C 125.796 706.439 131.376 710.05 128.866 720.308 C 124.797 736.931 111.364 747.477 102.995 744.452 C 97.364 742.417 94.341 734.51 94.96 724.653 C 93.891 724.925 92.903 724.85 92.074 724.388 C 89.065 722.714 89.278 716.583 92.548 710.705 C 95.685 705.069 100.502 701.699 103.544 702.911 Z " fill-rule="evenodd" fill="rgb(255,155,131)" vector-effect="non-scaling-stroke" stroke-width="5" stroke="rgb(202,109,86)" stroke-linejoin="miter" stroke-linecap="square" stroke-miterlimit="3"/><path d=" M 118.079 706.111 C 124.83 708.717 129.147 712.046 127.041 720.65 C 123.434 735.385 111.528 744.733 104.109 742.051 C 102.139 741.339 100.528 739.816 99.337 737.692 C 106.646 737.618 116.25 728.823 119.424 715.854 C 120.514 711.403 119.884 708.363 118.079 706.111 Z " fill="rgb(174,95,75)"/><path d=" M 104.778 708.763 C 105.13 708.659 106.501 712.21 105.42 716.624 C 104.34 721.038 100.87 722.164 99.851 722.222 C 98.831 722.28 98.395 722.063 97.641 721.589 C 96.886 721.116 101.673 719.499 103.415 716.698 C 105.157 713.897 104.426 708.867 104.778 708.763 Z " fill="rgb(174,95,75)"/></g></g><g><ellipse vector-effect="non-scaling-stroke" cx="378.40909090909093" cy="864.8103552077062" rx="271.5909090909091" ry="163.67399157134258" fill="rgb(104,84,137)" stroke-width="5" stroke="rgb(49,37,68)" stroke-linejoin="miter" stroke-linecap="square" stroke-miterlimit="3"/><ellipse vector-effect="non-scaling-stroke" cx="377.27272727272725" cy="813.6739915713422" rx="271.5909090909091" ry="163.67399157134253" fill="rgb(104,84,137)" stroke-width="5" stroke="rgb(49,37,68)" stroke-linejoin="miter" stroke-linecap="square" stroke-miterlimit="3"/><path d=" M 115.909 755.114 C 115.909 669.504 229.809 637 375 637 C 520.191 637 642.045 669.504 642.045 755.114 C 642.045 840.723 524.169 910.227 378.977 910.227 C 233.786 910.227 115.909 840.723 115.909 755.114 Z " fill="rgb(104,84,137)" vector-effect="non-scaling-stroke" stroke-width="5" stroke="rgb(49,37,68)" stroke-linejoin="miter" stroke-linecap="square" stroke-miterlimit="3"/><path d=" M 143.182 681.419 C 143.182 602.802 237.547 630 368 630 C 498.453 630 615.909 602.802 615.909 681.419 C 615.909 760.036 509.998 823.864 379.545 823.864 C 249.093 823.864 143.182 760.036 143.182 681.419 Z " fill="rgb(104,84,137)" vector-effect="non-scaling-stroke" stroke-width="5" stroke="rgb(49,37,68)" stroke-linejoin="miter" stroke-linecap="square" stroke-miterlimit="3"/><path d=" M 180.682 624.737 C 180.682 563.128 261.77 633 364 633 C 466.23 633 551.136 563.128 551.136 624.737 C 551.136 686.345 468.139 736.364 365.909 736.364 C 263.679 736.364 180.682 686.345 180.682 624.737 Z " fill="rgb(104,84,137)" vector-effect="non-scaling-stroke" stroke-width="5" stroke="rgb(49,37,68)" stroke-linejoin="miter" stroke-linecap="square" stroke-miterlimit="3"/><path d=" M 360.227 623.864 C 344.744 651.399 310.688 706.629 332.393 736.543 C 317.068 750.742 307 801.333 312.938 817.125 C 285.75 840.563 293.813 887.813 302.561 904.121 C 295.667 934.152 299.955 957.312 315.393 973.57 C 316.9 987.78 322.688 993.563 328.5 1001.25" fill="none" vector-effect="non-scaling-stroke" stroke-width="5" stroke="rgb(49,37,68)" stroke-linejoin="miter" stroke-linecap="square" stroke-miterlimit="3"/><circle vector-effect="non-scaling-stroke" cx="330.14062500000006" cy="1003.3906250000001" r="2.562499999999943" fill="rgb(49,37,68)"/><g><path d=" M 139.472 792.822 C 140.305 797.27 150.086 805.912 154.108 805.56 C 168.525 804.297 179.814 803.181 187.975 802.212 Q 196.29 801.224 199.205 784.038" fill="none" vector-effect="non-scaling-stroke" stroke-width="5" stroke="rgb(49,37,68)" stroke-linejoin="miter" stroke-linecap="square" stroke-miterlimit="3"/><path d=" M 136.467 790.534 C 136.467 789.134 137.603 787.998 139.003 787.998 C 140.403 787.998 141.539 789.134 141.539 790.534 C 141.539 791.934 140.403 793.07 139.003 793.07 C 137.603 793.07 136.467 791.934 136.467 790.534 Z " fill="rgb(49,37,68)"/><path d=" M 197.084 781.761 C 197.084 780.361 198.22 779.225 199.62 779.225 C 201.02 779.225 202.156 780.361 202.156 781.761 C 202.156 783.16 201.02 784.297 199.62 784.297 C 198.22 784.297 197.084 783.16 197.084 781.761 Z " fill="rgb(49,37,68)"/></g><g><path d=" M 599.705 810.822 C 598.872 815.27 589.091 823.912 585.068 823.56 C 570.652 822.297 559.363 821.181 551.202 820.212 Q 542.887 819.224 539.972 802.038" fill="none" vector-effect="non-scaling-stroke" stroke-width="5" stroke="rgb(49,37,68)" stroke-linejoin="miter" stroke-linecap="square" stroke-miterlimit="3"/><path d=" M 537.053 799.882 C 537.053 798.482 538.189 797.346 539.589 797.346 C 540.989 797.346 542.125 798.482 542.125 799.882 C 542.125 801.282 540.989 802.418 539.589 802.418 C 538.189 802.418 537.053 801.282 537.053 799.882 Z " fill="rgb(49,37,68)"/><path d=" M 597.678 808.257 C 597.678 806.857 598.814 805.721 600.214 805.721 C 601.614 805.721 602.75 806.857 602.75 808.257 C 602.75 809.657 601.614 810.793 600.214 810.793 C 598.814 810.793 597.678 809.657 597.678 808.257 Z " fill="rgb(49,37,68)"/></g></g><g><g><path d=" M 679.736 721.167 C 679.736 707.093 668.31 695.667 654.236 695.667 C 640.162 695.667 628.736 707.093 628.736 721.167 C 628.736 735.241 640.162 746.667 654.236 746.667 C 668.31 746.667 679.736 735.241 679.736 721.167 Z  M 672.736 725.417 C 671.081 718.851 664.178 717.847 653.986 720.417 C 643.794 722.986 638.831 727.101 640.486 733.667 C 642.141 740.233 648.959 745.024 659.151 742.454 C 669.343 739.885 674.391 731.983 672.736 725.417 Z " fill-rule="evenodd" fill="rgb(104,84,137)" vector-effect="non-scaling-stroke" stroke-width="5" stroke="rgb(49,37,68)" stroke-linejoin="miter" stroke-linecap="square" stroke-miterlimit="3"/><path d=" M 636.569 661.917 C 636.569 647.843 617.893 636.167 603.819 636.167 C 589.746 636.167 596.319 646.417 597.319 659.667 C 598.379 673.701 596.996 687.417 611.069 687.417 C 625.143 687.417 636.569 675.991 636.569 661.917 Z " fill="rgb(104,84,137)" vector-effect="non-scaling-stroke" stroke-width="5" stroke="rgb(49,37,68)" stroke-linejoin="miter" stroke-linecap="square" stroke-miterlimit="3"/><path d=" M 643.232 699.813 C 635.721 703.585 630.566 711.36 630.566 720.331 C 631.038 731.737 639.09 739.031 640.121 739.266 C 639.276 737.753 635.95 731.578 639.163 726.193 C 639.345 722.084 639.57 717.281 639.57 712.227 C 639.57 707.652 640.911 703.387 643.232 699.813 Z " fill="rgb(69,53,96)"/><path d=" M 602.106 638.812 C 600.562 639.067 598.965 639.047 597.981 640.406 C 596.996 641.766 598.194 648.941 599.153 659.25 C 600.278 672.375 599.23 685.266 611.903 685.266 C 620 685.266 628.733 672.438 625.031 672.438 C 612.358 672.438 602.07 662.149 602.07 649.477 Q 602.07 645.915 602.106 638.812 Z " fill="rgb(69,53,96)"/><path d=" M 664.486 686.917 C 664.486 672.843 653.06 661.417 638.986 661.417 C 624.912 661.417 613.486 672.843 613.486 686.917 C 613.486 700.991 624.912 712.417 638.986 712.417 C 653.06 712.417 664.486 700.991 664.486 686.917 Z " fill="rgb(104,84,137)" vector-effect="non-scaling-stroke" stroke-width="5" stroke="rgb(49,37,68)" stroke-linejoin="miter" stroke-linecap="square" stroke-miterlimit="3"/><path d=" M 628.482 666.563 C 620.971 670.335 615.816 678.11 615.816 687.081 C 615.816 699.753 626.104 710.042 638.777 710.042 C 646.874 710.042 653.997 705.841 658.076 699.495 C 654.981 701.06 651.483 701.938 647.781 701.938 C 635.108 701.938 624.82 691.649 624.82 678.977 C 624.82 674.402 626.161 670.137 628.482 666.563 Z " fill="rgb(69,53,96)"/></g><g><path d=" M 668.061 722.487 C 664.756 719.758 659.922 719.728 654.271 720.814 C 645.531 722.492 639.455 725.187 640.33 735.711 C 641.75 752.766 653.368 765.282 662.108 763.603 C 667.987 762.474 672.21 755.137 673.14 745.304 C 674.153 745.74 675.14 745.82 676.032 745.494 C 679.265 744.311 680.014 738.222 677.703 731.905 C 675.486 725.847 671.256 721.766 668.061 722.487 Z " fill-rule="evenodd" fill="rgb(255,155,131)" vector-effect="non-scaling-stroke" stroke-width="5" stroke="rgb(202,109,86)" stroke-linejoin="miter" stroke-linecap="square" stroke-miterlimit="3"/><path d=" M 653.205 723.375 C 646.129 724.894 641.345 727.506 642.079 736.334 C 643.337 751.452 653.636 762.546 661.383 761.058 C 663.44 760.663 665.269 759.41 666.778 757.498 C 659.57 756.283 651.46 746.094 650.352 732.789 C 649.972 728.221 651.069 725.317 653.205 723.375 Z " fill="rgb(174,95,75)"/><path d=" M 665.927 728.074 C 665.596 727.916 663.687 731.21 664.064 735.738 C 664.441 740.267 667.692 741.922 668.689 742.139 C 669.687 742.355 670.152 742.209 670.971 741.859 C 671.79 741.51 667.315 739.164 666.032 736.125 C 664.75 733.086 666.258 728.232 665.927 728.074 Z " fill="rgb(174,95,75)"/></g></g></g></svg>